%TF.GenerationSoftware,KiCad,Pcbnew,(5.1.12)-1*%
%TF.CreationDate,2023-06-07T09:52:28-07:00*%
%TF.ProjectId,hp breakout remote relay,68702062-7265-4616-9b6f-75742072656d,rev?*%
%TF.SameCoordinates,Original*%
%TF.FileFunction,Soldermask,Top*%
%TF.FilePolarity,Negative*%
%FSLAX46Y46*%
G04 Gerber Fmt 4.6, Leading zero omitted, Abs format (unit mm)*
G04 Created by KiCad (PCBNEW (5.1.12)-1) date 2023-06-07 09:52:28*
%MOMM*%
%LPD*%
G01*
G04 APERTURE LIST*
%ADD10C,2.002580*%
%ADD11O,2.002580X3.002580*%
%ADD12O,1.702580X1.702580*%
%ADD13O,2.502580X1.502580*%
G04 APERTURE END LIST*
D10*
%TO.C,J1*%
X93751400Y-97402000D03*
X96291400Y-97402000D03*
X98831400Y-97402000D03*
X101371400Y-97402000D03*
X103911400Y-97402000D03*
X106451400Y-97402000D03*
X108991400Y-97402000D03*
X111531400Y-97402000D03*
X114071400Y-97402000D03*
X116611400Y-97402000D03*
X119151400Y-97402000D03*
X121691400Y-97402000D03*
X124231400Y-97402000D03*
X126771400Y-97402000D03*
X129311400Y-97402000D03*
X131851400Y-97402000D03*
X134391400Y-97402000D03*
X136931400Y-97402000D03*
X139471400Y-97402000D03*
X142011400Y-97402000D03*
X144551400Y-97402000D03*
X147091400Y-97402000D03*
X149631400Y-97402000D03*
X152171400Y-97402000D03*
X154711400Y-97402000D03*
X157251400Y-97402000D03*
X159791400Y-97402000D03*
X162331400Y-97402000D03*
X164871400Y-97402000D03*
X167411400Y-97402000D03*
X169951400Y-97402000D03*
X172491400Y-97402000D03*
X172491400Y-102242000D03*
X169951400Y-102242000D03*
X167411400Y-102242000D03*
X164871400Y-102242000D03*
X162331400Y-102242000D03*
X159791400Y-102242000D03*
X157251400Y-102242000D03*
X154711400Y-102242000D03*
X152171400Y-102242000D03*
X149631400Y-102242000D03*
X147091400Y-102242000D03*
X144551400Y-102242000D03*
X142011400Y-102242000D03*
X139471400Y-102242000D03*
X136931400Y-102242000D03*
X134391400Y-102242000D03*
X131851400Y-102242000D03*
X129311400Y-102242000D03*
X126771400Y-102242000D03*
X124231400Y-102242000D03*
X121691400Y-102242000D03*
X119151400Y-102242000D03*
X116611400Y-102242000D03*
X114071400Y-102242000D03*
X111531400Y-102242000D03*
X108991400Y-102242000D03*
X106451400Y-102242000D03*
X103911400Y-102242000D03*
X101371400Y-102242000D03*
X98831400Y-102242000D03*
X96291400Y-102242000D03*
G36*
G01*
X92750110Y-103242000D02*
X92750110Y-101242000D01*
G75*
G02*
X92751400Y-101240710I1290J0D01*
G01*
X94751400Y-101240710D01*
G75*
G02*
X94752690Y-101242000I0J-1290D01*
G01*
X94752690Y-103242000D01*
G75*
G02*
X94751400Y-103243290I-1290J0D01*
G01*
X92751400Y-103243290D01*
G75*
G02*
X92750110Y-103242000I0J1290D01*
G01*
G37*
%TD*%
D11*
%TO.C,J2*%
X138600000Y-67400000D03*
X132250000Y-67400000D03*
X125900000Y-67400000D03*
X119550000Y-67400000D03*
X113200000Y-67400000D03*
X106850000Y-67400000D03*
X100500000Y-67400000D03*
X94150000Y-67400000D03*
%TD*%
%TO.C,U2*%
G36*
G01*
X178196500Y-73444710D02*
X179196500Y-73444710D01*
G75*
G02*
X179197790Y-73446000I0J-1290D01*
G01*
X179197790Y-75946000D01*
G75*
G02*
X179196500Y-75947290I-1290J0D01*
G01*
X178196500Y-75947290D01*
G75*
G02*
X178195210Y-75946000I0J1290D01*
G01*
X178195210Y-73446000D01*
G75*
G02*
X178196500Y-73444710I1290J0D01*
G01*
G37*
G36*
G01*
X176196500Y-73444710D02*
X177196500Y-73444710D01*
G75*
G02*
X177197790Y-73446000I0J-1290D01*
G01*
X177197790Y-75946000D01*
G75*
G02*
X177196500Y-75947290I-1290J0D01*
G01*
X176196500Y-75947290D01*
G75*
G02*
X176195210Y-75946000I0J1290D01*
G01*
X176195210Y-73446000D01*
G75*
G02*
X176196500Y-73444710I1290J0D01*
G01*
G37*
G36*
G01*
X174196500Y-73444710D02*
X175196500Y-73444710D01*
G75*
G02*
X175197790Y-73446000I0J-1290D01*
G01*
X175197790Y-75946000D01*
G75*
G02*
X175196500Y-75947290I-1290J0D01*
G01*
X174196500Y-75947290D01*
G75*
G02*
X174195210Y-75946000I0J1290D01*
G01*
X174195210Y-73446000D01*
G75*
G02*
X174196500Y-73444710I1290J0D01*
G01*
G37*
G36*
G01*
X172196500Y-73444710D02*
X173196500Y-73444710D01*
G75*
G02*
X173197790Y-73446000I0J-1290D01*
G01*
X173197790Y-75946000D01*
G75*
G02*
X173196500Y-75947290I-1290J0D01*
G01*
X172196500Y-75947290D01*
G75*
G02*
X172195210Y-75946000I0J1290D01*
G01*
X172195210Y-73446000D01*
G75*
G02*
X172196500Y-73444710I1290J0D01*
G01*
G37*
G36*
G01*
X170196500Y-73444710D02*
X171196500Y-73444710D01*
G75*
G02*
X171197790Y-73446000I0J-1290D01*
G01*
X171197790Y-75946000D01*
G75*
G02*
X171196500Y-75947290I-1290J0D01*
G01*
X170196500Y-75947290D01*
G75*
G02*
X170195210Y-75946000I0J1290D01*
G01*
X170195210Y-73446000D01*
G75*
G02*
X170196500Y-73444710I1290J0D01*
G01*
G37*
G36*
G01*
X168196500Y-73444710D02*
X169196500Y-73444710D01*
G75*
G02*
X169197790Y-73446000I0J-1290D01*
G01*
X169197790Y-75946000D01*
G75*
G02*
X169196500Y-75947290I-1290J0D01*
G01*
X168196500Y-75947290D01*
G75*
G02*
X168195210Y-75946000I0J1290D01*
G01*
X168195210Y-73446000D01*
G75*
G02*
X168196500Y-73444710I1290J0D01*
G01*
G37*
G36*
G01*
X166196500Y-73444710D02*
X167196500Y-73444710D01*
G75*
G02*
X167197790Y-73446000I0J-1290D01*
G01*
X167197790Y-75946000D01*
G75*
G02*
X167196500Y-75947290I-1290J0D01*
G01*
X166196500Y-75947290D01*
G75*
G02*
X166195210Y-75946000I0J1290D01*
G01*
X166195210Y-73446000D01*
G75*
G02*
X166196500Y-73444710I1290J0D01*
G01*
G37*
G36*
G01*
X164196500Y-73444710D02*
X165196500Y-73444710D01*
G75*
G02*
X165197790Y-73446000I0J-1290D01*
G01*
X165197790Y-75946000D01*
G75*
G02*
X165196500Y-75947290I-1290J0D01*
G01*
X164196500Y-75947290D01*
G75*
G02*
X164195210Y-75946000I0J1290D01*
G01*
X164195210Y-73446000D01*
G75*
G02*
X164196500Y-73444710I1290J0D01*
G01*
G37*
G36*
G01*
X162296500Y-76794710D02*
X164096500Y-76794710D01*
G75*
G02*
X164097790Y-76796000I0J-1290D01*
G01*
X164097790Y-77796000D01*
G75*
G02*
X164096500Y-77797290I-1290J0D01*
G01*
X162296500Y-77797290D01*
G75*
G02*
X162295210Y-77796000I0J1290D01*
G01*
X162295210Y-76796000D01*
G75*
G02*
X162296500Y-76794710I1290J0D01*
G01*
G37*
G36*
G01*
X162296500Y-78794710D02*
X164096500Y-78794710D01*
G75*
G02*
X164097790Y-78796000I0J-1290D01*
G01*
X164097790Y-79796000D01*
G75*
G02*
X164096500Y-79797290I-1290J0D01*
G01*
X162296500Y-79797290D01*
G75*
G02*
X162295210Y-79796000I0J1290D01*
G01*
X162295210Y-78796000D01*
G75*
G02*
X162296500Y-78794710I1290J0D01*
G01*
G37*
G36*
G01*
X162296500Y-80794710D02*
X164096500Y-80794710D01*
G75*
G02*
X164097790Y-80796000I0J-1290D01*
G01*
X164097790Y-81796000D01*
G75*
G02*
X164096500Y-81797290I-1290J0D01*
G01*
X162296500Y-81797290D01*
G75*
G02*
X162295210Y-81796000I0J1290D01*
G01*
X162295210Y-80796000D01*
G75*
G02*
X162296500Y-80794710I1290J0D01*
G01*
G37*
G36*
G01*
X162296500Y-82794710D02*
X164096500Y-82794710D01*
G75*
G02*
X164097790Y-82796000I0J-1290D01*
G01*
X164097790Y-83796000D01*
G75*
G02*
X164096500Y-83797290I-1290J0D01*
G01*
X162296500Y-83797290D01*
G75*
G02*
X162295210Y-83796000I0J1290D01*
G01*
X162295210Y-82796000D01*
G75*
G02*
X162296500Y-82794710I1290J0D01*
G01*
G37*
G36*
G01*
X162296500Y-84794710D02*
X164096500Y-84794710D01*
G75*
G02*
X164097790Y-84796000I0J-1290D01*
G01*
X164097790Y-85796000D01*
G75*
G02*
X164096500Y-85797290I-1290J0D01*
G01*
X162296500Y-85797290D01*
G75*
G02*
X162295210Y-85796000I0J1290D01*
G01*
X162295210Y-84796000D01*
G75*
G02*
X162296500Y-84794710I1290J0D01*
G01*
G37*
G36*
G01*
X162296500Y-86794710D02*
X164096500Y-86794710D01*
G75*
G02*
X164097790Y-86796000I0J-1290D01*
G01*
X164097790Y-87796000D01*
G75*
G02*
X164096500Y-87797290I-1290J0D01*
G01*
X162296500Y-87797290D01*
G75*
G02*
X162295210Y-87796000I0J1290D01*
G01*
X162295210Y-86796000D01*
G75*
G02*
X162296500Y-86794710I1290J0D01*
G01*
G37*
G36*
G01*
X164196500Y-88644710D02*
X165196500Y-88644710D01*
G75*
G02*
X165197790Y-88646000I0J-1290D01*
G01*
X165197790Y-91146000D01*
G75*
G02*
X165196500Y-91147290I-1290J0D01*
G01*
X164196500Y-91147290D01*
G75*
G02*
X164195210Y-91146000I0J1290D01*
G01*
X164195210Y-88646000D01*
G75*
G02*
X164196500Y-88644710I1290J0D01*
G01*
G37*
G36*
G01*
X166196500Y-88644710D02*
X167196500Y-88644710D01*
G75*
G02*
X167197790Y-88646000I0J-1290D01*
G01*
X167197790Y-91146000D01*
G75*
G02*
X167196500Y-91147290I-1290J0D01*
G01*
X166196500Y-91147290D01*
G75*
G02*
X166195210Y-91146000I0J1290D01*
G01*
X166195210Y-88646000D01*
G75*
G02*
X166196500Y-88644710I1290J0D01*
G01*
G37*
G36*
G01*
X168196500Y-88644710D02*
X169196500Y-88644710D01*
G75*
G02*
X169197790Y-88646000I0J-1290D01*
G01*
X169197790Y-91146000D01*
G75*
G02*
X169196500Y-91147290I-1290J0D01*
G01*
X168196500Y-91147290D01*
G75*
G02*
X168195210Y-91146000I0J1290D01*
G01*
X168195210Y-88646000D01*
G75*
G02*
X168196500Y-88644710I1290J0D01*
G01*
G37*
G36*
G01*
X170196500Y-88644710D02*
X171196500Y-88644710D01*
G75*
G02*
X171197790Y-88646000I0J-1290D01*
G01*
X171197790Y-91146000D01*
G75*
G02*
X171196500Y-91147290I-1290J0D01*
G01*
X170196500Y-91147290D01*
G75*
G02*
X170195210Y-91146000I0J1290D01*
G01*
X170195210Y-88646000D01*
G75*
G02*
X170196500Y-88644710I1290J0D01*
G01*
G37*
G36*
G01*
X172196500Y-88644710D02*
X173196500Y-88644710D01*
G75*
G02*
X173197790Y-88646000I0J-1290D01*
G01*
X173197790Y-91146000D01*
G75*
G02*
X173196500Y-91147290I-1290J0D01*
G01*
X172196500Y-91147290D01*
G75*
G02*
X172195210Y-91146000I0J1290D01*
G01*
X172195210Y-88646000D01*
G75*
G02*
X172196500Y-88644710I1290J0D01*
G01*
G37*
G36*
G01*
X174196500Y-88644710D02*
X175196500Y-88644710D01*
G75*
G02*
X175197790Y-88646000I0J-1290D01*
G01*
X175197790Y-91146000D01*
G75*
G02*
X175196500Y-91147290I-1290J0D01*
G01*
X174196500Y-91147290D01*
G75*
G02*
X174195210Y-91146000I0J1290D01*
G01*
X174195210Y-88646000D01*
G75*
G02*
X174196500Y-88644710I1290J0D01*
G01*
G37*
G36*
G01*
X176196500Y-88644710D02*
X177196500Y-88644710D01*
G75*
G02*
X177197790Y-88646000I0J-1290D01*
G01*
X177197790Y-91146000D01*
G75*
G02*
X177196500Y-91147290I-1290J0D01*
G01*
X176196500Y-91147290D01*
G75*
G02*
X176195210Y-91146000I0J1290D01*
G01*
X176195210Y-88646000D01*
G75*
G02*
X176196500Y-88644710I1290J0D01*
G01*
G37*
G36*
G01*
X178196500Y-88644710D02*
X179196500Y-88644710D01*
G75*
G02*
X179197790Y-88646000I0J-1290D01*
G01*
X179197790Y-91146000D01*
G75*
G02*
X179196500Y-91147290I-1290J0D01*
G01*
X178196500Y-91147290D01*
G75*
G02*
X178195210Y-91146000I0J1290D01*
G01*
X178195210Y-88646000D01*
G75*
G02*
X178196500Y-88644710I1290J0D01*
G01*
G37*
%TD*%
%TO.C,C1*%
G36*
G01*
X157285710Y-75009305D02*
X157285710Y-73707695D01*
G75*
G02*
X157536195Y-73457210I250485J0D01*
G01*
X158362805Y-73457210D01*
G75*
G02*
X158613290Y-73707695I0J-250485D01*
G01*
X158613290Y-75009305D01*
G75*
G02*
X158362805Y-75259790I-250485J0D01*
G01*
X157536195Y-75259790D01*
G75*
G02*
X157285710Y-75009305I0J250485D01*
G01*
G37*
G36*
G01*
X160410710Y-75009305D02*
X160410710Y-73707695D01*
G75*
G02*
X160661195Y-73457210I250485J0D01*
G01*
X161487805Y-73457210D01*
G75*
G02*
X161738290Y-73707695I0J-250485D01*
G01*
X161738290Y-75009305D01*
G75*
G02*
X161487805Y-75259790I-250485J0D01*
G01*
X160661195Y-75259790D01*
G75*
G02*
X160410710Y-75009305I0J250485D01*
G01*
G37*
%TD*%
%TO.C,C2*%
G36*
G01*
X160410710Y-77422305D02*
X160410710Y-76120695D01*
G75*
G02*
X160661195Y-75870210I250485J0D01*
G01*
X161487805Y-75870210D01*
G75*
G02*
X161738290Y-76120695I0J-250485D01*
G01*
X161738290Y-77422305D01*
G75*
G02*
X161487805Y-77672790I-250485J0D01*
G01*
X160661195Y-77672790D01*
G75*
G02*
X160410710Y-77422305I0J250485D01*
G01*
G37*
G36*
G01*
X157285710Y-77422305D02*
X157285710Y-76120695D01*
G75*
G02*
X157536195Y-75870210I250485J0D01*
G01*
X158362805Y-75870210D01*
G75*
G02*
X158613290Y-76120695I0J-250485D01*
G01*
X158613290Y-77422305D01*
G75*
G02*
X158362805Y-77672790I-250485J0D01*
G01*
X157536195Y-77672790D01*
G75*
G02*
X157285710Y-77422305I0J250485D01*
G01*
G37*
%TD*%
%TO.C,CaseFan1*%
G36*
G01*
X145630000Y-71590290D02*
X143930000Y-71590290D01*
G75*
G02*
X143928710Y-71589000I0J1290D01*
G01*
X143928710Y-69889000D01*
G75*
G02*
X143930000Y-69887710I1290J0D01*
G01*
X145630000Y-69887710D01*
G75*
G02*
X145631290Y-69889000I0J-1290D01*
G01*
X145631290Y-71589000D01*
G75*
G02*
X145630000Y-71590290I-1290J0D01*
G01*
G37*
D12*
X147320000Y-70739000D03*
X149860000Y-70739000D03*
%TD*%
%TO.C,J3*%
G36*
G01*
X177248710Y-96303200D02*
X177248710Y-94603200D01*
G75*
G02*
X177250000Y-94601910I1290J0D01*
G01*
X178950000Y-94601910D01*
G75*
G02*
X178951290Y-94603200I0J-1290D01*
G01*
X178951290Y-96303200D01*
G75*
G02*
X178950000Y-96304490I-1290J0D01*
G01*
X177250000Y-96304490D01*
G75*
G02*
X177248710Y-96303200I0J1290D01*
G01*
G37*
X178100000Y-97993200D03*
X178100000Y-100533200D03*
X178100000Y-103073200D03*
%TD*%
%TO.C,J4*%
G36*
G01*
X177010000Y-69248710D02*
X178710000Y-69248710D01*
G75*
G02*
X178711290Y-69250000I0J-1290D01*
G01*
X178711290Y-70950000D01*
G75*
G02*
X178710000Y-70951290I-1290J0D01*
G01*
X177010000Y-70951290D01*
G75*
G02*
X177008710Y-70950000I0J1290D01*
G01*
X177008710Y-69250000D01*
G75*
G02*
X177010000Y-69248710I1290J0D01*
G01*
G37*
X175320000Y-70100000D03*
X172780000Y-70100000D03*
X170240000Y-70100000D03*
X167700000Y-70100000D03*
X165160000Y-70100000D03*
%TD*%
%TO.C,Q1*%
G36*
G01*
X159338000Y-66472490D02*
X158538000Y-66472490D01*
G75*
G02*
X158536710Y-66471200I0J1290D01*
G01*
X158536710Y-65571200D01*
G75*
G02*
X158538000Y-65569910I1290J0D01*
G01*
X159338000Y-65569910D01*
G75*
G02*
X159339290Y-65571200I0J-1290D01*
G01*
X159339290Y-66471200D01*
G75*
G02*
X159338000Y-66472490I-1290J0D01*
G01*
G37*
G36*
G01*
X160288000Y-68472490D02*
X159488000Y-68472490D01*
G75*
G02*
X159486710Y-68471200I0J1290D01*
G01*
X159486710Y-67571200D01*
G75*
G02*
X159488000Y-67569910I1290J0D01*
G01*
X160288000Y-67569910D01*
G75*
G02*
X160289290Y-67571200I0J-1290D01*
G01*
X160289290Y-68471200D01*
G75*
G02*
X160288000Y-68472490I-1290J0D01*
G01*
G37*
G36*
G01*
X158388000Y-68472490D02*
X157588000Y-68472490D01*
G75*
G02*
X157586710Y-68471200I0J1290D01*
G01*
X157586710Y-67571200D01*
G75*
G02*
X157588000Y-67569910I1290J0D01*
G01*
X158388000Y-67569910D01*
G75*
G02*
X158389290Y-67571200I0J-1290D01*
G01*
X158389290Y-68471200D01*
G75*
G02*
X158388000Y-68472490I-1290J0D01*
G01*
G37*
%TD*%
%TO.C,Q2*%
G36*
G01*
X159477800Y-69135310D02*
X160277800Y-69135310D01*
G75*
G02*
X160279090Y-69136600I0J-1290D01*
G01*
X160279090Y-70036600D01*
G75*
G02*
X160277800Y-70037890I-1290J0D01*
G01*
X159477800Y-70037890D01*
G75*
G02*
X159476510Y-70036600I0J1290D01*
G01*
X159476510Y-69136600D01*
G75*
G02*
X159477800Y-69135310I1290J0D01*
G01*
G37*
G36*
G01*
X157577800Y-69135310D02*
X158377800Y-69135310D01*
G75*
G02*
X158379090Y-69136600I0J-1290D01*
G01*
X158379090Y-70036600D01*
G75*
G02*
X158377800Y-70037890I-1290J0D01*
G01*
X157577800Y-70037890D01*
G75*
G02*
X157576510Y-70036600I0J1290D01*
G01*
X157576510Y-69136600D01*
G75*
G02*
X157577800Y-69135310I1290J0D01*
G01*
G37*
G36*
G01*
X158527800Y-71135310D02*
X159327800Y-71135310D01*
G75*
G02*
X159329090Y-71136600I0J-1290D01*
G01*
X159329090Y-72036600D01*
G75*
G02*
X159327800Y-72037890I-1290J0D01*
G01*
X158527800Y-72037890D01*
G75*
G02*
X158526510Y-72036600I0J1290D01*
G01*
X158526510Y-71136600D01*
G75*
G02*
X158527800Y-71135310I1290J0D01*
G01*
G37*
%TD*%
%TO.C,R3*%
G36*
G01*
X163069090Y-92649246D02*
X163069090Y-93550754D01*
G75*
G02*
X162818554Y-93801290I-250536J0D01*
G01*
X162117046Y-93801290D01*
G75*
G02*
X161866510Y-93550754I0J250536D01*
G01*
X161866510Y-92649246D01*
G75*
G02*
X162117046Y-92398710I250536J0D01*
G01*
X162818554Y-92398710D01*
G75*
G02*
X163069090Y-92649246I0J-250536D01*
G01*
G37*
G36*
G01*
X161069090Y-92649246D02*
X161069090Y-93550754D01*
G75*
G02*
X160818554Y-93801290I-250536J0D01*
G01*
X160117046Y-93801290D01*
G75*
G02*
X159866510Y-93550754I0J250536D01*
G01*
X159866510Y-92649246D01*
G75*
G02*
X160117046Y-92398710I250536J0D01*
G01*
X160818554Y-92398710D01*
G75*
G02*
X161069090Y-92649246I0J-250536D01*
G01*
G37*
%TD*%
%TO.C,R10*%
G36*
G01*
X167310890Y-92749246D02*
X167310890Y-93650754D01*
G75*
G02*
X167060354Y-93901290I-250536J0D01*
G01*
X166358846Y-93901290D01*
G75*
G02*
X166108310Y-93650754I0J250536D01*
G01*
X166108310Y-92749246D01*
G75*
G02*
X166358846Y-92498710I250536J0D01*
G01*
X167060354Y-92498710D01*
G75*
G02*
X167310890Y-92749246I0J-250536D01*
G01*
G37*
G36*
G01*
X165310890Y-92749246D02*
X165310890Y-93650754D01*
G75*
G02*
X165060354Y-93901290I-250536J0D01*
G01*
X164358846Y-93901290D01*
G75*
G02*
X164108310Y-93650754I0J250536D01*
G01*
X164108310Y-92749246D01*
G75*
G02*
X164358846Y-92498710I250536J0D01*
G01*
X165060354Y-92498710D01*
G75*
G02*
X165310890Y-92749246I0J-250536D01*
G01*
G37*
%TD*%
%TO.C,R11*%
G36*
G01*
X162274154Y-68435290D02*
X161372646Y-68435290D01*
G75*
G02*
X161122110Y-68184754I0J250536D01*
G01*
X161122110Y-67483246D01*
G75*
G02*
X161372646Y-67232710I250536J0D01*
G01*
X162274154Y-67232710D01*
G75*
G02*
X162524690Y-67483246I0J-250536D01*
G01*
X162524690Y-68184754D01*
G75*
G02*
X162274154Y-68435290I-250536J0D01*
G01*
G37*
G36*
G01*
X162274154Y-70435290D02*
X161372646Y-70435290D01*
G75*
G02*
X161122110Y-70184754I0J250536D01*
G01*
X161122110Y-69483246D01*
G75*
G02*
X161372646Y-69232710I250536J0D01*
G01*
X162274154Y-69232710D01*
G75*
G02*
X162524690Y-69483246I0J-250536D01*
G01*
X162524690Y-70184754D01*
G75*
G02*
X162274154Y-70435290I-250536J0D01*
G01*
G37*
%TD*%
%TO.C,R12*%
G36*
G01*
X155505246Y-67959910D02*
X156406754Y-67959910D01*
G75*
G02*
X156657290Y-68210446I0J-250536D01*
G01*
X156657290Y-68911954D01*
G75*
G02*
X156406754Y-69162490I-250536J0D01*
G01*
X155505246Y-69162490D01*
G75*
G02*
X155254710Y-68911954I0J250536D01*
G01*
X155254710Y-68210446D01*
G75*
G02*
X155505246Y-67959910I250536J0D01*
G01*
G37*
G36*
G01*
X155505246Y-69959910D02*
X156406754Y-69959910D01*
G75*
G02*
X156657290Y-70210446I0J-250536D01*
G01*
X156657290Y-70911954D01*
G75*
G02*
X156406754Y-71162490I-250536J0D01*
G01*
X155505246Y-71162490D01*
G75*
G02*
X155254710Y-70911954I0J250536D01*
G01*
X155254710Y-70210446D01*
G75*
G02*
X155505246Y-69959910I250536J0D01*
G01*
G37*
%TD*%
%TO.C,SW1*%
G36*
G01*
X159648710Y-88750000D02*
X159648710Y-87050000D01*
G75*
G02*
X159650000Y-87048710I1290J0D01*
G01*
X160550000Y-87048710D01*
G75*
G02*
X160551290Y-87050000I0J-1290D01*
G01*
X160551290Y-88750000D01*
G75*
G02*
X160550000Y-88751290I-1290J0D01*
G01*
X159650000Y-88751290D01*
G75*
G02*
X159648710Y-88750000I0J1290D01*
G01*
G37*
G36*
G01*
X156248710Y-88750000D02*
X156248710Y-87050000D01*
G75*
G02*
X156250000Y-87048710I1290J0D01*
G01*
X157150000Y-87048710D01*
G75*
G02*
X157151290Y-87050000I0J-1290D01*
G01*
X157151290Y-88750000D01*
G75*
G02*
X157150000Y-88751290I-1290J0D01*
G01*
X156250000Y-88751290D01*
G75*
G02*
X156248710Y-88750000I0J1290D01*
G01*
G37*
%TD*%
%TO.C,SW2*%
G36*
G01*
X160651290Y-81550000D02*
X160651290Y-83250000D01*
G75*
G02*
X160650000Y-83251290I-1290J0D01*
G01*
X159750000Y-83251290D01*
G75*
G02*
X159748710Y-83250000I0J1290D01*
G01*
X159748710Y-81550000D01*
G75*
G02*
X159750000Y-81548710I1290J0D01*
G01*
X160650000Y-81548710D01*
G75*
G02*
X160651290Y-81550000I0J-1290D01*
G01*
G37*
G36*
G01*
X157251290Y-81550000D02*
X157251290Y-83250000D01*
G75*
G02*
X157250000Y-83251290I-1290J0D01*
G01*
X156350000Y-83251290D01*
G75*
G02*
X156348710Y-83250000I0J1290D01*
G01*
X156348710Y-81550000D01*
G75*
G02*
X156350000Y-81548710I1290J0D01*
G01*
X157250000Y-81548710D01*
G75*
G02*
X157251290Y-81550000I0J-1290D01*
G01*
G37*
%TD*%
%TO.C,U1*%
G36*
G01*
X153777000Y-84952290D02*
X151277000Y-84952290D01*
G75*
G02*
X151275710Y-84951000I0J1290D01*
G01*
X151275710Y-83451000D01*
G75*
G02*
X151277000Y-83449710I1290J0D01*
G01*
X153777000Y-83449710D01*
G75*
G02*
X153778290Y-83451000I0J-1290D01*
G01*
X153778290Y-84951000D01*
G75*
G02*
X153777000Y-84952290I-1290J0D01*
G01*
G37*
D13*
X152527000Y-81661000D03*
X152527000Y-79121000D03*
%TD*%
M02*
