%TF.GenerationSoftware,KiCad,Pcbnew,(5.1.12)-1*%
%TF.CreationDate,2023-06-07T09:52:28-07:00*%
%TF.ProjectId,hp breakout remote relay,68702062-7265-4616-9b6f-75742072656d,rev?*%
%TF.SameCoordinates,Original*%
%TF.FileFunction,Paste,Bot*%
%TF.FilePolarity,Positive*%
%FSLAX46Y46*%
G04 Gerber Fmt 4.6, Leading zero omitted, Abs format (unit mm)*
G04 Created by KiCad (PCBNEW (5.1.12)-1) date 2023-06-07 09:52:28*
%MOMM*%
%LPD*%
G01*
G04 APERTURE LIST*
%ADD10R,0.800000X0.900000*%
G04 APERTURE END LIST*
%TO.C,F1*%
G36*
G01*
X152481000Y-64272500D02*
X152481000Y-67172500D01*
G75*
G02*
X152231000Y-67422500I-250000J0D01*
G01*
X151431000Y-67422500D01*
G75*
G02*
X151181000Y-67172500I0J250000D01*
G01*
X151181000Y-64272500D01*
G75*
G02*
X151431000Y-64022500I250000J0D01*
G01*
X152231000Y-64022500D01*
G75*
G02*
X152481000Y-64272500I0J-250000D01*
G01*
G37*
G36*
G01*
X148031000Y-64272500D02*
X148031000Y-67172500D01*
G75*
G02*
X147781000Y-67422500I-250000J0D01*
G01*
X146981000Y-67422500D01*
G75*
G02*
X146731000Y-67172500I0J250000D01*
G01*
X146731000Y-64272500D01*
G75*
G02*
X146981000Y-64022500I250000J0D01*
G01*
X147781000Y-64022500D01*
G75*
G02*
X148031000Y-64272500I0J-250000D01*
G01*
G37*
%TD*%
D10*
%TO.C,Q3*%
X145349000Y-75295000D03*
X143449000Y-75295000D03*
X144399000Y-73295000D03*
%TD*%
%TO.C,R1*%
G36*
G01*
X170237200Y-92717199D02*
X170237200Y-93617201D01*
G75*
G02*
X169987201Y-93867200I-249999J0D01*
G01*
X169287199Y-93867200D01*
G75*
G02*
X169037200Y-93617201I0J249999D01*
G01*
X169037200Y-92717199D01*
G75*
G02*
X169287199Y-92467200I249999J0D01*
G01*
X169987201Y-92467200D01*
G75*
G02*
X170237200Y-92717199I0J-249999D01*
G01*
G37*
G36*
G01*
X172237200Y-92717199D02*
X172237200Y-93617201D01*
G75*
G02*
X171987201Y-93867200I-249999J0D01*
G01*
X171287199Y-93867200D01*
G75*
G02*
X171037200Y-93617201I0J249999D01*
G01*
X171037200Y-92717199D01*
G75*
G02*
X171287199Y-92467200I249999J0D01*
G01*
X171987201Y-92467200D01*
G75*
G02*
X172237200Y-92717199I0J-249999D01*
G01*
G37*
%TD*%
%TO.C,R2*%
G36*
G01*
X176098000Y-92717199D02*
X176098000Y-93617201D01*
G75*
G02*
X175848001Y-93867200I-249999J0D01*
G01*
X175147999Y-93867200D01*
G75*
G02*
X174898000Y-93617201I0J249999D01*
G01*
X174898000Y-92717199D01*
G75*
G02*
X175147999Y-92467200I249999J0D01*
G01*
X175848001Y-92467200D01*
G75*
G02*
X176098000Y-92717199I0J-249999D01*
G01*
G37*
G36*
G01*
X174098000Y-92717199D02*
X174098000Y-93617201D01*
G75*
G02*
X173848001Y-93867200I-249999J0D01*
G01*
X173147999Y-93867200D01*
G75*
G02*
X172898000Y-93617201I0J249999D01*
G01*
X172898000Y-92717199D01*
G75*
G02*
X173147999Y-92467200I249999J0D01*
G01*
X173848001Y-92467200D01*
G75*
G02*
X174098000Y-92717199I0J-249999D01*
G01*
G37*
%TD*%
%TO.C,R4*%
G36*
G01*
X159200000Y-89649999D02*
X159200000Y-90550001D01*
G75*
G02*
X158950001Y-90800000I-249999J0D01*
G01*
X158249999Y-90800000D01*
G75*
G02*
X158000000Y-90550001I0J249999D01*
G01*
X158000000Y-89649999D01*
G75*
G02*
X158249999Y-89400000I249999J0D01*
G01*
X158950001Y-89400000D01*
G75*
G02*
X159200000Y-89649999I0J-249999D01*
G01*
G37*
G36*
G01*
X161200000Y-89649999D02*
X161200000Y-90550001D01*
G75*
G02*
X160950001Y-90800000I-249999J0D01*
G01*
X160249999Y-90800000D01*
G75*
G02*
X160000000Y-90550001I0J249999D01*
G01*
X160000000Y-89649999D01*
G75*
G02*
X160249999Y-89400000I249999J0D01*
G01*
X160950001Y-89400000D01*
G75*
G02*
X161200000Y-89649999I0J-249999D01*
G01*
G37*
%TD*%
%TO.C,R5*%
G36*
G01*
X175202001Y-78054000D02*
X174301999Y-78054000D01*
G75*
G02*
X174052000Y-77804001I0J249999D01*
G01*
X174052000Y-77103999D01*
G75*
G02*
X174301999Y-76854000I249999J0D01*
G01*
X175202001Y-76854000D01*
G75*
G02*
X175452000Y-77103999I0J-249999D01*
G01*
X175452000Y-77804001D01*
G75*
G02*
X175202001Y-78054000I-249999J0D01*
G01*
G37*
G36*
G01*
X175202001Y-76054000D02*
X174301999Y-76054000D01*
G75*
G02*
X174052000Y-75804001I0J249999D01*
G01*
X174052000Y-75103999D01*
G75*
G02*
X174301999Y-74854000I249999J0D01*
G01*
X175202001Y-74854000D01*
G75*
G02*
X175452000Y-75103999I0J-249999D01*
G01*
X175452000Y-75804001D01*
G75*
G02*
X175202001Y-76054000I-249999J0D01*
G01*
G37*
%TD*%
%TO.C,R6*%
G36*
G01*
X179164401Y-76054000D02*
X178264399Y-76054000D01*
G75*
G02*
X178014400Y-75804001I0J249999D01*
G01*
X178014400Y-75103999D01*
G75*
G02*
X178264399Y-74854000I249999J0D01*
G01*
X179164401Y-74854000D01*
G75*
G02*
X179414400Y-75103999I0J-249999D01*
G01*
X179414400Y-75804001D01*
G75*
G02*
X179164401Y-76054000I-249999J0D01*
G01*
G37*
G36*
G01*
X179164401Y-78054000D02*
X178264399Y-78054000D01*
G75*
G02*
X178014400Y-77804001I0J249999D01*
G01*
X178014400Y-77103999D01*
G75*
G02*
X178264399Y-76854000I249999J0D01*
G01*
X179164401Y-76854000D01*
G75*
G02*
X179414400Y-77103999I0J-249999D01*
G01*
X179414400Y-77804001D01*
G75*
G02*
X179164401Y-78054000I-249999J0D01*
G01*
G37*
%TD*%
%TO.C,R7*%
G36*
G01*
X159962800Y-88334001D02*
X159962800Y-87433999D01*
G75*
G02*
X160212799Y-87184000I249999J0D01*
G01*
X160912801Y-87184000D01*
G75*
G02*
X161162800Y-87433999I0J-249999D01*
G01*
X161162800Y-88334001D01*
G75*
G02*
X160912801Y-88584000I-249999J0D01*
G01*
X160212799Y-88584000D01*
G75*
G02*
X159962800Y-88334001I0J249999D01*
G01*
G37*
G36*
G01*
X157962800Y-88334001D02*
X157962800Y-87433999D01*
G75*
G02*
X158212799Y-87184000I249999J0D01*
G01*
X158912801Y-87184000D01*
G75*
G02*
X159162800Y-87433999I0J-249999D01*
G01*
X159162800Y-88334001D01*
G75*
G02*
X158912801Y-88584000I-249999J0D01*
G01*
X158212799Y-88584000D01*
G75*
G02*
X157962800Y-88334001I0J249999D01*
G01*
G37*
%TD*%
%TO.C,R8*%
G36*
G01*
X159962800Y-86302001D02*
X159962800Y-85401999D01*
G75*
G02*
X160212799Y-85152000I249999J0D01*
G01*
X160912801Y-85152000D01*
G75*
G02*
X161162800Y-85401999I0J-249999D01*
G01*
X161162800Y-86302001D01*
G75*
G02*
X160912801Y-86552000I-249999J0D01*
G01*
X160212799Y-86552000D01*
G75*
G02*
X159962800Y-86302001I0J249999D01*
G01*
G37*
G36*
G01*
X157962800Y-86302001D02*
X157962800Y-85401999D01*
G75*
G02*
X158212799Y-85152000I249999J0D01*
G01*
X158912801Y-85152000D01*
G75*
G02*
X159162800Y-85401999I0J-249999D01*
G01*
X159162800Y-86302001D01*
G75*
G02*
X158912801Y-86552000I-249999J0D01*
G01*
X158212799Y-86552000D01*
G75*
G02*
X157962800Y-86302001I0J249999D01*
G01*
G37*
%TD*%
%TO.C,R9*%
G36*
G01*
X157962800Y-84320801D02*
X157962800Y-83420799D01*
G75*
G02*
X158212799Y-83170800I249999J0D01*
G01*
X158912801Y-83170800D01*
G75*
G02*
X159162800Y-83420799I0J-249999D01*
G01*
X159162800Y-84320801D01*
G75*
G02*
X158912801Y-84570800I-249999J0D01*
G01*
X158212799Y-84570800D01*
G75*
G02*
X157962800Y-84320801I0J249999D01*
G01*
G37*
G36*
G01*
X159962800Y-84320801D02*
X159962800Y-83420799D01*
G75*
G02*
X160212799Y-83170800I249999J0D01*
G01*
X160912801Y-83170800D01*
G75*
G02*
X161162800Y-83420799I0J-249999D01*
G01*
X161162800Y-84320801D01*
G75*
G02*
X160912801Y-84570800I-249999J0D01*
G01*
X160212799Y-84570800D01*
G75*
G02*
X159962800Y-84320801I0J249999D01*
G01*
G37*
%TD*%
%TO.C,R13*%
G36*
G01*
X146990000Y-75684801D02*
X146990000Y-74784799D01*
G75*
G02*
X147239999Y-74534800I249999J0D01*
G01*
X147940001Y-74534800D01*
G75*
G02*
X148190000Y-74784799I0J-249999D01*
G01*
X148190000Y-75684801D01*
G75*
G02*
X147940001Y-75934800I-249999J0D01*
G01*
X147239999Y-75934800D01*
G75*
G02*
X146990000Y-75684801I0J249999D01*
G01*
G37*
G36*
G01*
X148990000Y-75684801D02*
X148990000Y-74784799D01*
G75*
G02*
X149239999Y-74534800I249999J0D01*
G01*
X149940001Y-74534800D01*
G75*
G02*
X150190000Y-74784799I0J-249999D01*
G01*
X150190000Y-75684801D01*
G75*
G02*
X149940001Y-75934800I-249999J0D01*
G01*
X149239999Y-75934800D01*
G75*
G02*
X148990000Y-75684801I0J249999D01*
G01*
G37*
%TD*%
M02*
