%TF.GenerationSoftware,KiCad,Pcbnew,(5.1.12)-1*%
%TF.CreationDate,2023-06-07T09:52:28-07:00*%
%TF.ProjectId,hp breakout remote relay,68702062-7265-4616-9b6f-75742072656d,rev?*%
%TF.SameCoordinates,Original*%
%TF.FileFunction,Copper,L2,Bot*%
%TF.FilePolarity,Positive*%
%FSLAX46Y46*%
G04 Gerber Fmt 4.6, Leading zero omitted, Abs format (unit mm)*
G04 Created by KiCad (PCBNEW (5.1.12)-1) date 2023-06-07 09:52:28*
%MOMM*%
%LPD*%
G01*
G04 APERTURE LIST*
%TA.AperFunction,ComponentPad*%
%ADD10C,2.000000*%
%TD*%
%TA.AperFunction,ComponentPad*%
%ADD11R,2.000000X2.000000*%
%TD*%
%TA.AperFunction,ComponentPad*%
%ADD12O,2.000000X3.000000*%
%TD*%
%TA.AperFunction,ComponentPad*%
%ADD13R,1.700000X1.700000*%
%TD*%
%TA.AperFunction,ComponentPad*%
%ADD14O,1.700000X1.700000*%
%TD*%
%TA.AperFunction,SMDPad,CuDef*%
%ADD15R,0.800000X0.900000*%
%TD*%
%TA.AperFunction,ComponentPad*%
%ADD16R,2.500000X1.500000*%
%TD*%
%TA.AperFunction,ComponentPad*%
%ADD17O,2.500000X1.500000*%
%TD*%
%TA.AperFunction,ViaPad*%
%ADD18C,0.800000*%
%TD*%
%TA.AperFunction,Conductor*%
%ADD19C,0.200000*%
%TD*%
%TA.AperFunction,Conductor*%
%ADD20C,0.750000*%
%TD*%
%TA.AperFunction,Conductor*%
%ADD21C,0.500000*%
%TD*%
%TA.AperFunction,Conductor*%
%ADD22C,0.250000*%
%TD*%
%TA.AperFunction,Conductor*%
%ADD23C,0.254000*%
%TD*%
%TA.AperFunction,Conductor*%
%ADD24C,0.100000*%
%TD*%
G04 APERTURE END LIST*
D10*
%TO.P,J1,64*%
%TO.N,+12V*%
X93751400Y-97402000D03*
%TO.P,J1,63*%
X96291400Y-97402000D03*
%TO.P,J1,62*%
X98831400Y-97402000D03*
%TO.P,J1,61*%
X101371400Y-97402000D03*
%TO.P,J1,60*%
X103911400Y-97402000D03*
%TO.P,J1,59*%
X106451400Y-97402000D03*
%TO.P,J1,58*%
X108991400Y-97402000D03*
%TO.P,J1,57*%
X111531400Y-97402000D03*
%TO.P,J1,56*%
X114071400Y-97402000D03*
%TO.P,J1,55*%
X116611400Y-97402000D03*
%TO.P,J1,54*%
X119151400Y-97402000D03*
%TO.P,J1,53*%
X121691400Y-97402000D03*
%TO.P,J1,52*%
X124231400Y-97402000D03*
%TO.P,J1,51*%
%TO.N,GND*%
X126771400Y-97402000D03*
%TO.P,J1,50*%
X129311400Y-97402000D03*
%TO.P,J1,49*%
X131851400Y-97402000D03*
%TO.P,J1,48*%
X134391400Y-97402000D03*
%TO.P,J1,47*%
X136931400Y-97402000D03*
%TO.P,J1,46*%
X139471400Y-97402000D03*
%TO.P,J1,45*%
X142011400Y-97402000D03*
%TO.P,J1,44*%
X144551400Y-97402000D03*
%TO.P,J1,43*%
X147091400Y-97402000D03*
%TO.P,J1,42*%
X149631400Y-97402000D03*
%TO.P,J1,41*%
X152171400Y-97402000D03*
%TO.P,J1,40*%
X154711400Y-97402000D03*
%TO.P,J1,39*%
X157251400Y-97402000D03*
%TO.P,J1,38*%
%TO.N,PSINTERRUPT*%
X159791400Y-97402000D03*
%TO.P,J1,37*%
%TO.N,Vsb*%
X162331400Y-97402000D03*
%TO.P,J1,36*%
%TO.N,Net-(J1-Pad36)*%
X164871400Y-97402000D03*
%TO.P,J1,35*%
%TO.N,Net-(J1-Pad35)*%
X167411400Y-97402000D03*
%TO.P,J1,34*%
%TO.N,Net-(J1-Pad34)*%
X169951400Y-97402000D03*
%TO.P,J1,33*%
%TO.N,PS_TurnON*%
X172491400Y-97402000D03*
%TO.P,J1,32*%
%TO.N,SCL*%
X172491400Y-102242000D03*
%TO.P,J1,31*%
%TO.N,SDA*%
X169951400Y-102242000D03*
%TO.P,J1,30*%
%TO.N,GNDS*%
X167411400Y-102242000D03*
%TO.P,J1,29*%
%TO.N,Net-(J1-Pad29)*%
X164871400Y-102242000D03*
%TO.P,J1,28*%
%TO.N,Net-(J1-Pad28)*%
X162331400Y-102242000D03*
%TO.P,J1,27*%
%TO.N,Net-(J1-Pad27)*%
X159791400Y-102242000D03*
%TO.P,J1,26*%
%TO.N,GND*%
X157251400Y-102242000D03*
%TO.P,J1,25*%
X154711400Y-102242000D03*
%TO.P,J1,24*%
X152171400Y-102242000D03*
%TO.P,J1,23*%
X149631400Y-102242000D03*
%TO.P,J1,22*%
X147091400Y-102242000D03*
%TO.P,J1,21*%
X144551400Y-102242000D03*
%TO.P,J1,20*%
X142011400Y-102242000D03*
%TO.P,J1,19*%
X139471400Y-102242000D03*
%TO.P,J1,18*%
X136931400Y-102242000D03*
%TO.P,J1,17*%
X134391400Y-102242000D03*
%TO.P,J1,16*%
X131851400Y-102242000D03*
%TO.P,J1,15*%
X129311400Y-102242000D03*
%TO.P,J1,14*%
X126771400Y-102242000D03*
%TO.P,J1,13*%
%TO.N,+12V*%
X124231400Y-102242000D03*
%TO.P,J1,12*%
X121691400Y-102242000D03*
%TO.P,J1,11*%
X119151400Y-102242000D03*
%TO.P,J1,10*%
X116611400Y-102242000D03*
%TO.P,J1,9*%
X114071400Y-102242000D03*
%TO.P,J1,8*%
X111531400Y-102242000D03*
%TO.P,J1,7*%
X108991400Y-102242000D03*
%TO.P,J1,6*%
X106451400Y-102242000D03*
%TO.P,J1,5*%
X103911400Y-102242000D03*
%TO.P,J1,4*%
X101371400Y-102242000D03*
%TO.P,J1,3*%
X98831400Y-102242000D03*
%TO.P,J1,2*%
X96291400Y-102242000D03*
D11*
%TO.P,J1,1*%
X93751400Y-102242000D03*
%TD*%
D12*
%TO.P,J2,1*%
%TO.N,GND*%
X138600000Y-67400000D03*
%TO.P,J2,2*%
X132250000Y-67400000D03*
%TO.P,J2,3*%
X125900000Y-67400000D03*
%TO.P,J2,4*%
X119550000Y-67400000D03*
%TO.P,J2,5*%
%TO.N,+12V*%
X113200000Y-67400000D03*
%TO.P,J2,6*%
X106850000Y-67400000D03*
%TO.P,J2,7*%
X100500000Y-67400000D03*
%TO.P,J2,8*%
X94150000Y-67400000D03*
%TD*%
D13*
%TO.P,CaseFan1,1*%
%TO.N,Net-(CaseFan1-Pad1)*%
X144780000Y-70739000D03*
D14*
%TO.P,CaseFan1,2*%
%TO.N,Net-(CaseFan1-Pad2)*%
X147320000Y-70739000D03*
%TO.P,CaseFan1,3*%
%TO.N,Net-(CaseFan1-Pad3)*%
X149860000Y-70739000D03*
%TD*%
%TO.P,F1,1*%
%TO.N,Vsb*%
%TA.AperFunction,SMDPad,CuDef*%
G36*
G01*
X152481000Y-64272500D02*
X152481000Y-67172500D01*
G75*
G02*
X152231000Y-67422500I-250000J0D01*
G01*
X151431000Y-67422500D01*
G75*
G02*
X151181000Y-67172500I0J250000D01*
G01*
X151181000Y-64272500D01*
G75*
G02*
X151431000Y-64022500I250000J0D01*
G01*
X152231000Y-64022500D01*
G75*
G02*
X152481000Y-64272500I0J-250000D01*
G01*
G37*
%TD.AperFunction*%
%TO.P,F1,2*%
%TO.N,Net-(CaseFan1-Pad2)*%
%TA.AperFunction,SMDPad,CuDef*%
G36*
G01*
X148031000Y-64272500D02*
X148031000Y-67172500D01*
G75*
G02*
X147781000Y-67422500I-250000J0D01*
G01*
X146981000Y-67422500D01*
G75*
G02*
X146731000Y-67172500I0J250000D01*
G01*
X146731000Y-64272500D01*
G75*
G02*
X146981000Y-64022500I250000J0D01*
G01*
X147781000Y-64022500D01*
G75*
G02*
X148031000Y-64272500I0J-250000D01*
G01*
G37*
%TD.AperFunction*%
%TD*%
D13*
%TO.P,J3,1*%
%TO.N,+3V3*%
X178100000Y-95453200D03*
D14*
%TO.P,J3,2*%
%TO.N,GNDS*%
X178100000Y-97993200D03*
%TO.P,J3,3*%
%TO.N,SCL*%
X178100000Y-100533200D03*
%TO.P,J3,4*%
%TO.N,SDA*%
X178100000Y-103073200D03*
%TD*%
D13*
%TO.P,J4,1*%
%TO.N,Net-(J4-Pad1)*%
X177860000Y-70100000D03*
D14*
%TO.P,J4,2*%
%TO.N,GNDS*%
X175320000Y-70100000D03*
%TO.P,J4,3*%
%TO.N,Net-(J4-Pad3)*%
X172780000Y-70100000D03*
%TO.P,J4,4*%
%TO.N,Net-(J4-Pad4)*%
X170240000Y-70100000D03*
%TO.P,J4,5*%
%TO.N,Net-(J4-Pad5)*%
X167700000Y-70100000D03*
%TO.P,J4,6*%
%TO.N,Net-(J4-Pad6)*%
X165160000Y-70100000D03*
%TD*%
D15*
%TO.P,Q3,1*%
%TO.N,Net-(Q3-Pad1)*%
X145349000Y-75295000D03*
%TO.P,Q3,2*%
%TO.N,GND*%
X143449000Y-75295000D03*
%TO.P,Q3,3*%
%TO.N,Net-(CaseFan1-Pad1)*%
X144399000Y-73295000D03*
%TD*%
%TO.P,R1,2*%
%TO.N,Net-(J1-Pad34)*%
%TA.AperFunction,SMDPad,CuDef*%
G36*
G01*
X170237200Y-92717199D02*
X170237200Y-93617201D01*
G75*
G02*
X169987201Y-93867200I-249999J0D01*
G01*
X169287199Y-93867200D01*
G75*
G02*
X169037200Y-93617201I0J249999D01*
G01*
X169037200Y-92717199D01*
G75*
G02*
X169287199Y-92467200I249999J0D01*
G01*
X169987201Y-92467200D01*
G75*
G02*
X170237200Y-92717199I0J-249999D01*
G01*
G37*
%TD.AperFunction*%
%TO.P,R1,1*%
%TO.N,iSHARE*%
%TA.AperFunction,SMDPad,CuDef*%
G36*
G01*
X172237200Y-92717199D02*
X172237200Y-93617201D01*
G75*
G02*
X171987201Y-93867200I-249999J0D01*
G01*
X171287199Y-93867200D01*
G75*
G02*
X171037200Y-93617201I0J249999D01*
G01*
X171037200Y-92717199D01*
G75*
G02*
X171287199Y-92467200I249999J0D01*
G01*
X171987201Y-92467200D01*
G75*
G02*
X172237200Y-92717199I0J-249999D01*
G01*
G37*
%TD.AperFunction*%
%TD*%
%TO.P,R2,1*%
%TO.N,GNDS*%
%TA.AperFunction,SMDPad,CuDef*%
G36*
G01*
X176098000Y-92717199D02*
X176098000Y-93617201D01*
G75*
G02*
X175848001Y-93867200I-249999J0D01*
G01*
X175147999Y-93867200D01*
G75*
G02*
X174898000Y-93617201I0J249999D01*
G01*
X174898000Y-92717199D01*
G75*
G02*
X175147999Y-92467200I249999J0D01*
G01*
X175848001Y-92467200D01*
G75*
G02*
X176098000Y-92717199I0J-249999D01*
G01*
G37*
%TD.AperFunction*%
%TO.P,R2,2*%
%TO.N,iSHARE*%
%TA.AperFunction,SMDPad,CuDef*%
G36*
G01*
X174098000Y-92717199D02*
X174098000Y-93617201D01*
G75*
G02*
X173848001Y-93867200I-249999J0D01*
G01*
X173147999Y-93867200D01*
G75*
G02*
X172898000Y-93617201I0J249999D01*
G01*
X172898000Y-92717199D01*
G75*
G02*
X173147999Y-92467200I249999J0D01*
G01*
X173848001Y-92467200D01*
G75*
G02*
X174098000Y-92717199I0J-249999D01*
G01*
G37*
%TD.AperFunction*%
%TD*%
%TO.P,R4,2*%
%TO.N,Net-(R4-Pad2)*%
%TA.AperFunction,SMDPad,CuDef*%
G36*
G01*
X159200000Y-89649999D02*
X159200000Y-90550001D01*
G75*
G02*
X158950001Y-90800000I-249999J0D01*
G01*
X158249999Y-90800000D01*
G75*
G02*
X158000000Y-90550001I0J249999D01*
G01*
X158000000Y-89649999D01*
G75*
G02*
X158249999Y-89400000I249999J0D01*
G01*
X158950001Y-89400000D01*
G75*
G02*
X159200000Y-89649999I0J-249999D01*
G01*
G37*
%TD.AperFunction*%
%TO.P,R4,1*%
%TO.N,Net-(R4-Pad1)*%
%TA.AperFunction,SMDPad,CuDef*%
G36*
G01*
X161200000Y-89649999D02*
X161200000Y-90550001D01*
G75*
G02*
X160950001Y-90800000I-249999J0D01*
G01*
X160249999Y-90800000D01*
G75*
G02*
X160000000Y-90550001I0J249999D01*
G01*
X160000000Y-89649999D01*
G75*
G02*
X160249999Y-89400000I249999J0D01*
G01*
X160950001Y-89400000D01*
G75*
G02*
X161200000Y-89649999I0J-249999D01*
G01*
G37*
%TD.AperFunction*%
%TD*%
%TO.P,R5,1*%
%TO.N,+3V3*%
%TA.AperFunction,SMDPad,CuDef*%
G36*
G01*
X175202001Y-78054000D02*
X174301999Y-78054000D01*
G75*
G02*
X174052000Y-77804001I0J249999D01*
G01*
X174052000Y-77103999D01*
G75*
G02*
X174301999Y-76854000I249999J0D01*
G01*
X175202001Y-76854000D01*
G75*
G02*
X175452000Y-77103999I0J-249999D01*
G01*
X175452000Y-77804001D01*
G75*
G02*
X175202001Y-78054000I-249999J0D01*
G01*
G37*
%TD.AperFunction*%
%TO.P,R5,2*%
%TO.N,Net-(Q1-Pad3)*%
%TA.AperFunction,SMDPad,CuDef*%
G36*
G01*
X175202001Y-76054000D02*
X174301999Y-76054000D01*
G75*
G02*
X174052000Y-75804001I0J249999D01*
G01*
X174052000Y-75103999D01*
G75*
G02*
X174301999Y-74854000I249999J0D01*
G01*
X175202001Y-74854000D01*
G75*
G02*
X175452000Y-75103999I0J-249999D01*
G01*
X175452000Y-75804001D01*
G75*
G02*
X175202001Y-76054000I-249999J0D01*
G01*
G37*
%TD.AperFunction*%
%TD*%
%TO.P,R6,2*%
%TO.N,Net-(R4-Pad1)*%
%TA.AperFunction,SMDPad,CuDef*%
G36*
G01*
X179164401Y-76054000D02*
X178264399Y-76054000D01*
G75*
G02*
X178014400Y-75804001I0J249999D01*
G01*
X178014400Y-75103999D01*
G75*
G02*
X178264399Y-74854000I249999J0D01*
G01*
X179164401Y-74854000D01*
G75*
G02*
X179414400Y-75103999I0J-249999D01*
G01*
X179414400Y-75804001D01*
G75*
G02*
X179164401Y-76054000I-249999J0D01*
G01*
G37*
%TD.AperFunction*%
%TO.P,R6,1*%
%TO.N,+3V3*%
%TA.AperFunction,SMDPad,CuDef*%
G36*
G01*
X179164401Y-78054000D02*
X178264399Y-78054000D01*
G75*
G02*
X178014400Y-77804001I0J249999D01*
G01*
X178014400Y-77103999D01*
G75*
G02*
X178264399Y-76854000I249999J0D01*
G01*
X179164401Y-76854000D01*
G75*
G02*
X179414400Y-77103999I0J-249999D01*
G01*
X179414400Y-77804001D01*
G75*
G02*
X179164401Y-78054000I-249999J0D01*
G01*
G37*
%TD.AperFunction*%
%TD*%
%TO.P,R7,2*%
%TO.N,Net-(R7-Pad2)*%
%TA.AperFunction,SMDPad,CuDef*%
G36*
G01*
X159962800Y-88334001D02*
X159962800Y-87433999D01*
G75*
G02*
X160212799Y-87184000I249999J0D01*
G01*
X160912801Y-87184000D01*
G75*
G02*
X161162800Y-87433999I0J-249999D01*
G01*
X161162800Y-88334001D01*
G75*
G02*
X160912801Y-88584000I-249999J0D01*
G01*
X160212799Y-88584000D01*
G75*
G02*
X159962800Y-88334001I0J249999D01*
G01*
G37*
%TD.AperFunction*%
%TO.P,R7,1*%
%TO.N,+3V3*%
%TA.AperFunction,SMDPad,CuDef*%
G36*
G01*
X157962800Y-88334001D02*
X157962800Y-87433999D01*
G75*
G02*
X158212799Y-87184000I249999J0D01*
G01*
X158912801Y-87184000D01*
G75*
G02*
X159162800Y-87433999I0J-249999D01*
G01*
X159162800Y-88334001D01*
G75*
G02*
X158912801Y-88584000I-249999J0D01*
G01*
X158212799Y-88584000D01*
G75*
G02*
X157962800Y-88334001I0J249999D01*
G01*
G37*
%TD.AperFunction*%
%TD*%
%TO.P,R8,2*%
%TO.N,Net-(Q2-Pad3)*%
%TA.AperFunction,SMDPad,CuDef*%
G36*
G01*
X159962800Y-86302001D02*
X159962800Y-85401999D01*
G75*
G02*
X160212799Y-85152000I249999J0D01*
G01*
X160912801Y-85152000D01*
G75*
G02*
X161162800Y-85401999I0J-249999D01*
G01*
X161162800Y-86302001D01*
G75*
G02*
X160912801Y-86552000I-249999J0D01*
G01*
X160212799Y-86552000D01*
G75*
G02*
X159962800Y-86302001I0J249999D01*
G01*
G37*
%TD.AperFunction*%
%TO.P,R8,1*%
%TO.N,+3V3*%
%TA.AperFunction,SMDPad,CuDef*%
G36*
G01*
X157962800Y-86302001D02*
X157962800Y-85401999D01*
G75*
G02*
X158212799Y-85152000I249999J0D01*
G01*
X158912801Y-85152000D01*
G75*
G02*
X159162800Y-85401999I0J-249999D01*
G01*
X159162800Y-86302001D01*
G75*
G02*
X158912801Y-86552000I-249999J0D01*
G01*
X158212799Y-86552000D01*
G75*
G02*
X157962800Y-86302001I0J249999D01*
G01*
G37*
%TD.AperFunction*%
%TD*%
%TO.P,R9,1*%
%TO.N,Net-(R9-Pad1)*%
%TA.AperFunction,SMDPad,CuDef*%
G36*
G01*
X157962800Y-84320801D02*
X157962800Y-83420799D01*
G75*
G02*
X158212799Y-83170800I249999J0D01*
G01*
X158912801Y-83170800D01*
G75*
G02*
X159162800Y-83420799I0J-249999D01*
G01*
X159162800Y-84320801D01*
G75*
G02*
X158912801Y-84570800I-249999J0D01*
G01*
X158212799Y-84570800D01*
G75*
G02*
X157962800Y-84320801I0J249999D01*
G01*
G37*
%TD.AperFunction*%
%TO.P,R9,2*%
%TO.N,Net-(Q2-Pad3)*%
%TA.AperFunction,SMDPad,CuDef*%
G36*
G01*
X159962800Y-84320801D02*
X159962800Y-83420799D01*
G75*
G02*
X160212799Y-83170800I249999J0D01*
G01*
X160912801Y-83170800D01*
G75*
G02*
X161162800Y-83420799I0J-249999D01*
G01*
X161162800Y-84320801D01*
G75*
G02*
X160912801Y-84570800I-249999J0D01*
G01*
X160212799Y-84570800D01*
G75*
G02*
X159962800Y-84320801I0J249999D01*
G01*
G37*
%TD.AperFunction*%
%TD*%
%TO.P,R13,1*%
%TO.N,Net-(Q3-Pad1)*%
%TA.AperFunction,SMDPad,CuDef*%
G36*
G01*
X146990000Y-75684801D02*
X146990000Y-74784799D01*
G75*
G02*
X147239999Y-74534800I249999J0D01*
G01*
X147940001Y-74534800D01*
G75*
G02*
X148190000Y-74784799I0J-249999D01*
G01*
X148190000Y-75684801D01*
G75*
G02*
X147940001Y-75934800I-249999J0D01*
G01*
X147239999Y-75934800D01*
G75*
G02*
X146990000Y-75684801I0J249999D01*
G01*
G37*
%TD.AperFunction*%
%TO.P,R13,2*%
%TO.N,CaseFanPWM*%
%TA.AperFunction,SMDPad,CuDef*%
G36*
G01*
X148990000Y-75684801D02*
X148990000Y-74784799D01*
G75*
G02*
X149239999Y-74534800I249999J0D01*
G01*
X149940001Y-74534800D01*
G75*
G02*
X150190000Y-74784799I0J-249999D01*
G01*
X150190000Y-75684801D01*
G75*
G02*
X149940001Y-75934800I-249999J0D01*
G01*
X149239999Y-75934800D01*
G75*
G02*
X148990000Y-75684801I0J249999D01*
G01*
G37*
%TD.AperFunction*%
%TD*%
D16*
%TO.P,U1,1*%
%TO.N,Vsb*%
X152527000Y-84201000D03*
D17*
%TO.P,U1,2*%
%TO.N,GNDS*%
X152527000Y-81661000D03*
%TO.P,U1,3*%
%TO.N,+3V3*%
X152527000Y-79121000D03*
%TD*%
D18*
%TO.N,*%
X176250800Y-79011600D03*
X175150800Y-86211600D03*
%TO.N,GNDS*%
X170789600Y-81940400D03*
X178200000Y-81900000D03*
X146812000Y-78486000D03*
X148590000Y-72999600D03*
X154686000Y-61874400D03*
X171651400Y-61927000D03*
X165049200Y-78282800D03*
X166400000Y-82000000D03*
X145135600Y-62280800D03*
X167500000Y-95100000D03*
X162915600Y-95148400D03*
X158394400Y-94538800D03*
X161950400Y-99618800D03*
X175056800Y-101752400D03*
X172770800Y-95250000D03*
%TO.N,+3V3*%
X160655000Y-78257400D03*
%TO.N,Vsb*%
X151841200Y-73507600D03*
%TO.N,+12V*%
X92557600Y-71932800D03*
X97457600Y-71932800D03*
X102357600Y-71932800D03*
X107257600Y-71932800D03*
X112157600Y-71932800D03*
X93657600Y-76432800D03*
X98557600Y-76432800D03*
X103457600Y-76432800D03*
X108357600Y-76432800D03*
X113257600Y-76432800D03*
X94757600Y-80932800D03*
X99657600Y-80932800D03*
X104557600Y-80932800D03*
X109457600Y-80932800D03*
X114357600Y-80932800D03*
X95857600Y-85432800D03*
X100757600Y-85432800D03*
X105657600Y-85432800D03*
X110557600Y-85432800D03*
X115457600Y-85432800D03*
X96957600Y-89932800D03*
X101857600Y-89932800D03*
X106757600Y-89932800D03*
X111657600Y-89932800D03*
X116557600Y-89932800D03*
X121457600Y-89932800D03*
X98057600Y-94432800D03*
X102957600Y-94432800D03*
X107857600Y-94432800D03*
X112757600Y-94432800D03*
X117657600Y-94432800D03*
X122557600Y-94432800D03*
%TO.N,GND*%
X118059200Y-71882000D03*
X122959200Y-71882000D03*
X127859200Y-71882000D03*
X132759200Y-71882000D03*
X137659200Y-71882000D03*
X119159200Y-76382000D03*
X124059200Y-76382000D03*
X128959200Y-76382000D03*
X133859200Y-76382000D03*
X138759200Y-76382000D03*
X120259200Y-80882000D03*
X125159200Y-80882000D03*
X130059200Y-80882000D03*
X134959200Y-80882000D03*
X139859200Y-80882000D03*
X145200000Y-80900000D03*
X126259200Y-85382000D03*
X131159200Y-85382000D03*
X136000000Y-85300000D03*
X145859200Y-85382000D03*
X127359200Y-89882000D03*
X132259200Y-89882000D03*
X137159200Y-89882000D03*
X142059200Y-89882000D03*
X146959200Y-89882000D03*
X128459200Y-94382000D03*
X133359200Y-94382000D03*
X138259200Y-94382000D03*
X143159200Y-94382000D03*
X148059200Y-94382000D03*
X152806400Y-94335600D03*
%TO.N,PSINTERRUPT*%
X160070800Y-80264000D03*
%TO.N,Net-(J4-Pad3)*%
X172974000Y-78740000D03*
X176696506Y-82396506D03*
%TO.N,Net-(J4-Pad4)*%
X171500800Y-78943200D03*
X178714400Y-86461600D03*
%TO.N,Net-(Q1-Pad3)*%
X174752000Y-75454000D03*
X160700000Y-65900000D03*
%TO.N,Net-(Q2-Pad3)*%
X170696500Y-89896000D03*
X155800000Y-76300000D03*
%TO.N,iSHARE*%
X173431200Y-86766400D03*
%TO.N,Net-(R4-Pad2)*%
X158600000Y-90100000D03*
%TO.N,Net-(R7-Pad2)*%
X168696500Y-89896000D03*
%TO.N,CaseFanPWM*%
X172720000Y-76047600D03*
%TO.N,Net-(R4-Pad1)*%
X178714400Y-75454000D03*
X174500000Y-83800000D03*
%TO.N,Net-(R9-Pad1)*%
X158600000Y-82400000D03*
%TD*%
D19*
%TO.N,+3V3*%
X178714400Y-77454000D02*
X174752000Y-77454000D01*
X161458400Y-77454000D02*
X160655000Y-78257400D01*
X174752000Y-77454000D02*
X161458400Y-77454000D01*
X174752000Y-77454000D02*
X170907200Y-77454000D01*
X158562800Y-87849200D02*
X158528000Y-87884000D01*
X158562800Y-85852000D02*
X158562800Y-87849200D01*
X179414401Y-78154001D02*
X178714400Y-77454000D01*
X179414401Y-93940399D02*
X179414401Y-78154001D01*
X177901600Y-95453200D02*
X179414401Y-93940399D01*
X157327600Y-85852000D02*
X158562800Y-85852000D01*
X154990800Y-83515200D02*
X157327600Y-85852000D01*
X154990800Y-81127600D02*
X154990800Y-83515200D01*
X152984200Y-79121000D02*
X154990800Y-81127600D01*
X152527000Y-79121000D02*
X152984200Y-79121000D01*
D20*
%TO.N,Net-(CaseFan1-Pad1)*%
X144780000Y-72034400D02*
X144780000Y-70739000D01*
X144399000Y-72415400D02*
X144780000Y-72034400D01*
X144399000Y-73295000D02*
X144399000Y-72415400D01*
%TO.N,Net-(CaseFan1-Pad2)*%
X147381000Y-70678000D02*
X147320000Y-70739000D01*
X147381000Y-65722500D02*
X147381000Y-70678000D01*
%TO.N,Vsb*%
X151831000Y-73497400D02*
X151841200Y-73507600D01*
X151831000Y-65722500D02*
X151831000Y-73497400D01*
D21*
%TO.N,GND*%
X143449000Y-75295000D02*
X140097000Y-75295000D01*
X138684000Y-73882000D02*
X138684000Y-68072000D01*
X140097000Y-75295000D02*
X138684000Y-73882000D01*
D19*
%TO.N,Net-(J1-Pad34)*%
X169570400Y-97021000D02*
X169951400Y-97402000D01*
X169570400Y-92862400D02*
X169570400Y-97021000D01*
%TO.N,PSINTERRUPT*%
X159662790Y-80672010D02*
X160070800Y-80264000D01*
X159662790Y-97273390D02*
X159662790Y-80672010D01*
X159791400Y-97402000D02*
X159662790Y-97273390D01*
%TO.N,Net-(J4-Pad3)*%
X172974000Y-78740000D02*
X176630506Y-82396506D01*
X176630506Y-82396506D02*
X176696506Y-82396506D01*
%TO.N,Net-(J4-Pad4)*%
X178561600Y-86461600D02*
X178714400Y-86461600D01*
X171500800Y-79400800D02*
X178561600Y-86461600D01*
X171500800Y-78943200D02*
X171500800Y-79400800D01*
D22*
%TO.N,Net-(Q1-Pad3)*%
X174752000Y-75454000D02*
X174752000Y-73152000D01*
X174752000Y-73152000D02*
X174100000Y-72500000D01*
X174100000Y-72500000D02*
X162500000Y-72500000D01*
X162500000Y-72500000D02*
X160900000Y-70900000D01*
X160900000Y-66100000D02*
X160700000Y-65900000D01*
X160900000Y-70900000D02*
X160900000Y-66100000D01*
D19*
%TO.N,Net-(Q2-Pad3)*%
X160562800Y-85852000D02*
X168859200Y-85852000D01*
X168859200Y-85852000D02*
X170637200Y-87630000D01*
X170637200Y-89836700D02*
X170696500Y-89896000D01*
X170637200Y-87630000D02*
X170637200Y-89836700D01*
X160578800Y-85836000D02*
X160562800Y-85852000D01*
X160578800Y-83870800D02*
X160578800Y-85836000D01*
D22*
X160562800Y-83870800D02*
X160562800Y-83537200D01*
X160562800Y-83537200D02*
X161200000Y-82900000D01*
X161200000Y-82900000D02*
X161200000Y-80000000D01*
X161200000Y-80000000D02*
X159500000Y-78300000D01*
X159500000Y-78300000D02*
X156500000Y-78300000D01*
X155800000Y-77600000D02*
X155800000Y-76300000D01*
X156500000Y-78300000D02*
X155800000Y-77600000D01*
D19*
%TO.N,Net-(Q3-Pad1)*%
X147529800Y-75295000D02*
X147590000Y-75234800D01*
X145349000Y-75295000D02*
X147529800Y-75295000D01*
%TO.N,iSHARE*%
X171570400Y-92862400D02*
X173329600Y-92862400D01*
X173431200Y-92760800D02*
X173329600Y-92862400D01*
X173431200Y-86766400D02*
X173431200Y-92760800D01*
%TO.N,Net-(R7-Pad2)*%
X160528000Y-87884000D02*
X168198800Y-87884000D01*
X168696500Y-88381700D02*
X168696500Y-89896000D01*
X168198800Y-87884000D02*
X168696500Y-88381700D01*
%TO.N,CaseFanPWM*%
X172262800Y-76504800D02*
X172720000Y-76047600D01*
X161442400Y-76504800D02*
X172262800Y-76504800D01*
X160172400Y-75234800D02*
X161442400Y-76504800D01*
X149590000Y-75234800D02*
X160172400Y-75234800D01*
D22*
%TO.N,Net-(R4-Pad1)*%
X160600000Y-90100000D02*
X162100000Y-91600000D01*
X162100000Y-91600000D02*
X162300000Y-91800000D01*
X162300000Y-91800000D02*
X169865502Y-91800000D01*
X169865502Y-91800000D02*
X171900000Y-91800000D01*
X171900000Y-91800000D02*
X172500000Y-91200000D01*
X172500000Y-85800000D02*
X174500000Y-83800000D01*
X172500000Y-91200000D02*
X172500000Y-85800000D01*
%TO.N,Net-(R9-Pad1)*%
X158600000Y-83833600D02*
X158562800Y-83870800D01*
X158600000Y-82400000D02*
X158600000Y-83833600D01*
%TD*%
D23*
%TO.N,GND*%
X141605000Y-64918606D02*
X141605000Y-72294000D01*
X141608556Y-72323843D01*
X141768438Y-72985191D01*
X141778907Y-73013362D01*
X151111143Y-91186666D01*
X151129220Y-91213052D01*
X151579665Y-91719523D01*
X151603761Y-91740556D01*
X157955506Y-96005961D01*
X158211377Y-96494021D01*
X158120518Y-103126718D01*
X157839622Y-103404667D01*
X126386321Y-103503733D01*
X126111000Y-103229278D01*
X126111000Y-95346000D01*
X126107906Y-95318138D01*
X125958076Y-94651830D01*
X125948945Y-94625325D01*
X117110642Y-75966685D01*
X116967000Y-75327897D01*
X116967000Y-64918606D01*
X117242606Y-64643000D01*
X141329394Y-64643000D01*
X141605000Y-64918606D01*
%TA.AperFunction,Conductor*%
D24*
G36*
X141605000Y-64918606D02*
G01*
X141605000Y-72294000D01*
X141608556Y-72323843D01*
X141768438Y-72985191D01*
X141778907Y-73013362D01*
X151111143Y-91186666D01*
X151129220Y-91213052D01*
X151579665Y-91719523D01*
X151603761Y-91740556D01*
X157955506Y-96005961D01*
X158211377Y-96494021D01*
X158120518Y-103126718D01*
X157839622Y-103404667D01*
X126386321Y-103503733D01*
X126111000Y-103229278D01*
X126111000Y-95346000D01*
X126107906Y-95318138D01*
X125958076Y-94651830D01*
X125948945Y-94625325D01*
X117110642Y-75966685D01*
X116967000Y-75327897D01*
X116967000Y-64918606D01*
X117242606Y-64643000D01*
X141329394Y-64643000D01*
X141605000Y-64918606D01*
G37*
%TD.AperFunction*%
%TD*%
D23*
%TO.N,+12V*%
X115081251Y-64658467D02*
X115136570Y-64695430D01*
X115173533Y-64750749D01*
X115189000Y-64828509D01*
X115189000Y-75621180D01*
X115192397Y-75650359D01*
X115224069Y-75784523D01*
X115234080Y-75812140D01*
X124816122Y-94976223D01*
X124841000Y-95081609D01*
X124841000Y-103319491D01*
X124825533Y-103397251D01*
X124788570Y-103452570D01*
X124733251Y-103489533D01*
X124655491Y-103505000D01*
X91752509Y-103505000D01*
X91674749Y-103489533D01*
X91619430Y-103452570D01*
X91582467Y-103397251D01*
X91567000Y-103319491D01*
X91567000Y-64828509D01*
X91582467Y-64750749D01*
X91619430Y-64695430D01*
X91674749Y-64658467D01*
X91752509Y-64643000D01*
X115003491Y-64643000D01*
X115081251Y-64658467D01*
%TA.AperFunction,Conductor*%
D24*
G36*
X115081251Y-64658467D02*
G01*
X115136570Y-64695430D01*
X115173533Y-64750749D01*
X115189000Y-64828509D01*
X115189000Y-75621180D01*
X115192397Y-75650359D01*
X115224069Y-75784523D01*
X115234080Y-75812140D01*
X124816122Y-94976223D01*
X124841000Y-95081609D01*
X124841000Y-103319491D01*
X124825533Y-103397251D01*
X124788570Y-103452570D01*
X124733251Y-103489533D01*
X124655491Y-103505000D01*
X91752509Y-103505000D01*
X91674749Y-103489533D01*
X91619430Y-103452570D01*
X91582467Y-103397251D01*
X91567000Y-103319491D01*
X91567000Y-64828509D01*
X91582467Y-64750749D01*
X91619430Y-64695430D01*
X91674749Y-64658467D01*
X91752509Y-64643000D01*
X115003491Y-64643000D01*
X115081251Y-64658467D01*
G37*
%TD.AperFunction*%
%TD*%
D23*
%TO.N,GNDS*%
X177933400Y-86513637D02*
X177933400Y-86538522D01*
X177963413Y-86689409D01*
X178022287Y-86831542D01*
X178107758Y-86959459D01*
X178216541Y-87068242D01*
X178344458Y-87153713D01*
X178486591Y-87212587D01*
X178637478Y-87242600D01*
X178791322Y-87242600D01*
X178933401Y-87214339D01*
X178933401Y-93741162D01*
X178454206Y-94220357D01*
X177250000Y-94220357D01*
X177175311Y-94227713D01*
X177103492Y-94249499D01*
X177037304Y-94284878D01*
X176979289Y-94332489D01*
X176931678Y-94390504D01*
X176896299Y-94456692D01*
X176874513Y-94528511D01*
X176867157Y-94603200D01*
X176867157Y-96303200D01*
X176874513Y-96377889D01*
X176896299Y-96449708D01*
X176931678Y-96515896D01*
X176979289Y-96573911D01*
X177037304Y-96621522D01*
X177103492Y-96656901D01*
X177175311Y-96678687D01*
X177250000Y-96686043D01*
X178950000Y-96686043D01*
X179024689Y-96678687D01*
X179096508Y-96656901D01*
X179162696Y-96621522D01*
X179220711Y-96573911D01*
X179268322Y-96515896D01*
X179303701Y-96449708D01*
X179325487Y-96377889D01*
X179332843Y-96303200D01*
X179332843Y-94702194D01*
X179569001Y-94466036D01*
X179569001Y-104381802D01*
X179383036Y-104569000D01*
X170700352Y-104569000D01*
X170266012Y-104424214D01*
X169367199Y-103742355D01*
X169345985Y-103729325D01*
X169330934Y-103723163D01*
X168702092Y-103511628D01*
X168677830Y-103506041D01*
X168661600Y-103505000D01*
X167818541Y-103505000D01*
X167940715Y-103465860D01*
X168134931Y-103362050D01*
X168243339Y-103177177D01*
X167411400Y-102345238D01*
X166579461Y-103177177D01*
X166687869Y-103362050D01*
X166920282Y-103481683D01*
X167001669Y-103505000D01*
X165430975Y-103505000D01*
X165525549Y-103465826D01*
X165751736Y-103314693D01*
X165944093Y-103122336D01*
X166095226Y-102896149D01*
X166169831Y-102716037D01*
X166187540Y-102771315D01*
X166291350Y-102965531D01*
X166476223Y-103073939D01*
X167308162Y-102242000D01*
X167514638Y-102242000D01*
X168346577Y-103073939D01*
X168531450Y-102965531D01*
X168651083Y-102733118D01*
X168654747Y-102720329D01*
X168727574Y-102896149D01*
X168878707Y-103122336D01*
X169071064Y-103314693D01*
X169297251Y-103465826D01*
X169548577Y-103569929D01*
X169815383Y-103623000D01*
X170087417Y-103623000D01*
X170354223Y-103569929D01*
X170605549Y-103465826D01*
X170831736Y-103314693D01*
X171024093Y-103122336D01*
X171175226Y-102896149D01*
X171221400Y-102784675D01*
X171267574Y-102896149D01*
X171418707Y-103122336D01*
X171611064Y-103314693D01*
X171837251Y-103465826D01*
X172088577Y-103569929D01*
X172355383Y-103623000D01*
X172627417Y-103623000D01*
X172894223Y-103569929D01*
X173145549Y-103465826D01*
X173371736Y-103314693D01*
X173564093Y-103122336D01*
X173677936Y-102951957D01*
X176869000Y-102951957D01*
X176869000Y-103194443D01*
X176916307Y-103432269D01*
X177009102Y-103656297D01*
X177143820Y-103857917D01*
X177315283Y-104029380D01*
X177516903Y-104164098D01*
X177740931Y-104256893D01*
X177978757Y-104304200D01*
X178221243Y-104304200D01*
X178459069Y-104256893D01*
X178683097Y-104164098D01*
X178884717Y-104029380D01*
X179056180Y-103857917D01*
X179190898Y-103656297D01*
X179283693Y-103432269D01*
X179331000Y-103194443D01*
X179331000Y-102951957D01*
X179283693Y-102714131D01*
X179190898Y-102490103D01*
X179056180Y-102288483D01*
X178884717Y-102117020D01*
X178683097Y-101982302D01*
X178459069Y-101889507D01*
X178221243Y-101842200D01*
X177978757Y-101842200D01*
X177740931Y-101889507D01*
X177516903Y-101982302D01*
X177315283Y-102117020D01*
X177143820Y-102288483D01*
X177009102Y-102490103D01*
X176916307Y-102714131D01*
X176869000Y-102951957D01*
X173677936Y-102951957D01*
X173715226Y-102896149D01*
X173819329Y-102644823D01*
X173872400Y-102378017D01*
X173872400Y-102105983D01*
X173819329Y-101839177D01*
X173715226Y-101587851D01*
X173564093Y-101361664D01*
X173371736Y-101169307D01*
X173145549Y-101018174D01*
X172894223Y-100914071D01*
X172627417Y-100861000D01*
X172355383Y-100861000D01*
X172088577Y-100914071D01*
X171837251Y-101018174D01*
X171611064Y-101169307D01*
X171418707Y-101361664D01*
X171267574Y-101587851D01*
X171221400Y-101699325D01*
X171175226Y-101587851D01*
X171024093Y-101361664D01*
X170831736Y-101169307D01*
X170605549Y-101018174D01*
X170354223Y-100914071D01*
X170087417Y-100861000D01*
X169815383Y-100861000D01*
X169548577Y-100914071D01*
X169297251Y-101018174D01*
X169071064Y-101169307D01*
X168878707Y-101361664D01*
X168727574Y-101587851D01*
X168652969Y-101767963D01*
X168635260Y-101712685D01*
X168531450Y-101518469D01*
X168346577Y-101410061D01*
X167514638Y-102242000D01*
X167308162Y-102242000D01*
X166476223Y-101410061D01*
X166291350Y-101518469D01*
X166171717Y-101750882D01*
X166168053Y-101763671D01*
X166095226Y-101587851D01*
X165944093Y-101361664D01*
X165889252Y-101306823D01*
X166579461Y-101306823D01*
X167411400Y-102138762D01*
X168243339Y-101306823D01*
X168134931Y-101121950D01*
X167902518Y-101002317D01*
X167651232Y-100930325D01*
X167390728Y-100908740D01*
X167131019Y-100938391D01*
X166882085Y-101018140D01*
X166687869Y-101121950D01*
X166579461Y-101306823D01*
X165889252Y-101306823D01*
X165751736Y-101169307D01*
X165525549Y-101018174D01*
X165274223Y-100914071D01*
X165007417Y-100861000D01*
X164735383Y-100861000D01*
X164468577Y-100914071D01*
X164217251Y-101018174D01*
X163991064Y-101169307D01*
X163798707Y-101361664D01*
X163647574Y-101587851D01*
X163601400Y-101699325D01*
X163555226Y-101587851D01*
X163404093Y-101361664D01*
X163211736Y-101169307D01*
X162985549Y-101018174D01*
X162734223Y-100914071D01*
X162467417Y-100861000D01*
X162195383Y-100861000D01*
X161928577Y-100914071D01*
X161677251Y-101018174D01*
X161451064Y-101169307D01*
X161258707Y-101361664D01*
X161107574Y-101587851D01*
X161061400Y-101699325D01*
X161015226Y-101587851D01*
X160864093Y-101361664D01*
X160671736Y-101169307D01*
X160445549Y-101018174D01*
X160194223Y-100914071D01*
X159927417Y-100861000D01*
X159655383Y-100861000D01*
X159388577Y-100914071D01*
X159137251Y-101018174D01*
X158911064Y-101169307D01*
X158770456Y-101309915D01*
X158788178Y-100411957D01*
X176869000Y-100411957D01*
X176869000Y-100654443D01*
X176916307Y-100892269D01*
X177009102Y-101116297D01*
X177143820Y-101317917D01*
X177315283Y-101489380D01*
X177516903Y-101624098D01*
X177740931Y-101716893D01*
X177978757Y-101764200D01*
X178221243Y-101764200D01*
X178459069Y-101716893D01*
X178683097Y-101624098D01*
X178884717Y-101489380D01*
X179056180Y-101317917D01*
X179190898Y-101116297D01*
X179283693Y-100892269D01*
X179331000Y-100654443D01*
X179331000Y-100411957D01*
X179283693Y-100174131D01*
X179190898Y-99950103D01*
X179056180Y-99748483D01*
X178884717Y-99577020D01*
X178683097Y-99442302D01*
X178459069Y-99349507D01*
X178221243Y-99302200D01*
X177978757Y-99302200D01*
X177740931Y-99349507D01*
X177516903Y-99442302D01*
X177315283Y-99577020D01*
X177143820Y-99748483D01*
X177009102Y-99950103D01*
X176916307Y-100174131D01*
X176869000Y-100411957D01*
X158788178Y-100411957D01*
X158828052Y-98391681D01*
X158911064Y-98474693D01*
X159137251Y-98625826D01*
X159388577Y-98729929D01*
X159655383Y-98783000D01*
X159927417Y-98783000D01*
X160194223Y-98729929D01*
X160445549Y-98625826D01*
X160671736Y-98474693D01*
X160864093Y-98282336D01*
X161015226Y-98056149D01*
X161061400Y-97944675D01*
X161107574Y-98056149D01*
X161258707Y-98282336D01*
X161451064Y-98474693D01*
X161677251Y-98625826D01*
X161928577Y-98729929D01*
X162195383Y-98783000D01*
X162467417Y-98783000D01*
X162734223Y-98729929D01*
X162985549Y-98625826D01*
X163211736Y-98474693D01*
X163404093Y-98282336D01*
X163555226Y-98056149D01*
X163601400Y-97944675D01*
X163647574Y-98056149D01*
X163798707Y-98282336D01*
X163991064Y-98474693D01*
X164217251Y-98625826D01*
X164468577Y-98729929D01*
X164735383Y-98783000D01*
X165007417Y-98783000D01*
X165274223Y-98729929D01*
X165525549Y-98625826D01*
X165751736Y-98474693D01*
X165944093Y-98282336D01*
X166095226Y-98056149D01*
X166141400Y-97944675D01*
X166187574Y-98056149D01*
X166338707Y-98282336D01*
X166531064Y-98474693D01*
X166757251Y-98625826D01*
X167008577Y-98729929D01*
X167275383Y-98783000D01*
X167547417Y-98783000D01*
X167814223Y-98729929D01*
X168065549Y-98625826D01*
X168291736Y-98474693D01*
X168484093Y-98282336D01*
X168635226Y-98056149D01*
X168681400Y-97944675D01*
X168727574Y-98056149D01*
X168878707Y-98282336D01*
X169071064Y-98474693D01*
X169297251Y-98625826D01*
X169548577Y-98729929D01*
X169815383Y-98783000D01*
X170087417Y-98783000D01*
X170354223Y-98729929D01*
X170605549Y-98625826D01*
X170831736Y-98474693D01*
X171024093Y-98282336D01*
X171175226Y-98056149D01*
X171221400Y-97944675D01*
X171267574Y-98056149D01*
X171418707Y-98282336D01*
X171611064Y-98474693D01*
X171837251Y-98625826D01*
X172088577Y-98729929D01*
X172355383Y-98783000D01*
X172627417Y-98783000D01*
X172894223Y-98729929D01*
X173145549Y-98625826D01*
X173371736Y-98474693D01*
X173564093Y-98282336D01*
X173586320Y-98249070D01*
X176951149Y-98249070D01*
X177002607Y-98418720D01*
X177106708Y-98624635D01*
X177248981Y-98806284D01*
X177423958Y-98956686D01*
X177624915Y-99070062D01*
X177844129Y-99142055D01*
X178027000Y-99086188D01*
X178027000Y-98066200D01*
X178173000Y-98066200D01*
X178173000Y-99086188D01*
X178355871Y-99142055D01*
X178575085Y-99070062D01*
X178776042Y-98956686D01*
X178951019Y-98806284D01*
X179093292Y-98624635D01*
X179197393Y-98418720D01*
X179248851Y-98249070D01*
X179192815Y-98066200D01*
X178173000Y-98066200D01*
X178027000Y-98066200D01*
X177007185Y-98066200D01*
X176951149Y-98249070D01*
X173586320Y-98249070D01*
X173715226Y-98056149D01*
X173819329Y-97804823D01*
X173832754Y-97737330D01*
X176951149Y-97737330D01*
X177007185Y-97920200D01*
X178027000Y-97920200D01*
X178027000Y-96900212D01*
X178173000Y-96900212D01*
X178173000Y-97920200D01*
X179192815Y-97920200D01*
X179248851Y-97737330D01*
X179197393Y-97567680D01*
X179093292Y-97361765D01*
X178951019Y-97180116D01*
X178776042Y-97029714D01*
X178575085Y-96916338D01*
X178355871Y-96844345D01*
X178173000Y-96900212D01*
X178027000Y-96900212D01*
X177844129Y-96844345D01*
X177624915Y-96916338D01*
X177423958Y-97029714D01*
X177248981Y-97180116D01*
X177106708Y-97361765D01*
X177002607Y-97567680D01*
X176951149Y-97737330D01*
X173832754Y-97737330D01*
X173872400Y-97538017D01*
X173872400Y-97265983D01*
X173819329Y-96999177D01*
X173715226Y-96747851D01*
X173564093Y-96521664D01*
X173371736Y-96329307D01*
X173145549Y-96178174D01*
X172894223Y-96074071D01*
X172627417Y-96021000D01*
X172355383Y-96021000D01*
X172088577Y-96074071D01*
X171837251Y-96178174D01*
X171611064Y-96329307D01*
X171418707Y-96521664D01*
X171267574Y-96747851D01*
X171221400Y-96859325D01*
X171175226Y-96747851D01*
X171024093Y-96521664D01*
X170831736Y-96329307D01*
X170605549Y-96178174D01*
X170354223Y-96074071D01*
X170087417Y-96021000D01*
X170051400Y-96021000D01*
X170051400Y-94243720D01*
X170110662Y-94237883D01*
X170229379Y-94201871D01*
X170338789Y-94143390D01*
X170434688Y-94064688D01*
X170513390Y-93968789D01*
X170571871Y-93859379D01*
X170607883Y-93740662D01*
X170620043Y-93617201D01*
X170620043Y-92717199D01*
X170607883Y-92593738D01*
X170571871Y-92475021D01*
X170513390Y-92365611D01*
X170464469Y-92306000D01*
X170809931Y-92306000D01*
X170761010Y-92365611D01*
X170702529Y-92475021D01*
X170666517Y-92593738D01*
X170654357Y-92717199D01*
X170654357Y-93617201D01*
X170666517Y-93740662D01*
X170702529Y-93859379D01*
X170761010Y-93968789D01*
X170839712Y-94064688D01*
X170935611Y-94143390D01*
X171045021Y-94201871D01*
X171163738Y-94237883D01*
X171287199Y-94250043D01*
X171987201Y-94250043D01*
X172110662Y-94237883D01*
X172229379Y-94201871D01*
X172338789Y-94143390D01*
X172434688Y-94064688D01*
X172513390Y-93968789D01*
X172567600Y-93867369D01*
X172621810Y-93968789D01*
X172700512Y-94064688D01*
X172796411Y-94143390D01*
X172905821Y-94201871D01*
X173024538Y-94237883D01*
X173147999Y-94250043D01*
X173848001Y-94250043D01*
X173971462Y-94237883D01*
X174090179Y-94201871D01*
X174199589Y-94143390D01*
X174295488Y-94064688D01*
X174374190Y-93968789D01*
X174428490Y-93867200D01*
X174569418Y-93867200D01*
X174575732Y-93931303D01*
X174594430Y-93992943D01*
X174624794Y-94049750D01*
X174665657Y-94099543D01*
X174715450Y-94140406D01*
X174772257Y-94170770D01*
X174833897Y-94189468D01*
X174898000Y-94195782D01*
X175343250Y-94194200D01*
X175425000Y-94112450D01*
X175425000Y-93240200D01*
X175571000Y-93240200D01*
X175571000Y-94112450D01*
X175652750Y-94194200D01*
X176098000Y-94195782D01*
X176162103Y-94189468D01*
X176223743Y-94170770D01*
X176280550Y-94140406D01*
X176330343Y-94099543D01*
X176371206Y-94049750D01*
X176401570Y-93992943D01*
X176420268Y-93931303D01*
X176426582Y-93867200D01*
X176425000Y-93321950D01*
X176343250Y-93240200D01*
X175571000Y-93240200D01*
X175425000Y-93240200D01*
X174652750Y-93240200D01*
X174571000Y-93321950D01*
X174569418Y-93867200D01*
X174428490Y-93867200D01*
X174432671Y-93859379D01*
X174468683Y-93740662D01*
X174480843Y-93617201D01*
X174480843Y-92717199D01*
X174468683Y-92593738D01*
X174432671Y-92475021D01*
X174428491Y-92467200D01*
X174569418Y-92467200D01*
X174571000Y-93012450D01*
X174652750Y-93094200D01*
X175425000Y-93094200D01*
X175425000Y-92221950D01*
X175571000Y-92221950D01*
X175571000Y-93094200D01*
X176343250Y-93094200D01*
X176425000Y-93012450D01*
X176426582Y-92467200D01*
X176420268Y-92403097D01*
X176401570Y-92341457D01*
X176371206Y-92284650D01*
X176330343Y-92234857D01*
X176280550Y-92193994D01*
X176223743Y-92163630D01*
X176162103Y-92144932D01*
X176098000Y-92138618D01*
X175652750Y-92140200D01*
X175571000Y-92221950D01*
X175425000Y-92221950D01*
X175343250Y-92140200D01*
X174898000Y-92138618D01*
X174833897Y-92144932D01*
X174772257Y-92163630D01*
X174715450Y-92193994D01*
X174665657Y-92234857D01*
X174624794Y-92284650D01*
X174594430Y-92341457D01*
X174575732Y-92403097D01*
X174569418Y-92467200D01*
X174428491Y-92467200D01*
X174374190Y-92365611D01*
X174295488Y-92269712D01*
X174199589Y-92191010D01*
X174090179Y-92132529D01*
X173971462Y-92096517D01*
X173912200Y-92090680D01*
X173912200Y-87384307D01*
X173929059Y-87373042D01*
X174037842Y-87264259D01*
X174123313Y-87136342D01*
X174182187Y-86994209D01*
X174212200Y-86843322D01*
X174212200Y-86689478D01*
X174182187Y-86538591D01*
X174123313Y-86396458D01*
X174037842Y-86268541D01*
X173929059Y-86159758D01*
X173891524Y-86134678D01*
X174369800Y-86134678D01*
X174369800Y-86288522D01*
X174399813Y-86439409D01*
X174458687Y-86581542D01*
X174544158Y-86709459D01*
X174652941Y-86818242D01*
X174780858Y-86903713D01*
X174922991Y-86962587D01*
X175073878Y-86992600D01*
X175227722Y-86992600D01*
X175378609Y-86962587D01*
X175520742Y-86903713D01*
X175648659Y-86818242D01*
X175757442Y-86709459D01*
X175842913Y-86581542D01*
X175901787Y-86439409D01*
X175931800Y-86288522D01*
X175931800Y-86134678D01*
X175901787Y-85983791D01*
X175842913Y-85841658D01*
X175757442Y-85713741D01*
X175648659Y-85604958D01*
X175520742Y-85519487D01*
X175378609Y-85460613D01*
X175227722Y-85430600D01*
X175073878Y-85430600D01*
X174922991Y-85460613D01*
X174780858Y-85519487D01*
X174652941Y-85604958D01*
X174544158Y-85713741D01*
X174458687Y-85841658D01*
X174399813Y-85983791D01*
X174369800Y-86134678D01*
X173891524Y-86134678D01*
X173801142Y-86074287D01*
X173659009Y-86015413D01*
X173508122Y-85985400D01*
X173354278Y-85985400D01*
X173203391Y-86015413D01*
X173061258Y-86074287D01*
X173006000Y-86111209D01*
X173006000Y-86009591D01*
X174434592Y-84581000D01*
X174576922Y-84581000D01*
X174727809Y-84550987D01*
X174869942Y-84492113D01*
X174997859Y-84406642D01*
X175106642Y-84297859D01*
X175192113Y-84169942D01*
X175250987Y-84027809D01*
X175281000Y-83876922D01*
X175281000Y-83861237D01*
X177933400Y-86513637D01*
%TA.AperFunction,Conductor*%
D24*
G36*
X177933400Y-86513637D02*
G01*
X177933400Y-86538522D01*
X177963413Y-86689409D01*
X178022287Y-86831542D01*
X178107758Y-86959459D01*
X178216541Y-87068242D01*
X178344458Y-87153713D01*
X178486591Y-87212587D01*
X178637478Y-87242600D01*
X178791322Y-87242600D01*
X178933401Y-87214339D01*
X178933401Y-93741162D01*
X178454206Y-94220357D01*
X177250000Y-94220357D01*
X177175311Y-94227713D01*
X177103492Y-94249499D01*
X177037304Y-94284878D01*
X176979289Y-94332489D01*
X176931678Y-94390504D01*
X176896299Y-94456692D01*
X176874513Y-94528511D01*
X176867157Y-94603200D01*
X176867157Y-96303200D01*
X176874513Y-96377889D01*
X176896299Y-96449708D01*
X176931678Y-96515896D01*
X176979289Y-96573911D01*
X177037304Y-96621522D01*
X177103492Y-96656901D01*
X177175311Y-96678687D01*
X177250000Y-96686043D01*
X178950000Y-96686043D01*
X179024689Y-96678687D01*
X179096508Y-96656901D01*
X179162696Y-96621522D01*
X179220711Y-96573911D01*
X179268322Y-96515896D01*
X179303701Y-96449708D01*
X179325487Y-96377889D01*
X179332843Y-96303200D01*
X179332843Y-94702194D01*
X179569001Y-94466036D01*
X179569001Y-104381802D01*
X179383036Y-104569000D01*
X170700352Y-104569000D01*
X170266012Y-104424214D01*
X169367199Y-103742355D01*
X169345985Y-103729325D01*
X169330934Y-103723163D01*
X168702092Y-103511628D01*
X168677830Y-103506041D01*
X168661600Y-103505000D01*
X167818541Y-103505000D01*
X167940715Y-103465860D01*
X168134931Y-103362050D01*
X168243339Y-103177177D01*
X167411400Y-102345238D01*
X166579461Y-103177177D01*
X166687869Y-103362050D01*
X166920282Y-103481683D01*
X167001669Y-103505000D01*
X165430975Y-103505000D01*
X165525549Y-103465826D01*
X165751736Y-103314693D01*
X165944093Y-103122336D01*
X166095226Y-102896149D01*
X166169831Y-102716037D01*
X166187540Y-102771315D01*
X166291350Y-102965531D01*
X166476223Y-103073939D01*
X167308162Y-102242000D01*
X167514638Y-102242000D01*
X168346577Y-103073939D01*
X168531450Y-102965531D01*
X168651083Y-102733118D01*
X168654747Y-102720329D01*
X168727574Y-102896149D01*
X168878707Y-103122336D01*
X169071064Y-103314693D01*
X169297251Y-103465826D01*
X169548577Y-103569929D01*
X169815383Y-103623000D01*
X170087417Y-103623000D01*
X170354223Y-103569929D01*
X170605549Y-103465826D01*
X170831736Y-103314693D01*
X171024093Y-103122336D01*
X171175226Y-102896149D01*
X171221400Y-102784675D01*
X171267574Y-102896149D01*
X171418707Y-103122336D01*
X171611064Y-103314693D01*
X171837251Y-103465826D01*
X172088577Y-103569929D01*
X172355383Y-103623000D01*
X172627417Y-103623000D01*
X172894223Y-103569929D01*
X173145549Y-103465826D01*
X173371736Y-103314693D01*
X173564093Y-103122336D01*
X173677936Y-102951957D01*
X176869000Y-102951957D01*
X176869000Y-103194443D01*
X176916307Y-103432269D01*
X177009102Y-103656297D01*
X177143820Y-103857917D01*
X177315283Y-104029380D01*
X177516903Y-104164098D01*
X177740931Y-104256893D01*
X177978757Y-104304200D01*
X178221243Y-104304200D01*
X178459069Y-104256893D01*
X178683097Y-104164098D01*
X178884717Y-104029380D01*
X179056180Y-103857917D01*
X179190898Y-103656297D01*
X179283693Y-103432269D01*
X179331000Y-103194443D01*
X179331000Y-102951957D01*
X179283693Y-102714131D01*
X179190898Y-102490103D01*
X179056180Y-102288483D01*
X178884717Y-102117020D01*
X178683097Y-101982302D01*
X178459069Y-101889507D01*
X178221243Y-101842200D01*
X177978757Y-101842200D01*
X177740931Y-101889507D01*
X177516903Y-101982302D01*
X177315283Y-102117020D01*
X177143820Y-102288483D01*
X177009102Y-102490103D01*
X176916307Y-102714131D01*
X176869000Y-102951957D01*
X173677936Y-102951957D01*
X173715226Y-102896149D01*
X173819329Y-102644823D01*
X173872400Y-102378017D01*
X173872400Y-102105983D01*
X173819329Y-101839177D01*
X173715226Y-101587851D01*
X173564093Y-101361664D01*
X173371736Y-101169307D01*
X173145549Y-101018174D01*
X172894223Y-100914071D01*
X172627417Y-100861000D01*
X172355383Y-100861000D01*
X172088577Y-100914071D01*
X171837251Y-101018174D01*
X171611064Y-101169307D01*
X171418707Y-101361664D01*
X171267574Y-101587851D01*
X171221400Y-101699325D01*
X171175226Y-101587851D01*
X171024093Y-101361664D01*
X170831736Y-101169307D01*
X170605549Y-101018174D01*
X170354223Y-100914071D01*
X170087417Y-100861000D01*
X169815383Y-100861000D01*
X169548577Y-100914071D01*
X169297251Y-101018174D01*
X169071064Y-101169307D01*
X168878707Y-101361664D01*
X168727574Y-101587851D01*
X168652969Y-101767963D01*
X168635260Y-101712685D01*
X168531450Y-101518469D01*
X168346577Y-101410061D01*
X167514638Y-102242000D01*
X167308162Y-102242000D01*
X166476223Y-101410061D01*
X166291350Y-101518469D01*
X166171717Y-101750882D01*
X166168053Y-101763671D01*
X166095226Y-101587851D01*
X165944093Y-101361664D01*
X165889252Y-101306823D01*
X166579461Y-101306823D01*
X167411400Y-102138762D01*
X168243339Y-101306823D01*
X168134931Y-101121950D01*
X167902518Y-101002317D01*
X167651232Y-100930325D01*
X167390728Y-100908740D01*
X167131019Y-100938391D01*
X166882085Y-101018140D01*
X166687869Y-101121950D01*
X166579461Y-101306823D01*
X165889252Y-101306823D01*
X165751736Y-101169307D01*
X165525549Y-101018174D01*
X165274223Y-100914071D01*
X165007417Y-100861000D01*
X164735383Y-100861000D01*
X164468577Y-100914071D01*
X164217251Y-101018174D01*
X163991064Y-101169307D01*
X163798707Y-101361664D01*
X163647574Y-101587851D01*
X163601400Y-101699325D01*
X163555226Y-101587851D01*
X163404093Y-101361664D01*
X163211736Y-101169307D01*
X162985549Y-101018174D01*
X162734223Y-100914071D01*
X162467417Y-100861000D01*
X162195383Y-100861000D01*
X161928577Y-100914071D01*
X161677251Y-101018174D01*
X161451064Y-101169307D01*
X161258707Y-101361664D01*
X161107574Y-101587851D01*
X161061400Y-101699325D01*
X161015226Y-101587851D01*
X160864093Y-101361664D01*
X160671736Y-101169307D01*
X160445549Y-101018174D01*
X160194223Y-100914071D01*
X159927417Y-100861000D01*
X159655383Y-100861000D01*
X159388577Y-100914071D01*
X159137251Y-101018174D01*
X158911064Y-101169307D01*
X158770456Y-101309915D01*
X158788178Y-100411957D01*
X176869000Y-100411957D01*
X176869000Y-100654443D01*
X176916307Y-100892269D01*
X177009102Y-101116297D01*
X177143820Y-101317917D01*
X177315283Y-101489380D01*
X177516903Y-101624098D01*
X177740931Y-101716893D01*
X177978757Y-101764200D01*
X178221243Y-101764200D01*
X178459069Y-101716893D01*
X178683097Y-101624098D01*
X178884717Y-101489380D01*
X179056180Y-101317917D01*
X179190898Y-101116297D01*
X179283693Y-100892269D01*
X179331000Y-100654443D01*
X179331000Y-100411957D01*
X179283693Y-100174131D01*
X179190898Y-99950103D01*
X179056180Y-99748483D01*
X178884717Y-99577020D01*
X178683097Y-99442302D01*
X178459069Y-99349507D01*
X178221243Y-99302200D01*
X177978757Y-99302200D01*
X177740931Y-99349507D01*
X177516903Y-99442302D01*
X177315283Y-99577020D01*
X177143820Y-99748483D01*
X177009102Y-99950103D01*
X176916307Y-100174131D01*
X176869000Y-100411957D01*
X158788178Y-100411957D01*
X158828052Y-98391681D01*
X158911064Y-98474693D01*
X159137251Y-98625826D01*
X159388577Y-98729929D01*
X159655383Y-98783000D01*
X159927417Y-98783000D01*
X160194223Y-98729929D01*
X160445549Y-98625826D01*
X160671736Y-98474693D01*
X160864093Y-98282336D01*
X161015226Y-98056149D01*
X161061400Y-97944675D01*
X161107574Y-98056149D01*
X161258707Y-98282336D01*
X161451064Y-98474693D01*
X161677251Y-98625826D01*
X161928577Y-98729929D01*
X162195383Y-98783000D01*
X162467417Y-98783000D01*
X162734223Y-98729929D01*
X162985549Y-98625826D01*
X163211736Y-98474693D01*
X163404093Y-98282336D01*
X163555226Y-98056149D01*
X163601400Y-97944675D01*
X163647574Y-98056149D01*
X163798707Y-98282336D01*
X163991064Y-98474693D01*
X164217251Y-98625826D01*
X164468577Y-98729929D01*
X164735383Y-98783000D01*
X165007417Y-98783000D01*
X165274223Y-98729929D01*
X165525549Y-98625826D01*
X165751736Y-98474693D01*
X165944093Y-98282336D01*
X166095226Y-98056149D01*
X166141400Y-97944675D01*
X166187574Y-98056149D01*
X166338707Y-98282336D01*
X166531064Y-98474693D01*
X166757251Y-98625826D01*
X167008577Y-98729929D01*
X167275383Y-98783000D01*
X167547417Y-98783000D01*
X167814223Y-98729929D01*
X168065549Y-98625826D01*
X168291736Y-98474693D01*
X168484093Y-98282336D01*
X168635226Y-98056149D01*
X168681400Y-97944675D01*
X168727574Y-98056149D01*
X168878707Y-98282336D01*
X169071064Y-98474693D01*
X169297251Y-98625826D01*
X169548577Y-98729929D01*
X169815383Y-98783000D01*
X170087417Y-98783000D01*
X170354223Y-98729929D01*
X170605549Y-98625826D01*
X170831736Y-98474693D01*
X171024093Y-98282336D01*
X171175226Y-98056149D01*
X171221400Y-97944675D01*
X171267574Y-98056149D01*
X171418707Y-98282336D01*
X171611064Y-98474693D01*
X171837251Y-98625826D01*
X172088577Y-98729929D01*
X172355383Y-98783000D01*
X172627417Y-98783000D01*
X172894223Y-98729929D01*
X173145549Y-98625826D01*
X173371736Y-98474693D01*
X173564093Y-98282336D01*
X173586320Y-98249070D01*
X176951149Y-98249070D01*
X177002607Y-98418720D01*
X177106708Y-98624635D01*
X177248981Y-98806284D01*
X177423958Y-98956686D01*
X177624915Y-99070062D01*
X177844129Y-99142055D01*
X178027000Y-99086188D01*
X178027000Y-98066200D01*
X178173000Y-98066200D01*
X178173000Y-99086188D01*
X178355871Y-99142055D01*
X178575085Y-99070062D01*
X178776042Y-98956686D01*
X178951019Y-98806284D01*
X179093292Y-98624635D01*
X179197393Y-98418720D01*
X179248851Y-98249070D01*
X179192815Y-98066200D01*
X178173000Y-98066200D01*
X178027000Y-98066200D01*
X177007185Y-98066200D01*
X176951149Y-98249070D01*
X173586320Y-98249070D01*
X173715226Y-98056149D01*
X173819329Y-97804823D01*
X173832754Y-97737330D01*
X176951149Y-97737330D01*
X177007185Y-97920200D01*
X178027000Y-97920200D01*
X178027000Y-96900212D01*
X178173000Y-96900212D01*
X178173000Y-97920200D01*
X179192815Y-97920200D01*
X179248851Y-97737330D01*
X179197393Y-97567680D01*
X179093292Y-97361765D01*
X178951019Y-97180116D01*
X178776042Y-97029714D01*
X178575085Y-96916338D01*
X178355871Y-96844345D01*
X178173000Y-96900212D01*
X178027000Y-96900212D01*
X177844129Y-96844345D01*
X177624915Y-96916338D01*
X177423958Y-97029714D01*
X177248981Y-97180116D01*
X177106708Y-97361765D01*
X177002607Y-97567680D01*
X176951149Y-97737330D01*
X173832754Y-97737330D01*
X173872400Y-97538017D01*
X173872400Y-97265983D01*
X173819329Y-96999177D01*
X173715226Y-96747851D01*
X173564093Y-96521664D01*
X173371736Y-96329307D01*
X173145549Y-96178174D01*
X172894223Y-96074071D01*
X172627417Y-96021000D01*
X172355383Y-96021000D01*
X172088577Y-96074071D01*
X171837251Y-96178174D01*
X171611064Y-96329307D01*
X171418707Y-96521664D01*
X171267574Y-96747851D01*
X171221400Y-96859325D01*
X171175226Y-96747851D01*
X171024093Y-96521664D01*
X170831736Y-96329307D01*
X170605549Y-96178174D01*
X170354223Y-96074071D01*
X170087417Y-96021000D01*
X170051400Y-96021000D01*
X170051400Y-94243720D01*
X170110662Y-94237883D01*
X170229379Y-94201871D01*
X170338789Y-94143390D01*
X170434688Y-94064688D01*
X170513390Y-93968789D01*
X170571871Y-93859379D01*
X170607883Y-93740662D01*
X170620043Y-93617201D01*
X170620043Y-92717199D01*
X170607883Y-92593738D01*
X170571871Y-92475021D01*
X170513390Y-92365611D01*
X170464469Y-92306000D01*
X170809931Y-92306000D01*
X170761010Y-92365611D01*
X170702529Y-92475021D01*
X170666517Y-92593738D01*
X170654357Y-92717199D01*
X170654357Y-93617201D01*
X170666517Y-93740662D01*
X170702529Y-93859379D01*
X170761010Y-93968789D01*
X170839712Y-94064688D01*
X170935611Y-94143390D01*
X171045021Y-94201871D01*
X171163738Y-94237883D01*
X171287199Y-94250043D01*
X171987201Y-94250043D01*
X172110662Y-94237883D01*
X172229379Y-94201871D01*
X172338789Y-94143390D01*
X172434688Y-94064688D01*
X172513390Y-93968789D01*
X172567600Y-93867369D01*
X172621810Y-93968789D01*
X172700512Y-94064688D01*
X172796411Y-94143390D01*
X172905821Y-94201871D01*
X173024538Y-94237883D01*
X173147999Y-94250043D01*
X173848001Y-94250043D01*
X173971462Y-94237883D01*
X174090179Y-94201871D01*
X174199589Y-94143390D01*
X174295488Y-94064688D01*
X174374190Y-93968789D01*
X174428490Y-93867200D01*
X174569418Y-93867200D01*
X174575732Y-93931303D01*
X174594430Y-93992943D01*
X174624794Y-94049750D01*
X174665657Y-94099543D01*
X174715450Y-94140406D01*
X174772257Y-94170770D01*
X174833897Y-94189468D01*
X174898000Y-94195782D01*
X175343250Y-94194200D01*
X175425000Y-94112450D01*
X175425000Y-93240200D01*
X175571000Y-93240200D01*
X175571000Y-94112450D01*
X175652750Y-94194200D01*
X176098000Y-94195782D01*
X176162103Y-94189468D01*
X176223743Y-94170770D01*
X176280550Y-94140406D01*
X176330343Y-94099543D01*
X176371206Y-94049750D01*
X176401570Y-93992943D01*
X176420268Y-93931303D01*
X176426582Y-93867200D01*
X176425000Y-93321950D01*
X176343250Y-93240200D01*
X175571000Y-93240200D01*
X175425000Y-93240200D01*
X174652750Y-93240200D01*
X174571000Y-93321950D01*
X174569418Y-93867200D01*
X174428490Y-93867200D01*
X174432671Y-93859379D01*
X174468683Y-93740662D01*
X174480843Y-93617201D01*
X174480843Y-92717199D01*
X174468683Y-92593738D01*
X174432671Y-92475021D01*
X174428491Y-92467200D01*
X174569418Y-92467200D01*
X174571000Y-93012450D01*
X174652750Y-93094200D01*
X175425000Y-93094200D01*
X175425000Y-92221950D01*
X175571000Y-92221950D01*
X175571000Y-93094200D01*
X176343250Y-93094200D01*
X176425000Y-93012450D01*
X176426582Y-92467200D01*
X176420268Y-92403097D01*
X176401570Y-92341457D01*
X176371206Y-92284650D01*
X176330343Y-92234857D01*
X176280550Y-92193994D01*
X176223743Y-92163630D01*
X176162103Y-92144932D01*
X176098000Y-92138618D01*
X175652750Y-92140200D01*
X175571000Y-92221950D01*
X175425000Y-92221950D01*
X175343250Y-92140200D01*
X174898000Y-92138618D01*
X174833897Y-92144932D01*
X174772257Y-92163630D01*
X174715450Y-92193994D01*
X174665657Y-92234857D01*
X174624794Y-92284650D01*
X174594430Y-92341457D01*
X174575732Y-92403097D01*
X174569418Y-92467200D01*
X174428491Y-92467200D01*
X174374190Y-92365611D01*
X174295488Y-92269712D01*
X174199589Y-92191010D01*
X174090179Y-92132529D01*
X173971462Y-92096517D01*
X173912200Y-92090680D01*
X173912200Y-87384307D01*
X173929059Y-87373042D01*
X174037842Y-87264259D01*
X174123313Y-87136342D01*
X174182187Y-86994209D01*
X174212200Y-86843322D01*
X174212200Y-86689478D01*
X174182187Y-86538591D01*
X174123313Y-86396458D01*
X174037842Y-86268541D01*
X173929059Y-86159758D01*
X173891524Y-86134678D01*
X174369800Y-86134678D01*
X174369800Y-86288522D01*
X174399813Y-86439409D01*
X174458687Y-86581542D01*
X174544158Y-86709459D01*
X174652941Y-86818242D01*
X174780858Y-86903713D01*
X174922991Y-86962587D01*
X175073878Y-86992600D01*
X175227722Y-86992600D01*
X175378609Y-86962587D01*
X175520742Y-86903713D01*
X175648659Y-86818242D01*
X175757442Y-86709459D01*
X175842913Y-86581542D01*
X175901787Y-86439409D01*
X175931800Y-86288522D01*
X175931800Y-86134678D01*
X175901787Y-85983791D01*
X175842913Y-85841658D01*
X175757442Y-85713741D01*
X175648659Y-85604958D01*
X175520742Y-85519487D01*
X175378609Y-85460613D01*
X175227722Y-85430600D01*
X175073878Y-85430600D01*
X174922991Y-85460613D01*
X174780858Y-85519487D01*
X174652941Y-85604958D01*
X174544158Y-85713741D01*
X174458687Y-85841658D01*
X174399813Y-85983791D01*
X174369800Y-86134678D01*
X173891524Y-86134678D01*
X173801142Y-86074287D01*
X173659009Y-86015413D01*
X173508122Y-85985400D01*
X173354278Y-85985400D01*
X173203391Y-86015413D01*
X173061258Y-86074287D01*
X173006000Y-86111209D01*
X173006000Y-86009591D01*
X174434592Y-84581000D01*
X174576922Y-84581000D01*
X174727809Y-84550987D01*
X174869942Y-84492113D01*
X174997859Y-84406642D01*
X175106642Y-84297859D01*
X175192113Y-84169942D01*
X175250987Y-84027809D01*
X175281000Y-83876922D01*
X175281000Y-83861237D01*
X177933400Y-86513637D01*
G37*
%TD.AperFunction*%
D23*
X160249999Y-91182843D02*
X160950001Y-91182843D01*
X160965705Y-91181296D01*
X161759778Y-91975370D01*
X161759784Y-91975375D01*
X161924624Y-92140215D01*
X161940473Y-92159527D01*
X162017521Y-92222759D01*
X162105363Y-92269712D01*
X162105425Y-92269745D01*
X162200807Y-92298678D01*
X162300000Y-92308448D01*
X162324854Y-92306000D01*
X168809931Y-92306000D01*
X168761010Y-92365611D01*
X168702529Y-92475021D01*
X168666517Y-92593738D01*
X168654357Y-92717199D01*
X168654357Y-93617201D01*
X168666517Y-93740662D01*
X168702529Y-93859379D01*
X168761010Y-93968789D01*
X168839712Y-94064688D01*
X168935611Y-94143390D01*
X169045021Y-94201871D01*
X169089400Y-94215333D01*
X169089401Y-96317055D01*
X169071064Y-96329307D01*
X168878707Y-96521664D01*
X168727574Y-96747851D01*
X168681400Y-96859325D01*
X168635226Y-96747851D01*
X168484093Y-96521664D01*
X168291736Y-96329307D01*
X168065549Y-96178174D01*
X167814223Y-96074071D01*
X167547417Y-96021000D01*
X167275383Y-96021000D01*
X167008577Y-96074071D01*
X166757251Y-96178174D01*
X166531064Y-96329307D01*
X166338707Y-96521664D01*
X166187574Y-96747851D01*
X166141400Y-96859325D01*
X166095226Y-96747851D01*
X165944093Y-96521664D01*
X165751736Y-96329307D01*
X165525549Y-96178174D01*
X165274223Y-96074071D01*
X165007417Y-96021000D01*
X164735383Y-96021000D01*
X164468577Y-96074071D01*
X164217251Y-96178174D01*
X163991064Y-96329307D01*
X163798707Y-96521664D01*
X163647574Y-96747851D01*
X163601400Y-96859325D01*
X163555226Y-96747851D01*
X163404093Y-96521664D01*
X163211736Y-96329307D01*
X162985549Y-96178174D01*
X162734223Y-96074071D01*
X162467417Y-96021000D01*
X162195383Y-96021000D01*
X161928577Y-96074071D01*
X161677251Y-96178174D01*
X161451064Y-96329307D01*
X161258707Y-96521664D01*
X161107574Y-96747851D01*
X161061400Y-96859325D01*
X161015226Y-96747851D01*
X160864093Y-96521664D01*
X160671736Y-96329307D01*
X160445549Y-96178174D01*
X160194223Y-96074071D01*
X160143790Y-96064039D01*
X160143790Y-91172382D01*
X160249999Y-91182843D01*
%TA.AperFunction,Conductor*%
D24*
G36*
X160249999Y-91182843D02*
G01*
X160950001Y-91182843D01*
X160965705Y-91181296D01*
X161759778Y-91975370D01*
X161759784Y-91975375D01*
X161924624Y-92140215D01*
X161940473Y-92159527D01*
X162017521Y-92222759D01*
X162105363Y-92269712D01*
X162105425Y-92269745D01*
X162200807Y-92298678D01*
X162300000Y-92308448D01*
X162324854Y-92306000D01*
X168809931Y-92306000D01*
X168761010Y-92365611D01*
X168702529Y-92475021D01*
X168666517Y-92593738D01*
X168654357Y-92717199D01*
X168654357Y-93617201D01*
X168666517Y-93740662D01*
X168702529Y-93859379D01*
X168761010Y-93968789D01*
X168839712Y-94064688D01*
X168935611Y-94143390D01*
X169045021Y-94201871D01*
X169089400Y-94215333D01*
X169089401Y-96317055D01*
X169071064Y-96329307D01*
X168878707Y-96521664D01*
X168727574Y-96747851D01*
X168681400Y-96859325D01*
X168635226Y-96747851D01*
X168484093Y-96521664D01*
X168291736Y-96329307D01*
X168065549Y-96178174D01*
X167814223Y-96074071D01*
X167547417Y-96021000D01*
X167275383Y-96021000D01*
X167008577Y-96074071D01*
X166757251Y-96178174D01*
X166531064Y-96329307D01*
X166338707Y-96521664D01*
X166187574Y-96747851D01*
X166141400Y-96859325D01*
X166095226Y-96747851D01*
X165944093Y-96521664D01*
X165751736Y-96329307D01*
X165525549Y-96178174D01*
X165274223Y-96074071D01*
X165007417Y-96021000D01*
X164735383Y-96021000D01*
X164468577Y-96074071D01*
X164217251Y-96178174D01*
X163991064Y-96329307D01*
X163798707Y-96521664D01*
X163647574Y-96747851D01*
X163601400Y-96859325D01*
X163555226Y-96747851D01*
X163404093Y-96521664D01*
X163211736Y-96329307D01*
X162985549Y-96178174D01*
X162734223Y-96074071D01*
X162467417Y-96021000D01*
X162195383Y-96021000D01*
X161928577Y-96074071D01*
X161677251Y-96178174D01*
X161451064Y-96329307D01*
X161258707Y-96521664D01*
X161107574Y-96747851D01*
X161061400Y-96859325D01*
X161015226Y-96747851D01*
X160864093Y-96521664D01*
X160671736Y-96329307D01*
X160445549Y-96178174D01*
X160194223Y-96074071D01*
X160143790Y-96064039D01*
X160143790Y-91172382D01*
X160249999Y-91182843D01*
G37*
%TD.AperFunction*%
D23*
X179569000Y-60667488D02*
X179569000Y-74621315D01*
X179515989Y-74577810D01*
X179406579Y-74519329D01*
X179287862Y-74483317D01*
X179164401Y-74471157D01*
X178264399Y-74471157D01*
X178140938Y-74483317D01*
X178022221Y-74519329D01*
X177912811Y-74577810D01*
X177816912Y-74656512D01*
X177738210Y-74752411D01*
X177679729Y-74861821D01*
X177643717Y-74980538D01*
X177631557Y-75103999D01*
X177631557Y-75804001D01*
X177643717Y-75927462D01*
X177679729Y-76046179D01*
X177738210Y-76155589D01*
X177816912Y-76251488D01*
X177912811Y-76330190D01*
X178022221Y-76388671D01*
X178140938Y-76424683D01*
X178264399Y-76436843D01*
X179164401Y-76436843D01*
X179287862Y-76424683D01*
X179406579Y-76388671D01*
X179515989Y-76330190D01*
X179569000Y-76286685D01*
X179569000Y-76621315D01*
X179515989Y-76577810D01*
X179406579Y-76519329D01*
X179287862Y-76483317D01*
X179164401Y-76471157D01*
X178264399Y-76471157D01*
X178140938Y-76483317D01*
X178022221Y-76519329D01*
X177912811Y-76577810D01*
X177816912Y-76656512D01*
X177738210Y-76752411D01*
X177679729Y-76861821D01*
X177646004Y-76973000D01*
X175820396Y-76973000D01*
X175786671Y-76861821D01*
X175728190Y-76752411D01*
X175649488Y-76656512D01*
X175553589Y-76577810D01*
X175444179Y-76519329D01*
X175325462Y-76483317D01*
X175202001Y-76471157D01*
X174301999Y-76471157D01*
X174178538Y-76483317D01*
X174059821Y-76519329D01*
X173950411Y-76577810D01*
X173854512Y-76656512D01*
X173775810Y-76752411D01*
X173717329Y-76861821D01*
X173683604Y-76973000D01*
X172376344Y-76973000D01*
X172447761Y-76951336D01*
X172531322Y-76906672D01*
X172604564Y-76846564D01*
X172619630Y-76828206D01*
X172623192Y-76824644D01*
X172643078Y-76828600D01*
X172796922Y-76828600D01*
X172947809Y-76798587D01*
X173089942Y-76739713D01*
X173217859Y-76654242D01*
X173326642Y-76545459D01*
X173412113Y-76417542D01*
X173470987Y-76275409D01*
X173501000Y-76124522D01*
X173501000Y-75970678D01*
X173470987Y-75819791D01*
X173412113Y-75677658D01*
X173326642Y-75549741D01*
X173217859Y-75440958D01*
X173089942Y-75355487D01*
X172947809Y-75296613D01*
X172796922Y-75266600D01*
X172643078Y-75266600D01*
X172492191Y-75296613D01*
X172350058Y-75355487D01*
X172222141Y-75440958D01*
X172113358Y-75549741D01*
X172027887Y-75677658D01*
X171969013Y-75819791D01*
X171939000Y-75970678D01*
X171939000Y-76023800D01*
X161641637Y-76023800D01*
X160529230Y-74911394D01*
X160514164Y-74893036D01*
X160440922Y-74832928D01*
X160357361Y-74788264D01*
X160266692Y-74760760D01*
X160196026Y-74753800D01*
X160172400Y-74751473D01*
X160148774Y-74753800D01*
X150569790Y-74753800D01*
X150560683Y-74661338D01*
X150524671Y-74542621D01*
X150466190Y-74433211D01*
X150387488Y-74337312D01*
X150291589Y-74258610D01*
X150182179Y-74200129D01*
X150063462Y-74164117D01*
X149940001Y-74151957D01*
X149239999Y-74151957D01*
X149116538Y-74164117D01*
X148997821Y-74200129D01*
X148888411Y-74258610D01*
X148792512Y-74337312D01*
X148713810Y-74433211D01*
X148655329Y-74542621D01*
X148619317Y-74661338D01*
X148607157Y-74784799D01*
X148607157Y-75684801D01*
X148619317Y-75808262D01*
X148655329Y-75926979D01*
X148713810Y-76036389D01*
X148792512Y-76132288D01*
X148888411Y-76210990D01*
X148997821Y-76269471D01*
X149116538Y-76305483D01*
X149239999Y-76317643D01*
X149940001Y-76317643D01*
X150063462Y-76305483D01*
X150182179Y-76269471D01*
X150291589Y-76210990D01*
X150387488Y-76132288D01*
X150466190Y-76036389D01*
X150524671Y-75926979D01*
X150560683Y-75808262D01*
X150569790Y-75715800D01*
X155279699Y-75715800D01*
X155193358Y-75802141D01*
X155107887Y-75930058D01*
X155049013Y-76072191D01*
X155019000Y-76223078D01*
X155019000Y-76376922D01*
X155049013Y-76527809D01*
X155107887Y-76669942D01*
X155193358Y-76797859D01*
X155294001Y-76898502D01*
X155294000Y-77575153D01*
X155291553Y-77600000D01*
X155294000Y-77624846D01*
X155294000Y-77624853D01*
X155301322Y-77699192D01*
X155330255Y-77794574D01*
X155377241Y-77882479D01*
X155440473Y-77959527D01*
X155459785Y-77975376D01*
X156124628Y-78640220D01*
X156140473Y-78659527D01*
X156217521Y-78722759D01*
X156305425Y-78769745D01*
X156378607Y-78791944D01*
X156400806Y-78798678D01*
X156410694Y-78799652D01*
X156475146Y-78806000D01*
X156475153Y-78806000D01*
X156499999Y-78808447D01*
X156524845Y-78806000D01*
X159290409Y-78806000D01*
X159971800Y-79487392D01*
X159842991Y-79513013D01*
X159700858Y-79571887D01*
X159572941Y-79657358D01*
X159464158Y-79766141D01*
X159378687Y-79894058D01*
X159319813Y-80036191D01*
X159289800Y-80187078D01*
X159289800Y-80340922D01*
X159294183Y-80362956D01*
X159260919Y-80403488D01*
X159216255Y-80487049D01*
X159188750Y-80577718D01*
X159179463Y-80672010D01*
X159181791Y-80695646D01*
X159181791Y-81877290D01*
X159097859Y-81793358D01*
X158969942Y-81707887D01*
X158827809Y-81649013D01*
X158676922Y-81619000D01*
X158523078Y-81619000D01*
X158372191Y-81649013D01*
X158230058Y-81707887D01*
X158102141Y-81793358D01*
X157993358Y-81902141D01*
X157907887Y-82030058D01*
X157849013Y-82172191D01*
X157819000Y-82323078D01*
X157819000Y-82476922D01*
X157849013Y-82627809D01*
X157907887Y-82769942D01*
X157956982Y-82843419D01*
X157861211Y-82894610D01*
X157765312Y-82973312D01*
X157686610Y-83069211D01*
X157628129Y-83178621D01*
X157592117Y-83297338D01*
X157579957Y-83420799D01*
X157579957Y-84320801D01*
X157592117Y-84444262D01*
X157628129Y-84562979D01*
X157686610Y-84672389D01*
X157765312Y-84768288D01*
X157861211Y-84846990D01*
X157888170Y-84861400D01*
X157861211Y-84875810D01*
X157765312Y-84954512D01*
X157686610Y-85050411D01*
X157628129Y-85159821D01*
X157592117Y-85278538D01*
X157583010Y-85371000D01*
X157526837Y-85371000D01*
X155471800Y-83315964D01*
X155471800Y-81151226D01*
X155474127Y-81127600D01*
X155464840Y-81033307D01*
X155456496Y-81005803D01*
X155437336Y-80942639D01*
X155392672Y-80859078D01*
X155332564Y-80785836D01*
X155314212Y-80770775D01*
X154082172Y-79538736D01*
X154141635Y-79342715D01*
X154163472Y-79121000D01*
X154141635Y-78899285D01*
X154076963Y-78686091D01*
X153971942Y-78489610D01*
X153830607Y-78317393D01*
X153658390Y-78176058D01*
X153461909Y-78071037D01*
X153248715Y-78006365D01*
X153082558Y-77990000D01*
X151971442Y-77990000D01*
X151805285Y-78006365D01*
X151592091Y-78071037D01*
X151395610Y-78176058D01*
X151223393Y-78317393D01*
X151082058Y-78489610D01*
X150977037Y-78686091D01*
X150912365Y-78899285D01*
X150890528Y-79121000D01*
X150912365Y-79342715D01*
X150977037Y-79555909D01*
X151082058Y-79752390D01*
X151223393Y-79924607D01*
X151395610Y-80065942D01*
X151592091Y-80170963D01*
X151805285Y-80235635D01*
X151971442Y-80252000D01*
X153082558Y-80252000D01*
X153248715Y-80235635D01*
X153379059Y-80196095D01*
X154509800Y-81326837D01*
X154509801Y-83491564D01*
X154507473Y-83515200D01*
X154516760Y-83609492D01*
X154537004Y-83676226D01*
X154544265Y-83700161D01*
X154588929Y-83783722D01*
X154649037Y-83856964D01*
X154667389Y-83872025D01*
X156970775Y-86175412D01*
X156985836Y-86193764D01*
X157059078Y-86253872D01*
X157142639Y-86298536D01*
X157233308Y-86326040D01*
X157303974Y-86333000D01*
X157303975Y-86333000D01*
X157327599Y-86335327D01*
X157351223Y-86333000D01*
X157583010Y-86333000D01*
X157592117Y-86425462D01*
X157628129Y-86544179D01*
X157686610Y-86653589D01*
X157765312Y-86749488D01*
X157861211Y-86828190D01*
X157935690Y-86868000D01*
X157861211Y-86907810D01*
X157765312Y-86986512D01*
X157686610Y-87082411D01*
X157628129Y-87191821D01*
X157592117Y-87310538D01*
X157579957Y-87433999D01*
X157579957Y-88334001D01*
X157592117Y-88457462D01*
X157628129Y-88576179D01*
X157686610Y-88685589D01*
X157765312Y-88781488D01*
X157861211Y-88860190D01*
X157970621Y-88918671D01*
X158089338Y-88954683D01*
X158212799Y-88966843D01*
X158912801Y-88966843D01*
X159036262Y-88954683D01*
X159154979Y-88918671D01*
X159181791Y-88904340D01*
X159181790Y-89062178D01*
X159073462Y-89029317D01*
X158950001Y-89017157D01*
X158249999Y-89017157D01*
X158126538Y-89029317D01*
X158007821Y-89065329D01*
X157898411Y-89123810D01*
X157802512Y-89202512D01*
X157723810Y-89298411D01*
X157665329Y-89407821D01*
X157629317Y-89526538D01*
X157617157Y-89649999D01*
X157617157Y-90550001D01*
X157629317Y-90673462D01*
X157665329Y-90792179D01*
X157723810Y-90901589D01*
X157802512Y-90997488D01*
X157898411Y-91076190D01*
X158007821Y-91134671D01*
X158126538Y-91170683D01*
X158249999Y-91182843D01*
X158950001Y-91182843D01*
X159073462Y-91170683D01*
X159181790Y-91137822D01*
X159181790Y-96159725D01*
X159137251Y-96178174D01*
X158911064Y-96329307D01*
X158867904Y-96372467D01*
X158870068Y-96262838D01*
X158868117Y-96238018D01*
X158861362Y-96214056D01*
X158856152Y-96202481D01*
X158575214Y-95653438D01*
X158561755Y-95632493D01*
X158544469Y-95614576D01*
X158534404Y-95606842D01*
X152366667Y-91340438D01*
X151940696Y-90853235D01*
X148168985Y-83451000D01*
X150894157Y-83451000D01*
X150894157Y-84951000D01*
X150901513Y-85025689D01*
X150923299Y-85097508D01*
X150958678Y-85163696D01*
X151006289Y-85221711D01*
X151064304Y-85269322D01*
X151130492Y-85304701D01*
X151202311Y-85326487D01*
X151277000Y-85333843D01*
X153777000Y-85333843D01*
X153851689Y-85326487D01*
X153923508Y-85304701D01*
X153989696Y-85269322D01*
X154047711Y-85221711D01*
X154095322Y-85163696D01*
X154130701Y-85097508D01*
X154152487Y-85025689D01*
X154159843Y-84951000D01*
X154159843Y-83451000D01*
X154152487Y-83376311D01*
X154130701Y-83304492D01*
X154095322Y-83238304D01*
X154047711Y-83180289D01*
X153989696Y-83132678D01*
X153923508Y-83097299D01*
X153851689Y-83075513D01*
X153777000Y-83068157D01*
X151277000Y-83068157D01*
X151202311Y-83075513D01*
X151130492Y-83097299D01*
X151064304Y-83132678D01*
X151006289Y-83180289D01*
X150958678Y-83238304D01*
X150923299Y-83304492D01*
X150901513Y-83376311D01*
X150894157Y-83451000D01*
X148168985Y-83451000D01*
X147379302Y-81901194D01*
X150977126Y-81901194D01*
X151004045Y-82005707D01*
X151090950Y-82198652D01*
X151213827Y-82370935D01*
X151367953Y-82515936D01*
X151547406Y-82628082D01*
X151745290Y-82703064D01*
X151954000Y-82738000D01*
X152454000Y-82738000D01*
X152454000Y-81734000D01*
X152600000Y-81734000D01*
X152600000Y-82738000D01*
X153100000Y-82738000D01*
X153308710Y-82703064D01*
X153506594Y-82628082D01*
X153686047Y-82515936D01*
X153840173Y-82370935D01*
X153963050Y-82198652D01*
X154049955Y-82005707D01*
X154076874Y-81901194D01*
X154019569Y-81734000D01*
X152600000Y-81734000D01*
X152454000Y-81734000D01*
X151034431Y-81734000D01*
X150977126Y-81901194D01*
X147379302Y-81901194D01*
X147134527Y-81420806D01*
X150977126Y-81420806D01*
X151034431Y-81588000D01*
X152454000Y-81588000D01*
X152454000Y-80584000D01*
X152600000Y-80584000D01*
X152600000Y-81588000D01*
X154019569Y-81588000D01*
X154076874Y-81420806D01*
X154049955Y-81316293D01*
X153963050Y-81123348D01*
X153840173Y-80951065D01*
X153686047Y-80806064D01*
X153506594Y-80693918D01*
X153308710Y-80618936D01*
X153100000Y-80584000D01*
X152600000Y-80584000D01*
X152454000Y-80584000D01*
X151954000Y-80584000D01*
X151745290Y-80618936D01*
X151547406Y-80693918D01*
X151367953Y-80806064D01*
X151213827Y-80951065D01*
X151090950Y-81123348D01*
X151004045Y-81316293D01*
X150977126Y-81420806D01*
X147134527Y-81420806D01*
X144231843Y-75724097D01*
X144231843Y-74845000D01*
X144566157Y-74845000D01*
X144566157Y-75745000D01*
X144573513Y-75819689D01*
X144595299Y-75891508D01*
X144630678Y-75957696D01*
X144678289Y-76015711D01*
X144736304Y-76063322D01*
X144802492Y-76098701D01*
X144874311Y-76120487D01*
X144949000Y-76127843D01*
X145749000Y-76127843D01*
X145823689Y-76120487D01*
X145895508Y-76098701D01*
X145961696Y-76063322D01*
X146019711Y-76015711D01*
X146067322Y-75957696D01*
X146102701Y-75891508D01*
X146124487Y-75819689D01*
X146128790Y-75776000D01*
X146616139Y-75776000D01*
X146619317Y-75808262D01*
X146655329Y-75926979D01*
X146713810Y-76036389D01*
X146792512Y-76132288D01*
X146888411Y-76210990D01*
X146997821Y-76269471D01*
X147116538Y-76305483D01*
X147239999Y-76317643D01*
X147940001Y-76317643D01*
X148063462Y-76305483D01*
X148182179Y-76269471D01*
X148291589Y-76210990D01*
X148387488Y-76132288D01*
X148466190Y-76036389D01*
X148524671Y-75926979D01*
X148560683Y-75808262D01*
X148572843Y-75684801D01*
X148572843Y-74784799D01*
X148560683Y-74661338D01*
X148524671Y-74542621D01*
X148466190Y-74433211D01*
X148387488Y-74337312D01*
X148291589Y-74258610D01*
X148182179Y-74200129D01*
X148063462Y-74164117D01*
X147940001Y-74151957D01*
X147239999Y-74151957D01*
X147116538Y-74164117D01*
X146997821Y-74200129D01*
X146888411Y-74258610D01*
X146792512Y-74337312D01*
X146713810Y-74433211D01*
X146655329Y-74542621D01*
X146619317Y-74661338D01*
X146607157Y-74784799D01*
X146607157Y-74814000D01*
X146128790Y-74814000D01*
X146124487Y-74770311D01*
X146102701Y-74698492D01*
X146067322Y-74632304D01*
X146019711Y-74574289D01*
X145961696Y-74526678D01*
X145895508Y-74491299D01*
X145823689Y-74469513D01*
X145749000Y-74462157D01*
X144949000Y-74462157D01*
X144874311Y-74469513D01*
X144802492Y-74491299D01*
X144736304Y-74526678D01*
X144678289Y-74574289D01*
X144630678Y-74632304D01*
X144595299Y-74698492D01*
X144573513Y-74770311D01*
X144566157Y-74845000D01*
X144231843Y-74845000D01*
X144224487Y-74770311D01*
X144202701Y-74698492D01*
X144167322Y-74632304D01*
X144119711Y-74574289D01*
X144061696Y-74526678D01*
X143995508Y-74491299D01*
X143923689Y-74469513D01*
X143849000Y-74462157D01*
X143588838Y-74462157D01*
X142772640Y-72860314D01*
X142614959Y-72226652D01*
X142576321Y-69889000D01*
X143547157Y-69889000D01*
X143547157Y-71589000D01*
X143554513Y-71663689D01*
X143576299Y-71735508D01*
X143611678Y-71801696D01*
X143659289Y-71859711D01*
X143717304Y-71907322D01*
X143783492Y-71942701D01*
X143803868Y-71948882D01*
X143767369Y-71993357D01*
X143763112Y-72001322D01*
X143697169Y-72124692D01*
X143653940Y-72267199D01*
X143639343Y-72415400D01*
X143643000Y-72452529D01*
X143643000Y-72706071D01*
X143623513Y-72770311D01*
X143616157Y-72845000D01*
X143616157Y-73745000D01*
X143623513Y-73819689D01*
X143645299Y-73891508D01*
X143680678Y-73957696D01*
X143728289Y-74015711D01*
X143786304Y-74063322D01*
X143852492Y-74098701D01*
X143924311Y-74120487D01*
X143999000Y-74127843D01*
X144799000Y-74127843D01*
X144873689Y-74120487D01*
X144945508Y-74098701D01*
X145011696Y-74063322D01*
X145069711Y-74015711D01*
X145117322Y-73957696D01*
X145152701Y-73891508D01*
X145174487Y-73819689D01*
X145181843Y-73745000D01*
X145181843Y-72845000D01*
X145174487Y-72770311D01*
X145160231Y-72723313D01*
X145288307Y-72595237D01*
X145317159Y-72571559D01*
X145411632Y-72456443D01*
X145481832Y-72325108D01*
X145525060Y-72182602D01*
X145527308Y-72159778D01*
X145539657Y-72034401D01*
X145536000Y-71997272D01*
X145536000Y-71971843D01*
X145630000Y-71971843D01*
X145704689Y-71964487D01*
X145776508Y-71942701D01*
X145842696Y-71907322D01*
X145900711Y-71859711D01*
X145948322Y-71801696D01*
X145983701Y-71735508D01*
X146005487Y-71663689D01*
X146012843Y-71589000D01*
X146012843Y-70617757D01*
X146089000Y-70617757D01*
X146089000Y-70860243D01*
X146136307Y-71098069D01*
X146229102Y-71322097D01*
X146363820Y-71523717D01*
X146535283Y-71695180D01*
X146736903Y-71829898D01*
X146960931Y-71922693D01*
X147198757Y-71970000D01*
X147441243Y-71970000D01*
X147679069Y-71922693D01*
X147903097Y-71829898D01*
X148104717Y-71695180D01*
X148276180Y-71523717D01*
X148410898Y-71322097D01*
X148503693Y-71098069D01*
X148551000Y-70860243D01*
X148551000Y-70617757D01*
X148629000Y-70617757D01*
X148629000Y-70860243D01*
X148676307Y-71098069D01*
X148769102Y-71322097D01*
X148903820Y-71523717D01*
X149075283Y-71695180D01*
X149276903Y-71829898D01*
X149500931Y-71922693D01*
X149738757Y-71970000D01*
X149981243Y-71970000D01*
X150219069Y-71922693D01*
X150443097Y-71829898D01*
X150644717Y-71695180D01*
X150816180Y-71523717D01*
X150950898Y-71322097D01*
X151043693Y-71098069D01*
X151075001Y-70940676D01*
X151075001Y-73356268D01*
X151060200Y-73430678D01*
X151060200Y-73584522D01*
X151090213Y-73735409D01*
X151149087Y-73877542D01*
X151234558Y-74005459D01*
X151343341Y-74114242D01*
X151471258Y-74199713D01*
X151613391Y-74258587D01*
X151764278Y-74288600D01*
X151918122Y-74288600D01*
X152069009Y-74258587D01*
X152211142Y-74199713D01*
X152339059Y-74114242D01*
X152447842Y-74005459D01*
X152533313Y-73877542D01*
X152592187Y-73735409D01*
X152622200Y-73584522D01*
X152622200Y-73430678D01*
X152592187Y-73279791D01*
X152587000Y-73267269D01*
X152587000Y-67695070D01*
X152678488Y-67619988D01*
X152757190Y-67524089D01*
X152815671Y-67414679D01*
X152851683Y-67295962D01*
X152863843Y-67172500D01*
X152863843Y-65823078D01*
X159919000Y-65823078D01*
X159919000Y-65976922D01*
X159949013Y-66127809D01*
X160007887Y-66269942D01*
X160093358Y-66397859D01*
X160202141Y-66506642D01*
X160330058Y-66592113D01*
X160394001Y-66618599D01*
X160394000Y-70875154D01*
X160391553Y-70900000D01*
X160394000Y-70924846D01*
X160394000Y-70924853D01*
X160401322Y-70999192D01*
X160430255Y-71094574D01*
X160477241Y-71182479D01*
X160540473Y-71259527D01*
X160559785Y-71275376D01*
X162124628Y-72840220D01*
X162140473Y-72859527D01*
X162217521Y-72922759D01*
X162305425Y-72969745D01*
X162400807Y-72998678D01*
X162500000Y-73008448D01*
X162524854Y-73006000D01*
X173890409Y-73006000D01*
X174246001Y-73361593D01*
X174246000Y-74476672D01*
X174178538Y-74483317D01*
X174059821Y-74519329D01*
X173950411Y-74577810D01*
X173854512Y-74656512D01*
X173775810Y-74752411D01*
X173717329Y-74861821D01*
X173681317Y-74980538D01*
X173669157Y-75103999D01*
X173669157Y-75804001D01*
X173681317Y-75927462D01*
X173717329Y-76046179D01*
X173775810Y-76155589D01*
X173854512Y-76251488D01*
X173950411Y-76330190D01*
X174059821Y-76388671D01*
X174178538Y-76424683D01*
X174301999Y-76436843D01*
X175202001Y-76436843D01*
X175325462Y-76424683D01*
X175444179Y-76388671D01*
X175553589Y-76330190D01*
X175649488Y-76251488D01*
X175728190Y-76155589D01*
X175786671Y-76046179D01*
X175822683Y-75927462D01*
X175834843Y-75804001D01*
X175834843Y-75103999D01*
X175822683Y-74980538D01*
X175786671Y-74861821D01*
X175728190Y-74752411D01*
X175649488Y-74656512D01*
X175553589Y-74577810D01*
X175444179Y-74519329D01*
X175325462Y-74483317D01*
X175258000Y-74476672D01*
X175258000Y-73176845D01*
X175260447Y-73151999D01*
X175258000Y-73127153D01*
X175258000Y-73127146D01*
X175250678Y-73052807D01*
X175237615Y-73009741D01*
X175221745Y-72957425D01*
X175174759Y-72869521D01*
X175111527Y-72792473D01*
X175092220Y-72776628D01*
X174475376Y-72159785D01*
X174459527Y-72140473D01*
X174382479Y-72077241D01*
X174294575Y-72030255D01*
X174199193Y-72001322D01*
X174124854Y-71994000D01*
X174124846Y-71994000D01*
X174100000Y-71991553D01*
X174075154Y-71994000D01*
X162709592Y-71994000D01*
X161406000Y-70690409D01*
X161406000Y-69978757D01*
X163929000Y-69978757D01*
X163929000Y-70221243D01*
X163976307Y-70459069D01*
X164069102Y-70683097D01*
X164203820Y-70884717D01*
X164375283Y-71056180D01*
X164576903Y-71190898D01*
X164800931Y-71283693D01*
X165038757Y-71331000D01*
X165281243Y-71331000D01*
X165519069Y-71283693D01*
X165743097Y-71190898D01*
X165944717Y-71056180D01*
X166116180Y-70884717D01*
X166250898Y-70683097D01*
X166343693Y-70459069D01*
X166391000Y-70221243D01*
X166391000Y-69978757D01*
X166469000Y-69978757D01*
X166469000Y-70221243D01*
X166516307Y-70459069D01*
X166609102Y-70683097D01*
X166743820Y-70884717D01*
X166915283Y-71056180D01*
X167116903Y-71190898D01*
X167340931Y-71283693D01*
X167578757Y-71331000D01*
X167821243Y-71331000D01*
X168059069Y-71283693D01*
X168283097Y-71190898D01*
X168484717Y-71056180D01*
X168656180Y-70884717D01*
X168790898Y-70683097D01*
X168883693Y-70459069D01*
X168931000Y-70221243D01*
X168931000Y-69978757D01*
X169009000Y-69978757D01*
X169009000Y-70221243D01*
X169056307Y-70459069D01*
X169149102Y-70683097D01*
X169283820Y-70884717D01*
X169455283Y-71056180D01*
X169656903Y-71190898D01*
X169880931Y-71283693D01*
X170118757Y-71331000D01*
X170361243Y-71331000D01*
X170599069Y-71283693D01*
X170823097Y-71190898D01*
X171024717Y-71056180D01*
X171196180Y-70884717D01*
X171330898Y-70683097D01*
X171423693Y-70459069D01*
X171471000Y-70221243D01*
X171471000Y-69978757D01*
X171549000Y-69978757D01*
X171549000Y-70221243D01*
X171596307Y-70459069D01*
X171689102Y-70683097D01*
X171823820Y-70884717D01*
X171995283Y-71056180D01*
X172196903Y-71190898D01*
X172420931Y-71283693D01*
X172658757Y-71331000D01*
X172901243Y-71331000D01*
X173139069Y-71283693D01*
X173363097Y-71190898D01*
X173564717Y-71056180D01*
X173736180Y-70884717D01*
X173870898Y-70683097D01*
X173963693Y-70459069D01*
X173984220Y-70355871D01*
X174171145Y-70355871D01*
X174243138Y-70575085D01*
X174356514Y-70776042D01*
X174506916Y-70951019D01*
X174688565Y-71093292D01*
X174894480Y-71197393D01*
X175064130Y-71248851D01*
X175247000Y-71192815D01*
X175247000Y-70173000D01*
X175393000Y-70173000D01*
X175393000Y-71192815D01*
X175575870Y-71248851D01*
X175745520Y-71197393D01*
X175951435Y-71093292D01*
X176133084Y-70951019D01*
X176283486Y-70776042D01*
X176396862Y-70575085D01*
X176468855Y-70355871D01*
X176412988Y-70173000D01*
X175393000Y-70173000D01*
X175247000Y-70173000D01*
X174227012Y-70173000D01*
X174171145Y-70355871D01*
X173984220Y-70355871D01*
X174011000Y-70221243D01*
X174011000Y-69978757D01*
X173984221Y-69844129D01*
X174171145Y-69844129D01*
X174227012Y-70027000D01*
X175247000Y-70027000D01*
X175247000Y-69007185D01*
X175393000Y-69007185D01*
X175393000Y-70027000D01*
X176412988Y-70027000D01*
X176468855Y-69844129D01*
X176396862Y-69624915D01*
X176283486Y-69423958D01*
X176133960Y-69250000D01*
X176627157Y-69250000D01*
X176627157Y-70950000D01*
X176634513Y-71024689D01*
X176656299Y-71096508D01*
X176691678Y-71162696D01*
X176739289Y-71220711D01*
X176797304Y-71268322D01*
X176863492Y-71303701D01*
X176935311Y-71325487D01*
X177010000Y-71332843D01*
X178710000Y-71332843D01*
X178784689Y-71325487D01*
X178856508Y-71303701D01*
X178922696Y-71268322D01*
X178980711Y-71220711D01*
X179028322Y-71162696D01*
X179063701Y-71096508D01*
X179085487Y-71024689D01*
X179092843Y-70950000D01*
X179092843Y-69250000D01*
X179085487Y-69175311D01*
X179063701Y-69103492D01*
X179028322Y-69037304D01*
X178980711Y-68979289D01*
X178922696Y-68931678D01*
X178856508Y-68896299D01*
X178784689Y-68874513D01*
X178710000Y-68867157D01*
X177010000Y-68867157D01*
X176935311Y-68874513D01*
X176863492Y-68896299D01*
X176797304Y-68931678D01*
X176739289Y-68979289D01*
X176691678Y-69037304D01*
X176656299Y-69103492D01*
X176634513Y-69175311D01*
X176627157Y-69250000D01*
X176133960Y-69250000D01*
X176133084Y-69248981D01*
X175951435Y-69106708D01*
X175745520Y-69002607D01*
X175575870Y-68951149D01*
X175393000Y-69007185D01*
X175247000Y-69007185D01*
X175064130Y-68951149D01*
X174894480Y-69002607D01*
X174688565Y-69106708D01*
X174506916Y-69248981D01*
X174356514Y-69423958D01*
X174243138Y-69624915D01*
X174171145Y-69844129D01*
X173984221Y-69844129D01*
X173963693Y-69740931D01*
X173870898Y-69516903D01*
X173736180Y-69315283D01*
X173564717Y-69143820D01*
X173363097Y-69009102D01*
X173139069Y-68916307D01*
X172901243Y-68869000D01*
X172658757Y-68869000D01*
X172420931Y-68916307D01*
X172196903Y-69009102D01*
X171995283Y-69143820D01*
X171823820Y-69315283D01*
X171689102Y-69516903D01*
X171596307Y-69740931D01*
X171549000Y-69978757D01*
X171471000Y-69978757D01*
X171423693Y-69740931D01*
X171330898Y-69516903D01*
X171196180Y-69315283D01*
X171024717Y-69143820D01*
X170823097Y-69009102D01*
X170599069Y-68916307D01*
X170361243Y-68869000D01*
X170118757Y-68869000D01*
X169880931Y-68916307D01*
X169656903Y-69009102D01*
X169455283Y-69143820D01*
X169283820Y-69315283D01*
X169149102Y-69516903D01*
X169056307Y-69740931D01*
X169009000Y-69978757D01*
X168931000Y-69978757D01*
X168883693Y-69740931D01*
X168790898Y-69516903D01*
X168656180Y-69315283D01*
X168484717Y-69143820D01*
X168283097Y-69009102D01*
X168059069Y-68916307D01*
X167821243Y-68869000D01*
X167578757Y-68869000D01*
X167340931Y-68916307D01*
X167116903Y-69009102D01*
X166915283Y-69143820D01*
X166743820Y-69315283D01*
X166609102Y-69516903D01*
X166516307Y-69740931D01*
X166469000Y-69978757D01*
X166391000Y-69978757D01*
X166343693Y-69740931D01*
X166250898Y-69516903D01*
X166116180Y-69315283D01*
X165944717Y-69143820D01*
X165743097Y-69009102D01*
X165519069Y-68916307D01*
X165281243Y-68869000D01*
X165038757Y-68869000D01*
X164800931Y-68916307D01*
X164576903Y-69009102D01*
X164375283Y-69143820D01*
X164203820Y-69315283D01*
X164069102Y-69516903D01*
X163976307Y-69740931D01*
X163929000Y-69978757D01*
X161406000Y-69978757D01*
X161406000Y-66236416D01*
X161450987Y-66127809D01*
X161481000Y-65976922D01*
X161481000Y-65823078D01*
X161450987Y-65672191D01*
X161392113Y-65530058D01*
X161306642Y-65402141D01*
X161197859Y-65293358D01*
X161069942Y-65207887D01*
X160927809Y-65149013D01*
X160776922Y-65119000D01*
X160623078Y-65119000D01*
X160472191Y-65149013D01*
X160330058Y-65207887D01*
X160202141Y-65293358D01*
X160093358Y-65402141D01*
X160007887Y-65530058D01*
X159949013Y-65672191D01*
X159919000Y-65823078D01*
X152863843Y-65823078D01*
X152863843Y-64272500D01*
X152851683Y-64149038D01*
X152815671Y-64030321D01*
X152757190Y-63920911D01*
X152678488Y-63825012D01*
X152582589Y-63746310D01*
X152473179Y-63687829D01*
X152354462Y-63651817D01*
X152231000Y-63639657D01*
X151431000Y-63639657D01*
X151307538Y-63651817D01*
X151188821Y-63687829D01*
X151079411Y-63746310D01*
X150983512Y-63825012D01*
X150904810Y-63920911D01*
X150846329Y-64030321D01*
X150810317Y-64149038D01*
X150798157Y-64272500D01*
X150798157Y-67172500D01*
X150810317Y-67295962D01*
X150846329Y-67414679D01*
X150904810Y-67524089D01*
X150983512Y-67619988D01*
X151075000Y-67695070D01*
X151075001Y-70537323D01*
X151043693Y-70379931D01*
X150950898Y-70155903D01*
X150816180Y-69954283D01*
X150644717Y-69782820D01*
X150443097Y-69648102D01*
X150219069Y-69555307D01*
X149981243Y-69508000D01*
X149738757Y-69508000D01*
X149500931Y-69555307D01*
X149276903Y-69648102D01*
X149075283Y-69782820D01*
X148903820Y-69954283D01*
X148769102Y-70155903D01*
X148676307Y-70379931D01*
X148629000Y-70617757D01*
X148551000Y-70617757D01*
X148503693Y-70379931D01*
X148410898Y-70155903D01*
X148276180Y-69954283D01*
X148137000Y-69815103D01*
X148137000Y-67695070D01*
X148228488Y-67619988D01*
X148307190Y-67524089D01*
X148365671Y-67414679D01*
X148401683Y-67295962D01*
X148413843Y-67172500D01*
X148413843Y-64272500D01*
X148401683Y-64149038D01*
X148365671Y-64030321D01*
X148307190Y-63920911D01*
X148228488Y-63825012D01*
X148132589Y-63746310D01*
X148023179Y-63687829D01*
X147904462Y-63651817D01*
X147781000Y-63639657D01*
X146981000Y-63639657D01*
X146857538Y-63651817D01*
X146738821Y-63687829D01*
X146629411Y-63746310D01*
X146533512Y-63825012D01*
X146454810Y-63920911D01*
X146396329Y-64030321D01*
X146360317Y-64149038D01*
X146348157Y-64272500D01*
X146348157Y-67172500D01*
X146360317Y-67295962D01*
X146396329Y-67414679D01*
X146454810Y-67524089D01*
X146533512Y-67619988D01*
X146625000Y-67695070D01*
X146625001Y-69722873D01*
X146535283Y-69782820D01*
X146363820Y-69954283D01*
X146229102Y-70155903D01*
X146136307Y-70379931D01*
X146089000Y-70617757D01*
X146012843Y-70617757D01*
X146012843Y-69889000D01*
X146005487Y-69814311D01*
X145983701Y-69742492D01*
X145948322Y-69676304D01*
X145900711Y-69618289D01*
X145842696Y-69570678D01*
X145776508Y-69535299D01*
X145704689Y-69513513D01*
X145630000Y-69506157D01*
X143930000Y-69506157D01*
X143855311Y-69513513D01*
X143783492Y-69535299D01*
X143717304Y-69570678D01*
X143659289Y-69618289D01*
X143611678Y-69676304D01*
X143576299Y-69742492D01*
X143554513Y-69814311D01*
X143547157Y-69889000D01*
X142576321Y-69889000D01*
X142424447Y-60700667D01*
X142689693Y-60431000D01*
X179332242Y-60431000D01*
X179569000Y-60667488D01*
%TA.AperFunction,Conductor*%
D24*
G36*
X179569000Y-60667488D02*
G01*
X179569000Y-74621315D01*
X179515989Y-74577810D01*
X179406579Y-74519329D01*
X179287862Y-74483317D01*
X179164401Y-74471157D01*
X178264399Y-74471157D01*
X178140938Y-74483317D01*
X178022221Y-74519329D01*
X177912811Y-74577810D01*
X177816912Y-74656512D01*
X177738210Y-74752411D01*
X177679729Y-74861821D01*
X177643717Y-74980538D01*
X177631557Y-75103999D01*
X177631557Y-75804001D01*
X177643717Y-75927462D01*
X177679729Y-76046179D01*
X177738210Y-76155589D01*
X177816912Y-76251488D01*
X177912811Y-76330190D01*
X178022221Y-76388671D01*
X178140938Y-76424683D01*
X178264399Y-76436843D01*
X179164401Y-76436843D01*
X179287862Y-76424683D01*
X179406579Y-76388671D01*
X179515989Y-76330190D01*
X179569000Y-76286685D01*
X179569000Y-76621315D01*
X179515989Y-76577810D01*
X179406579Y-76519329D01*
X179287862Y-76483317D01*
X179164401Y-76471157D01*
X178264399Y-76471157D01*
X178140938Y-76483317D01*
X178022221Y-76519329D01*
X177912811Y-76577810D01*
X177816912Y-76656512D01*
X177738210Y-76752411D01*
X177679729Y-76861821D01*
X177646004Y-76973000D01*
X175820396Y-76973000D01*
X175786671Y-76861821D01*
X175728190Y-76752411D01*
X175649488Y-76656512D01*
X175553589Y-76577810D01*
X175444179Y-76519329D01*
X175325462Y-76483317D01*
X175202001Y-76471157D01*
X174301999Y-76471157D01*
X174178538Y-76483317D01*
X174059821Y-76519329D01*
X173950411Y-76577810D01*
X173854512Y-76656512D01*
X173775810Y-76752411D01*
X173717329Y-76861821D01*
X173683604Y-76973000D01*
X172376344Y-76973000D01*
X172447761Y-76951336D01*
X172531322Y-76906672D01*
X172604564Y-76846564D01*
X172619630Y-76828206D01*
X172623192Y-76824644D01*
X172643078Y-76828600D01*
X172796922Y-76828600D01*
X172947809Y-76798587D01*
X173089942Y-76739713D01*
X173217859Y-76654242D01*
X173326642Y-76545459D01*
X173412113Y-76417542D01*
X173470987Y-76275409D01*
X173501000Y-76124522D01*
X173501000Y-75970678D01*
X173470987Y-75819791D01*
X173412113Y-75677658D01*
X173326642Y-75549741D01*
X173217859Y-75440958D01*
X173089942Y-75355487D01*
X172947809Y-75296613D01*
X172796922Y-75266600D01*
X172643078Y-75266600D01*
X172492191Y-75296613D01*
X172350058Y-75355487D01*
X172222141Y-75440958D01*
X172113358Y-75549741D01*
X172027887Y-75677658D01*
X171969013Y-75819791D01*
X171939000Y-75970678D01*
X171939000Y-76023800D01*
X161641637Y-76023800D01*
X160529230Y-74911394D01*
X160514164Y-74893036D01*
X160440922Y-74832928D01*
X160357361Y-74788264D01*
X160266692Y-74760760D01*
X160196026Y-74753800D01*
X160172400Y-74751473D01*
X160148774Y-74753800D01*
X150569790Y-74753800D01*
X150560683Y-74661338D01*
X150524671Y-74542621D01*
X150466190Y-74433211D01*
X150387488Y-74337312D01*
X150291589Y-74258610D01*
X150182179Y-74200129D01*
X150063462Y-74164117D01*
X149940001Y-74151957D01*
X149239999Y-74151957D01*
X149116538Y-74164117D01*
X148997821Y-74200129D01*
X148888411Y-74258610D01*
X148792512Y-74337312D01*
X148713810Y-74433211D01*
X148655329Y-74542621D01*
X148619317Y-74661338D01*
X148607157Y-74784799D01*
X148607157Y-75684801D01*
X148619317Y-75808262D01*
X148655329Y-75926979D01*
X148713810Y-76036389D01*
X148792512Y-76132288D01*
X148888411Y-76210990D01*
X148997821Y-76269471D01*
X149116538Y-76305483D01*
X149239999Y-76317643D01*
X149940001Y-76317643D01*
X150063462Y-76305483D01*
X150182179Y-76269471D01*
X150291589Y-76210990D01*
X150387488Y-76132288D01*
X150466190Y-76036389D01*
X150524671Y-75926979D01*
X150560683Y-75808262D01*
X150569790Y-75715800D01*
X155279699Y-75715800D01*
X155193358Y-75802141D01*
X155107887Y-75930058D01*
X155049013Y-76072191D01*
X155019000Y-76223078D01*
X155019000Y-76376922D01*
X155049013Y-76527809D01*
X155107887Y-76669942D01*
X155193358Y-76797859D01*
X155294001Y-76898502D01*
X155294000Y-77575153D01*
X155291553Y-77600000D01*
X155294000Y-77624846D01*
X155294000Y-77624853D01*
X155301322Y-77699192D01*
X155330255Y-77794574D01*
X155377241Y-77882479D01*
X155440473Y-77959527D01*
X155459785Y-77975376D01*
X156124628Y-78640220D01*
X156140473Y-78659527D01*
X156217521Y-78722759D01*
X156305425Y-78769745D01*
X156378607Y-78791944D01*
X156400806Y-78798678D01*
X156410694Y-78799652D01*
X156475146Y-78806000D01*
X156475153Y-78806000D01*
X156499999Y-78808447D01*
X156524845Y-78806000D01*
X159290409Y-78806000D01*
X159971800Y-79487392D01*
X159842991Y-79513013D01*
X159700858Y-79571887D01*
X159572941Y-79657358D01*
X159464158Y-79766141D01*
X159378687Y-79894058D01*
X159319813Y-80036191D01*
X159289800Y-80187078D01*
X159289800Y-80340922D01*
X159294183Y-80362956D01*
X159260919Y-80403488D01*
X159216255Y-80487049D01*
X159188750Y-80577718D01*
X159179463Y-80672010D01*
X159181791Y-80695646D01*
X159181791Y-81877290D01*
X159097859Y-81793358D01*
X158969942Y-81707887D01*
X158827809Y-81649013D01*
X158676922Y-81619000D01*
X158523078Y-81619000D01*
X158372191Y-81649013D01*
X158230058Y-81707887D01*
X158102141Y-81793358D01*
X157993358Y-81902141D01*
X157907887Y-82030058D01*
X157849013Y-82172191D01*
X157819000Y-82323078D01*
X157819000Y-82476922D01*
X157849013Y-82627809D01*
X157907887Y-82769942D01*
X157956982Y-82843419D01*
X157861211Y-82894610D01*
X157765312Y-82973312D01*
X157686610Y-83069211D01*
X157628129Y-83178621D01*
X157592117Y-83297338D01*
X157579957Y-83420799D01*
X157579957Y-84320801D01*
X157592117Y-84444262D01*
X157628129Y-84562979D01*
X157686610Y-84672389D01*
X157765312Y-84768288D01*
X157861211Y-84846990D01*
X157888170Y-84861400D01*
X157861211Y-84875810D01*
X157765312Y-84954512D01*
X157686610Y-85050411D01*
X157628129Y-85159821D01*
X157592117Y-85278538D01*
X157583010Y-85371000D01*
X157526837Y-85371000D01*
X155471800Y-83315964D01*
X155471800Y-81151226D01*
X155474127Y-81127600D01*
X155464840Y-81033307D01*
X155456496Y-81005803D01*
X155437336Y-80942639D01*
X155392672Y-80859078D01*
X155332564Y-80785836D01*
X155314212Y-80770775D01*
X154082172Y-79538736D01*
X154141635Y-79342715D01*
X154163472Y-79121000D01*
X154141635Y-78899285D01*
X154076963Y-78686091D01*
X153971942Y-78489610D01*
X153830607Y-78317393D01*
X153658390Y-78176058D01*
X153461909Y-78071037D01*
X153248715Y-78006365D01*
X153082558Y-77990000D01*
X151971442Y-77990000D01*
X151805285Y-78006365D01*
X151592091Y-78071037D01*
X151395610Y-78176058D01*
X151223393Y-78317393D01*
X151082058Y-78489610D01*
X150977037Y-78686091D01*
X150912365Y-78899285D01*
X150890528Y-79121000D01*
X150912365Y-79342715D01*
X150977037Y-79555909D01*
X151082058Y-79752390D01*
X151223393Y-79924607D01*
X151395610Y-80065942D01*
X151592091Y-80170963D01*
X151805285Y-80235635D01*
X151971442Y-80252000D01*
X153082558Y-80252000D01*
X153248715Y-80235635D01*
X153379059Y-80196095D01*
X154509800Y-81326837D01*
X154509801Y-83491564D01*
X154507473Y-83515200D01*
X154516760Y-83609492D01*
X154537004Y-83676226D01*
X154544265Y-83700161D01*
X154588929Y-83783722D01*
X154649037Y-83856964D01*
X154667389Y-83872025D01*
X156970775Y-86175412D01*
X156985836Y-86193764D01*
X157059078Y-86253872D01*
X157142639Y-86298536D01*
X157233308Y-86326040D01*
X157303974Y-86333000D01*
X157303975Y-86333000D01*
X157327599Y-86335327D01*
X157351223Y-86333000D01*
X157583010Y-86333000D01*
X157592117Y-86425462D01*
X157628129Y-86544179D01*
X157686610Y-86653589D01*
X157765312Y-86749488D01*
X157861211Y-86828190D01*
X157935690Y-86868000D01*
X157861211Y-86907810D01*
X157765312Y-86986512D01*
X157686610Y-87082411D01*
X157628129Y-87191821D01*
X157592117Y-87310538D01*
X157579957Y-87433999D01*
X157579957Y-88334001D01*
X157592117Y-88457462D01*
X157628129Y-88576179D01*
X157686610Y-88685589D01*
X157765312Y-88781488D01*
X157861211Y-88860190D01*
X157970621Y-88918671D01*
X158089338Y-88954683D01*
X158212799Y-88966843D01*
X158912801Y-88966843D01*
X159036262Y-88954683D01*
X159154979Y-88918671D01*
X159181791Y-88904340D01*
X159181790Y-89062178D01*
X159073462Y-89029317D01*
X158950001Y-89017157D01*
X158249999Y-89017157D01*
X158126538Y-89029317D01*
X158007821Y-89065329D01*
X157898411Y-89123810D01*
X157802512Y-89202512D01*
X157723810Y-89298411D01*
X157665329Y-89407821D01*
X157629317Y-89526538D01*
X157617157Y-89649999D01*
X157617157Y-90550001D01*
X157629317Y-90673462D01*
X157665329Y-90792179D01*
X157723810Y-90901589D01*
X157802512Y-90997488D01*
X157898411Y-91076190D01*
X158007821Y-91134671D01*
X158126538Y-91170683D01*
X158249999Y-91182843D01*
X158950001Y-91182843D01*
X159073462Y-91170683D01*
X159181790Y-91137822D01*
X159181790Y-96159725D01*
X159137251Y-96178174D01*
X158911064Y-96329307D01*
X158867904Y-96372467D01*
X158870068Y-96262838D01*
X158868117Y-96238018D01*
X158861362Y-96214056D01*
X158856152Y-96202481D01*
X158575214Y-95653438D01*
X158561755Y-95632493D01*
X158544469Y-95614576D01*
X158534404Y-95606842D01*
X152366667Y-91340438D01*
X151940696Y-90853235D01*
X148168985Y-83451000D01*
X150894157Y-83451000D01*
X150894157Y-84951000D01*
X150901513Y-85025689D01*
X150923299Y-85097508D01*
X150958678Y-85163696D01*
X151006289Y-85221711D01*
X151064304Y-85269322D01*
X151130492Y-85304701D01*
X151202311Y-85326487D01*
X151277000Y-85333843D01*
X153777000Y-85333843D01*
X153851689Y-85326487D01*
X153923508Y-85304701D01*
X153989696Y-85269322D01*
X154047711Y-85221711D01*
X154095322Y-85163696D01*
X154130701Y-85097508D01*
X154152487Y-85025689D01*
X154159843Y-84951000D01*
X154159843Y-83451000D01*
X154152487Y-83376311D01*
X154130701Y-83304492D01*
X154095322Y-83238304D01*
X154047711Y-83180289D01*
X153989696Y-83132678D01*
X153923508Y-83097299D01*
X153851689Y-83075513D01*
X153777000Y-83068157D01*
X151277000Y-83068157D01*
X151202311Y-83075513D01*
X151130492Y-83097299D01*
X151064304Y-83132678D01*
X151006289Y-83180289D01*
X150958678Y-83238304D01*
X150923299Y-83304492D01*
X150901513Y-83376311D01*
X150894157Y-83451000D01*
X148168985Y-83451000D01*
X147379302Y-81901194D01*
X150977126Y-81901194D01*
X151004045Y-82005707D01*
X151090950Y-82198652D01*
X151213827Y-82370935D01*
X151367953Y-82515936D01*
X151547406Y-82628082D01*
X151745290Y-82703064D01*
X151954000Y-82738000D01*
X152454000Y-82738000D01*
X152454000Y-81734000D01*
X152600000Y-81734000D01*
X152600000Y-82738000D01*
X153100000Y-82738000D01*
X153308710Y-82703064D01*
X153506594Y-82628082D01*
X153686047Y-82515936D01*
X153840173Y-82370935D01*
X153963050Y-82198652D01*
X154049955Y-82005707D01*
X154076874Y-81901194D01*
X154019569Y-81734000D01*
X152600000Y-81734000D01*
X152454000Y-81734000D01*
X151034431Y-81734000D01*
X150977126Y-81901194D01*
X147379302Y-81901194D01*
X147134527Y-81420806D01*
X150977126Y-81420806D01*
X151034431Y-81588000D01*
X152454000Y-81588000D01*
X152454000Y-80584000D01*
X152600000Y-80584000D01*
X152600000Y-81588000D01*
X154019569Y-81588000D01*
X154076874Y-81420806D01*
X154049955Y-81316293D01*
X153963050Y-81123348D01*
X153840173Y-80951065D01*
X153686047Y-80806064D01*
X153506594Y-80693918D01*
X153308710Y-80618936D01*
X153100000Y-80584000D01*
X152600000Y-80584000D01*
X152454000Y-80584000D01*
X151954000Y-80584000D01*
X151745290Y-80618936D01*
X151547406Y-80693918D01*
X151367953Y-80806064D01*
X151213827Y-80951065D01*
X151090950Y-81123348D01*
X151004045Y-81316293D01*
X150977126Y-81420806D01*
X147134527Y-81420806D01*
X144231843Y-75724097D01*
X144231843Y-74845000D01*
X144566157Y-74845000D01*
X144566157Y-75745000D01*
X144573513Y-75819689D01*
X144595299Y-75891508D01*
X144630678Y-75957696D01*
X144678289Y-76015711D01*
X144736304Y-76063322D01*
X144802492Y-76098701D01*
X144874311Y-76120487D01*
X144949000Y-76127843D01*
X145749000Y-76127843D01*
X145823689Y-76120487D01*
X145895508Y-76098701D01*
X145961696Y-76063322D01*
X146019711Y-76015711D01*
X146067322Y-75957696D01*
X146102701Y-75891508D01*
X146124487Y-75819689D01*
X146128790Y-75776000D01*
X146616139Y-75776000D01*
X146619317Y-75808262D01*
X146655329Y-75926979D01*
X146713810Y-76036389D01*
X146792512Y-76132288D01*
X146888411Y-76210990D01*
X146997821Y-76269471D01*
X147116538Y-76305483D01*
X147239999Y-76317643D01*
X147940001Y-76317643D01*
X148063462Y-76305483D01*
X148182179Y-76269471D01*
X148291589Y-76210990D01*
X148387488Y-76132288D01*
X148466190Y-76036389D01*
X148524671Y-75926979D01*
X148560683Y-75808262D01*
X148572843Y-75684801D01*
X148572843Y-74784799D01*
X148560683Y-74661338D01*
X148524671Y-74542621D01*
X148466190Y-74433211D01*
X148387488Y-74337312D01*
X148291589Y-74258610D01*
X148182179Y-74200129D01*
X148063462Y-74164117D01*
X147940001Y-74151957D01*
X147239999Y-74151957D01*
X147116538Y-74164117D01*
X146997821Y-74200129D01*
X146888411Y-74258610D01*
X146792512Y-74337312D01*
X146713810Y-74433211D01*
X146655329Y-74542621D01*
X146619317Y-74661338D01*
X146607157Y-74784799D01*
X146607157Y-74814000D01*
X146128790Y-74814000D01*
X146124487Y-74770311D01*
X146102701Y-74698492D01*
X146067322Y-74632304D01*
X146019711Y-74574289D01*
X145961696Y-74526678D01*
X145895508Y-74491299D01*
X145823689Y-74469513D01*
X145749000Y-74462157D01*
X144949000Y-74462157D01*
X144874311Y-74469513D01*
X144802492Y-74491299D01*
X144736304Y-74526678D01*
X144678289Y-74574289D01*
X144630678Y-74632304D01*
X144595299Y-74698492D01*
X144573513Y-74770311D01*
X144566157Y-74845000D01*
X144231843Y-74845000D01*
X144224487Y-74770311D01*
X144202701Y-74698492D01*
X144167322Y-74632304D01*
X144119711Y-74574289D01*
X144061696Y-74526678D01*
X143995508Y-74491299D01*
X143923689Y-74469513D01*
X143849000Y-74462157D01*
X143588838Y-74462157D01*
X142772640Y-72860314D01*
X142614959Y-72226652D01*
X142576321Y-69889000D01*
X143547157Y-69889000D01*
X143547157Y-71589000D01*
X143554513Y-71663689D01*
X143576299Y-71735508D01*
X143611678Y-71801696D01*
X143659289Y-71859711D01*
X143717304Y-71907322D01*
X143783492Y-71942701D01*
X143803868Y-71948882D01*
X143767369Y-71993357D01*
X143763112Y-72001322D01*
X143697169Y-72124692D01*
X143653940Y-72267199D01*
X143639343Y-72415400D01*
X143643000Y-72452529D01*
X143643000Y-72706071D01*
X143623513Y-72770311D01*
X143616157Y-72845000D01*
X143616157Y-73745000D01*
X143623513Y-73819689D01*
X143645299Y-73891508D01*
X143680678Y-73957696D01*
X143728289Y-74015711D01*
X143786304Y-74063322D01*
X143852492Y-74098701D01*
X143924311Y-74120487D01*
X143999000Y-74127843D01*
X144799000Y-74127843D01*
X144873689Y-74120487D01*
X144945508Y-74098701D01*
X145011696Y-74063322D01*
X145069711Y-74015711D01*
X145117322Y-73957696D01*
X145152701Y-73891508D01*
X145174487Y-73819689D01*
X145181843Y-73745000D01*
X145181843Y-72845000D01*
X145174487Y-72770311D01*
X145160231Y-72723313D01*
X145288307Y-72595237D01*
X145317159Y-72571559D01*
X145411632Y-72456443D01*
X145481832Y-72325108D01*
X145525060Y-72182602D01*
X145527308Y-72159778D01*
X145539657Y-72034401D01*
X145536000Y-71997272D01*
X145536000Y-71971843D01*
X145630000Y-71971843D01*
X145704689Y-71964487D01*
X145776508Y-71942701D01*
X145842696Y-71907322D01*
X145900711Y-71859711D01*
X145948322Y-71801696D01*
X145983701Y-71735508D01*
X146005487Y-71663689D01*
X146012843Y-71589000D01*
X146012843Y-70617757D01*
X146089000Y-70617757D01*
X146089000Y-70860243D01*
X146136307Y-71098069D01*
X146229102Y-71322097D01*
X146363820Y-71523717D01*
X146535283Y-71695180D01*
X146736903Y-71829898D01*
X146960931Y-71922693D01*
X147198757Y-71970000D01*
X147441243Y-71970000D01*
X147679069Y-71922693D01*
X147903097Y-71829898D01*
X148104717Y-71695180D01*
X148276180Y-71523717D01*
X148410898Y-71322097D01*
X148503693Y-71098069D01*
X148551000Y-70860243D01*
X148551000Y-70617757D01*
X148629000Y-70617757D01*
X148629000Y-70860243D01*
X148676307Y-71098069D01*
X148769102Y-71322097D01*
X148903820Y-71523717D01*
X149075283Y-71695180D01*
X149276903Y-71829898D01*
X149500931Y-71922693D01*
X149738757Y-71970000D01*
X149981243Y-71970000D01*
X150219069Y-71922693D01*
X150443097Y-71829898D01*
X150644717Y-71695180D01*
X150816180Y-71523717D01*
X150950898Y-71322097D01*
X151043693Y-71098069D01*
X151075001Y-70940676D01*
X151075001Y-73356268D01*
X151060200Y-73430678D01*
X151060200Y-73584522D01*
X151090213Y-73735409D01*
X151149087Y-73877542D01*
X151234558Y-74005459D01*
X151343341Y-74114242D01*
X151471258Y-74199713D01*
X151613391Y-74258587D01*
X151764278Y-74288600D01*
X151918122Y-74288600D01*
X152069009Y-74258587D01*
X152211142Y-74199713D01*
X152339059Y-74114242D01*
X152447842Y-74005459D01*
X152533313Y-73877542D01*
X152592187Y-73735409D01*
X152622200Y-73584522D01*
X152622200Y-73430678D01*
X152592187Y-73279791D01*
X152587000Y-73267269D01*
X152587000Y-67695070D01*
X152678488Y-67619988D01*
X152757190Y-67524089D01*
X152815671Y-67414679D01*
X152851683Y-67295962D01*
X152863843Y-67172500D01*
X152863843Y-65823078D01*
X159919000Y-65823078D01*
X159919000Y-65976922D01*
X159949013Y-66127809D01*
X160007887Y-66269942D01*
X160093358Y-66397859D01*
X160202141Y-66506642D01*
X160330058Y-66592113D01*
X160394001Y-66618599D01*
X160394000Y-70875154D01*
X160391553Y-70900000D01*
X160394000Y-70924846D01*
X160394000Y-70924853D01*
X160401322Y-70999192D01*
X160430255Y-71094574D01*
X160477241Y-71182479D01*
X160540473Y-71259527D01*
X160559785Y-71275376D01*
X162124628Y-72840220D01*
X162140473Y-72859527D01*
X162217521Y-72922759D01*
X162305425Y-72969745D01*
X162400807Y-72998678D01*
X162500000Y-73008448D01*
X162524854Y-73006000D01*
X173890409Y-73006000D01*
X174246001Y-73361593D01*
X174246000Y-74476672D01*
X174178538Y-74483317D01*
X174059821Y-74519329D01*
X173950411Y-74577810D01*
X173854512Y-74656512D01*
X173775810Y-74752411D01*
X173717329Y-74861821D01*
X173681317Y-74980538D01*
X173669157Y-75103999D01*
X173669157Y-75804001D01*
X173681317Y-75927462D01*
X173717329Y-76046179D01*
X173775810Y-76155589D01*
X173854512Y-76251488D01*
X173950411Y-76330190D01*
X174059821Y-76388671D01*
X174178538Y-76424683D01*
X174301999Y-76436843D01*
X175202001Y-76436843D01*
X175325462Y-76424683D01*
X175444179Y-76388671D01*
X175553589Y-76330190D01*
X175649488Y-76251488D01*
X175728190Y-76155589D01*
X175786671Y-76046179D01*
X175822683Y-75927462D01*
X175834843Y-75804001D01*
X175834843Y-75103999D01*
X175822683Y-74980538D01*
X175786671Y-74861821D01*
X175728190Y-74752411D01*
X175649488Y-74656512D01*
X175553589Y-74577810D01*
X175444179Y-74519329D01*
X175325462Y-74483317D01*
X175258000Y-74476672D01*
X175258000Y-73176845D01*
X175260447Y-73151999D01*
X175258000Y-73127153D01*
X175258000Y-73127146D01*
X175250678Y-73052807D01*
X175237615Y-73009741D01*
X175221745Y-72957425D01*
X175174759Y-72869521D01*
X175111527Y-72792473D01*
X175092220Y-72776628D01*
X174475376Y-72159785D01*
X174459527Y-72140473D01*
X174382479Y-72077241D01*
X174294575Y-72030255D01*
X174199193Y-72001322D01*
X174124854Y-71994000D01*
X174124846Y-71994000D01*
X174100000Y-71991553D01*
X174075154Y-71994000D01*
X162709592Y-71994000D01*
X161406000Y-70690409D01*
X161406000Y-69978757D01*
X163929000Y-69978757D01*
X163929000Y-70221243D01*
X163976307Y-70459069D01*
X164069102Y-70683097D01*
X164203820Y-70884717D01*
X164375283Y-71056180D01*
X164576903Y-71190898D01*
X164800931Y-71283693D01*
X165038757Y-71331000D01*
X165281243Y-71331000D01*
X165519069Y-71283693D01*
X165743097Y-71190898D01*
X165944717Y-71056180D01*
X166116180Y-70884717D01*
X166250898Y-70683097D01*
X166343693Y-70459069D01*
X166391000Y-70221243D01*
X166391000Y-69978757D01*
X166469000Y-69978757D01*
X166469000Y-70221243D01*
X166516307Y-70459069D01*
X166609102Y-70683097D01*
X166743820Y-70884717D01*
X166915283Y-71056180D01*
X167116903Y-71190898D01*
X167340931Y-71283693D01*
X167578757Y-71331000D01*
X167821243Y-71331000D01*
X168059069Y-71283693D01*
X168283097Y-71190898D01*
X168484717Y-71056180D01*
X168656180Y-70884717D01*
X168790898Y-70683097D01*
X168883693Y-70459069D01*
X168931000Y-70221243D01*
X168931000Y-69978757D01*
X169009000Y-69978757D01*
X169009000Y-70221243D01*
X169056307Y-70459069D01*
X169149102Y-70683097D01*
X169283820Y-70884717D01*
X169455283Y-71056180D01*
X169656903Y-71190898D01*
X169880931Y-71283693D01*
X170118757Y-71331000D01*
X170361243Y-71331000D01*
X170599069Y-71283693D01*
X170823097Y-71190898D01*
X171024717Y-71056180D01*
X171196180Y-70884717D01*
X171330898Y-70683097D01*
X171423693Y-70459069D01*
X171471000Y-70221243D01*
X171471000Y-69978757D01*
X171549000Y-69978757D01*
X171549000Y-70221243D01*
X171596307Y-70459069D01*
X171689102Y-70683097D01*
X171823820Y-70884717D01*
X171995283Y-71056180D01*
X172196903Y-71190898D01*
X172420931Y-71283693D01*
X172658757Y-71331000D01*
X172901243Y-71331000D01*
X173139069Y-71283693D01*
X173363097Y-71190898D01*
X173564717Y-71056180D01*
X173736180Y-70884717D01*
X173870898Y-70683097D01*
X173963693Y-70459069D01*
X173984220Y-70355871D01*
X174171145Y-70355871D01*
X174243138Y-70575085D01*
X174356514Y-70776042D01*
X174506916Y-70951019D01*
X174688565Y-71093292D01*
X174894480Y-71197393D01*
X175064130Y-71248851D01*
X175247000Y-71192815D01*
X175247000Y-70173000D01*
X175393000Y-70173000D01*
X175393000Y-71192815D01*
X175575870Y-71248851D01*
X175745520Y-71197393D01*
X175951435Y-71093292D01*
X176133084Y-70951019D01*
X176283486Y-70776042D01*
X176396862Y-70575085D01*
X176468855Y-70355871D01*
X176412988Y-70173000D01*
X175393000Y-70173000D01*
X175247000Y-70173000D01*
X174227012Y-70173000D01*
X174171145Y-70355871D01*
X173984220Y-70355871D01*
X174011000Y-70221243D01*
X174011000Y-69978757D01*
X173984221Y-69844129D01*
X174171145Y-69844129D01*
X174227012Y-70027000D01*
X175247000Y-70027000D01*
X175247000Y-69007185D01*
X175393000Y-69007185D01*
X175393000Y-70027000D01*
X176412988Y-70027000D01*
X176468855Y-69844129D01*
X176396862Y-69624915D01*
X176283486Y-69423958D01*
X176133960Y-69250000D01*
X176627157Y-69250000D01*
X176627157Y-70950000D01*
X176634513Y-71024689D01*
X176656299Y-71096508D01*
X176691678Y-71162696D01*
X176739289Y-71220711D01*
X176797304Y-71268322D01*
X176863492Y-71303701D01*
X176935311Y-71325487D01*
X177010000Y-71332843D01*
X178710000Y-71332843D01*
X178784689Y-71325487D01*
X178856508Y-71303701D01*
X178922696Y-71268322D01*
X178980711Y-71220711D01*
X179028322Y-71162696D01*
X179063701Y-71096508D01*
X179085487Y-71024689D01*
X179092843Y-70950000D01*
X179092843Y-69250000D01*
X179085487Y-69175311D01*
X179063701Y-69103492D01*
X179028322Y-69037304D01*
X178980711Y-68979289D01*
X178922696Y-68931678D01*
X178856508Y-68896299D01*
X178784689Y-68874513D01*
X178710000Y-68867157D01*
X177010000Y-68867157D01*
X176935311Y-68874513D01*
X176863492Y-68896299D01*
X176797304Y-68931678D01*
X176739289Y-68979289D01*
X176691678Y-69037304D01*
X176656299Y-69103492D01*
X176634513Y-69175311D01*
X176627157Y-69250000D01*
X176133960Y-69250000D01*
X176133084Y-69248981D01*
X175951435Y-69106708D01*
X175745520Y-69002607D01*
X175575870Y-68951149D01*
X175393000Y-69007185D01*
X175247000Y-69007185D01*
X175064130Y-68951149D01*
X174894480Y-69002607D01*
X174688565Y-69106708D01*
X174506916Y-69248981D01*
X174356514Y-69423958D01*
X174243138Y-69624915D01*
X174171145Y-69844129D01*
X173984221Y-69844129D01*
X173963693Y-69740931D01*
X173870898Y-69516903D01*
X173736180Y-69315283D01*
X173564717Y-69143820D01*
X173363097Y-69009102D01*
X173139069Y-68916307D01*
X172901243Y-68869000D01*
X172658757Y-68869000D01*
X172420931Y-68916307D01*
X172196903Y-69009102D01*
X171995283Y-69143820D01*
X171823820Y-69315283D01*
X171689102Y-69516903D01*
X171596307Y-69740931D01*
X171549000Y-69978757D01*
X171471000Y-69978757D01*
X171423693Y-69740931D01*
X171330898Y-69516903D01*
X171196180Y-69315283D01*
X171024717Y-69143820D01*
X170823097Y-69009102D01*
X170599069Y-68916307D01*
X170361243Y-68869000D01*
X170118757Y-68869000D01*
X169880931Y-68916307D01*
X169656903Y-69009102D01*
X169455283Y-69143820D01*
X169283820Y-69315283D01*
X169149102Y-69516903D01*
X169056307Y-69740931D01*
X169009000Y-69978757D01*
X168931000Y-69978757D01*
X168883693Y-69740931D01*
X168790898Y-69516903D01*
X168656180Y-69315283D01*
X168484717Y-69143820D01*
X168283097Y-69009102D01*
X168059069Y-68916307D01*
X167821243Y-68869000D01*
X167578757Y-68869000D01*
X167340931Y-68916307D01*
X167116903Y-69009102D01*
X166915283Y-69143820D01*
X166743820Y-69315283D01*
X166609102Y-69516903D01*
X166516307Y-69740931D01*
X166469000Y-69978757D01*
X166391000Y-69978757D01*
X166343693Y-69740931D01*
X166250898Y-69516903D01*
X166116180Y-69315283D01*
X165944717Y-69143820D01*
X165743097Y-69009102D01*
X165519069Y-68916307D01*
X165281243Y-68869000D01*
X165038757Y-68869000D01*
X164800931Y-68916307D01*
X164576903Y-69009102D01*
X164375283Y-69143820D01*
X164203820Y-69315283D01*
X164069102Y-69516903D01*
X163976307Y-69740931D01*
X163929000Y-69978757D01*
X161406000Y-69978757D01*
X161406000Y-66236416D01*
X161450987Y-66127809D01*
X161481000Y-65976922D01*
X161481000Y-65823078D01*
X161450987Y-65672191D01*
X161392113Y-65530058D01*
X161306642Y-65402141D01*
X161197859Y-65293358D01*
X161069942Y-65207887D01*
X160927809Y-65149013D01*
X160776922Y-65119000D01*
X160623078Y-65119000D01*
X160472191Y-65149013D01*
X160330058Y-65207887D01*
X160202141Y-65293358D01*
X160093358Y-65402141D01*
X160007887Y-65530058D01*
X159949013Y-65672191D01*
X159919000Y-65823078D01*
X152863843Y-65823078D01*
X152863843Y-64272500D01*
X152851683Y-64149038D01*
X152815671Y-64030321D01*
X152757190Y-63920911D01*
X152678488Y-63825012D01*
X152582589Y-63746310D01*
X152473179Y-63687829D01*
X152354462Y-63651817D01*
X152231000Y-63639657D01*
X151431000Y-63639657D01*
X151307538Y-63651817D01*
X151188821Y-63687829D01*
X151079411Y-63746310D01*
X150983512Y-63825012D01*
X150904810Y-63920911D01*
X150846329Y-64030321D01*
X150810317Y-64149038D01*
X150798157Y-64272500D01*
X150798157Y-67172500D01*
X150810317Y-67295962D01*
X150846329Y-67414679D01*
X150904810Y-67524089D01*
X150983512Y-67619988D01*
X151075000Y-67695070D01*
X151075001Y-70537323D01*
X151043693Y-70379931D01*
X150950898Y-70155903D01*
X150816180Y-69954283D01*
X150644717Y-69782820D01*
X150443097Y-69648102D01*
X150219069Y-69555307D01*
X149981243Y-69508000D01*
X149738757Y-69508000D01*
X149500931Y-69555307D01*
X149276903Y-69648102D01*
X149075283Y-69782820D01*
X148903820Y-69954283D01*
X148769102Y-70155903D01*
X148676307Y-70379931D01*
X148629000Y-70617757D01*
X148551000Y-70617757D01*
X148503693Y-70379931D01*
X148410898Y-70155903D01*
X148276180Y-69954283D01*
X148137000Y-69815103D01*
X148137000Y-67695070D01*
X148228488Y-67619988D01*
X148307190Y-67524089D01*
X148365671Y-67414679D01*
X148401683Y-67295962D01*
X148413843Y-67172500D01*
X148413843Y-64272500D01*
X148401683Y-64149038D01*
X148365671Y-64030321D01*
X148307190Y-63920911D01*
X148228488Y-63825012D01*
X148132589Y-63746310D01*
X148023179Y-63687829D01*
X147904462Y-63651817D01*
X147781000Y-63639657D01*
X146981000Y-63639657D01*
X146857538Y-63651817D01*
X146738821Y-63687829D01*
X146629411Y-63746310D01*
X146533512Y-63825012D01*
X146454810Y-63920911D01*
X146396329Y-64030321D01*
X146360317Y-64149038D01*
X146348157Y-64272500D01*
X146348157Y-67172500D01*
X146360317Y-67295962D01*
X146396329Y-67414679D01*
X146454810Y-67524089D01*
X146533512Y-67619988D01*
X146625000Y-67695070D01*
X146625001Y-69722873D01*
X146535283Y-69782820D01*
X146363820Y-69954283D01*
X146229102Y-70155903D01*
X146136307Y-70379931D01*
X146089000Y-70617757D01*
X146012843Y-70617757D01*
X146012843Y-69889000D01*
X146005487Y-69814311D01*
X145983701Y-69742492D01*
X145948322Y-69676304D01*
X145900711Y-69618289D01*
X145842696Y-69570678D01*
X145776508Y-69535299D01*
X145704689Y-69513513D01*
X145630000Y-69506157D01*
X143930000Y-69506157D01*
X143855311Y-69513513D01*
X143783492Y-69535299D01*
X143717304Y-69570678D01*
X143659289Y-69618289D01*
X143611678Y-69676304D01*
X143576299Y-69742492D01*
X143554513Y-69814311D01*
X143547157Y-69889000D01*
X142576321Y-69889000D01*
X142424447Y-60700667D01*
X142689693Y-60431000D01*
X179332242Y-60431000D01*
X179569000Y-60667488D01*
G37*
%TD.AperFunction*%
D23*
X173717329Y-78046179D02*
X173775810Y-78155589D01*
X173854512Y-78251488D01*
X173950411Y-78330190D01*
X174059821Y-78388671D01*
X174178538Y-78424683D01*
X174301999Y-78436843D01*
X175202001Y-78436843D01*
X175325462Y-78424683D01*
X175444179Y-78388671D01*
X175553589Y-78330190D01*
X175649488Y-78251488D01*
X175728190Y-78155589D01*
X175786671Y-78046179D01*
X175820396Y-77935000D01*
X177646004Y-77935000D01*
X177679729Y-78046179D01*
X177738210Y-78155589D01*
X177816912Y-78251488D01*
X177912811Y-78330190D01*
X178022221Y-78388671D01*
X178140938Y-78424683D01*
X178264399Y-78436843D01*
X178933402Y-78436843D01*
X178933402Y-85708861D01*
X178791322Y-85680600D01*
X178637478Y-85680600D01*
X178490143Y-85709906D01*
X172153045Y-79372809D01*
X172192913Y-79313142D01*
X172251787Y-79171009D01*
X172269758Y-79080661D01*
X172281887Y-79109942D01*
X172367358Y-79237859D01*
X172476141Y-79346642D01*
X172604058Y-79432113D01*
X172746191Y-79490987D01*
X172897078Y-79521000D01*
X173050922Y-79521000D01*
X173070808Y-79517044D01*
X175915506Y-82361743D01*
X175915506Y-82473428D01*
X175945519Y-82624315D01*
X176004393Y-82766448D01*
X176089864Y-82894365D01*
X176198647Y-83003148D01*
X176326564Y-83088619D01*
X176468697Y-83147493D01*
X176619584Y-83177506D01*
X176773428Y-83177506D01*
X176924315Y-83147493D01*
X177066448Y-83088619D01*
X177194365Y-83003148D01*
X177303148Y-82894365D01*
X177388619Y-82766448D01*
X177447493Y-82624315D01*
X177477506Y-82473428D01*
X177477506Y-82319584D01*
X177447493Y-82168697D01*
X177388619Y-82026564D01*
X177303148Y-81898647D01*
X177194365Y-81789864D01*
X177066448Y-81704393D01*
X176924315Y-81645519D01*
X176773428Y-81615506D01*
X176619584Y-81615506D01*
X176544648Y-81630411D01*
X173848915Y-78934678D01*
X175469800Y-78934678D01*
X175469800Y-79088522D01*
X175499813Y-79239409D01*
X175558687Y-79381542D01*
X175644158Y-79509459D01*
X175752941Y-79618242D01*
X175880858Y-79703713D01*
X176022991Y-79762587D01*
X176173878Y-79792600D01*
X176327722Y-79792600D01*
X176478609Y-79762587D01*
X176620742Y-79703713D01*
X176748659Y-79618242D01*
X176857442Y-79509459D01*
X176942913Y-79381542D01*
X177001787Y-79239409D01*
X177031800Y-79088522D01*
X177031800Y-78934678D01*
X177001787Y-78783791D01*
X176942913Y-78641658D01*
X176857442Y-78513741D01*
X176748659Y-78404958D01*
X176620742Y-78319487D01*
X176478609Y-78260613D01*
X176327722Y-78230600D01*
X176173878Y-78230600D01*
X176022991Y-78260613D01*
X175880858Y-78319487D01*
X175752941Y-78404958D01*
X175644158Y-78513741D01*
X175558687Y-78641658D01*
X175499813Y-78783791D01*
X175469800Y-78934678D01*
X173848915Y-78934678D01*
X173751044Y-78836808D01*
X173755000Y-78816922D01*
X173755000Y-78663078D01*
X173724987Y-78512191D01*
X173666113Y-78370058D01*
X173580642Y-78242141D01*
X173471859Y-78133358D01*
X173343942Y-78047887D01*
X173201809Y-77989013D01*
X173050922Y-77959000D01*
X172897078Y-77959000D01*
X172746191Y-77989013D01*
X172604058Y-78047887D01*
X172476141Y-78133358D01*
X172367358Y-78242141D01*
X172281887Y-78370058D01*
X172223013Y-78512191D01*
X172205042Y-78602539D01*
X172192913Y-78573258D01*
X172107442Y-78445341D01*
X171998659Y-78336558D01*
X171870742Y-78251087D01*
X171728609Y-78192213D01*
X171577722Y-78162200D01*
X171423878Y-78162200D01*
X171272991Y-78192213D01*
X171130858Y-78251087D01*
X171002941Y-78336558D01*
X170894158Y-78445341D01*
X170808687Y-78573258D01*
X170749813Y-78715391D01*
X170719800Y-78866278D01*
X170719800Y-79020122D01*
X170749813Y-79171009D01*
X170808687Y-79313142D01*
X170894158Y-79441059D01*
X171002941Y-79549842D01*
X171053647Y-79583722D01*
X171054265Y-79585761D01*
X171098929Y-79669322D01*
X171159037Y-79742564D01*
X171177389Y-79757625D01*
X174438764Y-83019000D01*
X174423078Y-83019000D01*
X174272191Y-83049013D01*
X174130058Y-83107887D01*
X174002141Y-83193358D01*
X173893358Y-83302141D01*
X173807887Y-83430058D01*
X173749013Y-83572191D01*
X173719000Y-83723078D01*
X173719000Y-83865408D01*
X172159781Y-85424628D01*
X172140474Y-85440473D01*
X172077242Y-85517521D01*
X172071327Y-85528587D01*
X172030255Y-85605426D01*
X172001322Y-85700808D01*
X171991553Y-85800000D01*
X171994001Y-85824856D01*
X171994000Y-90990408D01*
X171690409Y-91294000D01*
X162509591Y-91294000D01*
X162475375Y-91259784D01*
X162475370Y-91259778D01*
X161582843Y-90367252D01*
X161582843Y-89649999D01*
X161570683Y-89526538D01*
X161534671Y-89407821D01*
X161476190Y-89298411D01*
X161397488Y-89202512D01*
X161301589Y-89123810D01*
X161192179Y-89065329D01*
X161073462Y-89029317D01*
X160950001Y-89017157D01*
X160249999Y-89017157D01*
X160143790Y-89027618D01*
X160143790Y-88960046D01*
X160212799Y-88966843D01*
X160912801Y-88966843D01*
X161036262Y-88954683D01*
X161154979Y-88918671D01*
X161264389Y-88860190D01*
X161360288Y-88781488D01*
X161438990Y-88685589D01*
X161497471Y-88576179D01*
X161533483Y-88457462D01*
X161542590Y-88365000D01*
X167999564Y-88365000D01*
X168215500Y-88580937D01*
X168215501Y-89278093D01*
X168198641Y-89289358D01*
X168089858Y-89398141D01*
X168004387Y-89526058D01*
X167945513Y-89668191D01*
X167915500Y-89819078D01*
X167915500Y-89972922D01*
X167945513Y-90123809D01*
X168004387Y-90265942D01*
X168089858Y-90393859D01*
X168198641Y-90502642D01*
X168326558Y-90588113D01*
X168468691Y-90646987D01*
X168619578Y-90677000D01*
X168773422Y-90677000D01*
X168924309Y-90646987D01*
X169066442Y-90588113D01*
X169194359Y-90502642D01*
X169303142Y-90393859D01*
X169388613Y-90265942D01*
X169447487Y-90123809D01*
X169477500Y-89972922D01*
X169477500Y-89819078D01*
X169447487Y-89668191D01*
X169388613Y-89526058D01*
X169303142Y-89398141D01*
X169194359Y-89289358D01*
X169177500Y-89278093D01*
X169177500Y-88405326D01*
X169179827Y-88381699D01*
X169170540Y-88287407D01*
X169156409Y-88240824D01*
X169143036Y-88196739D01*
X169098372Y-88113178D01*
X169038264Y-88039936D01*
X169019911Y-88024874D01*
X168555630Y-87560594D01*
X168540564Y-87542236D01*
X168467322Y-87482128D01*
X168383761Y-87437464D01*
X168293092Y-87409960D01*
X168222426Y-87403000D01*
X168198800Y-87400673D01*
X168175174Y-87403000D01*
X161542590Y-87403000D01*
X161533483Y-87310538D01*
X161497471Y-87191821D01*
X161438990Y-87082411D01*
X161360288Y-86986512D01*
X161264389Y-86907810D01*
X161189910Y-86868000D01*
X161264389Y-86828190D01*
X161360288Y-86749488D01*
X161438990Y-86653589D01*
X161497471Y-86544179D01*
X161533483Y-86425462D01*
X161542590Y-86333000D01*
X168659964Y-86333000D01*
X170156200Y-87829237D01*
X170156201Y-89331798D01*
X170089858Y-89398141D01*
X170004387Y-89526058D01*
X169945513Y-89668191D01*
X169915500Y-89819078D01*
X169915500Y-89972922D01*
X169945513Y-90123809D01*
X170004387Y-90265942D01*
X170089858Y-90393859D01*
X170198641Y-90502642D01*
X170326558Y-90588113D01*
X170468691Y-90646987D01*
X170619578Y-90677000D01*
X170773422Y-90677000D01*
X170924309Y-90646987D01*
X171066442Y-90588113D01*
X171194359Y-90502642D01*
X171303142Y-90393859D01*
X171388613Y-90265942D01*
X171447487Y-90123809D01*
X171477500Y-89972922D01*
X171477500Y-89819078D01*
X171447487Y-89668191D01*
X171388613Y-89526058D01*
X171303142Y-89398141D01*
X171194359Y-89289358D01*
X171118200Y-89238470D01*
X171118200Y-87653626D01*
X171120527Y-87630000D01*
X171111240Y-87535707D01*
X171083736Y-87445038D01*
X171039071Y-87361477D01*
X170978964Y-87288236D01*
X170960612Y-87273175D01*
X169216030Y-85528594D01*
X169200964Y-85510236D01*
X169127722Y-85450128D01*
X169044161Y-85405464D01*
X168953492Y-85377960D01*
X168882826Y-85371000D01*
X168859200Y-85368673D01*
X168835574Y-85371000D01*
X161542590Y-85371000D01*
X161533483Y-85278538D01*
X161497471Y-85159821D01*
X161438990Y-85050411D01*
X161360288Y-84954512D01*
X161264389Y-84875810D01*
X161237430Y-84861400D01*
X161264389Y-84846990D01*
X161360288Y-84768288D01*
X161438990Y-84672389D01*
X161497471Y-84562979D01*
X161533483Y-84444262D01*
X161545643Y-84320801D01*
X161545643Y-83420799D01*
X161533483Y-83297338D01*
X161529939Y-83285653D01*
X161540220Y-83275372D01*
X161559527Y-83259527D01*
X161622759Y-83182479D01*
X161669745Y-83094575D01*
X161698678Y-82999193D01*
X161706000Y-82924854D01*
X161706000Y-82924853D01*
X161708448Y-82900000D01*
X161706000Y-82875146D01*
X161706000Y-80024845D01*
X161708447Y-79999999D01*
X161706000Y-79975153D01*
X161706000Y-79975146D01*
X161698678Y-79900807D01*
X161669745Y-79805425D01*
X161622759Y-79717521D01*
X161559527Y-79640473D01*
X161540220Y-79624628D01*
X160911920Y-78996329D01*
X161024942Y-78949513D01*
X161152859Y-78864042D01*
X161261642Y-78755259D01*
X161347113Y-78627342D01*
X161405987Y-78485209D01*
X161436000Y-78334322D01*
X161436000Y-78180478D01*
X161432044Y-78160592D01*
X161657637Y-77935000D01*
X173683604Y-77935000D01*
X173717329Y-78046179D01*
%TA.AperFunction,Conductor*%
D24*
G36*
X173717329Y-78046179D02*
G01*
X173775810Y-78155589D01*
X173854512Y-78251488D01*
X173950411Y-78330190D01*
X174059821Y-78388671D01*
X174178538Y-78424683D01*
X174301999Y-78436843D01*
X175202001Y-78436843D01*
X175325462Y-78424683D01*
X175444179Y-78388671D01*
X175553589Y-78330190D01*
X175649488Y-78251488D01*
X175728190Y-78155589D01*
X175786671Y-78046179D01*
X175820396Y-77935000D01*
X177646004Y-77935000D01*
X177679729Y-78046179D01*
X177738210Y-78155589D01*
X177816912Y-78251488D01*
X177912811Y-78330190D01*
X178022221Y-78388671D01*
X178140938Y-78424683D01*
X178264399Y-78436843D01*
X178933402Y-78436843D01*
X178933402Y-85708861D01*
X178791322Y-85680600D01*
X178637478Y-85680600D01*
X178490143Y-85709906D01*
X172153045Y-79372809D01*
X172192913Y-79313142D01*
X172251787Y-79171009D01*
X172269758Y-79080661D01*
X172281887Y-79109942D01*
X172367358Y-79237859D01*
X172476141Y-79346642D01*
X172604058Y-79432113D01*
X172746191Y-79490987D01*
X172897078Y-79521000D01*
X173050922Y-79521000D01*
X173070808Y-79517044D01*
X175915506Y-82361743D01*
X175915506Y-82473428D01*
X175945519Y-82624315D01*
X176004393Y-82766448D01*
X176089864Y-82894365D01*
X176198647Y-83003148D01*
X176326564Y-83088619D01*
X176468697Y-83147493D01*
X176619584Y-83177506D01*
X176773428Y-83177506D01*
X176924315Y-83147493D01*
X177066448Y-83088619D01*
X177194365Y-83003148D01*
X177303148Y-82894365D01*
X177388619Y-82766448D01*
X177447493Y-82624315D01*
X177477506Y-82473428D01*
X177477506Y-82319584D01*
X177447493Y-82168697D01*
X177388619Y-82026564D01*
X177303148Y-81898647D01*
X177194365Y-81789864D01*
X177066448Y-81704393D01*
X176924315Y-81645519D01*
X176773428Y-81615506D01*
X176619584Y-81615506D01*
X176544648Y-81630411D01*
X173848915Y-78934678D01*
X175469800Y-78934678D01*
X175469800Y-79088522D01*
X175499813Y-79239409D01*
X175558687Y-79381542D01*
X175644158Y-79509459D01*
X175752941Y-79618242D01*
X175880858Y-79703713D01*
X176022991Y-79762587D01*
X176173878Y-79792600D01*
X176327722Y-79792600D01*
X176478609Y-79762587D01*
X176620742Y-79703713D01*
X176748659Y-79618242D01*
X176857442Y-79509459D01*
X176942913Y-79381542D01*
X177001787Y-79239409D01*
X177031800Y-79088522D01*
X177031800Y-78934678D01*
X177001787Y-78783791D01*
X176942913Y-78641658D01*
X176857442Y-78513741D01*
X176748659Y-78404958D01*
X176620742Y-78319487D01*
X176478609Y-78260613D01*
X176327722Y-78230600D01*
X176173878Y-78230600D01*
X176022991Y-78260613D01*
X175880858Y-78319487D01*
X175752941Y-78404958D01*
X175644158Y-78513741D01*
X175558687Y-78641658D01*
X175499813Y-78783791D01*
X175469800Y-78934678D01*
X173848915Y-78934678D01*
X173751044Y-78836808D01*
X173755000Y-78816922D01*
X173755000Y-78663078D01*
X173724987Y-78512191D01*
X173666113Y-78370058D01*
X173580642Y-78242141D01*
X173471859Y-78133358D01*
X173343942Y-78047887D01*
X173201809Y-77989013D01*
X173050922Y-77959000D01*
X172897078Y-77959000D01*
X172746191Y-77989013D01*
X172604058Y-78047887D01*
X172476141Y-78133358D01*
X172367358Y-78242141D01*
X172281887Y-78370058D01*
X172223013Y-78512191D01*
X172205042Y-78602539D01*
X172192913Y-78573258D01*
X172107442Y-78445341D01*
X171998659Y-78336558D01*
X171870742Y-78251087D01*
X171728609Y-78192213D01*
X171577722Y-78162200D01*
X171423878Y-78162200D01*
X171272991Y-78192213D01*
X171130858Y-78251087D01*
X171002941Y-78336558D01*
X170894158Y-78445341D01*
X170808687Y-78573258D01*
X170749813Y-78715391D01*
X170719800Y-78866278D01*
X170719800Y-79020122D01*
X170749813Y-79171009D01*
X170808687Y-79313142D01*
X170894158Y-79441059D01*
X171002941Y-79549842D01*
X171053647Y-79583722D01*
X171054265Y-79585761D01*
X171098929Y-79669322D01*
X171159037Y-79742564D01*
X171177389Y-79757625D01*
X174438764Y-83019000D01*
X174423078Y-83019000D01*
X174272191Y-83049013D01*
X174130058Y-83107887D01*
X174002141Y-83193358D01*
X173893358Y-83302141D01*
X173807887Y-83430058D01*
X173749013Y-83572191D01*
X173719000Y-83723078D01*
X173719000Y-83865408D01*
X172159781Y-85424628D01*
X172140474Y-85440473D01*
X172077242Y-85517521D01*
X172071327Y-85528587D01*
X172030255Y-85605426D01*
X172001322Y-85700808D01*
X171991553Y-85800000D01*
X171994001Y-85824856D01*
X171994000Y-90990408D01*
X171690409Y-91294000D01*
X162509591Y-91294000D01*
X162475375Y-91259784D01*
X162475370Y-91259778D01*
X161582843Y-90367252D01*
X161582843Y-89649999D01*
X161570683Y-89526538D01*
X161534671Y-89407821D01*
X161476190Y-89298411D01*
X161397488Y-89202512D01*
X161301589Y-89123810D01*
X161192179Y-89065329D01*
X161073462Y-89029317D01*
X160950001Y-89017157D01*
X160249999Y-89017157D01*
X160143790Y-89027618D01*
X160143790Y-88960046D01*
X160212799Y-88966843D01*
X160912801Y-88966843D01*
X161036262Y-88954683D01*
X161154979Y-88918671D01*
X161264389Y-88860190D01*
X161360288Y-88781488D01*
X161438990Y-88685589D01*
X161497471Y-88576179D01*
X161533483Y-88457462D01*
X161542590Y-88365000D01*
X167999564Y-88365000D01*
X168215500Y-88580937D01*
X168215501Y-89278093D01*
X168198641Y-89289358D01*
X168089858Y-89398141D01*
X168004387Y-89526058D01*
X167945513Y-89668191D01*
X167915500Y-89819078D01*
X167915500Y-89972922D01*
X167945513Y-90123809D01*
X168004387Y-90265942D01*
X168089858Y-90393859D01*
X168198641Y-90502642D01*
X168326558Y-90588113D01*
X168468691Y-90646987D01*
X168619578Y-90677000D01*
X168773422Y-90677000D01*
X168924309Y-90646987D01*
X169066442Y-90588113D01*
X169194359Y-90502642D01*
X169303142Y-90393859D01*
X169388613Y-90265942D01*
X169447487Y-90123809D01*
X169477500Y-89972922D01*
X169477500Y-89819078D01*
X169447487Y-89668191D01*
X169388613Y-89526058D01*
X169303142Y-89398141D01*
X169194359Y-89289358D01*
X169177500Y-89278093D01*
X169177500Y-88405326D01*
X169179827Y-88381699D01*
X169170540Y-88287407D01*
X169156409Y-88240824D01*
X169143036Y-88196739D01*
X169098372Y-88113178D01*
X169038264Y-88039936D01*
X169019911Y-88024874D01*
X168555630Y-87560594D01*
X168540564Y-87542236D01*
X168467322Y-87482128D01*
X168383761Y-87437464D01*
X168293092Y-87409960D01*
X168222426Y-87403000D01*
X168198800Y-87400673D01*
X168175174Y-87403000D01*
X161542590Y-87403000D01*
X161533483Y-87310538D01*
X161497471Y-87191821D01*
X161438990Y-87082411D01*
X161360288Y-86986512D01*
X161264389Y-86907810D01*
X161189910Y-86868000D01*
X161264389Y-86828190D01*
X161360288Y-86749488D01*
X161438990Y-86653589D01*
X161497471Y-86544179D01*
X161533483Y-86425462D01*
X161542590Y-86333000D01*
X168659964Y-86333000D01*
X170156200Y-87829237D01*
X170156201Y-89331798D01*
X170089858Y-89398141D01*
X170004387Y-89526058D01*
X169945513Y-89668191D01*
X169915500Y-89819078D01*
X169915500Y-89972922D01*
X169945513Y-90123809D01*
X170004387Y-90265942D01*
X170089858Y-90393859D01*
X170198641Y-90502642D01*
X170326558Y-90588113D01*
X170468691Y-90646987D01*
X170619578Y-90677000D01*
X170773422Y-90677000D01*
X170924309Y-90646987D01*
X171066442Y-90588113D01*
X171194359Y-90502642D01*
X171303142Y-90393859D01*
X171388613Y-90265942D01*
X171447487Y-90123809D01*
X171477500Y-89972922D01*
X171477500Y-89819078D01*
X171447487Y-89668191D01*
X171388613Y-89526058D01*
X171303142Y-89398141D01*
X171194359Y-89289358D01*
X171118200Y-89238470D01*
X171118200Y-87653626D01*
X171120527Y-87630000D01*
X171111240Y-87535707D01*
X171083736Y-87445038D01*
X171039071Y-87361477D01*
X170978964Y-87288236D01*
X170960612Y-87273175D01*
X169216030Y-85528594D01*
X169200964Y-85510236D01*
X169127722Y-85450128D01*
X169044161Y-85405464D01*
X168953492Y-85377960D01*
X168882826Y-85371000D01*
X168859200Y-85368673D01*
X168835574Y-85371000D01*
X161542590Y-85371000D01*
X161533483Y-85278538D01*
X161497471Y-85159821D01*
X161438990Y-85050411D01*
X161360288Y-84954512D01*
X161264389Y-84875810D01*
X161237430Y-84861400D01*
X161264389Y-84846990D01*
X161360288Y-84768288D01*
X161438990Y-84672389D01*
X161497471Y-84562979D01*
X161533483Y-84444262D01*
X161545643Y-84320801D01*
X161545643Y-83420799D01*
X161533483Y-83297338D01*
X161529939Y-83285653D01*
X161540220Y-83275372D01*
X161559527Y-83259527D01*
X161622759Y-83182479D01*
X161669745Y-83094575D01*
X161698678Y-82999193D01*
X161706000Y-82924854D01*
X161706000Y-82924853D01*
X161708448Y-82900000D01*
X161706000Y-82875146D01*
X161706000Y-80024845D01*
X161708447Y-79999999D01*
X161706000Y-79975153D01*
X161706000Y-79975146D01*
X161698678Y-79900807D01*
X161669745Y-79805425D01*
X161622759Y-79717521D01*
X161559527Y-79640473D01*
X161540220Y-79624628D01*
X160911920Y-78996329D01*
X161024942Y-78949513D01*
X161152859Y-78864042D01*
X161261642Y-78755259D01*
X161347113Y-78627342D01*
X161405987Y-78485209D01*
X161436000Y-78334322D01*
X161436000Y-78180478D01*
X161432044Y-78160592D01*
X161657637Y-77935000D01*
X173683604Y-77935000D01*
X173717329Y-78046179D01*
G37*
%TD.AperFunction*%
%TD*%
M02*
