%TF.GenerationSoftware,KiCad,Pcbnew,(5.1.12)-1*%
%TF.CreationDate,2023-06-07T09:52:28-07:00*%
%TF.ProjectId,hp breakout remote relay,68702062-7265-4616-9b6f-75742072656d,rev?*%
%TF.SameCoordinates,Original*%
%TF.FileFunction,Legend,Bot*%
%TF.FilePolarity,Positive*%
%FSLAX46Y46*%
G04 Gerber Fmt 4.6, Leading zero omitted, Abs format (unit mm)*
G04 Created by KiCad (PCBNEW (5.1.12)-1) date 2023-06-07 09:52:28*
%MOMM*%
%LPD*%
G01*
G04 APERTURE LIST*
%ADD10C,0.150000*%
%ADD11C,0.100000*%
%ADD12C,0.400000*%
%ADD13C,0.120000*%
G04 APERTURE END LIST*
D10*
X145164285Y-79478571D02*
X145164285Y-77978571D01*
X145164285Y-78692857D02*
X144307142Y-78692857D01*
X144307142Y-79478571D02*
X144307142Y-77978571D01*
X143592857Y-79478571D02*
X143592857Y-77978571D01*
X143021428Y-77978571D01*
X142878571Y-78050000D01*
X142807142Y-78121428D01*
X142735714Y-78264285D01*
X142735714Y-78478571D01*
X142807142Y-78621428D01*
X142878571Y-78692857D01*
X143021428Y-78764285D01*
X143592857Y-78764285D01*
X140950000Y-78478571D02*
X140950000Y-79978571D01*
X140950000Y-78550000D02*
X140807142Y-78478571D01*
X140521428Y-78478571D01*
X140378571Y-78550000D01*
X140307142Y-78621428D01*
X140235714Y-78764285D01*
X140235714Y-79192857D01*
X140307142Y-79335714D01*
X140378571Y-79407142D01*
X140521428Y-79478571D01*
X140807142Y-79478571D01*
X140950000Y-79407142D01*
X139378571Y-79478571D02*
X139521428Y-79407142D01*
X139592857Y-79335714D01*
X139664285Y-79192857D01*
X139664285Y-78764285D01*
X139592857Y-78621428D01*
X139521428Y-78550000D01*
X139378571Y-78478571D01*
X139164285Y-78478571D01*
X139021428Y-78550000D01*
X138950000Y-78621428D01*
X138878571Y-78764285D01*
X138878571Y-79192857D01*
X138950000Y-79335714D01*
X139021428Y-79407142D01*
X139164285Y-79478571D01*
X139378571Y-79478571D01*
X138378571Y-78478571D02*
X138092857Y-79478571D01*
X137807142Y-78764285D01*
X137521428Y-79478571D01*
X137235714Y-78478571D01*
X136092857Y-79407142D02*
X136235714Y-79478571D01*
X136521428Y-79478571D01*
X136664285Y-79407142D01*
X136735714Y-79264285D01*
X136735714Y-78692857D01*
X136664285Y-78550000D01*
X136521428Y-78478571D01*
X136235714Y-78478571D01*
X136092857Y-78550000D01*
X136021428Y-78692857D01*
X136021428Y-78835714D01*
X136735714Y-78978571D01*
X135378571Y-79478571D02*
X135378571Y-78478571D01*
X135378571Y-78764285D02*
X135307142Y-78621428D01*
X135235714Y-78550000D01*
X135092857Y-78478571D01*
X134950000Y-78478571D01*
X133378571Y-79407142D02*
X133235714Y-79478571D01*
X132950000Y-79478571D01*
X132807142Y-79407142D01*
X132735714Y-79264285D01*
X132735714Y-79192857D01*
X132807142Y-79050000D01*
X132950000Y-78978571D01*
X133164285Y-78978571D01*
X133307142Y-78907142D01*
X133378571Y-78764285D01*
X133378571Y-78692857D01*
X133307142Y-78550000D01*
X133164285Y-78478571D01*
X132950000Y-78478571D01*
X132807142Y-78550000D01*
X131450000Y-78478571D02*
X131450000Y-79478571D01*
X132092857Y-78478571D02*
X132092857Y-79264285D01*
X132021428Y-79407142D01*
X131878571Y-79478571D01*
X131664285Y-79478571D01*
X131521428Y-79407142D01*
X131450000Y-79335714D01*
X130735714Y-78478571D02*
X130735714Y-79978571D01*
X130735714Y-78550000D02*
X130592857Y-78478571D01*
X130307142Y-78478571D01*
X130164285Y-78550000D01*
X130092857Y-78621428D01*
X130021428Y-78764285D01*
X130021428Y-79192857D01*
X130092857Y-79335714D01*
X130164285Y-79407142D01*
X130307142Y-79478571D01*
X130592857Y-79478571D01*
X130735714Y-79407142D01*
X129378571Y-78478571D02*
X129378571Y-79978571D01*
X129378571Y-78550000D02*
X129235714Y-78478571D01*
X128950000Y-78478571D01*
X128807142Y-78550000D01*
X128735714Y-78621428D01*
X128664285Y-78764285D01*
X128664285Y-79192857D01*
X128735714Y-79335714D01*
X128807142Y-79407142D01*
X128950000Y-79478571D01*
X129235714Y-79478571D01*
X129378571Y-79407142D01*
X127807142Y-79478571D02*
X127950000Y-79407142D01*
X128021428Y-79264285D01*
X128021428Y-77978571D01*
X127378571Y-78478571D02*
X127021428Y-79478571D01*
X126664285Y-78478571D02*
X127021428Y-79478571D01*
X127164285Y-79835714D01*
X127235714Y-79907142D01*
X127378571Y-79978571D01*
X124950000Y-79478571D02*
X124950000Y-77978571D01*
X124950000Y-78550000D02*
X124807142Y-78478571D01*
X124521428Y-78478571D01*
X124378571Y-78550000D01*
X124307142Y-78621428D01*
X124235714Y-78764285D01*
X124235714Y-79192857D01*
X124307142Y-79335714D01*
X124378571Y-79407142D01*
X124521428Y-79478571D01*
X124807142Y-79478571D01*
X124950000Y-79407142D01*
X123592857Y-79478571D02*
X123592857Y-78478571D01*
X123592857Y-78764285D02*
X123521428Y-78621428D01*
X123450000Y-78550000D01*
X123307142Y-78478571D01*
X123164285Y-78478571D01*
X122092857Y-79407142D02*
X122235714Y-79478571D01*
X122521428Y-79478571D01*
X122664285Y-79407142D01*
X122735714Y-79264285D01*
X122735714Y-78692857D01*
X122664285Y-78550000D01*
X122521428Y-78478571D01*
X122235714Y-78478571D01*
X122092857Y-78550000D01*
X122021428Y-78692857D01*
X122021428Y-78835714D01*
X122735714Y-78978571D01*
X120735714Y-79478571D02*
X120735714Y-78692857D01*
X120807142Y-78550000D01*
X120950000Y-78478571D01*
X121235714Y-78478571D01*
X121378571Y-78550000D01*
X120735714Y-79407142D02*
X120878571Y-79478571D01*
X121235714Y-79478571D01*
X121378571Y-79407142D01*
X121450000Y-79264285D01*
X121450000Y-79121428D01*
X121378571Y-78978571D01*
X121235714Y-78907142D01*
X120878571Y-78907142D01*
X120735714Y-78835714D01*
X120021428Y-79478571D02*
X120021428Y-77978571D01*
X119878571Y-78907142D02*
X119450000Y-79478571D01*
X119450000Y-78478571D02*
X120021428Y-79050000D01*
X118592857Y-79478571D02*
X118735714Y-79407142D01*
X118807142Y-79335714D01*
X118878571Y-79192857D01*
X118878571Y-78764285D01*
X118807142Y-78621428D01*
X118735714Y-78550000D01*
X118592857Y-78478571D01*
X118378571Y-78478571D01*
X118235714Y-78550000D01*
X118164285Y-78621428D01*
X118092857Y-78764285D01*
X118092857Y-79192857D01*
X118164285Y-79335714D01*
X118235714Y-79407142D01*
X118378571Y-79478571D01*
X118592857Y-79478571D01*
X116807142Y-78478571D02*
X116807142Y-79478571D01*
X117450000Y-78478571D02*
X117450000Y-79264285D01*
X117378571Y-79407142D01*
X117235714Y-79478571D01*
X117021428Y-79478571D01*
X116878571Y-79407142D01*
X116807142Y-79335714D01*
X116307142Y-78478571D02*
X115735714Y-78478571D01*
X116092857Y-77978571D02*
X116092857Y-79264285D01*
X116021428Y-79407142D01*
X115878571Y-79478571D01*
X115735714Y-79478571D01*
X114235714Y-78478571D02*
X113950000Y-79478571D01*
X113664285Y-78764285D01*
X113378571Y-79478571D01*
X113092857Y-78478571D01*
X111450000Y-77907142D02*
X112735714Y-79835714D01*
X109807142Y-78692857D02*
X109307142Y-78692857D01*
X109092857Y-79478571D02*
X109807142Y-79478571D01*
X109807142Y-77978571D01*
X109092857Y-77978571D01*
X108521428Y-79407142D02*
X108307142Y-79478571D01*
X107950000Y-79478571D01*
X107807142Y-79407142D01*
X107735714Y-79335714D01*
X107664285Y-79192857D01*
X107664285Y-79050000D01*
X107735714Y-78907142D01*
X107807142Y-78835714D01*
X107950000Y-78764285D01*
X108235714Y-78692857D01*
X108378571Y-78621428D01*
X108450000Y-78550000D01*
X108521428Y-78407142D01*
X108521428Y-78264285D01*
X108450000Y-78121428D01*
X108378571Y-78050000D01*
X108235714Y-77978571D01*
X107878571Y-77978571D01*
X107664285Y-78050000D01*
X107021428Y-79478571D02*
X107021428Y-77978571D01*
X106450000Y-77978571D01*
X106307142Y-78050000D01*
X106235714Y-78121428D01*
X106164285Y-78264285D01*
X106164285Y-78478571D01*
X106235714Y-78621428D01*
X106307142Y-78692857D01*
X106450000Y-78764285D01*
X107021428Y-78764285D01*
X105307142Y-78621428D02*
X105450000Y-78550000D01*
X105521428Y-78478571D01*
X105592857Y-78335714D01*
X105592857Y-78264285D01*
X105521428Y-78121428D01*
X105450000Y-78050000D01*
X105307142Y-77978571D01*
X105021428Y-77978571D01*
X104878571Y-78050000D01*
X104807142Y-78121428D01*
X104735714Y-78264285D01*
X104735714Y-78335714D01*
X104807142Y-78478571D01*
X104878571Y-78550000D01*
X105021428Y-78621428D01*
X105307142Y-78621428D01*
X105450000Y-78692857D01*
X105521428Y-78764285D01*
X105592857Y-78907142D01*
X105592857Y-79192857D01*
X105521428Y-79335714D01*
X105450000Y-79407142D01*
X105307142Y-79478571D01*
X105021428Y-79478571D01*
X104878571Y-79407142D01*
X104807142Y-79335714D01*
X104735714Y-79192857D01*
X104735714Y-78907142D01*
X104807142Y-78764285D01*
X104878571Y-78692857D01*
X105021428Y-78621428D01*
X104164285Y-78121428D02*
X104092857Y-78050000D01*
X103950000Y-77978571D01*
X103592857Y-77978571D01*
X103450000Y-78050000D01*
X103378571Y-78121428D01*
X103307142Y-78264285D01*
X103307142Y-78407142D01*
X103378571Y-78621428D01*
X104235714Y-79478571D01*
X103307142Y-79478571D01*
X102021428Y-77978571D02*
X102307142Y-77978571D01*
X102450000Y-78050000D01*
X102521428Y-78121428D01*
X102664285Y-78335714D01*
X102735714Y-78621428D01*
X102735714Y-79192857D01*
X102664285Y-79335714D01*
X102592857Y-79407142D01*
X102450000Y-79478571D01*
X102164285Y-79478571D01*
X102021428Y-79407142D01*
X101950000Y-79335714D01*
X101878571Y-79192857D01*
X101878571Y-78835714D01*
X101950000Y-78692857D01*
X102021428Y-78621428D01*
X102164285Y-78550000D01*
X102450000Y-78550000D01*
X102592857Y-78621428D01*
X102664285Y-78692857D01*
X102735714Y-78835714D01*
X100592857Y-77978571D02*
X100878571Y-77978571D01*
X101021428Y-78050000D01*
X101092857Y-78121428D01*
X101235714Y-78335714D01*
X101307142Y-78621428D01*
X101307142Y-79192857D01*
X101235714Y-79335714D01*
X101164285Y-79407142D01*
X101021428Y-79478571D01*
X100735714Y-79478571D01*
X100592857Y-79407142D01*
X100521428Y-79335714D01*
X100450000Y-79192857D01*
X100450000Y-78835714D01*
X100521428Y-78692857D01*
X100592857Y-78621428D01*
X100735714Y-78550000D01*
X101021428Y-78550000D01*
X101164285Y-78621428D01*
X101235714Y-78692857D01*
X101307142Y-78835714D01*
X97807142Y-79335714D02*
X97878571Y-79407142D01*
X98092857Y-79478571D01*
X98235714Y-79478571D01*
X98450000Y-79407142D01*
X98592857Y-79264285D01*
X98664285Y-79121428D01*
X98735714Y-78835714D01*
X98735714Y-78621428D01*
X98664285Y-78335714D01*
X98592857Y-78192857D01*
X98450000Y-78050000D01*
X98235714Y-77978571D01*
X98092857Y-77978571D01*
X97878571Y-78050000D01*
X97807142Y-78121428D01*
X96950000Y-79478571D02*
X97092857Y-79407142D01*
X97164285Y-79335714D01*
X97235714Y-79192857D01*
X97235714Y-78764285D01*
X97164285Y-78621428D01*
X97092857Y-78550000D01*
X96950000Y-78478571D01*
X96735714Y-78478571D01*
X96592857Y-78550000D01*
X96521428Y-78621428D01*
X96450000Y-78764285D01*
X96450000Y-79192857D01*
X96521428Y-79335714D01*
X96592857Y-79407142D01*
X96735714Y-79478571D01*
X96950000Y-79478571D01*
X95807142Y-78478571D02*
X95807142Y-79478571D01*
X95807142Y-78621428D02*
X95735714Y-78550000D01*
X95592857Y-78478571D01*
X95378571Y-78478571D01*
X95235714Y-78550000D01*
X95164285Y-78692857D01*
X95164285Y-79478571D01*
X94664285Y-78478571D02*
X94092857Y-78478571D01*
X94450000Y-77978571D02*
X94450000Y-79264285D01*
X94378571Y-79407142D01*
X94235714Y-79478571D01*
X94092857Y-79478571D01*
X93592857Y-79478571D02*
X93592857Y-78478571D01*
X93592857Y-78764285D02*
X93521428Y-78621428D01*
X93450000Y-78550000D01*
X93307142Y-78478571D01*
X93164285Y-78478571D01*
X92450000Y-79478571D02*
X92592857Y-79407142D01*
X92664285Y-79335714D01*
X92735714Y-79192857D01*
X92735714Y-78764285D01*
X92664285Y-78621428D01*
X92592857Y-78550000D01*
X92450000Y-78478571D01*
X92235714Y-78478571D01*
X92092857Y-78550000D01*
X92021428Y-78621428D01*
X91950000Y-78764285D01*
X91950000Y-79192857D01*
X92021428Y-79335714D01*
X92092857Y-79407142D01*
X92235714Y-79478571D01*
X92450000Y-79478571D01*
X91092857Y-79478571D02*
X91235714Y-79407142D01*
X91307142Y-79264285D01*
X91307142Y-77978571D01*
D11*
X135471428Y-69271428D02*
X134709523Y-69271428D01*
X134233333Y-69271428D02*
X133471428Y-69271428D01*
X132995238Y-69271428D02*
X132233333Y-69271428D01*
X131757142Y-69271428D02*
X130995238Y-69271428D01*
X130519047Y-69271428D02*
X129757142Y-69271428D01*
X129280952Y-69271428D02*
X128519047Y-69271428D01*
X128042857Y-69271428D02*
X127280952Y-69271428D01*
X126804761Y-69271428D02*
X126042857Y-69271428D01*
X125566666Y-69271428D02*
X124804761Y-69271428D01*
X124328571Y-69271428D02*
X123566666Y-69271428D01*
X123090476Y-69271428D02*
X122328571Y-69271428D01*
X121852380Y-69271428D02*
X121090476Y-69271428D01*
X120614285Y-69271428D02*
X119852380Y-69271428D01*
X119376190Y-69271428D02*
X118614285Y-69271428D01*
X118138095Y-69271428D02*
X117376190Y-69271428D01*
X116900000Y-69271428D02*
X116138095Y-69271428D01*
X115661904Y-69271428D02*
X114900000Y-69271428D01*
X114423809Y-69271428D02*
X113661904Y-69271428D01*
X113185714Y-69271428D02*
X112423809Y-69271428D01*
X111947619Y-69271428D02*
X111185714Y-69271428D01*
X110709523Y-69271428D02*
X109947619Y-69271428D01*
X109471428Y-69271428D02*
X108709523Y-69271428D01*
X108233333Y-69271428D02*
X107471428Y-69271428D01*
X106995238Y-69271428D02*
X106233333Y-69271428D01*
X105757142Y-69271428D02*
X104995238Y-69271428D01*
X104519047Y-69271428D02*
X103757142Y-69271428D01*
X103280952Y-69271428D02*
X102519047Y-69271428D01*
X102042857Y-69271428D02*
X101280952Y-69271428D01*
X100804761Y-69271428D02*
X100042857Y-69271428D01*
X99566666Y-69271428D02*
X98804761Y-69271428D01*
X98328571Y-69271428D02*
X97566666Y-69271428D01*
X97090476Y-69271428D02*
X96328571Y-69271428D01*
X121566666Y-70252380D02*
X120995238Y-70252380D01*
X121280952Y-71252380D02*
X121280952Y-70252380D01*
X120519047Y-71252380D02*
X120614285Y-71204761D01*
X120661904Y-71157142D01*
X120709523Y-71061904D01*
X120709523Y-70776190D01*
X120661904Y-70680952D01*
X120614285Y-70633333D01*
X120519047Y-70585714D01*
X120376190Y-70585714D01*
X120280952Y-70633333D01*
X120233333Y-70680952D01*
X120185714Y-70776190D01*
X120185714Y-71061904D01*
X120233333Y-71157142D01*
X120280952Y-71204761D01*
X120376190Y-71252380D01*
X120519047Y-71252380D01*
X119757142Y-70585714D02*
X119757142Y-71585714D01*
X119757142Y-70633333D02*
X119661904Y-70585714D01*
X119471428Y-70585714D01*
X119376190Y-70633333D01*
X119328571Y-70680952D01*
X119280952Y-70776190D01*
X119280952Y-71061904D01*
X119328571Y-71157142D01*
X119376190Y-71204761D01*
X119471428Y-71252380D01*
X119661904Y-71252380D01*
X119757142Y-71204761D01*
X117947619Y-71252380D02*
X118042857Y-71204761D01*
X118090476Y-71157142D01*
X118138095Y-71061904D01*
X118138095Y-70776190D01*
X118090476Y-70680952D01*
X118042857Y-70633333D01*
X117947619Y-70585714D01*
X117804761Y-70585714D01*
X117709523Y-70633333D01*
X117661904Y-70680952D01*
X117614285Y-70776190D01*
X117614285Y-71061904D01*
X117661904Y-71157142D01*
X117709523Y-71204761D01*
X117804761Y-71252380D01*
X117947619Y-71252380D01*
X117328571Y-70585714D02*
X116947619Y-70585714D01*
X117185714Y-71252380D02*
X117185714Y-70395238D01*
X117138095Y-70300000D01*
X117042857Y-70252380D01*
X116947619Y-70252380D01*
X115852380Y-71252380D02*
X115852380Y-70252380D01*
X115471428Y-70252380D01*
X115376190Y-70300000D01*
X115328571Y-70347619D01*
X115280952Y-70442857D01*
X115280952Y-70585714D01*
X115328571Y-70680952D01*
X115376190Y-70728571D01*
X115471428Y-70776190D01*
X115852380Y-70776190D01*
X114900000Y-71204761D02*
X114757142Y-71252380D01*
X114519047Y-71252380D01*
X114423809Y-71204761D01*
X114376190Y-71157142D01*
X114328571Y-71061904D01*
X114328571Y-70966666D01*
X114376190Y-70871428D01*
X114423809Y-70823809D01*
X114519047Y-70776190D01*
X114709523Y-70728571D01*
X114804761Y-70680952D01*
X114852380Y-70633333D01*
X114900000Y-70538095D01*
X114900000Y-70442857D01*
X114852380Y-70347619D01*
X114804761Y-70300000D01*
X114709523Y-70252380D01*
X114471428Y-70252380D01*
X114328571Y-70300000D01*
X113138095Y-71252380D02*
X113138095Y-70252380D01*
X112709523Y-71252380D02*
X112709523Y-70728571D01*
X112757142Y-70633333D01*
X112852380Y-70585714D01*
X112995238Y-70585714D01*
X113090476Y-70633333D01*
X113138095Y-70680952D01*
X111852380Y-71204761D02*
X111947619Y-71252380D01*
X112138095Y-71252380D01*
X112233333Y-71204761D01*
X112280952Y-71109523D01*
X112280952Y-70728571D01*
X112233333Y-70633333D01*
X112138095Y-70585714D01*
X111947619Y-70585714D01*
X111852380Y-70633333D01*
X111804761Y-70728571D01*
X111804761Y-70823809D01*
X112280952Y-70919047D01*
X111376190Y-71252380D02*
X111376190Y-70585714D01*
X111376190Y-70776190D02*
X111328571Y-70680952D01*
X111280952Y-70633333D01*
X111185714Y-70585714D01*
X111090476Y-70585714D01*
X110376190Y-71204761D02*
X110471428Y-71252380D01*
X110661904Y-71252380D01*
X110757142Y-71204761D01*
X110804761Y-71109523D01*
X110804761Y-70728571D01*
X110757142Y-70633333D01*
X110661904Y-70585714D01*
X110471428Y-70585714D01*
X110376190Y-70633333D01*
X110328571Y-70728571D01*
X110328571Y-70823809D01*
X110804761Y-70919047D01*
D10*
X128576190Y-82907142D02*
X128576190Y-82007142D01*
X128338095Y-82007142D01*
X128195238Y-82050000D01*
X128100000Y-82135714D01*
X128052380Y-82221428D01*
X128004761Y-82392857D01*
X128004761Y-82521428D01*
X128052380Y-82692857D01*
X128100000Y-82778571D01*
X128195238Y-82864285D01*
X128338095Y-82907142D01*
X128576190Y-82907142D01*
X127195238Y-82864285D02*
X127290476Y-82907142D01*
X127480952Y-82907142D01*
X127576190Y-82864285D01*
X127623809Y-82778571D01*
X127623809Y-82435714D01*
X127576190Y-82350000D01*
X127480952Y-82307142D01*
X127290476Y-82307142D01*
X127195238Y-82350000D01*
X127147619Y-82435714D01*
X127147619Y-82521428D01*
X127623809Y-82607142D01*
X126766666Y-82864285D02*
X126671428Y-82907142D01*
X126480952Y-82907142D01*
X126385714Y-82864285D01*
X126338095Y-82778571D01*
X126338095Y-82735714D01*
X126385714Y-82650000D01*
X126480952Y-82607142D01*
X126623809Y-82607142D01*
X126719047Y-82564285D01*
X126766666Y-82478571D01*
X126766666Y-82435714D01*
X126719047Y-82350000D01*
X126623809Y-82307142D01*
X126480952Y-82307142D01*
X126385714Y-82350000D01*
X125909523Y-82907142D02*
X125909523Y-82307142D01*
X125909523Y-82007142D02*
X125957142Y-82050000D01*
X125909523Y-82092857D01*
X125861904Y-82050000D01*
X125909523Y-82007142D01*
X125909523Y-82092857D01*
X125004761Y-82307142D02*
X125004761Y-83035714D01*
X125052380Y-83121428D01*
X125100000Y-83164285D01*
X125195238Y-83207142D01*
X125338095Y-83207142D01*
X125433333Y-83164285D01*
X125004761Y-82864285D02*
X125100000Y-82907142D01*
X125290476Y-82907142D01*
X125385714Y-82864285D01*
X125433333Y-82821428D01*
X125480952Y-82735714D01*
X125480952Y-82478571D01*
X125433333Y-82392857D01*
X125385714Y-82350000D01*
X125290476Y-82307142D01*
X125100000Y-82307142D01*
X125004761Y-82350000D01*
X124528571Y-82307142D02*
X124528571Y-82907142D01*
X124528571Y-82392857D02*
X124480952Y-82350000D01*
X124385714Y-82307142D01*
X124242857Y-82307142D01*
X124147619Y-82350000D01*
X124100000Y-82435714D01*
X124100000Y-82907142D01*
X123242857Y-82864285D02*
X123338095Y-82907142D01*
X123528571Y-82907142D01*
X123623809Y-82864285D01*
X123671428Y-82778571D01*
X123671428Y-82435714D01*
X123623809Y-82350000D01*
X123528571Y-82307142D01*
X123338095Y-82307142D01*
X123242857Y-82350000D01*
X123195238Y-82435714D01*
X123195238Y-82521428D01*
X123671428Y-82607142D01*
X122338095Y-82907142D02*
X122338095Y-82007142D01*
X122338095Y-82864285D02*
X122433333Y-82907142D01*
X122623809Y-82907142D01*
X122719047Y-82864285D01*
X122766666Y-82821428D01*
X122814285Y-82735714D01*
X122814285Y-82478571D01*
X122766666Y-82392857D01*
X122719047Y-82350000D01*
X122623809Y-82307142D01*
X122433333Y-82307142D01*
X122338095Y-82350000D01*
X121100000Y-82907142D02*
X121100000Y-82007142D01*
X121100000Y-82350000D02*
X121004761Y-82307142D01*
X120814285Y-82307142D01*
X120719047Y-82350000D01*
X120671428Y-82392857D01*
X120623809Y-82478571D01*
X120623809Y-82735714D01*
X120671428Y-82821428D01*
X120719047Y-82864285D01*
X120814285Y-82907142D01*
X121004761Y-82907142D01*
X121100000Y-82864285D01*
X120290476Y-82307142D02*
X120052380Y-82907142D01*
X119814285Y-82307142D02*
X120052380Y-82907142D01*
X120147619Y-83121428D01*
X120195238Y-83164285D01*
X120290476Y-83207142D01*
X118814285Y-82007142D02*
X118242857Y-82007142D01*
X118528571Y-82907142D02*
X118528571Y-82007142D01*
X117909523Y-82907142D02*
X117909523Y-82307142D01*
X117909523Y-82478571D02*
X117861904Y-82392857D01*
X117814285Y-82350000D01*
X117719047Y-82307142D01*
X117623809Y-82307142D01*
X116909523Y-82864285D02*
X117004761Y-82907142D01*
X117195238Y-82907142D01*
X117290476Y-82864285D01*
X117338095Y-82778571D01*
X117338095Y-82435714D01*
X117290476Y-82350000D01*
X117195238Y-82307142D01*
X117004761Y-82307142D01*
X116909523Y-82350000D01*
X116861904Y-82435714D01*
X116861904Y-82521428D01*
X117338095Y-82607142D01*
X116528571Y-82307142D02*
X116290476Y-82907142D01*
X116052380Y-82307142D01*
X115528571Y-82907142D02*
X115623809Y-82864285D01*
X115671428Y-82821428D01*
X115719047Y-82735714D01*
X115719047Y-82478571D01*
X115671428Y-82392857D01*
X115623809Y-82350000D01*
X115528571Y-82307142D01*
X115385714Y-82307142D01*
X115290476Y-82350000D01*
X115242857Y-82392857D01*
X115195238Y-82478571D01*
X115195238Y-82735714D01*
X115242857Y-82821428D01*
X115290476Y-82864285D01*
X115385714Y-82907142D01*
X115528571Y-82907142D01*
X114766666Y-82907142D02*
X114766666Y-82307142D01*
X114766666Y-82478571D02*
X114719047Y-82392857D01*
X114671428Y-82350000D01*
X114576190Y-82307142D01*
X114480952Y-82307142D01*
X112814285Y-82907142D02*
X113147619Y-82478571D01*
X113385714Y-82907142D02*
X113385714Y-82007142D01*
X113004761Y-82007142D01*
X112909523Y-82050000D01*
X112861904Y-82092857D01*
X112814285Y-82178571D01*
X112814285Y-82307142D01*
X112861904Y-82392857D01*
X112909523Y-82435714D01*
X113004761Y-82478571D01*
X113385714Y-82478571D01*
X111957142Y-82907142D02*
X111957142Y-82435714D01*
X112004761Y-82350000D01*
X112100000Y-82307142D01*
X112290476Y-82307142D01*
X112385714Y-82350000D01*
X111957142Y-82864285D02*
X112052380Y-82907142D01*
X112290476Y-82907142D01*
X112385714Y-82864285D01*
X112433333Y-82778571D01*
X112433333Y-82692857D01*
X112385714Y-82607142D01*
X112290476Y-82564285D01*
X112052380Y-82564285D01*
X111957142Y-82521428D01*
X111623809Y-82307142D02*
X111242857Y-82307142D01*
X111480952Y-82007142D02*
X111480952Y-82778571D01*
X111433333Y-82864285D01*
X111338095Y-82907142D01*
X111242857Y-82907142D01*
X111004761Y-82307142D02*
X110766666Y-82907142D01*
X110528571Y-82307142D02*
X110766666Y-82907142D01*
X110861904Y-83121428D01*
X110909523Y-83164285D01*
X111004761Y-83207142D01*
X137385714Y-84407142D02*
X137719047Y-83978571D01*
X137957142Y-84407142D02*
X137957142Y-83507142D01*
X137576190Y-83507142D01*
X137480952Y-83550000D01*
X137433333Y-83592857D01*
X137385714Y-83678571D01*
X137385714Y-83807142D01*
X137433333Y-83892857D01*
X137480952Y-83935714D01*
X137576190Y-83978571D01*
X137957142Y-83978571D01*
X136528571Y-84407142D02*
X136528571Y-83935714D01*
X136576190Y-83850000D01*
X136671428Y-83807142D01*
X136861904Y-83807142D01*
X136957142Y-83850000D01*
X136528571Y-84364285D02*
X136623809Y-84407142D01*
X136861904Y-84407142D01*
X136957142Y-84364285D01*
X137004761Y-84278571D01*
X137004761Y-84192857D01*
X136957142Y-84107142D01*
X136861904Y-84064285D01*
X136623809Y-84064285D01*
X136528571Y-84021428D01*
X136195238Y-83807142D02*
X135814285Y-83807142D01*
X136052380Y-83507142D02*
X136052380Y-84278571D01*
X136004761Y-84364285D01*
X135909523Y-84407142D01*
X135814285Y-84407142D01*
X135100000Y-84364285D02*
X135195238Y-84407142D01*
X135385714Y-84407142D01*
X135480952Y-84364285D01*
X135528571Y-84278571D01*
X135528571Y-83935714D01*
X135480952Y-83850000D01*
X135385714Y-83807142D01*
X135195238Y-83807142D01*
X135100000Y-83850000D01*
X135052380Y-83935714D01*
X135052380Y-84021428D01*
X135528571Y-84107142D01*
X134195238Y-84407142D02*
X134195238Y-83507142D01*
X134195238Y-84364285D02*
X134290476Y-84407142D01*
X134480952Y-84407142D01*
X134576190Y-84364285D01*
X134623809Y-84321428D01*
X134671428Y-84235714D01*
X134671428Y-83978571D01*
X134623809Y-83892857D01*
X134576190Y-83850000D01*
X134480952Y-83807142D01*
X134290476Y-83807142D01*
X134195238Y-83850000D01*
X133100000Y-83807142D02*
X132719047Y-83807142D01*
X132957142Y-84407142D02*
X132957142Y-83635714D01*
X132909523Y-83550000D01*
X132814285Y-83507142D01*
X132719047Y-83507142D01*
X132242857Y-84407142D02*
X132338095Y-84364285D01*
X132385714Y-84321428D01*
X132433333Y-84235714D01*
X132433333Y-83978571D01*
X132385714Y-83892857D01*
X132338095Y-83850000D01*
X132242857Y-83807142D01*
X132100000Y-83807142D01*
X132004761Y-83850000D01*
X131957142Y-83892857D01*
X131909523Y-83978571D01*
X131909523Y-84235714D01*
X131957142Y-84321428D01*
X132004761Y-84364285D01*
X132100000Y-84407142D01*
X132242857Y-84407142D01*
X131480952Y-84407142D02*
X131480952Y-83807142D01*
X131480952Y-83978571D02*
X131433333Y-83892857D01*
X131385714Y-83850000D01*
X131290476Y-83807142D01*
X131195238Y-83807142D01*
X130052380Y-84407142D02*
X129861904Y-84407142D01*
X129766666Y-84364285D01*
X129719047Y-84321428D01*
X129623809Y-84192857D01*
X129576190Y-84021428D01*
X129576190Y-83678571D01*
X129623809Y-83592857D01*
X129671428Y-83550000D01*
X129766666Y-83507142D01*
X129957142Y-83507142D01*
X130052380Y-83550000D01*
X130100000Y-83592857D01*
X130147619Y-83678571D01*
X130147619Y-83892857D01*
X130100000Y-83978571D01*
X130052380Y-84021428D01*
X129957142Y-84064285D01*
X129766666Y-84064285D01*
X129671428Y-84021428D01*
X129623809Y-83978571D01*
X129576190Y-83892857D01*
X128957142Y-83507142D02*
X128861904Y-83507142D01*
X128766666Y-83550000D01*
X128719047Y-83592857D01*
X128671428Y-83678571D01*
X128623809Y-83850000D01*
X128623809Y-84064285D01*
X128671428Y-84235714D01*
X128719047Y-84321428D01*
X128766666Y-84364285D01*
X128861904Y-84407142D01*
X128957142Y-84407142D01*
X129052380Y-84364285D01*
X129100000Y-84321428D01*
X129147619Y-84235714D01*
X129195238Y-84064285D01*
X129195238Y-83850000D01*
X129147619Y-83678571D01*
X129100000Y-83592857D01*
X129052380Y-83550000D01*
X128957142Y-83507142D01*
X128004761Y-83507142D02*
X127909523Y-83507142D01*
X127814285Y-83550000D01*
X127766666Y-83592857D01*
X127719047Y-83678571D01*
X127671428Y-83850000D01*
X127671428Y-84064285D01*
X127719047Y-84235714D01*
X127766666Y-84321428D01*
X127814285Y-84364285D01*
X127909523Y-84407142D01*
X128004761Y-84407142D01*
X128100000Y-84364285D01*
X128147619Y-84321428D01*
X128195238Y-84235714D01*
X128242857Y-84064285D01*
X128242857Y-83850000D01*
X128195238Y-83678571D01*
X128147619Y-83592857D01*
X128100000Y-83550000D01*
X128004761Y-83507142D01*
X127338095Y-83807142D02*
X127147619Y-84407142D01*
X126957142Y-83978571D01*
X126766666Y-84407142D01*
X126576190Y-83807142D01*
X125480952Y-83464285D02*
X126338095Y-84621428D01*
X125242857Y-83507142D02*
X124576190Y-83507142D01*
X125004761Y-84407142D01*
X123719047Y-83507142D02*
X124195238Y-83507142D01*
X124242857Y-83935714D01*
X124195238Y-83892857D01*
X124100000Y-83850000D01*
X123861904Y-83850000D01*
X123766666Y-83892857D01*
X123719047Y-83935714D01*
X123671428Y-84021428D01*
X123671428Y-84235714D01*
X123719047Y-84321428D01*
X123766666Y-84364285D01*
X123861904Y-84407142D01*
X124100000Y-84407142D01*
X124195238Y-84364285D01*
X124242857Y-84321428D01*
X122814285Y-84407142D02*
X122814285Y-83935714D01*
X122861904Y-83850000D01*
X122957142Y-83807142D01*
X123147619Y-83807142D01*
X123242857Y-83850000D01*
X122814285Y-84364285D02*
X122909523Y-84407142D01*
X123147619Y-84407142D01*
X123242857Y-84364285D01*
X123290476Y-84278571D01*
X123290476Y-84192857D01*
X123242857Y-84107142D01*
X123147619Y-84064285D01*
X122909523Y-84064285D01*
X122814285Y-84021428D01*
X120957142Y-83978571D02*
X121004761Y-83935714D01*
X121100000Y-83892857D01*
X121195238Y-83892857D01*
X121290476Y-83935714D01*
X121338095Y-83978571D01*
X121385714Y-84064285D01*
X121385714Y-84150000D01*
X121338095Y-84235714D01*
X121290476Y-84278571D01*
X121195238Y-84321428D01*
X121100000Y-84321428D01*
X121004761Y-84278571D01*
X120957142Y-84235714D01*
X120957142Y-83892857D02*
X120957142Y-84235714D01*
X120909523Y-84278571D01*
X120861904Y-84278571D01*
X120766666Y-84235714D01*
X120719047Y-84150000D01*
X120719047Y-83935714D01*
X120814285Y-83807142D01*
X120957142Y-83721428D01*
X121147619Y-83678571D01*
X121338095Y-83721428D01*
X121480952Y-83807142D01*
X121576190Y-83935714D01*
X121623809Y-84107142D01*
X121576190Y-84278571D01*
X121480952Y-84407142D01*
X121338095Y-84492857D01*
X121147619Y-84535714D01*
X120957142Y-84492857D01*
X120814285Y-84407142D01*
X119004761Y-84407142D02*
X119576190Y-84407142D01*
X119290476Y-84407142D02*
X119290476Y-83507142D01*
X119385714Y-83635714D01*
X119480952Y-83721428D01*
X119576190Y-83764285D01*
X118623809Y-83592857D02*
X118576190Y-83550000D01*
X118480952Y-83507142D01*
X118242857Y-83507142D01*
X118147619Y-83550000D01*
X118100000Y-83592857D01*
X118052380Y-83678571D01*
X118052380Y-83764285D01*
X118100000Y-83892857D01*
X118671428Y-84407142D01*
X118052380Y-84407142D01*
X117719047Y-83807142D02*
X117480952Y-84407142D01*
X117242857Y-83807142D01*
X115814285Y-84750000D02*
X115861904Y-84707142D01*
X115957142Y-84578571D01*
X116004761Y-84492857D01*
X116052380Y-84364285D01*
X116100000Y-84150000D01*
X116100000Y-83978571D01*
X116052380Y-83764285D01*
X116004761Y-83635714D01*
X115957142Y-83550000D01*
X115861904Y-83421428D01*
X115814285Y-83378571D01*
X114909523Y-84407142D02*
X115480952Y-84407142D01*
X115195238Y-84407142D02*
X115195238Y-83507142D01*
X115290476Y-83635714D01*
X115385714Y-83721428D01*
X115480952Y-83764285D01*
X114528571Y-83592857D02*
X114480952Y-83550000D01*
X114385714Y-83507142D01*
X114147619Y-83507142D01*
X114052380Y-83550000D01*
X114004761Y-83592857D01*
X113957142Y-83678571D01*
X113957142Y-83764285D01*
X114004761Y-83892857D01*
X114576190Y-84407142D01*
X113957142Y-84407142D01*
X113338095Y-83507142D02*
X113242857Y-83507142D01*
X113147619Y-83550000D01*
X113100000Y-83592857D01*
X113052380Y-83678571D01*
X113004761Y-83850000D01*
X113004761Y-84064285D01*
X113052380Y-84235714D01*
X113100000Y-84321428D01*
X113147619Y-84364285D01*
X113242857Y-84407142D01*
X113338095Y-84407142D01*
X113433333Y-84364285D01*
X113480952Y-84321428D01*
X113528571Y-84235714D01*
X113576190Y-84064285D01*
X113576190Y-83850000D01*
X113528571Y-83678571D01*
X113480952Y-83592857D01*
X113433333Y-83550000D01*
X113338095Y-83507142D01*
X112385714Y-83507142D02*
X112290476Y-83507142D01*
X112195238Y-83550000D01*
X112147619Y-83592857D01*
X112100000Y-83678571D01*
X112052380Y-83850000D01*
X112052380Y-84064285D01*
X112100000Y-84235714D01*
X112147619Y-84321428D01*
X112195238Y-84364285D01*
X112290476Y-84407142D01*
X112385714Y-84407142D01*
X112480952Y-84364285D01*
X112528571Y-84321428D01*
X112576190Y-84235714D01*
X112623809Y-84064285D01*
X112623809Y-83850000D01*
X112576190Y-83678571D01*
X112528571Y-83592857D01*
X112480952Y-83550000D01*
X112385714Y-83507142D01*
X111719047Y-83807142D02*
X111528571Y-84407142D01*
X111338095Y-83978571D01*
X111147619Y-84407142D01*
X110957142Y-83807142D01*
X109814285Y-84407142D02*
X109814285Y-83507142D01*
X109433333Y-83507142D01*
X109338095Y-83550000D01*
X109290476Y-83592857D01*
X109242857Y-83678571D01*
X109242857Y-83807142D01*
X109290476Y-83892857D01*
X109338095Y-83935714D01*
X109433333Y-83978571D01*
X109814285Y-83978571D01*
X108861904Y-84364285D02*
X108719047Y-84407142D01*
X108480952Y-84407142D01*
X108385714Y-84364285D01*
X108338095Y-84321428D01*
X108290476Y-84235714D01*
X108290476Y-84150000D01*
X108338095Y-84064285D01*
X108385714Y-84021428D01*
X108480952Y-83978571D01*
X108671428Y-83935714D01*
X108766666Y-83892857D01*
X108814285Y-83850000D01*
X108861904Y-83764285D01*
X108861904Y-83678571D01*
X108814285Y-83592857D01*
X108766666Y-83550000D01*
X108671428Y-83507142D01*
X108433333Y-83507142D01*
X108290476Y-83550000D01*
X106480952Y-83978571D02*
X106528571Y-83935714D01*
X106623809Y-83892857D01*
X106719047Y-83892857D01*
X106814285Y-83935714D01*
X106861904Y-83978571D01*
X106909523Y-84064285D01*
X106909523Y-84150000D01*
X106861904Y-84235714D01*
X106814285Y-84278571D01*
X106719047Y-84321428D01*
X106623809Y-84321428D01*
X106528571Y-84278571D01*
X106480952Y-84235714D01*
X106480952Y-83892857D02*
X106480952Y-84235714D01*
X106433333Y-84278571D01*
X106385714Y-84278571D01*
X106290476Y-84235714D01*
X106242857Y-84150000D01*
X106242857Y-83935714D01*
X106338095Y-83807142D01*
X106480952Y-83721428D01*
X106671428Y-83678571D01*
X106861904Y-83721428D01*
X107004761Y-83807142D01*
X107100000Y-83935714D01*
X107147619Y-84107142D01*
X107100000Y-84278571D01*
X107004761Y-84407142D01*
X106861904Y-84492857D01*
X106671428Y-84535714D01*
X106480952Y-84492857D01*
X106338095Y-84407142D01*
X104528571Y-84407142D02*
X105100000Y-84407142D01*
X104814285Y-84407142D02*
X104814285Y-83507142D01*
X104909523Y-83635714D01*
X105004761Y-83721428D01*
X105100000Y-83764285D01*
X104147619Y-83592857D02*
X104100000Y-83550000D01*
X104004761Y-83507142D01*
X103766666Y-83507142D01*
X103671428Y-83550000D01*
X103623809Y-83592857D01*
X103576190Y-83678571D01*
X103576190Y-83764285D01*
X103623809Y-83892857D01*
X104195238Y-84407142D01*
X103576190Y-84407142D01*
X102957142Y-83507142D02*
X102861904Y-83507142D01*
X102766666Y-83550000D01*
X102719047Y-83592857D01*
X102671428Y-83678571D01*
X102623809Y-83850000D01*
X102623809Y-84064285D01*
X102671428Y-84235714D01*
X102719047Y-84321428D01*
X102766666Y-84364285D01*
X102861904Y-84407142D01*
X102957142Y-84407142D01*
X103052380Y-84364285D01*
X103100000Y-84321428D01*
X103147619Y-84235714D01*
X103195238Y-84064285D01*
X103195238Y-83850000D01*
X103147619Y-83678571D01*
X103100000Y-83592857D01*
X103052380Y-83550000D01*
X102957142Y-83507142D01*
X102290476Y-83807142D02*
X102052380Y-84407142D01*
X101814285Y-83807142D01*
X101528571Y-84750000D02*
X101480952Y-84707142D01*
X101385714Y-84578571D01*
X101338095Y-84492857D01*
X101290476Y-84364285D01*
X101242857Y-84150000D01*
X101242857Y-83978571D01*
X101290476Y-83764285D01*
X101338095Y-83635714D01*
X101385714Y-83550000D01*
X101480952Y-83421428D01*
X101528571Y-83378571D01*
X140052380Y-86507142D02*
X139433333Y-86507142D01*
X139766666Y-86850000D01*
X139623809Y-86850000D01*
X139528571Y-86892857D01*
X139480952Y-86935714D01*
X139433333Y-87021428D01*
X139433333Y-87235714D01*
X139480952Y-87321428D01*
X139528571Y-87364285D01*
X139623809Y-87407142D01*
X139909523Y-87407142D01*
X140004761Y-87364285D01*
X140052380Y-87321428D01*
X138814285Y-86507142D02*
X138719047Y-86507142D01*
X138623809Y-86550000D01*
X138576190Y-86592857D01*
X138528571Y-86678571D01*
X138480952Y-86850000D01*
X138480952Y-87064285D01*
X138528571Y-87235714D01*
X138576190Y-87321428D01*
X138623809Y-87364285D01*
X138719047Y-87407142D01*
X138814285Y-87407142D01*
X138909523Y-87364285D01*
X138957142Y-87321428D01*
X139004761Y-87235714D01*
X139052380Y-87064285D01*
X139052380Y-86850000D01*
X139004761Y-86678571D01*
X138957142Y-86592857D01*
X138909523Y-86550000D01*
X138814285Y-86507142D01*
X138100000Y-87150000D02*
X137623809Y-87150000D01*
X138195238Y-87407142D02*
X137861904Y-86507142D01*
X137528571Y-87407142D01*
X135909523Y-87407142D02*
X136480952Y-87407142D01*
X136195238Y-87407142D02*
X136195238Y-86507142D01*
X136290476Y-86635714D01*
X136385714Y-86721428D01*
X136480952Y-86764285D01*
X135290476Y-86507142D02*
X135195238Y-86507142D01*
X135100000Y-86550000D01*
X135052380Y-86592857D01*
X135004761Y-86678571D01*
X134957142Y-86850000D01*
X134957142Y-87064285D01*
X135004761Y-87235714D01*
X135052380Y-87321428D01*
X135100000Y-87364285D01*
X135195238Y-87407142D01*
X135290476Y-87407142D01*
X135385714Y-87364285D01*
X135433333Y-87321428D01*
X135480952Y-87235714D01*
X135528571Y-87064285D01*
X135528571Y-86850000D01*
X135480952Y-86678571D01*
X135433333Y-86592857D01*
X135385714Y-86550000D01*
X135290476Y-86507142D01*
X134576190Y-87150000D02*
X134099999Y-87150000D01*
X134671428Y-87407142D02*
X134338095Y-86507142D01*
X134004761Y-87407142D01*
X133766666Y-86507142D02*
X133528571Y-87407142D01*
X133338095Y-86764285D01*
X133147619Y-87407142D01*
X132909523Y-86507142D01*
X132004761Y-86550000D02*
X132099999Y-86507142D01*
X132242857Y-86507142D01*
X132385714Y-86550000D01*
X132480952Y-86635714D01*
X132528571Y-86721428D01*
X132576190Y-86892857D01*
X132576190Y-87021428D01*
X132528571Y-87192857D01*
X132480952Y-87278571D01*
X132385714Y-87364285D01*
X132242857Y-87407142D01*
X132147619Y-87407142D01*
X132004761Y-87364285D01*
X131957142Y-87321428D01*
X131957142Y-87021428D01*
X132147619Y-87021428D01*
X130766666Y-87407142D02*
X130766666Y-86807142D01*
X130766666Y-86892857D02*
X130719047Y-86850000D01*
X130623809Y-86807142D01*
X130480952Y-86807142D01*
X130385714Y-86850000D01*
X130338095Y-86935714D01*
X130338095Y-87407142D01*
X130338095Y-86935714D02*
X130290476Y-86850000D01*
X130195238Y-86807142D01*
X130052380Y-86807142D01*
X129957142Y-86850000D01*
X129909523Y-86935714D01*
X129909523Y-87407142D01*
X129004761Y-87407142D02*
X129004761Y-86935714D01*
X129052380Y-86850000D01*
X129147619Y-86807142D01*
X129338095Y-86807142D01*
X129433333Y-86850000D01*
X129004761Y-87364285D02*
X129099999Y-87407142D01*
X129338095Y-87407142D01*
X129433333Y-87364285D01*
X129480952Y-87278571D01*
X129480952Y-87192857D01*
X129433333Y-87107142D01*
X129338095Y-87064285D01*
X129099999Y-87064285D01*
X129004761Y-87021428D01*
X128623809Y-87407142D02*
X128099999Y-86807142D01*
X128623809Y-86807142D02*
X128099999Y-87407142D01*
X126957142Y-86807142D02*
X126957142Y-87707142D01*
X126957142Y-86850000D02*
X126861904Y-86807142D01*
X126671428Y-86807142D01*
X126576190Y-86850000D01*
X126528571Y-86892857D01*
X126480952Y-86978571D01*
X126480952Y-87235714D01*
X126528571Y-87321428D01*
X126576190Y-87364285D01*
X126671428Y-87407142D01*
X126861904Y-87407142D01*
X126957142Y-87364285D01*
X125671428Y-87364285D02*
X125766666Y-87407142D01*
X125957142Y-87407142D01*
X126052380Y-87364285D01*
X126099999Y-87278571D01*
X126099999Y-86935714D01*
X126052380Y-86850000D01*
X125957142Y-86807142D01*
X125766666Y-86807142D01*
X125671428Y-86850000D01*
X125623809Y-86935714D01*
X125623809Y-87021428D01*
X126099999Y-87107142D01*
X125195238Y-87407142D02*
X125195238Y-86807142D01*
X125195238Y-86978571D02*
X125147619Y-86892857D01*
X125099999Y-86850000D01*
X125004761Y-86807142D01*
X124909523Y-86807142D01*
X123385714Y-87364285D02*
X123480952Y-87407142D01*
X123671428Y-87407142D01*
X123766666Y-87364285D01*
X123814285Y-87321428D01*
X123861904Y-87235714D01*
X123861904Y-86978571D01*
X123814285Y-86892857D01*
X123766666Y-86850000D01*
X123671428Y-86807142D01*
X123480952Y-86807142D01*
X123385714Y-86850000D01*
X122814285Y-87407142D02*
X122909523Y-87364285D01*
X122957142Y-87321428D01*
X123004761Y-87235714D01*
X123004761Y-86978571D01*
X122957142Y-86892857D01*
X122909523Y-86850000D01*
X122814285Y-86807142D01*
X122671428Y-86807142D01*
X122576190Y-86850000D01*
X122528571Y-86892857D01*
X122480952Y-86978571D01*
X122480952Y-87235714D01*
X122528571Y-87321428D01*
X122576190Y-87364285D01*
X122671428Y-87407142D01*
X122814285Y-87407142D01*
X122052380Y-86807142D02*
X122052380Y-87407142D01*
X122052380Y-86892857D02*
X122004761Y-86850000D01*
X121909523Y-86807142D01*
X121766666Y-86807142D01*
X121671428Y-86850000D01*
X121623809Y-86935714D01*
X121623809Y-87407142D01*
X121147619Y-86807142D02*
X121147619Y-87407142D01*
X121147619Y-86892857D02*
X121099999Y-86850000D01*
X121004761Y-86807142D01*
X120861904Y-86807142D01*
X120766666Y-86850000D01*
X120719047Y-86935714D01*
X120719047Y-87407142D01*
X119861904Y-87364285D02*
X119957142Y-87407142D01*
X120147619Y-87407142D01*
X120242857Y-87364285D01*
X120290476Y-87278571D01*
X120290476Y-86935714D01*
X120242857Y-86850000D01*
X120147619Y-86807142D01*
X119957142Y-86807142D01*
X119861904Y-86850000D01*
X119814285Y-86935714D01*
X119814285Y-87021428D01*
X120290476Y-87107142D01*
X118957142Y-87364285D02*
X119052380Y-87407142D01*
X119242857Y-87407142D01*
X119338095Y-87364285D01*
X119385714Y-87321428D01*
X119433333Y-87235714D01*
X119433333Y-86978571D01*
X119385714Y-86892857D01*
X119338095Y-86850000D01*
X119242857Y-86807142D01*
X119052380Y-86807142D01*
X118957142Y-86850000D01*
X118671428Y-86807142D02*
X118290476Y-86807142D01*
X118528571Y-86507142D02*
X118528571Y-87278571D01*
X118480952Y-87364285D01*
X118385714Y-87407142D01*
X118290476Y-87407142D01*
X117957142Y-87407142D02*
X117957142Y-86807142D01*
X117957142Y-86507142D02*
X118004761Y-86550000D01*
X117957142Y-86592857D01*
X117909523Y-86550000D01*
X117957142Y-86507142D01*
X117957142Y-86592857D01*
X117338095Y-87407142D02*
X117433333Y-87364285D01*
X117480952Y-87321428D01*
X117528571Y-87235714D01*
X117528571Y-86978571D01*
X117480952Y-86892857D01*
X117433333Y-86850000D01*
X117338095Y-86807142D01*
X117195238Y-86807142D01*
X117099999Y-86850000D01*
X117052380Y-86892857D01*
X117004761Y-86978571D01*
X117004761Y-87235714D01*
X117052380Y-87321428D01*
X117099999Y-87364285D01*
X117195238Y-87407142D01*
X117338095Y-87407142D01*
X116576190Y-86807142D02*
X116576190Y-87407142D01*
X116576190Y-86892857D02*
X116528571Y-86850000D01*
X116433333Y-86807142D01*
X116290476Y-86807142D01*
X116195238Y-86850000D01*
X116147619Y-86935714D01*
X116147619Y-87407142D01*
X114909523Y-87064285D02*
X114147619Y-87064285D01*
X113052380Y-86507142D02*
X112480952Y-86507142D01*
X112766666Y-87407142D02*
X112766666Y-86507142D01*
X112147619Y-87407142D02*
X112147619Y-86807142D01*
X112147619Y-86507142D02*
X112195238Y-86550000D01*
X112147619Y-86592857D01*
X112100000Y-86550000D01*
X112147619Y-86507142D01*
X112147619Y-86592857D01*
X111242857Y-86807142D02*
X111242857Y-87535714D01*
X111290476Y-87621428D01*
X111338095Y-87664285D01*
X111433333Y-87707142D01*
X111576190Y-87707142D01*
X111671428Y-87664285D01*
X111242857Y-87364285D02*
X111338095Y-87407142D01*
X111528571Y-87407142D01*
X111623809Y-87364285D01*
X111671428Y-87321428D01*
X111719047Y-87235714D01*
X111719047Y-86978571D01*
X111671428Y-86892857D01*
X111623809Y-86850000D01*
X111528571Y-86807142D01*
X111338095Y-86807142D01*
X111242857Y-86850000D01*
X110766666Y-87407142D02*
X110766666Y-86507142D01*
X110338095Y-87407142D02*
X110338095Y-86935714D01*
X110385714Y-86850000D01*
X110480952Y-86807142D01*
X110623809Y-86807142D01*
X110719047Y-86850000D01*
X110766666Y-86892857D01*
X110004761Y-86807142D02*
X109623809Y-86807142D01*
X109861904Y-86507142D02*
X109861904Y-87278571D01*
X109814285Y-87364285D01*
X109719047Y-87407142D01*
X109623809Y-87407142D01*
X108909523Y-87364285D02*
X109004761Y-87407142D01*
X109195238Y-87407142D01*
X109290476Y-87364285D01*
X109338095Y-87278571D01*
X109338095Y-86935714D01*
X109290476Y-86850000D01*
X109195238Y-86807142D01*
X109004761Y-86807142D01*
X108909523Y-86850000D01*
X108861904Y-86935714D01*
X108861904Y-87021428D01*
X109338095Y-87107142D01*
X108433333Y-86807142D02*
X108433333Y-87407142D01*
X108433333Y-86892857D02*
X108385714Y-86850000D01*
X108290476Y-86807142D01*
X108147619Y-86807142D01*
X108052380Y-86850000D01*
X108004761Y-86935714D01*
X108004761Y-87407142D01*
X106909523Y-86807142D02*
X106528571Y-86807142D01*
X106766666Y-86507142D02*
X106766666Y-87278571D01*
X106719047Y-87364285D01*
X106623809Y-87407142D01*
X106528571Y-87407142D01*
X106052380Y-87407142D02*
X106147619Y-87364285D01*
X106195238Y-87321428D01*
X106242857Y-87235714D01*
X106242857Y-86978571D01*
X106195238Y-86892857D01*
X106147619Y-86850000D01*
X106052380Y-86807142D01*
X105909523Y-86807142D01*
X105814285Y-86850000D01*
X105766666Y-86892857D01*
X105719047Y-86978571D01*
X105719047Y-87235714D01*
X105766666Y-87321428D01*
X105814285Y-87364285D01*
X105909523Y-87407142D01*
X106052380Y-87407142D01*
X104052380Y-86507142D02*
X104528571Y-86507142D01*
X104576190Y-86935714D01*
X104528571Y-86892857D01*
X104433333Y-86850000D01*
X104195238Y-86850000D01*
X104100000Y-86892857D01*
X104052380Y-86935714D01*
X104004761Y-87021428D01*
X104004761Y-87235714D01*
X104052380Y-87321428D01*
X104100000Y-87364285D01*
X104195238Y-87407142D01*
X104433333Y-87407142D01*
X104528571Y-87364285D01*
X104576190Y-87321428D01*
X102814285Y-87407142D02*
X102814285Y-86807142D01*
X102814285Y-86507142D02*
X102861904Y-86550000D01*
X102814285Y-86592857D01*
X102766666Y-86550000D01*
X102814285Y-86507142D01*
X102814285Y-86592857D01*
X102338095Y-86807142D02*
X102338095Y-87407142D01*
X102338095Y-86892857D02*
X102290476Y-86850000D01*
X102195238Y-86807142D01*
X102052380Y-86807142D01*
X101957142Y-86850000D01*
X101909523Y-86935714D01*
X101909523Y-87407142D01*
X101433333Y-87064285D02*
X100671428Y-87064285D01*
X100052380Y-87407142D02*
X100147619Y-87364285D01*
X100195238Y-87278571D01*
X100195238Y-86507142D01*
X99671428Y-87407142D02*
X99671428Y-86507142D01*
X99671428Y-86850000D02*
X99576190Y-86807142D01*
X99385714Y-86807142D01*
X99290476Y-86850000D01*
X99242857Y-86892857D01*
X99195238Y-86978571D01*
X99195238Y-87235714D01*
X99242857Y-87321428D01*
X99290476Y-87364285D01*
X99385714Y-87407142D01*
X99576190Y-87407142D01*
X99671428Y-87364285D01*
X137100000Y-88435714D02*
X136766666Y-88435714D01*
X136623809Y-88907142D02*
X137100000Y-88907142D01*
X137100000Y-88007142D01*
X136623809Y-88007142D01*
X136290476Y-88907142D02*
X135766666Y-88307142D01*
X136290476Y-88307142D02*
X135766666Y-88907142D01*
X135528571Y-88307142D02*
X135147619Y-88307142D01*
X135385714Y-88007142D02*
X135385714Y-88778571D01*
X135338095Y-88864285D01*
X135242857Y-88907142D01*
X135147619Y-88907142D01*
X134433333Y-88864285D02*
X134528571Y-88907142D01*
X134719047Y-88907142D01*
X134814285Y-88864285D01*
X134861904Y-88778571D01*
X134861904Y-88435714D01*
X134814285Y-88350000D01*
X134719047Y-88307142D01*
X134528571Y-88307142D01*
X134433333Y-88350000D01*
X134385714Y-88435714D01*
X134385714Y-88521428D01*
X134861904Y-88607142D01*
X133957142Y-88907142D02*
X133957142Y-88307142D01*
X133957142Y-88478571D02*
X133909523Y-88392857D01*
X133861904Y-88350000D01*
X133766666Y-88307142D01*
X133671428Y-88307142D01*
X133338095Y-88307142D02*
X133338095Y-88907142D01*
X133338095Y-88392857D02*
X133290476Y-88350000D01*
X133195238Y-88307142D01*
X133052380Y-88307142D01*
X132957142Y-88350000D01*
X132909523Y-88435714D01*
X132909523Y-88907142D01*
X132004761Y-88907142D02*
X132004761Y-88435714D01*
X132052380Y-88350000D01*
X132147619Y-88307142D01*
X132338095Y-88307142D01*
X132433333Y-88350000D01*
X132004761Y-88864285D02*
X132100000Y-88907142D01*
X132338095Y-88907142D01*
X132433333Y-88864285D01*
X132480952Y-88778571D01*
X132480952Y-88692857D01*
X132433333Y-88607142D01*
X132338095Y-88564285D01*
X132100000Y-88564285D01*
X132004761Y-88521428D01*
X131385714Y-88907142D02*
X131480952Y-88864285D01*
X131528571Y-88778571D01*
X131528571Y-88007142D01*
X130385714Y-88307142D02*
X130004761Y-88307142D01*
X130242857Y-88907142D02*
X130242857Y-88135714D01*
X130195238Y-88050000D01*
X130100000Y-88007142D01*
X130004761Y-88007142D01*
X129242857Y-88307142D02*
X129242857Y-88907142D01*
X129671428Y-88307142D02*
X129671428Y-88778571D01*
X129623809Y-88864285D01*
X129528571Y-88907142D01*
X129385714Y-88907142D01*
X129290476Y-88864285D01*
X129242857Y-88821428D01*
X128814285Y-88864285D02*
X128719047Y-88907142D01*
X128528571Y-88907142D01*
X128433333Y-88864285D01*
X128385714Y-88778571D01*
X128385714Y-88735714D01*
X128433333Y-88650000D01*
X128528571Y-88607142D01*
X128671428Y-88607142D01*
X128766666Y-88564285D01*
X128814285Y-88478571D01*
X128814285Y-88435714D01*
X128766666Y-88350000D01*
X128671428Y-88307142D01*
X128528571Y-88307142D01*
X128433333Y-88350000D01*
X127957142Y-88907142D02*
X127957142Y-88307142D01*
X127957142Y-88007142D02*
X128004761Y-88050000D01*
X127957142Y-88092857D01*
X127909523Y-88050000D01*
X127957142Y-88007142D01*
X127957142Y-88092857D01*
X127480952Y-88307142D02*
X127480952Y-88907142D01*
X127480952Y-88392857D02*
X127433333Y-88350000D01*
X127338095Y-88307142D01*
X127195238Y-88307142D01*
X127100000Y-88350000D01*
X127052380Y-88435714D01*
X127052380Y-88907142D01*
X126147619Y-88307142D02*
X126147619Y-89035714D01*
X126195238Y-89121428D01*
X126242857Y-89164285D01*
X126338095Y-89207142D01*
X126480952Y-89207142D01*
X126576190Y-89164285D01*
X126147619Y-88864285D02*
X126242857Y-88907142D01*
X126433333Y-88907142D01*
X126528571Y-88864285D01*
X126576190Y-88821428D01*
X126623809Y-88735714D01*
X126623809Y-88478571D01*
X126576190Y-88392857D01*
X126528571Y-88350000D01*
X126433333Y-88307142D01*
X126242857Y-88307142D01*
X126147619Y-88350000D01*
X124480952Y-88907142D02*
X124480952Y-88435714D01*
X124528571Y-88350000D01*
X124623809Y-88307142D01*
X124814285Y-88307142D01*
X124909523Y-88350000D01*
X124480952Y-88864285D02*
X124576190Y-88907142D01*
X124814285Y-88907142D01*
X124909523Y-88864285D01*
X124957142Y-88778571D01*
X124957142Y-88692857D01*
X124909523Y-88607142D01*
X124814285Y-88564285D01*
X124576190Y-88564285D01*
X124480952Y-88521428D01*
X124004761Y-88307142D02*
X124004761Y-88907142D01*
X124004761Y-88392857D02*
X123957142Y-88350000D01*
X123861904Y-88307142D01*
X123719047Y-88307142D01*
X123623809Y-88350000D01*
X123576190Y-88435714D01*
X123576190Y-88907142D01*
X122671428Y-88907142D02*
X122671428Y-88007142D01*
X122671428Y-88864285D02*
X122766666Y-88907142D01*
X122957142Y-88907142D01*
X123052380Y-88864285D01*
X123100000Y-88821428D01*
X123147619Y-88735714D01*
X123147619Y-88478571D01*
X123100000Y-88392857D01*
X123052380Y-88350000D01*
X122957142Y-88307142D01*
X122766666Y-88307142D01*
X122671428Y-88350000D01*
X121528571Y-88307142D02*
X121338095Y-88907142D01*
X121147619Y-88478571D01*
X120957142Y-88907142D01*
X120766666Y-88307142D01*
X120385714Y-88907142D02*
X120385714Y-88307142D01*
X120385714Y-88007142D02*
X120433333Y-88050000D01*
X120385714Y-88092857D01*
X120338095Y-88050000D01*
X120385714Y-88007142D01*
X120385714Y-88092857D01*
X119909523Y-88907142D02*
X119909523Y-88307142D01*
X119909523Y-88478571D02*
X119861904Y-88392857D01*
X119814285Y-88350000D01*
X119719047Y-88307142D01*
X119623809Y-88307142D01*
X118909523Y-88864285D02*
X119004761Y-88907142D01*
X119195238Y-88907142D01*
X119290476Y-88864285D01*
X119338095Y-88778571D01*
X119338095Y-88435714D01*
X119290476Y-88350000D01*
X119195238Y-88307142D01*
X119004761Y-88307142D01*
X118909523Y-88350000D01*
X118861904Y-88435714D01*
X118861904Y-88521428D01*
X119338095Y-88607142D01*
X117814285Y-88307142D02*
X117433333Y-88307142D01*
X117671428Y-88907142D02*
X117671428Y-88135714D01*
X117623809Y-88050000D01*
X117528571Y-88007142D01*
X117433333Y-88007142D01*
X116719047Y-88864285D02*
X116814285Y-88907142D01*
X117004761Y-88907142D01*
X117100000Y-88864285D01*
X117147619Y-88778571D01*
X117147619Y-88435714D01*
X117100000Y-88350000D01*
X117004761Y-88307142D01*
X116814285Y-88307142D01*
X116719047Y-88350000D01*
X116671428Y-88435714D01*
X116671428Y-88521428D01*
X117147619Y-88607142D01*
X116242857Y-88907142D02*
X116242857Y-88307142D01*
X116242857Y-88478571D02*
X116195238Y-88392857D01*
X116147619Y-88350000D01*
X116052380Y-88307142D01*
X115957142Y-88307142D01*
X115623809Y-88907142D02*
X115623809Y-88307142D01*
X115623809Y-88478571D02*
X115576190Y-88392857D01*
X115528571Y-88350000D01*
X115433333Y-88307142D01*
X115338095Y-88307142D01*
X114576190Y-88307142D02*
X114576190Y-88907142D01*
X115004761Y-88307142D02*
X115004761Y-88778571D01*
X114957142Y-88864285D01*
X114861904Y-88907142D01*
X114719047Y-88907142D01*
X114623809Y-88864285D01*
X114576190Y-88821428D01*
X113957142Y-88907142D02*
X114052380Y-88864285D01*
X114100000Y-88778571D01*
X114100000Y-88007142D01*
X113195238Y-88864285D02*
X113290476Y-88907142D01*
X113480952Y-88907142D01*
X113576190Y-88864285D01*
X113623809Y-88778571D01*
X113623809Y-88435714D01*
X113576190Y-88350000D01*
X113480952Y-88307142D01*
X113290476Y-88307142D01*
X113195238Y-88350000D01*
X113147619Y-88435714D01*
X113147619Y-88521428D01*
X113623809Y-88607142D01*
X111957142Y-88907142D02*
X111957142Y-88307142D01*
X111957142Y-88478571D02*
X111909523Y-88392857D01*
X111861904Y-88350000D01*
X111766666Y-88307142D01*
X111671428Y-88307142D01*
X110957142Y-88864285D02*
X111052380Y-88907142D01*
X111242857Y-88907142D01*
X111338095Y-88864285D01*
X111385714Y-88778571D01*
X111385714Y-88435714D01*
X111338095Y-88350000D01*
X111242857Y-88307142D01*
X111052380Y-88307142D01*
X110957142Y-88350000D01*
X110909523Y-88435714D01*
X110909523Y-88521428D01*
X111385714Y-88607142D01*
X110052380Y-88864285D02*
X110147619Y-88907142D01*
X110338095Y-88907142D01*
X110433333Y-88864285D01*
X110480952Y-88821428D01*
X110528571Y-88735714D01*
X110528571Y-88478571D01*
X110480952Y-88392857D01*
X110433333Y-88350000D01*
X110338095Y-88307142D01*
X110147619Y-88307142D01*
X110052380Y-88350000D01*
X109480952Y-88907142D02*
X109576190Y-88864285D01*
X109623809Y-88821428D01*
X109671428Y-88735714D01*
X109671428Y-88478571D01*
X109623809Y-88392857D01*
X109576190Y-88350000D01*
X109480952Y-88307142D01*
X109338095Y-88307142D01*
X109242857Y-88350000D01*
X109195238Y-88392857D01*
X109147619Y-88478571D01*
X109147619Y-88735714D01*
X109195238Y-88821428D01*
X109242857Y-88864285D01*
X109338095Y-88907142D01*
X109480952Y-88907142D01*
X108719047Y-88907142D02*
X108719047Y-88307142D01*
X108719047Y-88392857D02*
X108671428Y-88350000D01*
X108576190Y-88307142D01*
X108433333Y-88307142D01*
X108338095Y-88350000D01*
X108290476Y-88435714D01*
X108290476Y-88907142D01*
X108290476Y-88435714D02*
X108242857Y-88350000D01*
X108147619Y-88307142D01*
X108004761Y-88307142D01*
X107909523Y-88350000D01*
X107861904Y-88435714D01*
X107861904Y-88907142D01*
X107385714Y-88907142D02*
X107385714Y-88307142D01*
X107385714Y-88392857D02*
X107338095Y-88350000D01*
X107242857Y-88307142D01*
X107100000Y-88307142D01*
X107004761Y-88350000D01*
X106957142Y-88435714D01*
X106957142Y-88907142D01*
X106957142Y-88435714D02*
X106909523Y-88350000D01*
X106814285Y-88307142D01*
X106671428Y-88307142D01*
X106576190Y-88350000D01*
X106528571Y-88435714D01*
X106528571Y-88907142D01*
X105671428Y-88864285D02*
X105766666Y-88907142D01*
X105957142Y-88907142D01*
X106052380Y-88864285D01*
X106100000Y-88778571D01*
X106100000Y-88435714D01*
X106052380Y-88350000D01*
X105957142Y-88307142D01*
X105766666Y-88307142D01*
X105671428Y-88350000D01*
X105623809Y-88435714D01*
X105623809Y-88521428D01*
X106100000Y-88607142D01*
X105195238Y-88307142D02*
X105195238Y-88907142D01*
X105195238Y-88392857D02*
X105147619Y-88350000D01*
X105052380Y-88307142D01*
X104909523Y-88307142D01*
X104814285Y-88350000D01*
X104766666Y-88435714D01*
X104766666Y-88907142D01*
X103861904Y-88907142D02*
X103861904Y-88007142D01*
X103861904Y-88864285D02*
X103957142Y-88907142D01*
X104147619Y-88907142D01*
X104242857Y-88864285D01*
X104290476Y-88821428D01*
X104338095Y-88735714D01*
X104338095Y-88478571D01*
X104290476Y-88392857D01*
X104242857Y-88350000D01*
X104147619Y-88307142D01*
X103957142Y-88307142D01*
X103861904Y-88350000D01*
X103004761Y-88864285D02*
X103100000Y-88907142D01*
X103290476Y-88907142D01*
X103385714Y-88864285D01*
X103433333Y-88778571D01*
X103433333Y-88435714D01*
X103385714Y-88350000D01*
X103290476Y-88307142D01*
X103100000Y-88307142D01*
X103004761Y-88350000D01*
X102957142Y-88435714D01*
X102957142Y-88521428D01*
X103433333Y-88607142D01*
X102100000Y-88907142D02*
X102100000Y-88007142D01*
X102100000Y-88864285D02*
X102195238Y-88907142D01*
X102385714Y-88907142D01*
X102480952Y-88864285D01*
X102528571Y-88821428D01*
X102576190Y-88735714D01*
X102576190Y-88478571D01*
X102528571Y-88392857D01*
X102480952Y-88350000D01*
X102385714Y-88307142D01*
X102195238Y-88307142D01*
X102100000Y-88350000D01*
X143480952Y-91907142D02*
X143480952Y-91007142D01*
X143052380Y-91907142D02*
X143052380Y-91435714D01*
X143100000Y-91350000D01*
X143195238Y-91307142D01*
X143338095Y-91307142D01*
X143433333Y-91350000D01*
X143480952Y-91392857D01*
X142719047Y-91307142D02*
X142338095Y-91307142D01*
X142576190Y-91007142D02*
X142576190Y-91778571D01*
X142528571Y-91864285D01*
X142433333Y-91907142D01*
X142338095Y-91907142D01*
X142147619Y-91307142D02*
X141766666Y-91307142D01*
X142004761Y-91007142D02*
X142004761Y-91778571D01*
X141957142Y-91864285D01*
X141861904Y-91907142D01*
X141766666Y-91907142D01*
X141433333Y-91307142D02*
X141433333Y-92207142D01*
X141433333Y-91350000D02*
X141338095Y-91307142D01*
X141147619Y-91307142D01*
X141052380Y-91350000D01*
X141004761Y-91392857D01*
X140957142Y-91478571D01*
X140957142Y-91735714D01*
X141004761Y-91821428D01*
X141052380Y-91864285D01*
X141147619Y-91907142D01*
X141338095Y-91907142D01*
X141433333Y-91864285D01*
X140576190Y-91864285D02*
X140480952Y-91907142D01*
X140290476Y-91907142D01*
X140195238Y-91864285D01*
X140147619Y-91778571D01*
X140147619Y-91735714D01*
X140195238Y-91650000D01*
X140290476Y-91607142D01*
X140433333Y-91607142D01*
X140528571Y-91564285D01*
X140576190Y-91478571D01*
X140576190Y-91435714D01*
X140528571Y-91350000D01*
X140433333Y-91307142D01*
X140290476Y-91307142D01*
X140195238Y-91350000D01*
X139719047Y-91821428D02*
X139671428Y-91864285D01*
X139719047Y-91907142D01*
X139766666Y-91864285D01*
X139719047Y-91821428D01*
X139719047Y-91907142D01*
X139719047Y-91350000D02*
X139671428Y-91392857D01*
X139719047Y-91435714D01*
X139766666Y-91392857D01*
X139719047Y-91350000D01*
X139719047Y-91435714D01*
X138528571Y-90964285D02*
X139385714Y-92121428D01*
X137480952Y-90964285D02*
X138338095Y-92121428D01*
X136719047Y-91307142D02*
X136719047Y-92035714D01*
X136766666Y-92121428D01*
X136814285Y-92164285D01*
X136909523Y-92207142D01*
X137052380Y-92207142D01*
X137147619Y-92164285D01*
X136719047Y-91864285D02*
X136814285Y-91907142D01*
X137004761Y-91907142D01*
X137100000Y-91864285D01*
X137147619Y-91821428D01*
X137195238Y-91735714D01*
X137195238Y-91478571D01*
X137147619Y-91392857D01*
X137100000Y-91350000D01*
X137004761Y-91307142D01*
X136814285Y-91307142D01*
X136719047Y-91350000D01*
X136242857Y-91907142D02*
X136242857Y-91307142D01*
X136242857Y-91007142D02*
X136290476Y-91050000D01*
X136242857Y-91092857D01*
X136195238Y-91050000D01*
X136242857Y-91007142D01*
X136242857Y-91092857D01*
X135909523Y-91307142D02*
X135528571Y-91307142D01*
X135766666Y-91007142D02*
X135766666Y-91778571D01*
X135719047Y-91864285D01*
X135623809Y-91907142D01*
X135528571Y-91907142D01*
X135195238Y-91907142D02*
X135195238Y-91007142D01*
X134766666Y-91907142D02*
X134766666Y-91435714D01*
X134814285Y-91350000D01*
X134909523Y-91307142D01*
X135052380Y-91307142D01*
X135147619Y-91350000D01*
X135195238Y-91392857D01*
X133861904Y-91307142D02*
X133861904Y-91907142D01*
X134290476Y-91307142D02*
X134290476Y-91778571D01*
X134242857Y-91864285D01*
X134147619Y-91907142D01*
X134004761Y-91907142D01*
X133909523Y-91864285D01*
X133861904Y-91821428D01*
X133385714Y-91907142D02*
X133385714Y-91007142D01*
X133385714Y-91350000D02*
X133290476Y-91307142D01*
X133100000Y-91307142D01*
X133004761Y-91350000D01*
X132957142Y-91392857D01*
X132909523Y-91478571D01*
X132909523Y-91735714D01*
X132957142Y-91821428D01*
X133004761Y-91864285D01*
X133100000Y-91907142D01*
X133290476Y-91907142D01*
X133385714Y-91864285D01*
X132480952Y-91821428D02*
X132433333Y-91864285D01*
X132480952Y-91907142D01*
X132528571Y-91864285D01*
X132480952Y-91821428D01*
X132480952Y-91907142D01*
X131576190Y-91864285D02*
X131671428Y-91907142D01*
X131861904Y-91907142D01*
X131957142Y-91864285D01*
X132004761Y-91821428D01*
X132052380Y-91735714D01*
X132052380Y-91478571D01*
X132004761Y-91392857D01*
X131957142Y-91350000D01*
X131861904Y-91307142D01*
X131671428Y-91307142D01*
X131576190Y-91350000D01*
X131004761Y-91907142D02*
X131100000Y-91864285D01*
X131147619Y-91821428D01*
X131195238Y-91735714D01*
X131195238Y-91478571D01*
X131147619Y-91392857D01*
X131100000Y-91350000D01*
X131004761Y-91307142D01*
X130861904Y-91307142D01*
X130766666Y-91350000D01*
X130719047Y-91392857D01*
X130671428Y-91478571D01*
X130671428Y-91735714D01*
X130719047Y-91821428D01*
X130766666Y-91864285D01*
X130861904Y-91907142D01*
X131004761Y-91907142D01*
X130242857Y-91907142D02*
X130242857Y-91307142D01*
X130242857Y-91392857D02*
X130195238Y-91350000D01*
X130100000Y-91307142D01*
X129957142Y-91307142D01*
X129861904Y-91350000D01*
X129814285Y-91435714D01*
X129814285Y-91907142D01*
X129814285Y-91435714D02*
X129766666Y-91350000D01*
X129671428Y-91307142D01*
X129528571Y-91307142D01*
X129433333Y-91350000D01*
X129385714Y-91435714D01*
X129385714Y-91907142D01*
X128195238Y-90964285D02*
X129052380Y-92121428D01*
X127861904Y-91907142D02*
X127861904Y-91307142D01*
X127861904Y-91392857D02*
X127814285Y-91350000D01*
X127719047Y-91307142D01*
X127576190Y-91307142D01*
X127480952Y-91350000D01*
X127433333Y-91435714D01*
X127433333Y-91907142D01*
X127433333Y-91435714D02*
X127385714Y-91350000D01*
X127290476Y-91307142D01*
X127147619Y-91307142D01*
X127052380Y-91350000D01*
X127004761Y-91435714D01*
X127004761Y-91907142D01*
X126099999Y-91907142D02*
X126099999Y-91435714D01*
X126147619Y-91350000D01*
X126242857Y-91307142D01*
X126433333Y-91307142D01*
X126528571Y-91350000D01*
X126099999Y-91864285D02*
X126195238Y-91907142D01*
X126433333Y-91907142D01*
X126528571Y-91864285D01*
X126576190Y-91778571D01*
X126576190Y-91692857D01*
X126528571Y-91607142D01*
X126433333Y-91564285D01*
X126195238Y-91564285D01*
X126099999Y-91521428D01*
X125623809Y-91907142D02*
X125623809Y-91307142D01*
X125623809Y-91478571D02*
X125576190Y-91392857D01*
X125528571Y-91350000D01*
X125433333Y-91307142D01*
X125338095Y-91307142D01*
X125100000Y-91907142D02*
X124576190Y-91307142D01*
X125100000Y-91307142D02*
X124576190Y-91907142D01*
X123671428Y-91907142D02*
X124242857Y-91907142D01*
X123957142Y-91907142D02*
X123957142Y-91007142D01*
X124052380Y-91135714D01*
X124147619Y-91221428D01*
X124242857Y-91264285D01*
X122528571Y-90964285D02*
X123385714Y-92121428D01*
X122195238Y-91907142D02*
X122195238Y-91007142D01*
X122195238Y-91435714D02*
X121623809Y-91435714D01*
X121623809Y-91907142D02*
X121623809Y-91007142D01*
X121147619Y-91907142D02*
X121147619Y-91007142D01*
X120766666Y-91007142D01*
X120671428Y-91050000D01*
X120623809Y-91092857D01*
X120576190Y-91178571D01*
X120576190Y-91307142D01*
X120623809Y-91392857D01*
X120671428Y-91435714D01*
X120766666Y-91478571D01*
X121147619Y-91478571D01*
X120385714Y-91992857D02*
X119623809Y-91992857D01*
X119385714Y-91907142D02*
X119385714Y-91007142D01*
X119004761Y-91007142D01*
X118909523Y-91050000D01*
X118861904Y-91092857D01*
X118814285Y-91178571D01*
X118814285Y-91307142D01*
X118861904Y-91392857D01*
X118909523Y-91435714D01*
X119004761Y-91478571D01*
X119385714Y-91478571D01*
X118242857Y-91907142D02*
X118338095Y-91864285D01*
X118385714Y-91821428D01*
X118433333Y-91735714D01*
X118433333Y-91478571D01*
X118385714Y-91392857D01*
X118338095Y-91350000D01*
X118242857Y-91307142D01*
X118100000Y-91307142D01*
X118004761Y-91350000D01*
X117957142Y-91392857D01*
X117909523Y-91478571D01*
X117909523Y-91735714D01*
X117957142Y-91821428D01*
X118004761Y-91864285D01*
X118100000Y-91907142D01*
X118242857Y-91907142D01*
X117576190Y-91307142D02*
X117385714Y-91907142D01*
X117195238Y-91478571D01*
X117004761Y-91907142D01*
X116814285Y-91307142D01*
X116052380Y-91864285D02*
X116147619Y-91907142D01*
X116338095Y-91907142D01*
X116433333Y-91864285D01*
X116480952Y-91778571D01*
X116480952Y-91435714D01*
X116433333Y-91350000D01*
X116338095Y-91307142D01*
X116147619Y-91307142D01*
X116052380Y-91350000D01*
X116004761Y-91435714D01*
X116004761Y-91521428D01*
X116480952Y-91607142D01*
X115576190Y-91907142D02*
X115576190Y-91307142D01*
X115576190Y-91478571D02*
X115528571Y-91392857D01*
X115480952Y-91350000D01*
X115385714Y-91307142D01*
X115290476Y-91307142D01*
X115004761Y-91864285D02*
X114861904Y-91907142D01*
X114623809Y-91907142D01*
X114528571Y-91864285D01*
X114480952Y-91821428D01*
X114433333Y-91735714D01*
X114433333Y-91650000D01*
X114480952Y-91564285D01*
X114528571Y-91521428D01*
X114623809Y-91478571D01*
X114814285Y-91435714D01*
X114909523Y-91392857D01*
X114957142Y-91350000D01*
X115004761Y-91264285D01*
X115004761Y-91178571D01*
X114957142Y-91092857D01*
X114909523Y-91050000D01*
X114814285Y-91007142D01*
X114576190Y-91007142D01*
X114433333Y-91050000D01*
X113576190Y-91307142D02*
X113576190Y-91907142D01*
X114004761Y-91307142D02*
X114004761Y-91778571D01*
X113957142Y-91864285D01*
X113861904Y-91907142D01*
X113719047Y-91907142D01*
X113623809Y-91864285D01*
X113576190Y-91821428D01*
X113100000Y-91307142D02*
X113100000Y-92207142D01*
X113100000Y-91350000D02*
X113004761Y-91307142D01*
X112814285Y-91307142D01*
X112719047Y-91350000D01*
X112671428Y-91392857D01*
X112623809Y-91478571D01*
X112623809Y-91735714D01*
X112671428Y-91821428D01*
X112719047Y-91864285D01*
X112814285Y-91907142D01*
X113004761Y-91907142D01*
X113100000Y-91864285D01*
X112195238Y-91307142D02*
X112195238Y-92207142D01*
X112195238Y-91350000D02*
X112100000Y-91307142D01*
X111909523Y-91307142D01*
X111814285Y-91350000D01*
X111766666Y-91392857D01*
X111719047Y-91478571D01*
X111719047Y-91735714D01*
X111766666Y-91821428D01*
X111814285Y-91864285D01*
X111909523Y-91907142D01*
X112100000Y-91907142D01*
X112195238Y-91864285D01*
X111147619Y-91907142D02*
X111242857Y-91864285D01*
X111290476Y-91778571D01*
X111290476Y-91007142D01*
X110861904Y-91307142D02*
X110623809Y-91907142D01*
X110385714Y-91307142D02*
X110623809Y-91907142D01*
X110719047Y-92121428D01*
X110766666Y-92164285D01*
X110861904Y-92207142D01*
X110242857Y-91992857D02*
X109480952Y-91992857D01*
X109242857Y-91435714D02*
X108909523Y-91435714D01*
X108766666Y-91907142D02*
X109242857Y-91907142D01*
X109242857Y-91007142D01*
X108766666Y-91007142D01*
X108385714Y-91864285D02*
X108242857Y-91907142D01*
X108004761Y-91907142D01*
X107909523Y-91864285D01*
X107861904Y-91821428D01*
X107814285Y-91735714D01*
X107814285Y-91650000D01*
X107861904Y-91564285D01*
X107909523Y-91521428D01*
X108004761Y-91478571D01*
X108195238Y-91435714D01*
X108290476Y-91392857D01*
X108338095Y-91350000D01*
X108385714Y-91264285D01*
X108385714Y-91178571D01*
X108338095Y-91092857D01*
X108290476Y-91050000D01*
X108195238Y-91007142D01*
X107957142Y-91007142D01*
X107814285Y-91050000D01*
X107385714Y-91907142D02*
X107385714Y-91007142D01*
X107004761Y-91007142D01*
X106909523Y-91050000D01*
X106861904Y-91092857D01*
X106814285Y-91178571D01*
X106814285Y-91307142D01*
X106861904Y-91392857D01*
X106909523Y-91435714D01*
X107004761Y-91478571D01*
X107385714Y-91478571D01*
X106242857Y-91392857D02*
X106338095Y-91350000D01*
X106385714Y-91307142D01*
X106433333Y-91221428D01*
X106433333Y-91178571D01*
X106385714Y-91092857D01*
X106338095Y-91050000D01*
X106242857Y-91007142D01*
X106052380Y-91007142D01*
X105957142Y-91050000D01*
X105909523Y-91092857D01*
X105861904Y-91178571D01*
X105861904Y-91221428D01*
X105909523Y-91307142D01*
X105957142Y-91350000D01*
X106052380Y-91392857D01*
X106242857Y-91392857D01*
X106338095Y-91435714D01*
X106385714Y-91478571D01*
X106433333Y-91564285D01*
X106433333Y-91735714D01*
X106385714Y-91821428D01*
X106338095Y-91864285D01*
X106242857Y-91907142D01*
X106052380Y-91907142D01*
X105957142Y-91864285D01*
X105909523Y-91821428D01*
X105861904Y-91735714D01*
X105861904Y-91564285D01*
X105909523Y-91478571D01*
X105957142Y-91435714D01*
X106052380Y-91392857D01*
X105480952Y-91092857D02*
X105433333Y-91050000D01*
X105338095Y-91007142D01*
X105100000Y-91007142D01*
X105004761Y-91050000D01*
X104957142Y-91092857D01*
X104909523Y-91178571D01*
X104909523Y-91264285D01*
X104957142Y-91392857D01*
X105528571Y-91907142D01*
X104909523Y-91907142D01*
X104052380Y-91007142D02*
X104242857Y-91007142D01*
X104338095Y-91050000D01*
X104385714Y-91092857D01*
X104480952Y-91221428D01*
X104528571Y-91392857D01*
X104528571Y-91735714D01*
X104480952Y-91821428D01*
X104433333Y-91864285D01*
X104338095Y-91907142D01*
X104147619Y-91907142D01*
X104052380Y-91864285D01*
X104004761Y-91821428D01*
X103957142Y-91735714D01*
X103957142Y-91521428D01*
X104004761Y-91435714D01*
X104052380Y-91392857D01*
X104147619Y-91350000D01*
X104338095Y-91350000D01*
X104433333Y-91392857D01*
X104480952Y-91435714D01*
X104528571Y-91521428D01*
X103100000Y-91007142D02*
X103290476Y-91007142D01*
X103385714Y-91050000D01*
X103433333Y-91092857D01*
X103528571Y-91221428D01*
X103576190Y-91392857D01*
X103576190Y-91735714D01*
X103528571Y-91821428D01*
X103480952Y-91864285D01*
X103385714Y-91907142D01*
X103195238Y-91907142D01*
X103100000Y-91864285D01*
X103052380Y-91821428D01*
X103004761Y-91735714D01*
X103004761Y-91521428D01*
X103052380Y-91435714D01*
X103100000Y-91392857D01*
X103195238Y-91350000D01*
X103385714Y-91350000D01*
X103480952Y-91392857D01*
X103528571Y-91435714D01*
X103576190Y-91521428D01*
X102814285Y-91992857D02*
X102052380Y-91992857D01*
X101480952Y-91435714D02*
X101338095Y-91478571D01*
X101290476Y-91521428D01*
X101242857Y-91607142D01*
X101242857Y-91735714D01*
X101290476Y-91821428D01*
X101338095Y-91864285D01*
X101433333Y-91907142D01*
X101814285Y-91907142D01*
X101814285Y-91007142D01*
X101480952Y-91007142D01*
X101385714Y-91050000D01*
X101338095Y-91092857D01*
X101290476Y-91178571D01*
X101290476Y-91264285D01*
X101338095Y-91350000D01*
X101385714Y-91392857D01*
X101480952Y-91435714D01*
X101814285Y-91435714D01*
X100814285Y-91907142D02*
X100814285Y-91307142D01*
X100814285Y-91478571D02*
X100766666Y-91392857D01*
X100719047Y-91350000D01*
X100623809Y-91307142D01*
X100528571Y-91307142D01*
X99814285Y-91864285D02*
X99909523Y-91907142D01*
X100100000Y-91907142D01*
X100195238Y-91864285D01*
X100242857Y-91778571D01*
X100242857Y-91435714D01*
X100195238Y-91350000D01*
X100100000Y-91307142D01*
X99909523Y-91307142D01*
X99814285Y-91350000D01*
X99766666Y-91435714D01*
X99766666Y-91521428D01*
X100242857Y-91607142D01*
X98909523Y-91907142D02*
X98909523Y-91435714D01*
X98957142Y-91350000D01*
X99052380Y-91307142D01*
X99242857Y-91307142D01*
X99338095Y-91350000D01*
X98909523Y-91864285D02*
X99004761Y-91907142D01*
X99242857Y-91907142D01*
X99338095Y-91864285D01*
X99385714Y-91778571D01*
X99385714Y-91692857D01*
X99338095Y-91607142D01*
X99242857Y-91564285D01*
X99004761Y-91564285D01*
X98909523Y-91521428D01*
X98433333Y-91907142D02*
X98433333Y-91007142D01*
X98338095Y-91564285D02*
X98052380Y-91907142D01*
X98052380Y-91307142D02*
X98433333Y-91650000D01*
X97480952Y-91907142D02*
X97576190Y-91864285D01*
X97623809Y-91821428D01*
X97671428Y-91735714D01*
X97671428Y-91478571D01*
X97623809Y-91392857D01*
X97576190Y-91350000D01*
X97480952Y-91307142D01*
X97338095Y-91307142D01*
X97242857Y-91350000D01*
X97195238Y-91392857D01*
X97147619Y-91478571D01*
X97147619Y-91735714D01*
X97195238Y-91821428D01*
X97242857Y-91864285D01*
X97338095Y-91907142D01*
X97480952Y-91907142D01*
X96290476Y-91307142D02*
X96290476Y-91907142D01*
X96719047Y-91307142D02*
X96719047Y-91778571D01*
X96671428Y-91864285D01*
X96576190Y-91907142D01*
X96433333Y-91907142D01*
X96338095Y-91864285D01*
X96290476Y-91821428D01*
X95957142Y-91307142D02*
X95576190Y-91307142D01*
X95814285Y-91007142D02*
X95814285Y-91778571D01*
X95766666Y-91864285D01*
X95671428Y-91907142D01*
X95576190Y-91907142D01*
X177923928Y-60914285D02*
X177923928Y-60164285D01*
X177638214Y-60164285D01*
X177566785Y-60200000D01*
X177531071Y-60235714D01*
X177495357Y-60307142D01*
X177495357Y-60414285D01*
X177531071Y-60485714D01*
X177566785Y-60521428D01*
X177638214Y-60557142D01*
X177923928Y-60557142D01*
X176745357Y-60914285D02*
X176995357Y-60557142D01*
X177173928Y-60914285D02*
X177173928Y-60164285D01*
X176888214Y-60164285D01*
X176816785Y-60200000D01*
X176781071Y-60235714D01*
X176745357Y-60307142D01*
X176745357Y-60414285D01*
X176781071Y-60485714D01*
X176816785Y-60521428D01*
X176888214Y-60557142D01*
X177173928Y-60557142D01*
X176281071Y-60164285D02*
X176138214Y-60164285D01*
X176066785Y-60200000D01*
X175995357Y-60271428D01*
X175959642Y-60414285D01*
X175959642Y-60664285D01*
X175995357Y-60807142D01*
X176066785Y-60878571D01*
X176138214Y-60914285D01*
X176281071Y-60914285D01*
X176352500Y-60878571D01*
X176423928Y-60807142D01*
X176459642Y-60664285D01*
X176459642Y-60414285D01*
X176423928Y-60271428D01*
X176352500Y-60200000D01*
X176281071Y-60164285D01*
X175245357Y-60200000D02*
X175316785Y-60164285D01*
X175423928Y-60164285D01*
X175531071Y-60200000D01*
X175602500Y-60271428D01*
X175638214Y-60342857D01*
X175673928Y-60485714D01*
X175673928Y-60592857D01*
X175638214Y-60735714D01*
X175602500Y-60807142D01*
X175531071Y-60878571D01*
X175423928Y-60914285D01*
X175352500Y-60914285D01*
X175245357Y-60878571D01*
X175209642Y-60842857D01*
X175209642Y-60592857D01*
X175352500Y-60592857D01*
X174316785Y-60914285D02*
X174316785Y-60164285D01*
X174031071Y-60164285D01*
X173959642Y-60200000D01*
X173923928Y-60235714D01*
X173888214Y-60307142D01*
X173888214Y-60414285D01*
X173923928Y-60485714D01*
X173959642Y-60521428D01*
X174031071Y-60557142D01*
X174316785Y-60557142D01*
X173566785Y-60914285D02*
X173566785Y-60414285D01*
X173566785Y-60164285D02*
X173602500Y-60200000D01*
X173566785Y-60235714D01*
X173531071Y-60200000D01*
X173566785Y-60164285D01*
X173566785Y-60235714D01*
X173209642Y-60414285D02*
X173209642Y-60914285D01*
X173209642Y-60485714D02*
X173173928Y-60450000D01*
X173102500Y-60414285D01*
X172995357Y-60414285D01*
X172923928Y-60450000D01*
X172888214Y-60521428D01*
X172888214Y-60914285D01*
X172423928Y-60914285D02*
X172495357Y-60878571D01*
X172531071Y-60842857D01*
X172566785Y-60771428D01*
X172566785Y-60557142D01*
X172531071Y-60485714D01*
X172495357Y-60450000D01*
X172423928Y-60414285D01*
X172316785Y-60414285D01*
X172245357Y-60450000D01*
X172209642Y-60485714D01*
X172173928Y-60557142D01*
X172173928Y-60771428D01*
X172209642Y-60842857D01*
X172245357Y-60878571D01*
X172316785Y-60914285D01*
X172423928Y-60914285D01*
X171531071Y-60414285D02*
X171531071Y-60914285D01*
X171852500Y-60414285D02*
X171852500Y-60807142D01*
X171816785Y-60878571D01*
X171745357Y-60914285D01*
X171638214Y-60914285D01*
X171566785Y-60878571D01*
X171531071Y-60842857D01*
X171281071Y-60414285D02*
X170995357Y-60414285D01*
X171173928Y-60164285D02*
X171173928Y-60807142D01*
X171138214Y-60878571D01*
X171066785Y-60914285D01*
X170995357Y-60914285D01*
X177531071Y-62189285D02*
X177959642Y-62189285D01*
X177745357Y-62189285D02*
X177745357Y-61439285D01*
X177816785Y-61546428D01*
X177888214Y-61617857D01*
X177959642Y-61653571D01*
X176423928Y-62475000D02*
X176459642Y-62439285D01*
X176531071Y-62332142D01*
X176566785Y-62260714D01*
X176602500Y-62153571D01*
X176638214Y-61975000D01*
X176638214Y-61832142D01*
X176602500Y-61653571D01*
X176566785Y-61546428D01*
X176531071Y-61475000D01*
X176459642Y-61367857D01*
X176423928Y-61332142D01*
X176138214Y-62189285D02*
X176138214Y-61439285D01*
X175709642Y-62189285D01*
X175709642Y-61439285D01*
X174923928Y-62117857D02*
X174959642Y-62153571D01*
X175066785Y-62189285D01*
X175138214Y-62189285D01*
X175245357Y-62153571D01*
X175316785Y-62082142D01*
X175352500Y-62010714D01*
X175388214Y-61867857D01*
X175388214Y-61760714D01*
X175352500Y-61617857D01*
X175316785Y-61546428D01*
X175245357Y-61475000D01*
X175138214Y-61439285D01*
X175066785Y-61439285D01*
X174959642Y-61475000D01*
X174923928Y-61510714D01*
X174673928Y-62475000D02*
X174638214Y-62439285D01*
X174566785Y-62332142D01*
X174531071Y-62260714D01*
X174495357Y-62153571D01*
X174459642Y-61975000D01*
X174459642Y-61832142D01*
X174495357Y-61653571D01*
X174531071Y-61546428D01*
X174566785Y-61475000D01*
X174638214Y-61367857D01*
X174673928Y-61332142D01*
X177959642Y-62785714D02*
X177923928Y-62750000D01*
X177852500Y-62714285D01*
X177673928Y-62714285D01*
X177602500Y-62750000D01*
X177566785Y-62785714D01*
X177531071Y-62857142D01*
X177531071Y-62928571D01*
X177566785Y-63035714D01*
X177995357Y-63464285D01*
X177531071Y-63464285D01*
X176245357Y-62750000D02*
X176316785Y-62714285D01*
X176423928Y-62714285D01*
X176531071Y-62750000D01*
X176602500Y-62821428D01*
X176638214Y-62892857D01*
X176673928Y-63035714D01*
X176673928Y-63142857D01*
X176638214Y-63285714D01*
X176602500Y-63357142D01*
X176531071Y-63428571D01*
X176423928Y-63464285D01*
X176352500Y-63464285D01*
X176245357Y-63428571D01*
X176209642Y-63392857D01*
X176209642Y-63142857D01*
X176352500Y-63142857D01*
X175888214Y-63464285D02*
X175888214Y-62714285D01*
X175459642Y-63464285D01*
X175459642Y-62714285D01*
X175102500Y-63464285D02*
X175102500Y-62714285D01*
X174923928Y-62714285D01*
X174816785Y-62750000D01*
X174745357Y-62821428D01*
X174709642Y-62892857D01*
X174673928Y-63035714D01*
X174673928Y-63142857D01*
X174709642Y-63285714D01*
X174745357Y-63357142D01*
X174816785Y-63428571D01*
X174923928Y-63464285D01*
X175102500Y-63464285D01*
X177995357Y-63989285D02*
X177531071Y-63989285D01*
X177781071Y-64275000D01*
X177673928Y-64275000D01*
X177602500Y-64310714D01*
X177566785Y-64346428D01*
X177531071Y-64417857D01*
X177531071Y-64596428D01*
X177566785Y-64667857D01*
X177602500Y-64703571D01*
X177673928Y-64739285D01*
X177888214Y-64739285D01*
X177959642Y-64703571D01*
X177995357Y-64667857D01*
X176745357Y-63989285D02*
X176316785Y-63989285D01*
X176531071Y-64739285D02*
X176531071Y-63989285D01*
X176138214Y-63989285D02*
X175638214Y-64739285D01*
X175638214Y-63989285D02*
X176138214Y-64739285D01*
X175352500Y-64739285D02*
X175352500Y-63989285D01*
X175173928Y-63989285D01*
X175066785Y-64025000D01*
X174995357Y-64096428D01*
X174959642Y-64167857D01*
X174923928Y-64310714D01*
X174923928Y-64417857D01*
X174959642Y-64560714D01*
X174995357Y-64632142D01*
X175066785Y-64703571D01*
X175173928Y-64739285D01*
X175352500Y-64739285D01*
X173816785Y-65025000D02*
X173852500Y-64989285D01*
X173923928Y-64882142D01*
X173959642Y-64810714D01*
X173995357Y-64703571D01*
X174031071Y-64525000D01*
X174031071Y-64382142D01*
X173995357Y-64203571D01*
X173959642Y-64096428D01*
X173923928Y-64025000D01*
X173852500Y-63917857D01*
X173816785Y-63882142D01*
X173638214Y-63989285D02*
X173209642Y-63989285D01*
X173423928Y-64739285D02*
X173423928Y-63989285D01*
X173031071Y-63989285D02*
X172531071Y-64739285D01*
X172531071Y-63989285D02*
X173031071Y-64739285D01*
X171781071Y-64239285D02*
X171495357Y-64239285D01*
X171673928Y-64739285D02*
X171673928Y-64096428D01*
X171638214Y-64025000D01*
X171566785Y-63989285D01*
X171495357Y-63989285D01*
X171245357Y-64739285D02*
X171245357Y-64239285D01*
X171245357Y-64382142D02*
X171209642Y-64310714D01*
X171173928Y-64275000D01*
X171102500Y-64239285D01*
X171031071Y-64239285D01*
X170673928Y-64739285D02*
X170745357Y-64703571D01*
X170781071Y-64667857D01*
X170816785Y-64596428D01*
X170816785Y-64382142D01*
X170781071Y-64310714D01*
X170745357Y-64275000D01*
X170673928Y-64239285D01*
X170566785Y-64239285D01*
X170495357Y-64275000D01*
X170459642Y-64310714D01*
X170423928Y-64382142D01*
X170423928Y-64596428D01*
X170459642Y-64667857D01*
X170495357Y-64703571D01*
X170566785Y-64739285D01*
X170673928Y-64739285D01*
X170102500Y-64739285D02*
X170102500Y-64239285D01*
X170102500Y-64310714D02*
X170066785Y-64275000D01*
X169995357Y-64239285D01*
X169888214Y-64239285D01*
X169816785Y-64275000D01*
X169781071Y-64346428D01*
X169781071Y-64739285D01*
X169781071Y-64346428D02*
X169745357Y-64275000D01*
X169673928Y-64239285D01*
X169566785Y-64239285D01*
X169495357Y-64275000D01*
X169459642Y-64346428D01*
X169459642Y-64739285D01*
X168531071Y-64739285D02*
X168531071Y-63989285D01*
X168245357Y-63989285D01*
X168173928Y-64025000D01*
X168138214Y-64060714D01*
X168102500Y-64132142D01*
X168102500Y-64239285D01*
X168138214Y-64310714D01*
X168173928Y-64346428D01*
X168245357Y-64382142D01*
X168531071Y-64382142D01*
X167352500Y-64667857D02*
X167388214Y-64703571D01*
X167495357Y-64739285D01*
X167566785Y-64739285D01*
X167673928Y-64703571D01*
X167745357Y-64632142D01*
X167781071Y-64560714D01*
X167816785Y-64417857D01*
X167816785Y-64310714D01*
X167781071Y-64167857D01*
X167745357Y-64096428D01*
X167673928Y-64025000D01*
X167566785Y-63989285D01*
X167495357Y-63989285D01*
X167388214Y-64025000D01*
X167352500Y-64060714D01*
X167102500Y-65025000D02*
X167066785Y-64989285D01*
X166995357Y-64882142D01*
X166959642Y-64810714D01*
X166923928Y-64703571D01*
X166888214Y-64525000D01*
X166888214Y-64382142D01*
X166923928Y-64203571D01*
X166959642Y-64096428D01*
X166995357Y-64025000D01*
X167066785Y-63917857D01*
X167102500Y-63882142D01*
X177602500Y-65514285D02*
X177602500Y-66014285D01*
X177781071Y-65228571D02*
X177959642Y-65764285D01*
X177495357Y-65764285D01*
X176209642Y-66014285D02*
X176459642Y-65657142D01*
X176638214Y-66014285D02*
X176638214Y-65264285D01*
X176352500Y-65264285D01*
X176281071Y-65300000D01*
X176245357Y-65335714D01*
X176209642Y-65407142D01*
X176209642Y-65514285D01*
X176245357Y-65585714D01*
X176281071Y-65621428D01*
X176352500Y-65657142D01*
X176638214Y-65657142D01*
X175959642Y-65264285D02*
X175459642Y-66014285D01*
X175459642Y-65264285D02*
X175959642Y-66014285D01*
X175173928Y-66014285D02*
X175173928Y-65264285D01*
X174995357Y-65264285D01*
X174888214Y-65300000D01*
X174816785Y-65371428D01*
X174781071Y-65442857D01*
X174745357Y-65585714D01*
X174745357Y-65692857D01*
X174781071Y-65835714D01*
X174816785Y-65907142D01*
X174888214Y-65978571D01*
X174995357Y-66014285D01*
X175173928Y-66014285D01*
X173638214Y-66300000D02*
X173673928Y-66264285D01*
X173745357Y-66157142D01*
X173781071Y-66085714D01*
X173816785Y-65978571D01*
X173852500Y-65800000D01*
X173852500Y-65657142D01*
X173816785Y-65478571D01*
X173781071Y-65371428D01*
X173745357Y-65300000D01*
X173673928Y-65192857D01*
X173638214Y-65157142D01*
X173459642Y-65264285D02*
X173031071Y-65264285D01*
X173245357Y-66014285D02*
X173245357Y-65264285D01*
X172852500Y-65264285D02*
X172352500Y-66014285D01*
X172352500Y-65264285D02*
X172852500Y-66014285D01*
X171602500Y-65514285D02*
X171316785Y-65514285D01*
X171495357Y-66014285D02*
X171495357Y-65371428D01*
X171459642Y-65300000D01*
X171388214Y-65264285D01*
X171316785Y-65264285D01*
X171066785Y-66014285D02*
X171066785Y-65514285D01*
X171066785Y-65657142D02*
X171031071Y-65585714D01*
X170995357Y-65550000D01*
X170923928Y-65514285D01*
X170852500Y-65514285D01*
X170495357Y-66014285D02*
X170566785Y-65978571D01*
X170602500Y-65942857D01*
X170638214Y-65871428D01*
X170638214Y-65657142D01*
X170602500Y-65585714D01*
X170566785Y-65550000D01*
X170495357Y-65514285D01*
X170388214Y-65514285D01*
X170316785Y-65550000D01*
X170281071Y-65585714D01*
X170245357Y-65657142D01*
X170245357Y-65871428D01*
X170281071Y-65942857D01*
X170316785Y-65978571D01*
X170388214Y-66014285D01*
X170495357Y-66014285D01*
X169923928Y-66014285D02*
X169923928Y-65514285D01*
X169923928Y-65585714D02*
X169888214Y-65550000D01*
X169816785Y-65514285D01*
X169709642Y-65514285D01*
X169638214Y-65550000D01*
X169602500Y-65621428D01*
X169602500Y-66014285D01*
X169602500Y-65621428D02*
X169566785Y-65550000D01*
X169495357Y-65514285D01*
X169388214Y-65514285D01*
X169316785Y-65550000D01*
X169281071Y-65621428D01*
X169281071Y-66014285D01*
X168352500Y-65621428D02*
X168102500Y-65621428D01*
X167995357Y-66014285D02*
X168352500Y-66014285D01*
X168352500Y-65264285D01*
X167995357Y-65264285D01*
X167709642Y-65978571D02*
X167602500Y-66014285D01*
X167423928Y-66014285D01*
X167352500Y-65978571D01*
X167316785Y-65942857D01*
X167281071Y-65871428D01*
X167281071Y-65800000D01*
X167316785Y-65728571D01*
X167352500Y-65692857D01*
X167423928Y-65657142D01*
X167566785Y-65621428D01*
X167638214Y-65585714D01*
X167673928Y-65550000D01*
X167709642Y-65478571D01*
X167709642Y-65407142D01*
X167673928Y-65335714D01*
X167638214Y-65300000D01*
X167566785Y-65264285D01*
X167388214Y-65264285D01*
X167281071Y-65300000D01*
X166959642Y-66014285D02*
X166959642Y-65264285D01*
X166673928Y-65264285D01*
X166602500Y-65300000D01*
X166566785Y-65335714D01*
X166531071Y-65407142D01*
X166531071Y-65514285D01*
X166566785Y-65585714D01*
X166602500Y-65621428D01*
X166673928Y-65657142D01*
X166959642Y-65657142D01*
X166281071Y-66300000D02*
X166245357Y-66264285D01*
X166173928Y-66157142D01*
X166138214Y-66085714D01*
X166102500Y-65978571D01*
X166066785Y-65800000D01*
X166066785Y-65657142D01*
X166102500Y-65478571D01*
X166138214Y-65371428D01*
X166173928Y-65300000D01*
X166245357Y-65192857D01*
X166281071Y-65157142D01*
X177566785Y-66539285D02*
X177923928Y-66539285D01*
X177959642Y-66896428D01*
X177923928Y-66860714D01*
X177852500Y-66825000D01*
X177673928Y-66825000D01*
X177602500Y-66860714D01*
X177566785Y-66896428D01*
X177531071Y-66967857D01*
X177531071Y-67146428D01*
X177566785Y-67217857D01*
X177602500Y-67253571D01*
X177673928Y-67289285D01*
X177852500Y-67289285D01*
X177923928Y-67253571D01*
X177959642Y-67217857D01*
X176209642Y-67289285D02*
X176459642Y-66932142D01*
X176638214Y-67289285D02*
X176638214Y-66539285D01*
X176352500Y-66539285D01*
X176281071Y-66575000D01*
X176245357Y-66610714D01*
X176209642Y-66682142D01*
X176209642Y-66789285D01*
X176245357Y-66860714D01*
X176281071Y-66896428D01*
X176352500Y-66932142D01*
X176638214Y-66932142D01*
X175995357Y-66539285D02*
X175566785Y-66539285D01*
X175781071Y-67289285D02*
X175781071Y-66539285D01*
X175352500Y-67253571D02*
X175245357Y-67289285D01*
X175066785Y-67289285D01*
X174995357Y-67253571D01*
X174959642Y-67217857D01*
X174923928Y-67146428D01*
X174923928Y-67075000D01*
X174959642Y-67003571D01*
X174995357Y-66967857D01*
X175066785Y-66932142D01*
X175209642Y-66896428D01*
X175281071Y-66860714D01*
X175316785Y-66825000D01*
X175352500Y-66753571D01*
X175352500Y-66682142D01*
X175316785Y-66610714D01*
X175281071Y-66575000D01*
X175209642Y-66539285D01*
X175031071Y-66539285D01*
X174923928Y-66575000D01*
X173816785Y-67575000D02*
X173852500Y-67539285D01*
X173923928Y-67432142D01*
X173959642Y-67360714D01*
X173995357Y-67253571D01*
X174031071Y-67075000D01*
X174031071Y-66932142D01*
X173995357Y-66753571D01*
X173959642Y-66646428D01*
X173923928Y-66575000D01*
X173852500Y-66467857D01*
X173816785Y-66432142D01*
X173531071Y-67289285D02*
X173531071Y-66539285D01*
X173245357Y-66539285D01*
X173173928Y-66575000D01*
X173138214Y-66610714D01*
X173102500Y-66682142D01*
X173102500Y-66789285D01*
X173138214Y-66860714D01*
X173173928Y-66896428D01*
X173245357Y-66932142D01*
X173531071Y-66932142D01*
X172352500Y-67289285D02*
X172602500Y-66932142D01*
X172781071Y-67289285D02*
X172781071Y-66539285D01*
X172495357Y-66539285D01*
X172423928Y-66575000D01*
X172388214Y-66610714D01*
X172352500Y-66682142D01*
X172352500Y-66789285D01*
X172388214Y-66860714D01*
X172423928Y-66896428D01*
X172495357Y-66932142D01*
X172781071Y-66932142D01*
X171888214Y-66539285D02*
X171745357Y-66539285D01*
X171673928Y-66575000D01*
X171602500Y-66646428D01*
X171566785Y-66789285D01*
X171566785Y-67039285D01*
X171602500Y-67182142D01*
X171673928Y-67253571D01*
X171745357Y-67289285D01*
X171888214Y-67289285D01*
X171959642Y-67253571D01*
X172031071Y-67182142D01*
X172066785Y-67039285D01*
X172066785Y-66789285D01*
X172031071Y-66646428D01*
X171959642Y-66575000D01*
X171888214Y-66539285D01*
X170852500Y-66575000D02*
X170923928Y-66539285D01*
X171031071Y-66539285D01*
X171138214Y-66575000D01*
X171209642Y-66646428D01*
X171245357Y-66717857D01*
X171281071Y-66860714D01*
X171281071Y-66967857D01*
X171245357Y-67110714D01*
X171209642Y-67182142D01*
X171138214Y-67253571D01*
X171031071Y-67289285D01*
X170959642Y-67289285D01*
X170852500Y-67253571D01*
X170816785Y-67217857D01*
X170816785Y-66967857D01*
X170959642Y-66967857D01*
X170566785Y-67575000D02*
X170531071Y-67539285D01*
X170459642Y-67432142D01*
X170423928Y-67360714D01*
X170388214Y-67253571D01*
X170352500Y-67075000D01*
X170352500Y-66932142D01*
X170388214Y-66753571D01*
X170423928Y-66646428D01*
X170459642Y-66575000D01*
X170531071Y-66467857D01*
X170566785Y-66432142D01*
X177602500Y-67814285D02*
X177745357Y-67814285D01*
X177816785Y-67850000D01*
X177852500Y-67885714D01*
X177923928Y-67992857D01*
X177959642Y-68135714D01*
X177959642Y-68421428D01*
X177923928Y-68492857D01*
X177888214Y-68528571D01*
X177816785Y-68564285D01*
X177673928Y-68564285D01*
X177602500Y-68528571D01*
X177566785Y-68492857D01*
X177531071Y-68421428D01*
X177531071Y-68242857D01*
X177566785Y-68171428D01*
X177602500Y-68135714D01*
X177673928Y-68100000D01*
X177816785Y-68100000D01*
X177888214Y-68135714D01*
X177923928Y-68171428D01*
X177959642Y-68242857D01*
X176638214Y-68564285D02*
X176638214Y-67814285D01*
X176459642Y-67814285D01*
X176352500Y-67850000D01*
X176281071Y-67921428D01*
X176245357Y-67992857D01*
X176209642Y-68135714D01*
X176209642Y-68242857D01*
X176245357Y-68385714D01*
X176281071Y-68457142D01*
X176352500Y-68528571D01*
X176459642Y-68564285D01*
X176638214Y-68564285D01*
X175995357Y-67814285D02*
X175566785Y-67814285D01*
X175781071Y-68564285D02*
X175781071Y-67814285D01*
X174888214Y-68564285D02*
X175138214Y-68207142D01*
X175316785Y-68564285D02*
X175316785Y-67814285D01*
X175031071Y-67814285D01*
X174959642Y-67850000D01*
X174923928Y-67885714D01*
X174888214Y-67957142D01*
X174888214Y-68064285D01*
X174923928Y-68135714D01*
X174959642Y-68171428D01*
X175031071Y-68207142D01*
X175316785Y-68207142D01*
X173781071Y-68850000D02*
X173816785Y-68814285D01*
X173888214Y-68707142D01*
X173923928Y-68635714D01*
X173959642Y-68528571D01*
X173995357Y-68350000D01*
X173995357Y-68207142D01*
X173959642Y-68028571D01*
X173923928Y-67921428D01*
X173888214Y-67850000D01*
X173816785Y-67742857D01*
X173781071Y-67707142D01*
X173066785Y-68564285D02*
X173316785Y-68207142D01*
X173495357Y-68564285D02*
X173495357Y-67814285D01*
X173209642Y-67814285D01*
X173138214Y-67850000D01*
X173102500Y-67885714D01*
X173066785Y-67957142D01*
X173066785Y-68064285D01*
X173102500Y-68135714D01*
X173138214Y-68171428D01*
X173209642Y-68207142D01*
X173495357Y-68207142D01*
X172459642Y-68528571D02*
X172531071Y-68564285D01*
X172673928Y-68564285D01*
X172745357Y-68528571D01*
X172781071Y-68457142D01*
X172781071Y-68171428D01*
X172745357Y-68100000D01*
X172673928Y-68064285D01*
X172531071Y-68064285D01*
X172459642Y-68100000D01*
X172423928Y-68171428D01*
X172423928Y-68242857D01*
X172781071Y-68314285D01*
X172138214Y-68528571D02*
X172066785Y-68564285D01*
X171923928Y-68564285D01*
X171852500Y-68528571D01*
X171816785Y-68457142D01*
X171816785Y-68421428D01*
X171852500Y-68350000D01*
X171923928Y-68314285D01*
X172031071Y-68314285D01*
X172102500Y-68278571D01*
X172138214Y-68207142D01*
X172138214Y-68171428D01*
X172102500Y-68100000D01*
X172031071Y-68064285D01*
X171923928Y-68064285D01*
X171852500Y-68100000D01*
X171209642Y-68528571D02*
X171281071Y-68564285D01*
X171423928Y-68564285D01*
X171495357Y-68528571D01*
X171531071Y-68457142D01*
X171531071Y-68171428D01*
X171495357Y-68100000D01*
X171423928Y-68064285D01*
X171281071Y-68064285D01*
X171209642Y-68100000D01*
X171173928Y-68171428D01*
X171173928Y-68242857D01*
X171531071Y-68314285D01*
X170959642Y-68064285D02*
X170673928Y-68064285D01*
X170852500Y-67814285D02*
X170852500Y-68457142D01*
X170816785Y-68528571D01*
X170745357Y-68564285D01*
X170673928Y-68564285D01*
X170495357Y-68850000D02*
X170459642Y-68814285D01*
X170388214Y-68707142D01*
X170352500Y-68635714D01*
X170316785Y-68528571D01*
X170281071Y-68350000D01*
X170281071Y-68207142D01*
X170316785Y-68028571D01*
X170352500Y-67921428D01*
X170388214Y-67850000D01*
X170459642Y-67742857D01*
X170495357Y-67707142D01*
X142000000Y-60000000D02*
X142000000Y-77000000D01*
X116000000Y-77000000D02*
X90000000Y-77000000D01*
X116000000Y-77000000D02*
X142000000Y-77000000D01*
X116000000Y-77000000D02*
X116000000Y-61000000D01*
D12*
X131023809Y-61500000D02*
X131214285Y-61404761D01*
X131500000Y-61404761D01*
X131785714Y-61500000D01*
X131976190Y-61690476D01*
X132071428Y-61880952D01*
X132166666Y-62261904D01*
X132166666Y-62547619D01*
X132071428Y-62928571D01*
X131976190Y-63119047D01*
X131785714Y-63309523D01*
X131500000Y-63404761D01*
X131309523Y-63404761D01*
X131023809Y-63309523D01*
X130928571Y-63214285D01*
X130928571Y-62547619D01*
X131309523Y-62547619D01*
X130071428Y-63404761D02*
X130071428Y-61404761D01*
X128928571Y-63404761D01*
X128928571Y-61404761D01*
X127976190Y-63404761D02*
X127976190Y-61404761D01*
X127500000Y-61404761D01*
X127214285Y-61500000D01*
X127023809Y-61690476D01*
X126928571Y-61880952D01*
X126833333Y-62261904D01*
X126833333Y-62547619D01*
X126928571Y-62928571D01*
X127023809Y-63119047D01*
X127214285Y-63309523D01*
X127500000Y-63404761D01*
X127976190Y-63404761D01*
X106023809Y-62642857D02*
X104500000Y-62642857D01*
X105261904Y-63404761D02*
X105261904Y-61880952D01*
X102500000Y-63404761D02*
X103642857Y-63404761D01*
X103071428Y-63404761D02*
X103071428Y-61404761D01*
X103261904Y-61690476D01*
X103452380Y-61880952D01*
X103642857Y-61976190D01*
X101738095Y-61595238D02*
X101642857Y-61500000D01*
X101452380Y-61404761D01*
X100976190Y-61404761D01*
X100785714Y-61500000D01*
X100690476Y-61595238D01*
X100595238Y-61785714D01*
X100595238Y-61976190D01*
X100690476Y-62261904D01*
X101833333Y-63404761D01*
X100595238Y-63404761D01*
X100023809Y-61404761D02*
X99357142Y-63404761D01*
X98690476Y-61404761D01*
D13*
%TO.C,F1*%
X150992252Y-67432500D02*
X148219748Y-67432500D01*
X150992252Y-64012500D02*
X148219748Y-64012500D01*
%TO.C,Q3*%
X142819000Y-73535000D02*
X142819000Y-74995000D01*
X145979000Y-73535000D02*
X145979000Y-75695000D01*
X145979000Y-73535000D02*
X145049000Y-73535000D01*
X142819000Y-73535000D02*
X143749000Y-73535000D01*
%TO.C,R1*%
X170864264Y-92432200D02*
X170410136Y-92432200D01*
X170864264Y-93902200D02*
X170410136Y-93902200D01*
%TO.C,R2*%
X174725064Y-93902200D02*
X174270936Y-93902200D01*
X174725064Y-92432200D02*
X174270936Y-92432200D01*
%TO.C,R4*%
X159827064Y-89365000D02*
X159372936Y-89365000D01*
X159827064Y-90835000D02*
X159372936Y-90835000D01*
%TO.C,R5*%
X174017000Y-76681064D02*
X174017000Y-76226936D01*
X175487000Y-76681064D02*
X175487000Y-76226936D01*
%TO.C,R6*%
X179449400Y-76681064D02*
X179449400Y-76226936D01*
X177979400Y-76681064D02*
X177979400Y-76226936D01*
%TO.C,R7*%
X159335736Y-88619000D02*
X159789864Y-88619000D01*
X159335736Y-87149000D02*
X159789864Y-87149000D01*
%TO.C,R8*%
X159335736Y-86587000D02*
X159789864Y-86587000D01*
X159335736Y-85117000D02*
X159789864Y-85117000D01*
%TO.C,R9*%
X159335736Y-83135800D02*
X159789864Y-83135800D01*
X159335736Y-84605800D02*
X159789864Y-84605800D01*
%TO.C,R13*%
X148362936Y-74499800D02*
X148817064Y-74499800D01*
X148362936Y-75969800D02*
X148817064Y-75969800D01*
%TO.C,F1*%
D10*
X149812333Y-68318071D02*
X150145666Y-68318071D01*
X150145666Y-68841880D02*
X150145666Y-67841880D01*
X149669476Y-67841880D01*
X148764714Y-68841880D02*
X149336142Y-68841880D01*
X149050428Y-68841880D02*
X149050428Y-67841880D01*
X149145666Y-67984738D01*
X149240904Y-68079976D01*
X149336142Y-68127595D01*
%TO.C,J3*%
X175539371Y-96386947D02*
X175586990Y-96529804D01*
X175634609Y-96577423D01*
X175729847Y-96625042D01*
X175872704Y-96625042D01*
X175967942Y-96577423D01*
X176015561Y-96529804D01*
X176063180Y-96434566D01*
X176063180Y-96053614D01*
X175063180Y-96053614D01*
X175063180Y-96386947D01*
X175110800Y-96482185D01*
X175158419Y-96529804D01*
X175253657Y-96577423D01*
X175348895Y-96577423D01*
X175444133Y-96529804D01*
X175491752Y-96482185D01*
X175539371Y-96386947D01*
X175539371Y-96053614D01*
X176063180Y-97053614D02*
X175063180Y-97053614D01*
X175777466Y-97386947D01*
X175063180Y-97720280D01*
X176063180Y-97720280D01*
X175539371Y-98196471D02*
X175539371Y-98529804D01*
X176063180Y-98672661D02*
X176063180Y-98196471D01*
X175063180Y-98196471D01*
X175063180Y-98672661D01*
X175158419Y-99053614D02*
X175110800Y-99101233D01*
X175063180Y-99196471D01*
X175063180Y-99434566D01*
X175110800Y-99529804D01*
X175158419Y-99577423D01*
X175253657Y-99625042D01*
X175348895Y-99625042D01*
X175491752Y-99577423D01*
X176063180Y-99005995D01*
X176063180Y-99625042D01*
X175491752Y-100196471D02*
X175444133Y-100101233D01*
X175396514Y-100053614D01*
X175301276Y-100005995D01*
X175253657Y-100005995D01*
X175158419Y-100053614D01*
X175110800Y-100101233D01*
X175063180Y-100196471D01*
X175063180Y-100386947D01*
X175110800Y-100482185D01*
X175158419Y-100529804D01*
X175253657Y-100577423D01*
X175301276Y-100577423D01*
X175396514Y-100529804D01*
X175444133Y-100482185D01*
X175491752Y-100386947D01*
X175491752Y-100196471D01*
X175539371Y-100101233D01*
X175586990Y-100053614D01*
X175682228Y-100005995D01*
X175872704Y-100005995D01*
X175967942Y-100053614D01*
X176015561Y-100101233D01*
X176063180Y-100196471D01*
X176063180Y-100386947D01*
X176015561Y-100482185D01*
X175967942Y-100529804D01*
X175872704Y-100577423D01*
X175682228Y-100577423D01*
X175586990Y-100529804D01*
X175539371Y-100482185D01*
X175491752Y-100386947D01*
X175063180Y-101196471D02*
X175063180Y-101291709D01*
X175110800Y-101386947D01*
X175158419Y-101434566D01*
X175253657Y-101482185D01*
X175444133Y-101529804D01*
X175682228Y-101529804D01*
X175872704Y-101482185D01*
X175967942Y-101434566D01*
X176015561Y-101386947D01*
X176063180Y-101291709D01*
X176063180Y-101196471D01*
X176015561Y-101101233D01*
X175967942Y-101053614D01*
X175872704Y-101005995D01*
X175682228Y-100958376D01*
X175444133Y-100958376D01*
X175253657Y-101005995D01*
X175158419Y-101053614D01*
X175110800Y-101101233D01*
X175063180Y-101196471D01*
%TO.C,Q3*%
X144557738Y-77382619D02*
X144652976Y-77335000D01*
X144748214Y-77239761D01*
X144891071Y-77096904D01*
X144986309Y-77049285D01*
X145081547Y-77049285D01*
X145033928Y-77287380D02*
X145129166Y-77239761D01*
X145224404Y-77144523D01*
X145272023Y-76954047D01*
X145272023Y-76620714D01*
X145224404Y-76430238D01*
X145129166Y-76335000D01*
X145033928Y-76287380D01*
X144843452Y-76287380D01*
X144748214Y-76335000D01*
X144652976Y-76430238D01*
X144605357Y-76620714D01*
X144605357Y-76954047D01*
X144652976Y-77144523D01*
X144748214Y-77239761D01*
X144843452Y-77287380D01*
X145033928Y-77287380D01*
X144272023Y-76287380D02*
X143652976Y-76287380D01*
X143986309Y-76668333D01*
X143843452Y-76668333D01*
X143748214Y-76715952D01*
X143700595Y-76763571D01*
X143652976Y-76858809D01*
X143652976Y-77096904D01*
X143700595Y-77192142D01*
X143748214Y-77239761D01*
X143843452Y-77287380D01*
X144129166Y-77287380D01*
X144224404Y-77239761D01*
X144272023Y-77192142D01*
%TO.C,R1*%
X170803866Y-91969580D02*
X171137200Y-91493390D01*
X171375295Y-91969580D02*
X171375295Y-90969580D01*
X170994342Y-90969580D01*
X170899104Y-91017200D01*
X170851485Y-91064819D01*
X170803866Y-91160057D01*
X170803866Y-91302914D01*
X170851485Y-91398152D01*
X170899104Y-91445771D01*
X170994342Y-91493390D01*
X171375295Y-91493390D01*
X169851485Y-91969580D02*
X170422914Y-91969580D01*
X170137200Y-91969580D02*
X170137200Y-90969580D01*
X170232438Y-91112438D01*
X170327676Y-91207676D01*
X170422914Y-91255295D01*
%TO.C,R2*%
X174664666Y-91969580D02*
X174998000Y-91493390D01*
X175236095Y-91969580D02*
X175236095Y-90969580D01*
X174855142Y-90969580D01*
X174759904Y-91017200D01*
X174712285Y-91064819D01*
X174664666Y-91160057D01*
X174664666Y-91302914D01*
X174712285Y-91398152D01*
X174759904Y-91445771D01*
X174855142Y-91493390D01*
X175236095Y-91493390D01*
X174283714Y-91064819D02*
X174236095Y-91017200D01*
X174140857Y-90969580D01*
X173902761Y-90969580D01*
X173807523Y-91017200D01*
X173759904Y-91064819D01*
X173712285Y-91160057D01*
X173712285Y-91255295D01*
X173759904Y-91398152D01*
X174331333Y-91969580D01*
X173712285Y-91969580D01*
%TO.C,R4*%
X160020666Y-92381180D02*
X160354000Y-91904990D01*
X160592095Y-92381180D02*
X160592095Y-91381180D01*
X160211142Y-91381180D01*
X160115904Y-91428800D01*
X160068285Y-91476419D01*
X160020666Y-91571657D01*
X160020666Y-91714514D01*
X160068285Y-91809752D01*
X160115904Y-91857371D01*
X160211142Y-91904990D01*
X160592095Y-91904990D01*
X159163523Y-91714514D02*
X159163523Y-92381180D01*
X159401619Y-91333561D02*
X159639714Y-92047847D01*
X159020666Y-92047847D01*
%TO.C,R5*%
X174982166Y-79509880D02*
X175315500Y-79033690D01*
X175553595Y-79509880D02*
X175553595Y-78509880D01*
X175172642Y-78509880D01*
X175077404Y-78557500D01*
X175029785Y-78605119D01*
X174982166Y-78700357D01*
X174982166Y-78843214D01*
X175029785Y-78938452D01*
X175077404Y-78986071D01*
X175172642Y-79033690D01*
X175553595Y-79033690D01*
X174077404Y-78509880D02*
X174553595Y-78509880D01*
X174601214Y-78986071D01*
X174553595Y-78938452D01*
X174458357Y-78890833D01*
X174220261Y-78890833D01*
X174125023Y-78938452D01*
X174077404Y-78986071D01*
X174029785Y-79081309D01*
X174029785Y-79319404D01*
X174077404Y-79414642D01*
X174125023Y-79462261D01*
X174220261Y-79509880D01*
X174458357Y-79509880D01*
X174553595Y-79462261D01*
X174601214Y-79414642D01*
%TO.C,R6*%
X179230280Y-79208333D02*
X178754090Y-78875000D01*
X179230280Y-78636904D02*
X178230280Y-78636904D01*
X178230280Y-79017857D01*
X178277900Y-79113095D01*
X178325519Y-79160714D01*
X178420757Y-79208333D01*
X178563614Y-79208333D01*
X178658852Y-79160714D01*
X178706471Y-79113095D01*
X178754090Y-79017857D01*
X178754090Y-78636904D01*
X178230280Y-80065476D02*
X178230280Y-79875000D01*
X178277900Y-79779761D01*
X178325519Y-79732142D01*
X178468376Y-79636904D01*
X178658852Y-79589285D01*
X179039804Y-79589285D01*
X179135042Y-79636904D01*
X179182661Y-79684523D01*
X179230280Y-79779761D01*
X179230280Y-79970238D01*
X179182661Y-80065476D01*
X179135042Y-80113095D01*
X179039804Y-80160714D01*
X178801709Y-80160714D01*
X178706471Y-80113095D01*
X178658852Y-80065476D01*
X178611233Y-79970238D01*
X178611233Y-79779761D01*
X178658852Y-79684523D01*
X178706471Y-79636904D01*
X178801709Y-79589285D01*
%TO.C,R7*%
X157170380Y-87633333D02*
X156694190Y-87300000D01*
X157170380Y-87061904D02*
X156170380Y-87061904D01*
X156170380Y-87442857D01*
X156218000Y-87538095D01*
X156265619Y-87585714D01*
X156360857Y-87633333D01*
X156503714Y-87633333D01*
X156598952Y-87585714D01*
X156646571Y-87538095D01*
X156694190Y-87442857D01*
X156694190Y-87061904D01*
X156170380Y-87966666D02*
X156170380Y-88633333D01*
X157170380Y-88204761D01*
%TO.C,R8*%
X157152380Y-85621833D02*
X156676190Y-85288500D01*
X157152380Y-85050404D02*
X156152380Y-85050404D01*
X156152380Y-85431357D01*
X156200000Y-85526595D01*
X156247619Y-85574214D01*
X156342857Y-85621833D01*
X156485714Y-85621833D01*
X156580952Y-85574214D01*
X156628571Y-85526595D01*
X156676190Y-85431357D01*
X156676190Y-85050404D01*
X156580952Y-86193261D02*
X156533333Y-86098023D01*
X156485714Y-86050404D01*
X156390476Y-86002785D01*
X156342857Y-86002785D01*
X156247619Y-86050404D01*
X156200000Y-86098023D01*
X156152380Y-86193261D01*
X156152380Y-86383738D01*
X156200000Y-86478976D01*
X156247619Y-86526595D01*
X156342857Y-86574214D01*
X156390476Y-86574214D01*
X156485714Y-86526595D01*
X156533333Y-86478976D01*
X156580952Y-86383738D01*
X156580952Y-86193261D01*
X156628571Y-86098023D01*
X156676190Y-86050404D01*
X156771428Y-86002785D01*
X156961904Y-86002785D01*
X157057142Y-86050404D01*
X157104761Y-86098023D01*
X157152380Y-86193261D01*
X157152380Y-86383738D01*
X157104761Y-86478976D01*
X157057142Y-86526595D01*
X156961904Y-86574214D01*
X156771428Y-86574214D01*
X156676190Y-86526595D01*
X156628571Y-86478976D01*
X156580952Y-86383738D01*
%TO.C,R9*%
X157152380Y-83533333D02*
X156676190Y-83200000D01*
X157152380Y-82961904D02*
X156152380Y-82961904D01*
X156152380Y-83342857D01*
X156200000Y-83438095D01*
X156247619Y-83485714D01*
X156342857Y-83533333D01*
X156485714Y-83533333D01*
X156580952Y-83485714D01*
X156628571Y-83438095D01*
X156676190Y-83342857D01*
X156676190Y-82961904D01*
X157152380Y-84009523D02*
X157152380Y-84200000D01*
X157104761Y-84295238D01*
X157057142Y-84342857D01*
X156914285Y-84438095D01*
X156723809Y-84485714D01*
X156342857Y-84485714D01*
X156247619Y-84438095D01*
X156200000Y-84390476D01*
X156152380Y-84295238D01*
X156152380Y-84104761D01*
X156200000Y-84009523D01*
X156247619Y-83961904D01*
X156342857Y-83914285D01*
X156580952Y-83914285D01*
X156676190Y-83961904D01*
X156723809Y-84009523D01*
X156771428Y-84104761D01*
X156771428Y-84295238D01*
X156723809Y-84390476D01*
X156676190Y-84438095D01*
X156580952Y-84485714D01*
%TO.C,R13*%
X149232857Y-77337180D02*
X149566190Y-76860990D01*
X149804285Y-77337180D02*
X149804285Y-76337180D01*
X149423333Y-76337180D01*
X149328095Y-76384800D01*
X149280476Y-76432419D01*
X149232857Y-76527657D01*
X149232857Y-76670514D01*
X149280476Y-76765752D01*
X149328095Y-76813371D01*
X149423333Y-76860990D01*
X149804285Y-76860990D01*
X148280476Y-77337180D02*
X148851904Y-77337180D01*
X148566190Y-77337180D02*
X148566190Y-76337180D01*
X148661428Y-76480038D01*
X148756666Y-76575276D01*
X148851904Y-76622895D01*
X147947142Y-76337180D02*
X147328095Y-76337180D01*
X147661428Y-76718133D01*
X147518571Y-76718133D01*
X147423333Y-76765752D01*
X147375714Y-76813371D01*
X147328095Y-76908609D01*
X147328095Y-77146704D01*
X147375714Y-77241942D01*
X147423333Y-77289561D01*
X147518571Y-77337180D01*
X147804285Y-77337180D01*
X147899523Y-77289561D01*
X147947142Y-77241942D01*
%TD*%
M02*
