%TF.GenerationSoftware,KiCad,Pcbnew,(5.1.12)-1*%
%TF.CreationDate,2023-06-07T09:52:28-07:00*%
%TF.ProjectId,hp breakout remote relay,68702062-7265-4616-9b6f-75742072656d,rev?*%
%TF.SameCoordinates,Original*%
%TF.FileFunction,Legend,Top*%
%TF.FilePolarity,Positive*%
%FSLAX46Y46*%
G04 Gerber Fmt 4.6, Leading zero omitted, Abs format (unit mm)*
G04 Created by KiCad (PCBNEW (5.1.12)-1) date 2023-06-07 09:52:28*
%MOMM*%
%LPD*%
G01*
G04 APERTURE LIST*
%ADD10C,0.200000*%
%ADD11C,0.250000*%
%ADD12C,0.100000*%
%ADD13C,0.150000*%
%ADD14C,0.400000*%
%ADD15C,0.127000*%
%ADD16C,0.120000*%
%ADD17C,0.050000*%
G04 APERTURE END LIST*
D10*
X106108333Y-86428571D02*
X106108333Y-87642857D01*
X106191666Y-87785714D01*
X106275000Y-87857142D01*
X106441666Y-87928571D01*
X106775000Y-87928571D01*
X106941666Y-87857142D01*
X107025000Y-87785714D01*
X107108333Y-87642857D01*
X107108333Y-86428571D01*
X107858333Y-87857142D02*
X108025000Y-87928571D01*
X108358333Y-87928571D01*
X108525000Y-87857142D01*
X108608333Y-87714285D01*
X108608333Y-87642857D01*
X108525000Y-87500000D01*
X108358333Y-87428571D01*
X108108333Y-87428571D01*
X107941666Y-87357142D01*
X107858333Y-87214285D01*
X107858333Y-87142857D01*
X107941666Y-87000000D01*
X108108333Y-86928571D01*
X108358333Y-86928571D01*
X108525000Y-87000000D01*
X110025000Y-87857142D02*
X109858333Y-87928571D01*
X109525000Y-87928571D01*
X109358333Y-87857142D01*
X109275000Y-87714285D01*
X109275000Y-87142857D01*
X109358333Y-87000000D01*
X109525000Y-86928571D01*
X109858333Y-86928571D01*
X110025000Y-87000000D01*
X110108333Y-87142857D01*
X110108333Y-87285714D01*
X109275000Y-87428571D01*
X112858333Y-87857142D02*
X112691666Y-87928571D01*
X112358333Y-87928571D01*
X112191666Y-87857142D01*
X112108333Y-87714285D01*
X112108333Y-87142857D01*
X112191666Y-87000000D01*
X112358333Y-86928571D01*
X112691666Y-86928571D01*
X112858333Y-87000000D01*
X112941666Y-87142857D01*
X112941666Y-87285714D01*
X112108333Y-87428571D01*
X113525000Y-87928571D02*
X114441666Y-86928571D01*
X113525000Y-86928571D02*
X114441666Y-87928571D01*
X114858333Y-86928571D02*
X115525000Y-86928571D01*
X115108333Y-86428571D02*
X115108333Y-87714285D01*
X115191666Y-87857142D01*
X115358333Y-87928571D01*
X115525000Y-87928571D01*
X116775000Y-87857142D02*
X116608333Y-87928571D01*
X116275000Y-87928571D01*
X116108333Y-87857142D01*
X116025000Y-87714285D01*
X116025000Y-87142857D01*
X116108333Y-87000000D01*
X116275000Y-86928571D01*
X116608333Y-86928571D01*
X116775000Y-87000000D01*
X116858333Y-87142857D01*
X116858333Y-87285714D01*
X116025000Y-87428571D01*
X117608333Y-87928571D02*
X117608333Y-86928571D01*
X117608333Y-87214285D02*
X117691666Y-87071428D01*
X117775000Y-87000000D01*
X117941666Y-86928571D01*
X118108333Y-86928571D01*
X118691666Y-86928571D02*
X118691666Y-87928571D01*
X118691666Y-87071428D02*
X118775000Y-87000000D01*
X118941666Y-86928571D01*
X119191666Y-86928571D01*
X119358333Y-87000000D01*
X119441666Y-87142857D01*
X119441666Y-87928571D01*
X121025000Y-87928571D02*
X121025000Y-87142857D01*
X120941666Y-87000000D01*
X120775000Y-86928571D01*
X120441666Y-86928571D01*
X120275000Y-87000000D01*
X121025000Y-87857142D02*
X120858333Y-87928571D01*
X120441666Y-87928571D01*
X120275000Y-87857142D01*
X120191666Y-87714285D01*
X120191666Y-87571428D01*
X120275000Y-87428571D01*
X120441666Y-87357142D01*
X120858333Y-87357142D01*
X121025000Y-87285714D01*
X122108333Y-87928571D02*
X121941666Y-87857142D01*
X121858333Y-87714285D01*
X121858333Y-86428571D01*
X124691666Y-87142857D02*
X124108333Y-87142857D01*
X124108333Y-87928571D02*
X124108333Y-86428571D01*
X124941666Y-86428571D01*
X126358333Y-86928571D02*
X126358333Y-87928571D01*
X125608333Y-86928571D02*
X125608333Y-87714285D01*
X125691666Y-87857142D01*
X125858333Y-87928571D01*
X126108333Y-87928571D01*
X126275000Y-87857142D01*
X126358333Y-87785714D01*
X127108333Y-87857142D02*
X127275000Y-87928571D01*
X127608333Y-87928571D01*
X127775000Y-87857142D01*
X127858333Y-87714285D01*
X127858333Y-87642857D01*
X127775000Y-87500000D01*
X127608333Y-87428571D01*
X127358333Y-87428571D01*
X127191666Y-87357142D01*
X127108333Y-87214285D01*
X127108333Y-87142857D01*
X127191666Y-87000000D01*
X127358333Y-86928571D01*
X127608333Y-86928571D01*
X127775000Y-87000000D01*
X129275000Y-87857142D02*
X129108333Y-87928571D01*
X128775000Y-87928571D01*
X128608333Y-87857142D01*
X128525000Y-87714285D01*
X128525000Y-87142857D01*
X128608333Y-87000000D01*
X128775000Y-86928571D01*
X129108333Y-86928571D01*
X129275000Y-87000000D01*
X129358333Y-87142857D01*
X129358333Y-87285714D01*
X128525000Y-87428571D01*
X130025000Y-87857142D02*
X130191666Y-87928571D01*
X130525000Y-87928571D01*
X130691666Y-87857142D01*
X130775000Y-87714285D01*
X130775000Y-87642857D01*
X130691666Y-87500000D01*
X130525000Y-87428571D01*
X130275000Y-87428571D01*
X130108333Y-87357142D01*
X130025000Y-87214285D01*
X130025000Y-87142857D01*
X130108333Y-87000000D01*
X130275000Y-86928571D01*
X130525000Y-86928571D01*
X130691666Y-87000000D01*
X108941666Y-92828571D02*
X107941666Y-92828571D01*
X108441666Y-92828571D02*
X108441666Y-91328571D01*
X108275000Y-91542857D01*
X108108333Y-91685714D01*
X107941666Y-91757142D01*
X110025000Y-91328571D02*
X110191666Y-91328571D01*
X110358333Y-91400000D01*
X110441666Y-91471428D01*
X110525000Y-91614285D01*
X110608333Y-91900000D01*
X110608333Y-92257142D01*
X110525000Y-92542857D01*
X110441666Y-92685714D01*
X110358333Y-92757142D01*
X110191666Y-92828571D01*
X110025000Y-92828571D01*
X109858333Y-92757142D01*
X109775000Y-92685714D01*
X109691666Y-92542857D01*
X109608333Y-92257142D01*
X109608333Y-91900000D01*
X109691666Y-91614285D01*
X109775000Y-91471428D01*
X109858333Y-91400000D01*
X110025000Y-91328571D01*
X112108333Y-92828571D02*
X112108333Y-92042857D01*
X112025000Y-91900000D01*
X111858333Y-91828571D01*
X111525000Y-91828571D01*
X111358333Y-91900000D01*
X112108333Y-92757142D02*
X111941666Y-92828571D01*
X111525000Y-92828571D01*
X111358333Y-92757142D01*
X111275000Y-92614285D01*
X111275000Y-92471428D01*
X111358333Y-92328571D01*
X111525000Y-92257142D01*
X111941666Y-92257142D01*
X112108333Y-92185714D01*
X112775000Y-91828571D02*
X113108333Y-92828571D01*
X113441666Y-92114285D01*
X113775000Y-92828571D01*
X114108333Y-91828571D01*
X115525000Y-91828571D02*
X115525000Y-93042857D01*
X115441666Y-93185714D01*
X115358333Y-93257142D01*
X115191666Y-93328571D01*
X114941666Y-93328571D01*
X114775000Y-93257142D01*
X115525000Y-92757142D02*
X115358333Y-92828571D01*
X115025000Y-92828571D01*
X114858333Y-92757142D01*
X114775000Y-92685714D01*
X114691666Y-92542857D01*
X114691666Y-92114285D01*
X114775000Y-91971428D01*
X114858333Y-91900000D01*
X115025000Y-91828571D01*
X115358333Y-91828571D01*
X115525000Y-91900000D01*
X117691666Y-92828571D02*
X117691666Y-91828571D01*
X117691666Y-91971428D02*
X117775000Y-91900000D01*
X117941666Y-91828571D01*
X118191666Y-91828571D01*
X118358333Y-91900000D01*
X118441666Y-92042857D01*
X118441666Y-92828571D01*
X118441666Y-92042857D02*
X118525000Y-91900000D01*
X118691666Y-91828571D01*
X118941666Y-91828571D01*
X119108333Y-91900000D01*
X119191666Y-92042857D01*
X119191666Y-92828571D01*
X120775000Y-92828571D02*
X120775000Y-92042857D01*
X120691666Y-91900000D01*
X120525000Y-91828571D01*
X120191666Y-91828571D01*
X120025000Y-91900000D01*
X120775000Y-92757142D02*
X120608333Y-92828571D01*
X120191666Y-92828571D01*
X120025000Y-92757142D01*
X119941666Y-92614285D01*
X119941666Y-92471428D01*
X120025000Y-92328571D01*
X120191666Y-92257142D01*
X120608333Y-92257142D01*
X120775000Y-92185714D01*
X121441666Y-92828571D02*
X122358333Y-91828571D01*
X121441666Y-91828571D02*
X122358333Y-92828571D01*
X124191666Y-91828571D02*
X124525000Y-92828571D01*
X124858333Y-92114285D01*
X125191666Y-92828571D01*
X125525000Y-91828571D01*
X126191666Y-92828571D02*
X126191666Y-91828571D01*
X126191666Y-91328571D02*
X126108333Y-91400000D01*
X126191666Y-91471428D01*
X126275000Y-91400000D01*
X126191666Y-91328571D01*
X126191666Y-91471428D01*
X127025000Y-92828571D02*
X127025000Y-91828571D01*
X127025000Y-92114285D02*
X127108333Y-91971428D01*
X127191666Y-91900000D01*
X127358333Y-91828571D01*
X127525000Y-91828571D01*
X128775000Y-92757142D02*
X128608333Y-92828571D01*
X128275000Y-92828571D01*
X128108333Y-92757142D01*
X128025000Y-92614285D01*
X128025000Y-92042857D01*
X128108333Y-91900000D01*
X128275000Y-91828571D01*
X128608333Y-91828571D01*
X128775000Y-91900000D01*
X128858333Y-92042857D01*
X128858333Y-92185714D01*
X128025000Y-92328571D01*
D11*
X96104761Y-82004761D02*
X96580952Y-84004761D01*
X96961904Y-82576190D01*
X97342857Y-84004761D01*
X97819047Y-82004761D01*
X98485714Y-83433333D02*
X99438095Y-83433333D01*
X98295238Y-84004761D02*
X98961904Y-82004761D01*
X99628571Y-84004761D01*
X101438095Y-84004761D02*
X100771428Y-83052380D01*
X100295238Y-84004761D02*
X100295238Y-82004761D01*
X101057142Y-82004761D01*
X101247619Y-82100000D01*
X101342857Y-82195238D01*
X101438095Y-82385714D01*
X101438095Y-82671428D01*
X101342857Y-82861904D01*
X101247619Y-82957142D01*
X101057142Y-83052380D01*
X100295238Y-83052380D01*
X102295238Y-84004761D02*
X102295238Y-82004761D01*
X103438095Y-84004761D01*
X103438095Y-82004761D01*
X104390476Y-84004761D02*
X104390476Y-82004761D01*
X105342857Y-84004761D02*
X105342857Y-82004761D01*
X106485714Y-84004761D01*
X106485714Y-82004761D01*
X108485714Y-82100000D02*
X108295238Y-82004761D01*
X108009523Y-82004761D01*
X107723809Y-82100000D01*
X107533333Y-82290476D01*
X107438095Y-82480952D01*
X107342857Y-82861904D01*
X107342857Y-83147619D01*
X107438095Y-83528571D01*
X107533333Y-83719047D01*
X107723809Y-83909523D01*
X108009523Y-84004761D01*
X108200000Y-84004761D01*
X108485714Y-83909523D01*
X108580952Y-83814285D01*
X108580952Y-83147619D01*
X108200000Y-83147619D01*
X109438095Y-83814285D02*
X109533333Y-83909523D01*
X109438095Y-84004761D01*
X109342857Y-83909523D01*
X109438095Y-83814285D01*
X109438095Y-84004761D01*
X109438095Y-82766666D02*
X109533333Y-82861904D01*
X109438095Y-82957142D01*
X109342857Y-82861904D01*
X109438095Y-82766666D01*
X109438095Y-82957142D01*
X112009523Y-84004761D02*
X112390476Y-84004761D01*
X112580952Y-83909523D01*
X112676190Y-83814285D01*
X112866666Y-83528571D01*
X112961904Y-83147619D01*
X112961904Y-82385714D01*
X112866666Y-82195238D01*
X112771428Y-82100000D01*
X112580952Y-82004761D01*
X112199999Y-82004761D01*
X112009523Y-82100000D01*
X111914285Y-82195238D01*
X111819047Y-82385714D01*
X111819047Y-82861904D01*
X111914285Y-83052380D01*
X112009523Y-83147619D01*
X112199999Y-83242857D01*
X112580952Y-83242857D01*
X112771428Y-83147619D01*
X112866666Y-83052380D01*
X112961904Y-82861904D01*
X114200000Y-82004761D02*
X114390476Y-82004761D01*
X114580952Y-82100000D01*
X114676190Y-82195238D01*
X114771428Y-82385714D01*
X114866666Y-82766666D01*
X114866666Y-83242857D01*
X114771428Y-83623809D01*
X114676190Y-83814285D01*
X114580952Y-83909523D01*
X114390476Y-84004761D01*
X114200000Y-84004761D01*
X114009523Y-83909523D01*
X113914285Y-83814285D01*
X113819047Y-83623809D01*
X113723809Y-83242857D01*
X113723809Y-82766666D01*
X113819047Y-82385714D01*
X113914285Y-82195238D01*
X114009523Y-82100000D01*
X114200000Y-82004761D01*
X116104761Y-82004761D02*
X116295238Y-82004761D01*
X116485714Y-82100000D01*
X116580952Y-82195238D01*
X116676190Y-82385714D01*
X116771428Y-82766666D01*
X116771428Y-83242857D01*
X116676190Y-83623809D01*
X116580952Y-83814285D01*
X116485714Y-83909523D01*
X116295238Y-84004761D01*
X116104761Y-84004761D01*
X115914285Y-83909523D01*
X115819047Y-83814285D01*
X115723809Y-83623809D01*
X115628571Y-83242857D01*
X115628571Y-82766666D01*
X115723809Y-82385714D01*
X115819047Y-82195238D01*
X115914285Y-82100000D01*
X116104761Y-82004761D01*
X117438095Y-82004761D02*
X117914285Y-84004761D01*
X118295238Y-82576190D01*
X118676190Y-84004761D01*
X119152380Y-82004761D01*
X122009523Y-84766666D02*
X121914285Y-84671428D01*
X121723809Y-84385714D01*
X121628571Y-84195238D01*
X121533333Y-83909523D01*
X121438095Y-83433333D01*
X121438095Y-83052380D01*
X121533333Y-82576190D01*
X121628571Y-82290476D01*
X121723809Y-82100000D01*
X121914285Y-81814285D01*
X122009523Y-81719047D01*
X122580952Y-82004761D02*
X123914285Y-82004761D01*
X123057142Y-84004761D01*
X125628571Y-82004761D02*
X124676190Y-82004761D01*
X124580952Y-82957142D01*
X124676190Y-82861904D01*
X124866666Y-82766666D01*
X125342857Y-82766666D01*
X125533333Y-82861904D01*
X125628571Y-82957142D01*
X125723809Y-83147619D01*
X125723809Y-83623809D01*
X125628571Y-83814285D01*
X125533333Y-83909523D01*
X125342857Y-84004761D01*
X124866666Y-84004761D01*
X124676190Y-83909523D01*
X124580952Y-83814285D01*
X126485714Y-83433333D02*
X127438095Y-83433333D01*
X126295238Y-84004761D02*
X126961904Y-82004761D01*
X127628571Y-84004761D01*
X128104761Y-84766666D02*
X128199999Y-84671428D01*
X128390476Y-84385714D01*
X128485714Y-84195238D01*
X128580952Y-83909523D01*
X128676190Y-83433333D01*
X128676190Y-83052380D01*
X128580952Y-82576190D01*
X128485714Y-82290476D01*
X128390476Y-82100000D01*
X128199999Y-81814285D01*
X128104761Y-81719047D01*
X131152380Y-84004761D02*
X131152380Y-82004761D01*
X131819047Y-83433333D01*
X132485714Y-82004761D01*
X132485714Y-84004761D01*
X133342857Y-83433333D02*
X134295238Y-83433333D01*
X133152380Y-84004761D02*
X133819047Y-82004761D01*
X134485714Y-84004761D01*
X134961904Y-82004761D02*
X136295238Y-84004761D01*
X136295238Y-82004761D02*
X134961904Y-84004761D01*
D12*
X153683333Y-67783333D02*
X153650000Y-67750000D01*
X153616666Y-67683333D01*
X153616666Y-67516666D01*
X153650000Y-67450000D01*
X153683333Y-67416666D01*
X153750000Y-67383333D01*
X153816666Y-67383333D01*
X153916666Y-67416666D01*
X154316666Y-67816666D01*
X154316666Y-67383333D01*
X154316666Y-66783333D02*
X153950000Y-66783333D01*
X153883333Y-66816666D01*
X153850000Y-66883333D01*
X153850000Y-67016666D01*
X153883333Y-67083333D01*
X154283333Y-66783333D02*
X154316666Y-66850000D01*
X154316666Y-67016666D01*
X154283333Y-67083333D01*
X154216666Y-67116666D01*
X154150000Y-67116666D01*
X154083333Y-67083333D01*
X154050000Y-67016666D01*
X154050000Y-66850000D01*
X154016666Y-66783333D01*
X154316666Y-65916666D02*
X153616666Y-65916666D01*
X154116666Y-65683333D01*
X153616666Y-65450000D01*
X154316666Y-65450000D01*
X154316666Y-64816666D02*
X153950000Y-64816666D01*
X153883333Y-64850000D01*
X153850000Y-64916666D01*
X153850000Y-65050000D01*
X153883333Y-65116666D01*
X154283333Y-64816666D02*
X154316666Y-64883333D01*
X154316666Y-65050000D01*
X154283333Y-65116666D01*
X154216666Y-65150000D01*
X154150000Y-65150000D01*
X154083333Y-65116666D01*
X154050000Y-65050000D01*
X154050000Y-64883333D01*
X154016666Y-64816666D01*
X154316666Y-64550000D02*
X153850000Y-64183333D01*
X153850000Y-64550000D02*
X154316666Y-64183333D01*
D13*
X142000000Y-77000000D02*
X142000000Y-60000000D01*
X116000000Y-77000000D02*
X142000000Y-77000000D01*
X116000000Y-77000000D02*
X90000000Y-77000000D01*
X116000000Y-61000000D02*
X116000000Y-77000000D01*
D14*
X129082990Y-73777600D02*
X128892514Y-73682361D01*
X128606800Y-73682361D01*
X128321085Y-73777600D01*
X128130609Y-73968076D01*
X128035371Y-74158552D01*
X127940133Y-74539504D01*
X127940133Y-74825219D01*
X128035371Y-75206171D01*
X128130609Y-75396647D01*
X128321085Y-75587123D01*
X128606800Y-75682361D01*
X128797276Y-75682361D01*
X129082990Y-75587123D01*
X129178228Y-75491885D01*
X129178228Y-74825219D01*
X128797276Y-74825219D01*
X130035371Y-75682361D02*
X130035371Y-73682361D01*
X131178228Y-75682361D01*
X131178228Y-73682361D01*
X132130609Y-75682361D02*
X132130609Y-73682361D01*
X132606800Y-73682361D01*
X132892514Y-73777600D01*
X133082990Y-73968076D01*
X133178228Y-74158552D01*
X133273466Y-74539504D01*
X133273466Y-74825219D01*
X133178228Y-75206171D01*
X133082990Y-75396647D01*
X132892514Y-75587123D01*
X132606800Y-75682361D01*
X132130609Y-75682361D01*
X97771390Y-75225257D02*
X99295200Y-75225257D01*
X98533295Y-75987161D02*
X98533295Y-74463352D01*
X101295200Y-75987161D02*
X100152342Y-75987161D01*
X100723771Y-75987161D02*
X100723771Y-73987161D01*
X100533295Y-74272876D01*
X100342819Y-74463352D01*
X100152342Y-74558590D01*
X102057104Y-74177638D02*
X102152342Y-74082400D01*
X102342819Y-73987161D01*
X102819009Y-73987161D01*
X103009485Y-74082400D01*
X103104723Y-74177638D01*
X103199961Y-74368114D01*
X103199961Y-74558590D01*
X103104723Y-74844304D01*
X101961866Y-75987161D01*
X103199961Y-75987161D01*
X103771390Y-73987161D02*
X104438057Y-75987161D01*
X105104723Y-73987161D01*
D15*
%TO.C,J1*%
X90576400Y-95147000D02*
X175666400Y-95147000D01*
D13*
X175666400Y-95147000D02*
X175666400Y-104497000D01*
D15*
X175666400Y-104497000D02*
X90576400Y-104497000D01*
D10*
X90101400Y-102452000D02*
G75*
G03*
X90101400Y-102452000I-100000J0D01*
G01*
D15*
X90576400Y-95147000D02*
X90576400Y-104497000D01*
X175666400Y-96797000D02*
X175666400Y-102847000D01*
D16*
%TO.C,J2*%
X90400000Y-72000000D02*
X90400000Y-59780000D01*
X141770000Y-72000000D02*
X141770000Y-59780000D01*
X141770000Y-59780000D02*
X90400000Y-59780000D01*
X90400000Y-72000000D02*
X141770000Y-72000000D01*
%TO.C,U2*%
X179696500Y-74176000D02*
X179696500Y-73566000D01*
X179696500Y-74176000D02*
X187316500Y-74176000D01*
X163076500Y-74176000D02*
X163696500Y-74176000D01*
X163076500Y-76296000D02*
X163076500Y-74176000D01*
X163076500Y-90416000D02*
X163076500Y-88296000D01*
X163696500Y-90416000D02*
X163076500Y-90416000D01*
X187316500Y-90416000D02*
X179696500Y-90416000D01*
X187316500Y-74176000D02*
X187316500Y-90416000D01*
%TO.C,C1*%
X158800748Y-75268500D02*
X160223252Y-75268500D01*
X158800748Y-73448500D02*
X160223252Y-73448500D01*
%TO.C,C2*%
X158800748Y-75861500D02*
X160223252Y-75861500D01*
X158800748Y-77681500D02*
X160223252Y-77681500D01*
%TO.C,CaseFan1*%
X143510000Y-72009000D02*
X143510000Y-70739000D01*
X144780000Y-72009000D02*
X143510000Y-72009000D01*
X150240000Y-69696071D02*
X150240000Y-69299000D01*
X149480000Y-69696071D02*
X149480000Y-69299000D01*
X150240000Y-60639000D02*
X150240000Y-66639000D01*
X149480000Y-60639000D02*
X150240000Y-60639000D01*
X149480000Y-66639000D02*
X149480000Y-60639000D01*
X148590000Y-69299000D02*
X148590000Y-66639000D01*
X147700000Y-69696071D02*
X147700000Y-69299000D01*
X146940000Y-69696071D02*
X146940000Y-69299000D01*
X147700000Y-60639000D02*
X147700000Y-66639000D01*
X146940000Y-60639000D02*
X147700000Y-60639000D01*
X146940000Y-66639000D02*
X146940000Y-60639000D01*
X146050000Y-69299000D02*
X146050000Y-66639000D01*
X145160000Y-69629000D02*
X145160000Y-69299000D01*
X144400000Y-69629000D02*
X144400000Y-69299000D01*
X145060000Y-66639000D02*
X145060000Y-60639000D01*
X144940000Y-66639000D02*
X144940000Y-60639000D01*
X144820000Y-66639000D02*
X144820000Y-60639000D01*
X144700000Y-66639000D02*
X144700000Y-60639000D01*
X144580000Y-66639000D02*
X144580000Y-60639000D01*
X144460000Y-66639000D02*
X144460000Y-60639000D01*
X145160000Y-60639000D02*
X145160000Y-66639000D01*
X144400000Y-60639000D02*
X145160000Y-60639000D01*
X144400000Y-66639000D02*
X144400000Y-60639000D01*
X143450000Y-66639000D02*
X143450000Y-69299000D01*
X151190000Y-66639000D02*
X143450000Y-66639000D01*
X151190000Y-69299000D02*
X151190000Y-66639000D01*
X143450000Y-69299000D02*
X151190000Y-69299000D01*
%TO.C,J3*%
X176830000Y-94183200D02*
X178100000Y-94183200D01*
X176830000Y-95453200D02*
X176830000Y-94183200D01*
X179142929Y-103453200D02*
X179540000Y-103453200D01*
X179142929Y-102693200D02*
X179540000Y-102693200D01*
X188200000Y-103453200D02*
X182200000Y-103453200D01*
X188200000Y-102693200D02*
X188200000Y-103453200D01*
X182200000Y-102693200D02*
X188200000Y-102693200D01*
X179540000Y-101803200D02*
X182200000Y-101803200D01*
X179142929Y-100913200D02*
X179540000Y-100913200D01*
X179142929Y-100153200D02*
X179540000Y-100153200D01*
X188200000Y-100913200D02*
X182200000Y-100913200D01*
X188200000Y-100153200D02*
X188200000Y-100913200D01*
X182200000Y-100153200D02*
X188200000Y-100153200D01*
X179540000Y-99263200D02*
X182200000Y-99263200D01*
X179142929Y-98373200D02*
X179540000Y-98373200D01*
X179142929Y-97613200D02*
X179540000Y-97613200D01*
X188200000Y-98373200D02*
X182200000Y-98373200D01*
X188200000Y-97613200D02*
X188200000Y-98373200D01*
X182200000Y-97613200D02*
X188200000Y-97613200D01*
X179540000Y-96723200D02*
X182200000Y-96723200D01*
X179210000Y-95833200D02*
X179540000Y-95833200D01*
X179210000Y-95073200D02*
X179540000Y-95073200D01*
X182200000Y-95733200D02*
X188200000Y-95733200D01*
X182200000Y-95613200D02*
X188200000Y-95613200D01*
X182200000Y-95493200D02*
X188200000Y-95493200D01*
X182200000Y-95373200D02*
X188200000Y-95373200D01*
X182200000Y-95253200D02*
X188200000Y-95253200D01*
X182200000Y-95133200D02*
X188200000Y-95133200D01*
X188200000Y-95833200D02*
X182200000Y-95833200D01*
X188200000Y-95073200D02*
X188200000Y-95833200D01*
X182200000Y-95073200D02*
X188200000Y-95073200D01*
X182200000Y-94123200D02*
X179540000Y-94123200D01*
X182200000Y-104403200D02*
X182200000Y-94123200D01*
X179540000Y-104403200D02*
X182200000Y-104403200D01*
X179540000Y-94123200D02*
X179540000Y-104403200D01*
%TO.C,J4*%
X179190000Y-70100000D02*
X179190000Y-71210000D01*
X179190000Y-71210000D02*
X177860000Y-71210000D01*
X179190000Y-60010000D02*
X163830000Y-60010000D01*
X163830000Y-60010000D02*
X163830000Y-68640000D01*
X179190000Y-68640000D02*
X163830000Y-68640000D01*
X179190000Y-60010000D02*
X179190000Y-68640000D01*
X166430000Y-60010000D02*
X166430000Y-68640000D01*
X168970000Y-60010000D02*
X168970000Y-68640000D01*
X171510000Y-60010000D02*
X171510000Y-68640000D01*
X174050000Y-60010000D02*
X174050000Y-68640000D01*
X176590000Y-60010000D02*
X176590000Y-68640000D01*
X164800000Y-68640000D02*
X164800000Y-69050000D01*
X165520000Y-68640000D02*
X165520000Y-69050000D01*
X167340000Y-68640000D02*
X167340000Y-69050000D01*
X168060000Y-68640000D02*
X168060000Y-69050000D01*
X169880000Y-68640000D02*
X169880000Y-69050000D01*
X170600000Y-68640000D02*
X170600000Y-69050000D01*
X172420000Y-68640000D02*
X172420000Y-69050000D01*
X173140000Y-68640000D02*
X173140000Y-69050000D01*
X174960000Y-68640000D02*
X174960000Y-69050000D01*
X175680000Y-68640000D02*
X175680000Y-69050000D01*
X177500000Y-68640000D02*
X177500000Y-68990000D01*
X178220000Y-68640000D02*
X178220000Y-68990000D01*
X176708100Y-60010000D02*
X176708100Y-68640000D01*
X176826195Y-60010000D02*
X176826195Y-68640000D01*
X176944290Y-60010000D02*
X176944290Y-68640000D01*
X177062385Y-60010000D02*
X177062385Y-68640000D01*
X177180480Y-60010000D02*
X177180480Y-68640000D01*
X177298575Y-60010000D02*
X177298575Y-68640000D01*
X177416670Y-60010000D02*
X177416670Y-68640000D01*
X177534765Y-60010000D02*
X177534765Y-68640000D01*
X177652860Y-60010000D02*
X177652860Y-68640000D01*
X177770955Y-60010000D02*
X177770955Y-68640000D01*
X177889050Y-60010000D02*
X177889050Y-68640000D01*
X178007145Y-60010000D02*
X178007145Y-68640000D01*
X178125240Y-60010000D02*
X178125240Y-68640000D01*
X178243335Y-60010000D02*
X178243335Y-68640000D01*
X178361430Y-60010000D02*
X178361430Y-68640000D01*
X178479525Y-60010000D02*
X178479525Y-68640000D01*
X178597620Y-60010000D02*
X178597620Y-68640000D01*
X178715715Y-60010000D02*
X178715715Y-68640000D01*
X178833810Y-60010000D02*
X178833810Y-68640000D01*
X178951905Y-60010000D02*
X178951905Y-68640000D01*
X179070000Y-60010000D02*
X179070000Y-68640000D01*
%TO.C,Q1*%
X160518000Y-66261200D02*
X159588000Y-66261200D01*
X157358000Y-66261200D02*
X158288000Y-66261200D01*
X157358000Y-66261200D02*
X157358000Y-68421200D01*
X160518000Y-66261200D02*
X160518000Y-67721200D01*
%TO.C,Q2*%
X157347800Y-71346600D02*
X157347800Y-69886600D01*
X160507800Y-71346600D02*
X160507800Y-69186600D01*
X160507800Y-71346600D02*
X159577800Y-71346600D01*
X157347800Y-71346600D02*
X158277800Y-71346600D01*
%TO.C,R3*%
X161694864Y-92365000D02*
X161240736Y-92365000D01*
X161694864Y-93835000D02*
X161240736Y-93835000D01*
%TO.C,R10*%
X165936664Y-92465000D02*
X165482536Y-92465000D01*
X165936664Y-93935000D02*
X165482536Y-93935000D01*
%TO.C,R11*%
X161088400Y-69061064D02*
X161088400Y-68606936D01*
X162558400Y-69061064D02*
X162558400Y-68606936D01*
%TO.C,R12*%
X155221000Y-69334136D02*
X155221000Y-69788264D01*
X156691000Y-69334136D02*
X156691000Y-69788264D01*
%TO.C,SW1*%
X156750000Y-89000000D02*
X156750000Y-89300000D01*
X156750000Y-89300000D02*
X160050000Y-89300000D01*
X160050000Y-89300000D02*
X160050000Y-89000000D01*
X156750000Y-86800000D02*
X156750000Y-86500000D01*
X156750000Y-86500000D02*
X160050000Y-86500000D01*
X160050000Y-86500000D02*
X160050000Y-86800000D01*
%TO.C,SW2*%
X156850000Y-83800000D02*
X156850000Y-83500000D01*
X160150000Y-83800000D02*
X156850000Y-83800000D01*
X160150000Y-83500000D02*
X160150000Y-83800000D01*
X156850000Y-81000000D02*
X156850000Y-81300000D01*
X160150000Y-81000000D02*
X156850000Y-81000000D01*
X160150000Y-81300000D02*
X160150000Y-81000000D01*
%TO.C,U1*%
X154647000Y-87621000D02*
X146797000Y-87621000D01*
X146797000Y-87621000D02*
X146797000Y-75681000D01*
X146797000Y-75681000D02*
X154647000Y-75681000D01*
X154647000Y-75681000D02*
X154647000Y-87621000D01*
X152527000Y-87951000D02*
X154977000Y-87951000D01*
X154977000Y-87951000D02*
X154977000Y-85621000D01*
%TO.C,J1*%
D17*
X94220484Y-93019324D02*
X94220484Y-93476857D01*
X94189982Y-93568364D01*
X94128978Y-93629368D01*
X94037471Y-93659870D01*
X93976467Y-93659870D01*
X94861030Y-93659870D02*
X94495004Y-93659870D01*
X94678017Y-93659870D02*
X94678017Y-93019324D01*
X94617013Y-93110831D01*
X94556008Y-93171835D01*
X94495004Y-93202337D01*
X92374186Y-106545541D02*
X92008449Y-106545541D01*
X92191318Y-106545541D02*
X92191318Y-105905501D01*
X92130361Y-105996936D01*
X92069405Y-106057892D01*
X92008449Y-106088370D01*
X92587533Y-105905501D02*
X93014226Y-105905501D01*
X92739923Y-106545541D01*
X93532354Y-105905501D02*
X93410441Y-105905501D01*
X93349485Y-105935980D01*
X93319007Y-105966458D01*
X93258051Y-106057892D01*
X93227573Y-106179804D01*
X93227573Y-106423629D01*
X93258051Y-106484585D01*
X93288529Y-106515063D01*
X93349485Y-106545541D01*
X93471398Y-106545541D01*
X93532354Y-106515063D01*
X93562832Y-106484585D01*
X93593310Y-106423629D01*
X93593310Y-106271239D01*
X93562832Y-106210282D01*
X93532354Y-106179804D01*
X93471398Y-106149326D01*
X93349485Y-106149326D01*
X93288529Y-106179804D01*
X93258051Y-106210282D01*
X93227573Y-106271239D01*
X94202872Y-106545541D02*
X93837135Y-106545541D01*
X94020003Y-106545541D02*
X94020003Y-105905501D01*
X93959047Y-105996936D01*
X93898091Y-106057892D01*
X93837135Y-106088370D01*
X94751478Y-106118848D02*
X94751478Y-106545541D01*
X94599087Y-105875023D02*
X94446697Y-106332195D01*
X94842912Y-106332195D01*
X95361040Y-105905501D02*
X95239127Y-105905501D01*
X95178171Y-105935980D01*
X95147693Y-105966458D01*
X95086737Y-106057892D01*
X95056259Y-106179804D01*
X95056259Y-106423629D01*
X95086737Y-106484585D01*
X95117215Y-106515063D01*
X95178171Y-106545541D01*
X95300083Y-106545541D01*
X95361040Y-106515063D01*
X95391518Y-106484585D01*
X95421996Y-106423629D01*
X95421996Y-106271239D01*
X95391518Y-106210282D01*
X95361040Y-106179804D01*
X95300083Y-106149326D01*
X95178171Y-106149326D01*
X95117215Y-106179804D01*
X95086737Y-106210282D01*
X95056259Y-106271239D01*
X95726777Y-106545541D02*
X95848689Y-106545541D01*
X95909645Y-106515063D01*
X95940123Y-106484585D01*
X96001080Y-106393151D01*
X96031558Y-106271239D01*
X96031558Y-106027414D01*
X96001080Y-105966458D01*
X95970601Y-105935980D01*
X95909645Y-105905501D01*
X95787733Y-105905501D01*
X95726777Y-105935980D01*
X95696299Y-105966458D01*
X95665820Y-106027414D01*
X95665820Y-106179804D01*
X95696299Y-106240760D01*
X95726777Y-106271239D01*
X95787733Y-106301717D01*
X95909645Y-106301717D01*
X95970601Y-106271239D01*
X96001080Y-106240760D01*
X96031558Y-106179804D01*
X96305860Y-106301717D02*
X96793510Y-106301717D01*
X97433550Y-106545541D02*
X97067813Y-106545541D01*
X97250681Y-106545541D02*
X97250681Y-105905501D01*
X97189725Y-105996936D01*
X97128769Y-106057892D01*
X97067813Y-106088370D01*
%TO.C,J2*%
D13*
X138066666Y-61252380D02*
X138066666Y-61966666D01*
X138019047Y-62109523D01*
X137923809Y-62204761D01*
X137780952Y-62252380D01*
X137685714Y-62252380D01*
X138495238Y-61347619D02*
X138542857Y-61300000D01*
X138638095Y-61252380D01*
X138876190Y-61252380D01*
X138971428Y-61300000D01*
X139019047Y-61347619D01*
X139066666Y-61442857D01*
X139066666Y-61538095D01*
X139019047Y-61680952D01*
X138447619Y-62252380D01*
X139066666Y-62252380D01*
%TO.C,U2*%
X169418095Y-83627980D02*
X169418095Y-84437504D01*
X169465714Y-84532742D01*
X169513333Y-84580361D01*
X169608571Y-84627980D01*
X169799047Y-84627980D01*
X169894285Y-84580361D01*
X169941904Y-84532742D01*
X169989523Y-84437504D01*
X169989523Y-83627980D01*
X170418095Y-83723219D02*
X170465714Y-83675600D01*
X170560952Y-83627980D01*
X170799047Y-83627980D01*
X170894285Y-83675600D01*
X170941904Y-83723219D01*
X170989523Y-83818457D01*
X170989523Y-83913695D01*
X170941904Y-84056552D01*
X170370476Y-84627980D01*
X170989523Y-84627980D01*
%TO.C,C1*%
X155598833Y-74652142D02*
X155551214Y-74699761D01*
X155408357Y-74747380D01*
X155313119Y-74747380D01*
X155170261Y-74699761D01*
X155075023Y-74604523D01*
X155027404Y-74509285D01*
X154979785Y-74318809D01*
X154979785Y-74175952D01*
X155027404Y-73985476D01*
X155075023Y-73890238D01*
X155170261Y-73795000D01*
X155313119Y-73747380D01*
X155408357Y-73747380D01*
X155551214Y-73795000D01*
X155598833Y-73842619D01*
X156551214Y-74747380D02*
X155979785Y-74747380D01*
X156265500Y-74747380D02*
X156265500Y-73747380D01*
X156170261Y-73890238D01*
X156075023Y-73985476D01*
X155979785Y-74033095D01*
%TO.C,C2*%
X155738533Y-77877942D02*
X155690914Y-77925561D01*
X155548057Y-77973180D01*
X155452819Y-77973180D01*
X155309961Y-77925561D01*
X155214723Y-77830323D01*
X155167104Y-77735085D01*
X155119485Y-77544609D01*
X155119485Y-77401752D01*
X155167104Y-77211276D01*
X155214723Y-77116038D01*
X155309961Y-77020800D01*
X155452819Y-76973180D01*
X155548057Y-76973180D01*
X155690914Y-77020800D01*
X155738533Y-77068419D01*
X156119485Y-77068419D02*
X156167104Y-77020800D01*
X156262342Y-76973180D01*
X156500438Y-76973180D01*
X156595676Y-77020800D01*
X156643295Y-77068419D01*
X156690914Y-77163657D01*
X156690914Y-77258895D01*
X156643295Y-77401752D01*
X156071866Y-77973180D01*
X156690914Y-77973180D01*
%TO.C,CaseFan1*%
X153112742Y-68673314D02*
X153160361Y-68720933D01*
X153207980Y-68863790D01*
X153207980Y-68959028D01*
X153160361Y-69101885D01*
X153065123Y-69197123D01*
X152969885Y-69244742D01*
X152779409Y-69292361D01*
X152636552Y-69292361D01*
X152446076Y-69244742D01*
X152350838Y-69197123D01*
X152255600Y-69101885D01*
X152207980Y-68959028D01*
X152207980Y-68863790D01*
X152255600Y-68720933D01*
X152303219Y-68673314D01*
X153207980Y-67816171D02*
X152684171Y-67816171D01*
X152588933Y-67863790D01*
X152541314Y-67959028D01*
X152541314Y-68149504D01*
X152588933Y-68244742D01*
X153160361Y-67816171D02*
X153207980Y-67911409D01*
X153207980Y-68149504D01*
X153160361Y-68244742D01*
X153065123Y-68292361D01*
X152969885Y-68292361D01*
X152874647Y-68244742D01*
X152827028Y-68149504D01*
X152827028Y-67911409D01*
X152779409Y-67816171D01*
X153160361Y-67387600D02*
X153207980Y-67292361D01*
X153207980Y-67101885D01*
X153160361Y-67006647D01*
X153065123Y-66959028D01*
X153017504Y-66959028D01*
X152922266Y-67006647D01*
X152874647Y-67101885D01*
X152874647Y-67244742D01*
X152827028Y-67339980D01*
X152731790Y-67387600D01*
X152684171Y-67387600D01*
X152588933Y-67339980D01*
X152541314Y-67244742D01*
X152541314Y-67101885D01*
X152588933Y-67006647D01*
X153160361Y-66149504D02*
X153207980Y-66244742D01*
X153207980Y-66435219D01*
X153160361Y-66530457D01*
X153065123Y-66578076D01*
X152684171Y-66578076D01*
X152588933Y-66530457D01*
X152541314Y-66435219D01*
X152541314Y-66244742D01*
X152588933Y-66149504D01*
X152684171Y-66101885D01*
X152779409Y-66101885D01*
X152874647Y-66578076D01*
X152684171Y-65339980D02*
X152684171Y-65673314D01*
X153207980Y-65673314D02*
X152207980Y-65673314D01*
X152207980Y-65197123D01*
X153207980Y-64387600D02*
X152684171Y-64387600D01*
X152588933Y-64435219D01*
X152541314Y-64530457D01*
X152541314Y-64720933D01*
X152588933Y-64816171D01*
X153160361Y-64387600D02*
X153207980Y-64482838D01*
X153207980Y-64720933D01*
X153160361Y-64816171D01*
X153065123Y-64863790D01*
X152969885Y-64863790D01*
X152874647Y-64816171D01*
X152827028Y-64720933D01*
X152827028Y-64482838D01*
X152779409Y-64387600D01*
X152541314Y-63911409D02*
X153207980Y-63911409D01*
X152636552Y-63911409D02*
X152588933Y-63863790D01*
X152541314Y-63768552D01*
X152541314Y-63625695D01*
X152588933Y-63530457D01*
X152684171Y-63482838D01*
X153207980Y-63482838D01*
X153207980Y-62482838D02*
X153207980Y-63054266D01*
X153207980Y-62768552D02*
X152207980Y-62768552D01*
X152350838Y-62863790D01*
X152446076Y-62959028D01*
X152493695Y-63054266D01*
%TO.C,J3*%
X182151666Y-92635580D02*
X182151666Y-93349866D01*
X182104047Y-93492723D01*
X182008809Y-93587961D01*
X181865952Y-93635580D01*
X181770714Y-93635580D01*
X182532619Y-92635580D02*
X183151666Y-92635580D01*
X182818333Y-93016533D01*
X182961190Y-93016533D01*
X183056428Y-93064152D01*
X183104047Y-93111771D01*
X183151666Y-93207009D01*
X183151666Y-93445104D01*
X183104047Y-93540342D01*
X183056428Y-93587961D01*
X182961190Y-93635580D01*
X182675476Y-93635580D01*
X182580238Y-93587961D01*
X182532619Y-93540342D01*
%TO.C,J4*%
X169787785Y-72330380D02*
X169787785Y-71330380D01*
X170168738Y-71330380D01*
X170263976Y-71378000D01*
X170311595Y-71425619D01*
X170359214Y-71520857D01*
X170359214Y-71663714D01*
X170311595Y-71758952D01*
X170263976Y-71806571D01*
X170168738Y-71854190D01*
X169787785Y-71854190D01*
X171359214Y-72330380D02*
X171025880Y-71854190D01*
X170787785Y-72330380D02*
X170787785Y-71330380D01*
X171168738Y-71330380D01*
X171263976Y-71378000D01*
X171311595Y-71425619D01*
X171359214Y-71520857D01*
X171359214Y-71663714D01*
X171311595Y-71758952D01*
X171263976Y-71806571D01*
X171168738Y-71854190D01*
X170787785Y-71854190D01*
X171978261Y-71330380D02*
X172168738Y-71330380D01*
X172263976Y-71378000D01*
X172359214Y-71473238D01*
X172406833Y-71663714D01*
X172406833Y-71997047D01*
X172359214Y-72187523D01*
X172263976Y-72282761D01*
X172168738Y-72330380D01*
X171978261Y-72330380D01*
X171883023Y-72282761D01*
X171787785Y-72187523D01*
X171740166Y-71997047D01*
X171740166Y-71663714D01*
X171787785Y-71473238D01*
X171883023Y-71378000D01*
X171978261Y-71330380D01*
X173359214Y-71378000D02*
X173263976Y-71330380D01*
X173121119Y-71330380D01*
X172978261Y-71378000D01*
X172883023Y-71473238D01*
X172835404Y-71568476D01*
X172787785Y-71758952D01*
X172787785Y-71901809D01*
X172835404Y-72092285D01*
X172883023Y-72187523D01*
X172978261Y-72282761D01*
X173121119Y-72330380D01*
X173216357Y-72330380D01*
X173359214Y-72282761D01*
X173406833Y-72235142D01*
X173406833Y-71901809D01*
X173216357Y-71901809D01*
%TO.C,Q1*%
X158842761Y-64965319D02*
X158747523Y-64917700D01*
X158652285Y-64822461D01*
X158509428Y-64679604D01*
X158414190Y-64631985D01*
X158318952Y-64631985D01*
X158366571Y-64870080D02*
X158271333Y-64822461D01*
X158176095Y-64727223D01*
X158128476Y-64536747D01*
X158128476Y-64203414D01*
X158176095Y-64012938D01*
X158271333Y-63917700D01*
X158366571Y-63870080D01*
X158557047Y-63870080D01*
X158652285Y-63917700D01*
X158747523Y-64012938D01*
X158795142Y-64203414D01*
X158795142Y-64536747D01*
X158747523Y-64727223D01*
X158652285Y-64822461D01*
X158557047Y-64870080D01*
X158366571Y-64870080D01*
X159747523Y-64870080D02*
X159176095Y-64870080D01*
X159461809Y-64870080D02*
X159461809Y-63870080D01*
X159366571Y-64012938D01*
X159271333Y-64108176D01*
X159176095Y-64155795D01*
%TO.C,Q2*%
X161702761Y-72785219D02*
X161607523Y-72737600D01*
X161512285Y-72642361D01*
X161369428Y-72499504D01*
X161274190Y-72451885D01*
X161178952Y-72451885D01*
X161226571Y-72689980D02*
X161131333Y-72642361D01*
X161036095Y-72547123D01*
X160988476Y-72356647D01*
X160988476Y-72023314D01*
X161036095Y-71832838D01*
X161131333Y-71737600D01*
X161226571Y-71689980D01*
X161417047Y-71689980D01*
X161512285Y-71737600D01*
X161607523Y-71832838D01*
X161655142Y-72023314D01*
X161655142Y-72356647D01*
X161607523Y-72547123D01*
X161512285Y-72642361D01*
X161417047Y-72689980D01*
X161226571Y-72689980D01*
X162036095Y-71785219D02*
X162083714Y-71737600D01*
X162178952Y-71689980D01*
X162417047Y-71689980D01*
X162512285Y-71737600D01*
X162559904Y-71785219D01*
X162607523Y-71880457D01*
X162607523Y-71975695D01*
X162559904Y-72118552D01*
X161988476Y-72689980D01*
X162607523Y-72689980D01*
%TO.C,R3*%
X161301133Y-95202380D02*
X160967800Y-94726190D01*
X160729704Y-95202380D02*
X160729704Y-94202380D01*
X161110657Y-94202380D01*
X161205895Y-94250000D01*
X161253514Y-94297619D01*
X161301133Y-94392857D01*
X161301133Y-94535714D01*
X161253514Y-94630952D01*
X161205895Y-94678571D01*
X161110657Y-94726190D01*
X160729704Y-94726190D01*
X161634466Y-94202380D02*
X162253514Y-94202380D01*
X161920180Y-94583333D01*
X162063038Y-94583333D01*
X162158276Y-94630952D01*
X162205895Y-94678571D01*
X162253514Y-94773809D01*
X162253514Y-95011904D01*
X162205895Y-95107142D01*
X162158276Y-95154761D01*
X162063038Y-95202380D01*
X161777323Y-95202380D01*
X161682085Y-95154761D01*
X161634466Y-95107142D01*
%TO.C,R10*%
X165066742Y-95302380D02*
X164733409Y-94826190D01*
X164495314Y-95302380D02*
X164495314Y-94302380D01*
X164876266Y-94302380D01*
X164971504Y-94350000D01*
X165019123Y-94397619D01*
X165066742Y-94492857D01*
X165066742Y-94635714D01*
X165019123Y-94730952D01*
X164971504Y-94778571D01*
X164876266Y-94826190D01*
X164495314Y-94826190D01*
X166019123Y-95302380D02*
X165447695Y-95302380D01*
X165733409Y-95302380D02*
X165733409Y-94302380D01*
X165638171Y-94445238D01*
X165542933Y-94540476D01*
X165447695Y-94588095D01*
X166638171Y-94302380D02*
X166733409Y-94302380D01*
X166828647Y-94350000D01*
X166876266Y-94397619D01*
X166923885Y-94492857D01*
X166971504Y-94683333D01*
X166971504Y-94921428D01*
X166923885Y-95111904D01*
X166876266Y-95207142D01*
X166828647Y-95254761D01*
X166733409Y-95302380D01*
X166638171Y-95302380D01*
X166542933Y-95254761D01*
X166495314Y-95207142D01*
X166447695Y-95111904D01*
X166400076Y-94921428D01*
X166400076Y-94683333D01*
X166447695Y-94492857D01*
X166495314Y-94397619D01*
X166542933Y-94350000D01*
X166638171Y-94302380D01*
%TO.C,R11*%
X162275780Y-66047857D02*
X161799590Y-66381190D01*
X162275780Y-66619285D02*
X161275780Y-66619285D01*
X161275780Y-66238333D01*
X161323400Y-66143095D01*
X161371019Y-66095476D01*
X161466257Y-66047857D01*
X161609114Y-66047857D01*
X161704352Y-66095476D01*
X161751971Y-66143095D01*
X161799590Y-66238333D01*
X161799590Y-66619285D01*
X162275780Y-65095476D02*
X162275780Y-65666904D01*
X162275780Y-65381190D02*
X161275780Y-65381190D01*
X161418638Y-65476428D01*
X161513876Y-65571666D01*
X161561495Y-65666904D01*
X162275780Y-64143095D02*
X162275780Y-64714523D01*
X162275780Y-64428809D02*
X161275780Y-64428809D01*
X161418638Y-64524047D01*
X161513876Y-64619285D01*
X161561495Y-64714523D01*
%TO.C,R12*%
X156255980Y-66800457D02*
X155779790Y-67133790D01*
X156255980Y-67371885D02*
X155255980Y-67371885D01*
X155255980Y-66990933D01*
X155303600Y-66895695D01*
X155351219Y-66848076D01*
X155446457Y-66800457D01*
X155589314Y-66800457D01*
X155684552Y-66848076D01*
X155732171Y-66895695D01*
X155779790Y-66990933D01*
X155779790Y-67371885D01*
X156255980Y-65848076D02*
X156255980Y-66419504D01*
X156255980Y-66133790D02*
X155255980Y-66133790D01*
X155398838Y-66229028D01*
X155494076Y-66324266D01*
X155541695Y-66419504D01*
X155351219Y-65467123D02*
X155303600Y-65419504D01*
X155255980Y-65324266D01*
X155255980Y-65086171D01*
X155303600Y-64990933D01*
X155351219Y-64943314D01*
X155446457Y-64895695D01*
X155541695Y-64895695D01*
X155684552Y-64943314D01*
X156255980Y-65514742D01*
X156255980Y-64895695D01*
%TO.C,SW1*%
X157161904Y-90852380D02*
X156828571Y-90376190D01*
X156590476Y-90852380D02*
X156590476Y-89852380D01*
X156971428Y-89852380D01*
X157066666Y-89900000D01*
X157114285Y-89947619D01*
X157161904Y-90042857D01*
X157161904Y-90185714D01*
X157114285Y-90280952D01*
X157066666Y-90328571D01*
X156971428Y-90376190D01*
X156590476Y-90376190D01*
X157971428Y-90804761D02*
X157876190Y-90852380D01*
X157685714Y-90852380D01*
X157590476Y-90804761D01*
X157542857Y-90709523D01*
X157542857Y-90328571D01*
X157590476Y-90233333D01*
X157685714Y-90185714D01*
X157876190Y-90185714D01*
X157971428Y-90233333D01*
X158019047Y-90328571D01*
X158019047Y-90423809D01*
X157542857Y-90519047D01*
X158400000Y-90804761D02*
X158495238Y-90852380D01*
X158685714Y-90852380D01*
X158780952Y-90804761D01*
X158828571Y-90709523D01*
X158828571Y-90661904D01*
X158780952Y-90566666D01*
X158685714Y-90519047D01*
X158542857Y-90519047D01*
X158447619Y-90471428D01*
X158400000Y-90376190D01*
X158400000Y-90328571D01*
X158447619Y-90233333D01*
X158542857Y-90185714D01*
X158685714Y-90185714D01*
X158780952Y-90233333D01*
X159638095Y-90804761D02*
X159542857Y-90852380D01*
X159352380Y-90852380D01*
X159257142Y-90804761D01*
X159209523Y-90709523D01*
X159209523Y-90328571D01*
X159257142Y-90233333D01*
X159352380Y-90185714D01*
X159542857Y-90185714D01*
X159638095Y-90233333D01*
X159685714Y-90328571D01*
X159685714Y-90423809D01*
X159209523Y-90519047D01*
X159971428Y-90185714D02*
X160352380Y-90185714D01*
X160114285Y-89852380D02*
X160114285Y-90709523D01*
X160161904Y-90804761D01*
X160257142Y-90852380D01*
X160352380Y-90852380D01*
%TO.C,SW2*%
D12*
X157250000Y-85161904D02*
X157250000Y-84361904D01*
X157516666Y-84361904D01*
X157583333Y-84400000D01*
X157616666Y-84438095D01*
X157650000Y-84514285D01*
X157650000Y-84628571D01*
X157616666Y-84704761D01*
X157583333Y-84742857D01*
X157516666Y-84780952D01*
X157250000Y-84780952D01*
X158350000Y-85161904D02*
X158116666Y-84780952D01*
X157950000Y-85161904D02*
X157950000Y-84361904D01*
X158216666Y-84361904D01*
X158283333Y-84400000D01*
X158316666Y-84438095D01*
X158350000Y-84514285D01*
X158350000Y-84628571D01*
X158316666Y-84704761D01*
X158283333Y-84742857D01*
X158216666Y-84780952D01*
X157950000Y-84780952D01*
X158783333Y-84361904D02*
X158916666Y-84361904D01*
X158983333Y-84400000D01*
X159050000Y-84476190D01*
X159083333Y-84628571D01*
X159083333Y-84895238D01*
X159050000Y-85047619D01*
X158983333Y-85123809D01*
X158916666Y-85161904D01*
X158783333Y-85161904D01*
X158716666Y-85123809D01*
X158650000Y-85047619D01*
X158616666Y-84895238D01*
X158616666Y-84628571D01*
X158650000Y-84476190D01*
X158716666Y-84400000D01*
X158783333Y-84361904D01*
X159750000Y-84400000D02*
X159683333Y-84361904D01*
X159583333Y-84361904D01*
X159483333Y-84400000D01*
X159416666Y-84476190D01*
X159383333Y-84552380D01*
X159350000Y-84704761D01*
X159350000Y-84819047D01*
X159383333Y-84971428D01*
X159416666Y-85047619D01*
X159483333Y-85123809D01*
X159583333Y-85161904D01*
X159650000Y-85161904D01*
X159750000Y-85123809D01*
X159783333Y-85085714D01*
X159783333Y-84819047D01*
X159650000Y-84819047D01*
%TO.C,U1*%
D13*
X145269380Y-86462904D02*
X146078904Y-86462904D01*
X146174142Y-86415285D01*
X146221761Y-86367666D01*
X146269380Y-86272428D01*
X146269380Y-86081952D01*
X146221761Y-85986714D01*
X146174142Y-85939095D01*
X146078904Y-85891476D01*
X145269380Y-85891476D01*
X146269380Y-84891476D02*
X146269380Y-85462904D01*
X146269380Y-85177190D02*
X145269380Y-85177190D01*
X145412238Y-85272428D01*
X145507476Y-85367666D01*
X145555095Y-85462904D01*
%TD*%
M02*
