M48
; DRILL file {KiCad (5.1.12)-1} date 06/07/23 09:52:36
; FORMAT={-:-/ absolute / inch / decimal}
; #@! TF.CreationDate,2023-06-07T09:52:36-07:00
; #@! TF.GenerationSoftware,Kicad,Pcbnew,(5.1.12)-1
; #@! TF.FileFunction,Plated,1,2,PTH
FMAT,2
INCH
T1C0.0157
T2C0.0394
T3C0.0402
T4C0.0512
%
G90
G05
T1
X3.644Y-2.832
X3.6873Y-3.0092
X3.7306Y-3.1863
X3.7739Y-3.3635
X3.8172Y-3.5407
X3.8369Y-2.832
X3.8605Y-3.7178
X3.8802Y-3.0092
X3.9235Y-3.1863
X3.9668Y-3.3635
X4.0101Y-3.5407
X4.0298Y-2.832
X4.0534Y-3.7178
X4.0731Y-3.0092
X4.1164Y-3.1863
X4.1597Y-3.3635
X4.2031Y-3.5407
X4.2227Y-2.832
X4.2464Y-3.7178
X4.266Y-3.0092
X4.3094Y-3.1863
X4.3527Y-3.3635
X4.396Y-3.5407
X4.4157Y-2.832
X4.4393Y-3.7178
X4.459Y-3.0092
X4.5023Y-3.1863
X4.5456Y-3.3635
X4.5889Y-3.5407
X4.6322Y-3.7178
X4.648Y-2.83
X4.6913Y-3.0072
X4.7346Y-3.1843
X4.7818Y-3.5407
X4.8251Y-3.7178
X4.8409Y-2.83
X4.8842Y-3.0072
X4.9275Y-3.1843
X4.9708Y-3.3615
X5.0141Y-3.5387
X5.0338Y-2.83
X5.0574Y-3.7158
X5.0771Y-3.0072
X5.1204Y-3.1843
X5.1637Y-3.3615
X5.2071Y-3.5387
X5.2267Y-2.83
X5.2504Y-3.7158
X5.27Y-3.0072
X5.3134Y-3.1843
X5.3543Y-3.3583
X5.4Y-3.5387
X5.4197Y-2.83
X5.4433Y-3.7158
X5.463Y-3.0072
X5.5063Y-3.1843
X5.5929Y-3.5387
X5.6362Y-3.7158
X5.714Y-2.452
X5.7165Y-3.185
X5.7425Y-3.3615
X5.78Y-3.09
X5.7858Y-3.5387
X5.8291Y-3.7158
X5.85Y-2.874
X5.978Y-2.894
X6.016Y-3.714
X6.09Y-2.436
X6.1339Y-3.0039
X6.236Y-3.722
X6.2441Y-3.2441
X6.2441Y-3.5472
X6.302Y-3.16
X6.325Y-3.081
X6.3268Y-2.5945
X6.376Y-3.922
X6.414Y-3.746
X6.498Y-3.082
X6.5512Y-3.2283
X6.5945Y-3.7441
X6.6416Y-3.5392
X6.7203Y-3.5392
X6.724Y-3.226
X6.752Y-3.108
X6.7579Y-2.4381
X6.8Y-2.994
X6.802Y-3.75
X6.81Y-3.1
X6.828Y-3.416
X6.8701Y-3.2992
X6.88Y-2.9706
X6.892Y-4.006
X6.8957Y-3.3942
X6.939Y-3.1107
X6.9566Y-3.244
X7.0157Y-3.2244
X7.036Y-2.9706
X7.036Y-3.404
T2
X5.7Y-2.785
X5.8Y-2.785
X5.9Y-2.785
X6.005Y-3.115
X6.005Y-3.215
X6.005Y-3.315
X6.5024Y-2.7598
X6.6024Y-2.7598
X6.7024Y-2.7598
X6.8024Y-2.7598
X6.9024Y-2.7598
X7.0024Y-2.7598
X7.0118Y-3.758
X7.0118Y-3.858
X7.0118Y-3.958
X7.0118Y-4.058
T3
X3.691Y-3.8347
X3.691Y-4.0253
X3.791Y-3.8347
X3.791Y-4.0253
X3.891Y-3.8347
X3.891Y-4.0253
X3.991Y-3.8347
X3.991Y-4.0253
X4.091Y-3.8347
X4.091Y-4.0253
X4.191Y-3.8347
X4.191Y-4.0253
X4.291Y-3.8347
X4.291Y-4.0253
X4.391Y-3.8347
X4.391Y-4.0253
X4.491Y-3.8347
X4.491Y-4.0253
X4.591Y-3.8347
X4.591Y-4.0253
X4.691Y-3.8347
X4.691Y-4.0253
X4.791Y-3.8347
X4.791Y-4.0253
X4.891Y-3.8347
X4.891Y-4.0253
X4.991Y-3.8347
X4.991Y-4.0253
X5.091Y-3.8347
X5.091Y-4.0253
X5.191Y-3.8347
X5.191Y-4.0253
X5.291Y-3.8347
X5.291Y-4.0253
X5.391Y-3.8347
X5.391Y-4.0253
X5.491Y-3.8347
X5.491Y-4.0253
X5.591Y-3.8347
X5.591Y-4.0253
X5.691Y-3.8347
X5.691Y-4.0253
X5.791Y-3.8347
X5.791Y-4.0253
X5.891Y-3.8347
X5.891Y-4.0253
X5.991Y-3.8347
X5.991Y-4.0253
X6.091Y-3.8347
X6.091Y-4.0253
X6.191Y-3.8347
X6.191Y-4.0253
X6.291Y-3.8347
X6.291Y-4.0253
X6.391Y-3.8347
X6.391Y-4.0253
X6.491Y-3.8347
X6.491Y-4.0253
X6.591Y-3.8347
X6.591Y-4.0253
X6.691Y-3.8347
X6.691Y-4.0253
X6.791Y-3.8347
X6.791Y-4.0253
T4
X3.7067Y-2.6535
X3.9567Y-2.6535
X4.2067Y-2.6535
X4.4567Y-2.6535
X4.7067Y-2.6535
X4.9567Y-2.6535
X5.2067Y-2.6535
X5.4567Y-2.6535
T0
M30
