%TF.GenerationSoftware,KiCad,Pcbnew,(5.1.12)-1*%
%TF.CreationDate,2023-06-07T09:52:28-07:00*%
%TF.ProjectId,hp breakout remote relay,68702062-7265-4616-9b6f-75742072656d,rev?*%
%TF.SameCoordinates,Original*%
%TF.FileFunction,Paste,Top*%
%TF.FilePolarity,Positive*%
%FSLAX46Y46*%
G04 Gerber Fmt 4.6, Leading zero omitted, Abs format (unit mm)*
G04 Created by KiCad (PCBNEW (5.1.12)-1) date 2023-06-07 09:52:28*
%MOMM*%
%LPD*%
G01*
G04 APERTURE LIST*
%ADD10R,1.000000X2.500000*%
%ADD11R,1.800000X1.000000*%
%ADD12R,0.800000X0.900000*%
%ADD13R,0.900000X1.700000*%
G04 APERTURE END LIST*
D10*
%TO.C,U2*%
X178696500Y-74696000D03*
X176696500Y-74696000D03*
X174696500Y-74696000D03*
X172696500Y-74696000D03*
X170696500Y-74696000D03*
X168696500Y-74696000D03*
X166696500Y-74696000D03*
X164696500Y-74696000D03*
D11*
X163196500Y-77296000D03*
X163196500Y-79296000D03*
X163196500Y-81296000D03*
X163196500Y-83296000D03*
X163196500Y-85296000D03*
X163196500Y-87296000D03*
D10*
X164696500Y-89896000D03*
X166696500Y-89896000D03*
X168696500Y-89896000D03*
X170696500Y-89896000D03*
X172696500Y-89896000D03*
X174696500Y-89896000D03*
X176696500Y-89896000D03*
X178696500Y-89896000D03*
%TD*%
%TO.C,C1*%
G36*
G01*
X157287000Y-75008501D02*
X157287000Y-73708499D01*
G75*
G02*
X157536999Y-73458500I249999J0D01*
G01*
X158362001Y-73458500D01*
G75*
G02*
X158612000Y-73708499I0J-249999D01*
G01*
X158612000Y-75008501D01*
G75*
G02*
X158362001Y-75258500I-249999J0D01*
G01*
X157536999Y-75258500D01*
G75*
G02*
X157287000Y-75008501I0J249999D01*
G01*
G37*
G36*
G01*
X160412000Y-75008501D02*
X160412000Y-73708499D01*
G75*
G02*
X160661999Y-73458500I249999J0D01*
G01*
X161487001Y-73458500D01*
G75*
G02*
X161737000Y-73708499I0J-249999D01*
G01*
X161737000Y-75008501D01*
G75*
G02*
X161487001Y-75258500I-249999J0D01*
G01*
X160661999Y-75258500D01*
G75*
G02*
X160412000Y-75008501I0J249999D01*
G01*
G37*
%TD*%
%TO.C,C2*%
G36*
G01*
X160412000Y-77421501D02*
X160412000Y-76121499D01*
G75*
G02*
X160661999Y-75871500I249999J0D01*
G01*
X161487001Y-75871500D01*
G75*
G02*
X161737000Y-76121499I0J-249999D01*
G01*
X161737000Y-77421501D01*
G75*
G02*
X161487001Y-77671500I-249999J0D01*
G01*
X160661999Y-77671500D01*
G75*
G02*
X160412000Y-77421501I0J249999D01*
G01*
G37*
G36*
G01*
X157287000Y-77421501D02*
X157287000Y-76121499D01*
G75*
G02*
X157536999Y-75871500I249999J0D01*
G01*
X158362001Y-75871500D01*
G75*
G02*
X158612000Y-76121499I0J-249999D01*
G01*
X158612000Y-77421501D01*
G75*
G02*
X158362001Y-77671500I-249999J0D01*
G01*
X157536999Y-77671500D01*
G75*
G02*
X157287000Y-77421501I0J249999D01*
G01*
G37*
%TD*%
D12*
%TO.C,Q1*%
X158938000Y-66021200D03*
X159888000Y-68021200D03*
X157988000Y-68021200D03*
%TD*%
%TO.C,Q2*%
X159877800Y-69586600D03*
X157977800Y-69586600D03*
X158927800Y-71586600D03*
%TD*%
%TO.C,R3*%
G36*
G01*
X163067800Y-92649999D02*
X163067800Y-93550001D01*
G75*
G02*
X162817801Y-93800000I-249999J0D01*
G01*
X162117799Y-93800000D01*
G75*
G02*
X161867800Y-93550001I0J249999D01*
G01*
X161867800Y-92649999D01*
G75*
G02*
X162117799Y-92400000I249999J0D01*
G01*
X162817801Y-92400000D01*
G75*
G02*
X163067800Y-92649999I0J-249999D01*
G01*
G37*
G36*
G01*
X161067800Y-92649999D02*
X161067800Y-93550001D01*
G75*
G02*
X160817801Y-93800000I-249999J0D01*
G01*
X160117799Y-93800000D01*
G75*
G02*
X159867800Y-93550001I0J249999D01*
G01*
X159867800Y-92649999D01*
G75*
G02*
X160117799Y-92400000I249999J0D01*
G01*
X160817801Y-92400000D01*
G75*
G02*
X161067800Y-92649999I0J-249999D01*
G01*
G37*
%TD*%
%TO.C,R10*%
G36*
G01*
X167309600Y-92749999D02*
X167309600Y-93650001D01*
G75*
G02*
X167059601Y-93900000I-249999J0D01*
G01*
X166359599Y-93900000D01*
G75*
G02*
X166109600Y-93650001I0J249999D01*
G01*
X166109600Y-92749999D01*
G75*
G02*
X166359599Y-92500000I249999J0D01*
G01*
X167059601Y-92500000D01*
G75*
G02*
X167309600Y-92749999I0J-249999D01*
G01*
G37*
G36*
G01*
X165309600Y-92749999D02*
X165309600Y-93650001D01*
G75*
G02*
X165059601Y-93900000I-249999J0D01*
G01*
X164359599Y-93900000D01*
G75*
G02*
X164109600Y-93650001I0J249999D01*
G01*
X164109600Y-92749999D01*
G75*
G02*
X164359599Y-92500000I249999J0D01*
G01*
X165059601Y-92500000D01*
G75*
G02*
X165309600Y-92749999I0J-249999D01*
G01*
G37*
%TD*%
%TO.C,R11*%
G36*
G01*
X162273401Y-68434000D02*
X161373399Y-68434000D01*
G75*
G02*
X161123400Y-68184001I0J249999D01*
G01*
X161123400Y-67483999D01*
G75*
G02*
X161373399Y-67234000I249999J0D01*
G01*
X162273401Y-67234000D01*
G75*
G02*
X162523400Y-67483999I0J-249999D01*
G01*
X162523400Y-68184001D01*
G75*
G02*
X162273401Y-68434000I-249999J0D01*
G01*
G37*
G36*
G01*
X162273401Y-70434000D02*
X161373399Y-70434000D01*
G75*
G02*
X161123400Y-70184001I0J249999D01*
G01*
X161123400Y-69483999D01*
G75*
G02*
X161373399Y-69234000I249999J0D01*
G01*
X162273401Y-69234000D01*
G75*
G02*
X162523400Y-69483999I0J-249999D01*
G01*
X162523400Y-70184001D01*
G75*
G02*
X162273401Y-70434000I-249999J0D01*
G01*
G37*
%TD*%
%TO.C,R12*%
G36*
G01*
X155505999Y-67961200D02*
X156406001Y-67961200D01*
G75*
G02*
X156656000Y-68211199I0J-249999D01*
G01*
X156656000Y-68911201D01*
G75*
G02*
X156406001Y-69161200I-249999J0D01*
G01*
X155505999Y-69161200D01*
G75*
G02*
X155256000Y-68911201I0J249999D01*
G01*
X155256000Y-68211199D01*
G75*
G02*
X155505999Y-67961200I249999J0D01*
G01*
G37*
G36*
G01*
X155505999Y-69961200D02*
X156406001Y-69961200D01*
G75*
G02*
X156656000Y-70211199I0J-249999D01*
G01*
X156656000Y-70911201D01*
G75*
G02*
X156406001Y-71161200I-249999J0D01*
G01*
X155505999Y-71161200D01*
G75*
G02*
X155256000Y-70911201I0J249999D01*
G01*
X155256000Y-70211199D01*
G75*
G02*
X155505999Y-69961200I249999J0D01*
G01*
G37*
%TD*%
D13*
%TO.C,SW1*%
X160100000Y-87900000D03*
X156700000Y-87900000D03*
%TD*%
%TO.C,SW2*%
X160200000Y-82400000D03*
X156800000Y-82400000D03*
%TD*%
M02*
